M48
; DRILL file {KiCad (5.1.12-1-10_14)} date 2021 December 05, Sunday 11:38:44
; FORMAT={-:-/ absolute / inch / decimal}
; #@! TF.CreationDate,2021-12-05T11:38:44+01:00
; #@! TF.GenerationSoftware,Kicad,Pcbnew,(5.1.12-1-10_14)
; #@! TF.FileFunction,Plated,1,2,PTH
FMAT,2
INCH
T1C0.0157
T2C0.0197
T3C0.0236
T4C0.0315
T5C0.0394
T6C0.0406
T7C0.0472
T8C0.0523
T9C0.1063
T10C0.1272
%
G90
G05
T1
X0.285Y-1.825
X0.385Y-0.67
X0.545Y-0.73
X0.61Y-1.475
X0.6106Y-0.4678
X0.675Y-2.015
X0.6898Y-1.7372
X0.7108Y-1.3219
X0.7115Y-1.3584
X0.7237Y-0.8662
X0.7242Y-1.8126
X0.7363Y-1.3852
X0.795Y-0.655
X0.8223Y-0.8316
X0.8278Y-1.5322
X0.83Y-1.305
X0.8372Y-0.4978
X0.8622Y-2.2153
X0.8646Y-1.1069
X0.8738Y-1.8047
X0.9103Y-0.6796
X0.9261Y-0.7913
X0.9568Y-1.01
X0.9665Y-1.0508
X0.9943Y-0.7904
X1.0Y-1.485
X1.0162Y-2.0493
X1.0651Y-0.4611
X1.1108Y-0.7526
X1.1263Y-0.5058
X1.1637Y-0.4621
X1.17Y-0.68
X1.21Y-0.775
X1.2232Y-1.6464
X1.2415Y-0.8487
X1.26Y-1.285
X1.3018Y-1.7608
X1.3746Y-0.571
X1.3803Y-0.5338
X1.46Y-1.775
X1.5054Y-1.2237
X1.5073Y-1.9285
X1.5154Y-0.3415
X1.5269Y-0.8707
X1.5341Y-1.2961
X1.5994Y-0.8447
X1.6151Y-0.4943
X1.6462Y-1.7476
X1.6657Y-1.0364
X1.6704Y-0.5059
X1.6743Y-0.3711
X1.6788Y-0.757
X1.6972Y-1.2978
X1.7278Y-0.4467
X1.7438Y-0.3714
X1.748Y-1.7744
X1.755Y-0.665
X1.7842Y-1.1475
X1.8067Y-1.1794
X1.8442Y-0.4696
X1.87Y-0.695
X1.9268Y-1.0678
X1.9313Y-1.0313
X1.951Y-0.4368
X1.9706Y-0.4689
X1.9825Y-1.3975
X2.09Y-0.65
X2.095Y-1.31
X2.1147Y-2.0451
X2.1415Y-0.6893
X2.165Y-0.78
X2.1913Y-1.9475
X2.2067Y-1.6592
X2.21Y-1.485
X2.29Y-1.31
X2.4269Y-0.4077
X2.4304Y-1.7542
X2.4984Y-0.8863
X2.5046Y-1.4854
X2.6238Y-0.8705
X2.624Y-0.8182
T2
X0.2352Y-0.2362
X0.2352Y-1.1417
X0.2352Y-2.1654
X0.2586Y-0.1798
X0.2586Y-0.2926
X0.2586Y-1.0854
X0.2586Y-1.1981
X0.2586Y-2.109
X0.2586Y-2.2217
X0.315Y-0.1565
X0.315Y-0.3159
X0.315Y-1.062
X0.315Y-1.2215
X0.315Y-2.0856
X0.315Y-2.2451
X0.3713Y-0.1798
X0.3713Y-0.2926
X0.3713Y-1.0854
X0.3713Y-1.1981
X0.3713Y-2.109
X0.3713Y-2.2217
X0.3947Y-0.2362
X0.3947Y-1.1417
X0.3947Y-2.1654
X2.5187Y-0.2362
X2.5187Y-1.1417
X2.5187Y-2.1654
X2.5421Y-0.1798
X2.5421Y-0.2926
X2.5421Y-1.0854
X2.5421Y-1.1981
X2.5421Y-2.109
X2.5421Y-2.2217
X2.5984Y-0.1565
X2.5984Y-0.3159
X2.5984Y-1.062
X2.5984Y-1.2215
X2.5984Y-2.0856
X2.5984Y-2.2451
X2.6548Y-0.1798
X2.6548Y-0.2926
X2.6548Y-1.0854
X2.6548Y-1.1981
X2.6548Y-2.109
X2.6548Y-2.2217
X2.6781Y-0.2362
X2.6781Y-1.1417
X2.6781Y-2.1654
T3
X0.693Y-0.4595
X0.9604Y-1.3504
X0.9684Y-1.1291
X1.1784Y-0.4025
X1.4306Y-0.7855
X1.805Y-1.48
X1.8258Y-1.255
X1.9Y-1.48
X1.9102Y-1.3456
X1.9555Y-0.7802
X2.0899Y-0.4624
X2.2447Y-1.0154
X2.2614Y-0.5016
X2.285Y-0.815
X2.38Y-0.815
X2.4309Y-1.0668
T4
X0.5107Y-2.1058
X0.5107Y-2.1846
X0.5894Y-2.1058
X0.5894Y-2.1846
X0.6682Y-2.1058
X0.6682Y-2.1846
X0.7469Y-2.1058
X0.7469Y-2.1846
X0.8257Y-2.1058
X0.8257Y-2.1846
X0.9044Y-2.1058
X0.9044Y-2.1846
X0.9831Y-2.1058
X0.9831Y-2.1846
X1.0619Y-2.1058
X1.0619Y-2.1846
X1.1406Y-2.1058
X1.1406Y-2.1846
X1.2194Y-2.1058
X1.2194Y-2.1846
X1.2981Y-2.1058
X1.2981Y-2.1846
X1.3769Y-2.1058
X1.3769Y-2.1846
X1.4556Y-2.1058
X1.4556Y-2.1846
X1.5343Y-2.1058
X1.5343Y-2.1846
X1.6131Y-2.1058
X1.6131Y-2.1846
X1.6918Y-2.1058
X1.6918Y-2.1846
X1.7706Y-2.1058
X1.7706Y-2.1846
X1.8493Y-2.1058
X1.8493Y-2.1846
X1.928Y-2.1058
X1.928Y-2.1846
X2.0068Y-2.1058
X2.0068Y-2.1846
X2.0855Y-2.1058
X2.0855Y-2.1846
X2.1643Y-2.1058
X2.1643Y-2.1846
X2.243Y-2.1058
X2.243Y-2.1846
X2.3217Y-2.1058
X2.3217Y-2.1846
X2.4005Y-2.1058
X2.4005Y-2.1846
X2.6705Y-1.7871
X2.6705Y-1.8658
X2.6705Y-1.9446
X2.6705Y-2.0233
T5
X0.2475Y-0.5358
X0.2475Y-0.6358
X0.2475Y-0.7358
X0.2475Y-0.8358
X0.2475Y-0.9358
X0.2546Y-1.5927
X0.2546Y-1.6927
X0.2591Y-0.4142
X0.265Y-1.311
X0.265Y-1.411
X0.3546Y-1.5927
X0.3546Y-1.6927
X0.3591Y-0.4142
X0.365Y-1.311
X0.365Y-1.411
X0.4546Y-1.5927
X0.4546Y-1.6927
X0.465Y-1.311
X0.465Y-1.411
X0.5067Y-0.1862
X0.5067Y-0.2862
X0.5546Y-1.5927
X0.5546Y-1.6927
X0.6067Y-0.1862
X0.6067Y-0.2862
X0.6546Y-1.5927
X0.6546Y-1.6927
X0.7067Y-0.1862
X0.7067Y-0.2862
X0.7546Y-1.5927
X0.7546Y-1.6927
X0.8067Y-0.1862
X0.8067Y-0.2862
X0.8546Y-1.5927
X0.8546Y-1.6927
X0.9067Y-0.1862
X0.9067Y-0.2862
X0.9546Y-1.5927
X0.9546Y-1.6927
X1.0067Y-0.1862
X1.0067Y-0.2862
X1.0546Y-1.5927
X1.0546Y-1.6927
X1.1067Y-0.1862
X1.1067Y-0.2862
X1.1546Y-1.5927
X1.1546Y-1.6927
X1.2067Y-0.1862
X1.2067Y-0.2862
X1.2546Y-1.5927
X1.2546Y-1.6927
X1.3067Y-0.1862
X1.3067Y-0.2862
X1.3546Y-1.5927
X1.3546Y-1.6927
X1.4067Y-0.1862
X1.4067Y-0.2862
X1.4546Y-1.5927
X1.4546Y-1.6927
X1.5067Y-0.1862
X1.5067Y-0.2862
X1.5546Y-1.5927
X1.5546Y-1.6927
X1.6067Y-0.1862
X1.6067Y-0.2862
X1.6546Y-1.5927
X1.6546Y-1.6927
X1.7067Y-0.1862
X1.7067Y-0.2862
X1.7546Y-1.5927
X1.7546Y-1.6927
X1.8067Y-0.1862
X1.8067Y-0.2862
X1.8546Y-1.5927
X1.8546Y-1.6927
X1.9067Y-0.1862
X1.9067Y-0.2862
X1.9546Y-1.5927
X1.9546Y-1.6927
X2.0067Y-0.1862
X2.0067Y-0.2862
X2.0546Y-1.5927
X2.0546Y-1.6927
X2.1067Y-0.1862
X2.1067Y-0.2862
X2.1546Y-1.5927
X2.1546Y-1.6927
X2.2067Y-0.1862
X2.2067Y-0.2862
X2.2546Y-1.5927
X2.2546Y-1.6927
X2.3067Y-0.1862
X2.3067Y-0.2862
X2.3546Y-1.5927
X2.3546Y-1.6927
X2.4067Y-0.1862
X2.4067Y-0.2862
X2.4135Y-1.2528
X2.4135Y-1.3528
X2.4546Y-1.5927
X2.4546Y-1.6927
X2.4971Y-0.4702
X2.4971Y-0.5702
X2.5546Y-1.5927
X2.5546Y-1.6927
X2.6546Y-1.5927
X2.6546Y-1.6927
T6
X0.8024Y-1.8752
X0.857Y-1.987
X0.9115Y-1.8752
X0.966Y-1.987
X1.0206Y-1.8752
X1.0751Y-1.987
X1.1296Y-1.8752
X1.1841Y-1.987
X1.2387Y-1.8752
X1.2932Y-1.987
X1.3477Y-1.8752
X1.4022Y-1.987
X1.4568Y-1.8752
X1.5113Y-1.987
X1.5658Y-1.8752
X1.6204Y-1.987
X1.6749Y-1.8752
X1.7294Y-1.987
X1.7839Y-1.8752
X1.8385Y-1.987
X1.893Y-1.8752
X1.9475Y-1.987
X2.002Y-1.8752
X2.0566Y-1.987
X2.1111Y-1.8752
T7
X1.4295Y-1.0796
X1.4295Y-1.178
X1.4295Y-1.2764
X1.4295Y-1.3748
T8
X2.5553Y-0.7041
X2.5553Y-0.9856
X2.6911Y-0.7041
X2.6911Y-0.9856
T9
X0.315Y-0.2362
X0.315Y-1.1417
X0.315Y-2.1654
X2.5984Y-0.2362
X2.5984Y-1.1417
X2.5984Y-2.1654
T10
X0.5308Y-1.9311
X2.3828Y-1.9311
T0
M30
