%TF.GenerationSoftware,KiCad,Pcbnew,(5.1.12-1-10_14)*%
%TF.CreationDate,2021-12-05T11:04:37+01:00*%
%TF.ProjectId,rascsi_2p4,72617363-7369-45f3-9270-342e6b696361,rev?*%
%TF.SameCoordinates,Original*%
%TF.FileFunction,Legend,Bot*%
%TF.FilePolarity,Positive*%
%FSLAX46Y46*%
G04 Gerber Fmt 4.6, Leading zero omitted, Abs format (unit mm)*
G04 Created by KiCad (PCBNEW (5.1.12-1-10_14)) date 2021-12-05 11:04:37*
%MOMM*%
%LPD*%
G01*
G04 APERTURE LIST*
%ADD10C,0.150000*%
%ADD11C,0.120000*%
%ADD12C,0.230000*%
%ADD13C,0.400000*%
%TA.AperFunction,Profile*%
%ADD14C,0.050000*%
%TD*%
%ADD15C,0.100000*%
G04 APERTURE END LIST*
D10*
X58914523Y-34165000D02*
X58990714Y-34126904D01*
X59105000Y-34126904D01*
X59219285Y-34165000D01*
X59295476Y-34241190D01*
X59333571Y-34317380D01*
X59371666Y-34469761D01*
X59371666Y-34584047D01*
X59333571Y-34736428D01*
X59295476Y-34812619D01*
X59219285Y-34888809D01*
X59105000Y-34926904D01*
X59028809Y-34926904D01*
X58914523Y-34888809D01*
X58876428Y-34850714D01*
X58876428Y-34584047D01*
X59028809Y-34584047D01*
X58533571Y-34926904D02*
X58533571Y-34126904D01*
X58076428Y-34926904D01*
X58076428Y-34126904D01*
X57695476Y-34926904D02*
X57695476Y-34126904D01*
X57505000Y-34126904D01*
X57390714Y-34165000D01*
X57314523Y-34241190D01*
X57276428Y-34317380D01*
X57238333Y-34469761D01*
X57238333Y-34584047D01*
X57276428Y-34736428D01*
X57314523Y-34812619D01*
X57390714Y-34888809D01*
X57505000Y-34926904D01*
X57695476Y-34926904D01*
X59447285Y-31358304D02*
X58990142Y-31358304D01*
X59218714Y-32158304D02*
X59218714Y-31358304D01*
X58418714Y-32120209D02*
X58494904Y-32158304D01*
X58647285Y-32158304D01*
X58723476Y-32120209D01*
X58761571Y-32044019D01*
X58761571Y-31739257D01*
X58723476Y-31663066D01*
X58647285Y-31624971D01*
X58494904Y-31624971D01*
X58418714Y-31663066D01*
X58380619Y-31739257D01*
X58380619Y-31815447D01*
X58761571Y-31891638D01*
X58037761Y-32158304D02*
X58037761Y-31624971D01*
X58037761Y-31777352D02*
X57999666Y-31701161D01*
X57961571Y-31663066D01*
X57885380Y-31624971D01*
X57809190Y-31624971D01*
X57542523Y-32158304D02*
X57542523Y-31624971D01*
X57542523Y-31701161D02*
X57504428Y-31663066D01*
X57428238Y-31624971D01*
X57313952Y-31624971D01*
X57237761Y-31663066D01*
X57199666Y-31739257D01*
X57199666Y-32158304D01*
X57199666Y-31739257D02*
X57161571Y-31663066D01*
X57085380Y-31624971D01*
X56971095Y-31624971D01*
X56894904Y-31663066D01*
X56856809Y-31739257D01*
X56856809Y-32158304D01*
X56475857Y-32158304D02*
X56475857Y-31624971D01*
X56475857Y-31358304D02*
X56513952Y-31396400D01*
X56475857Y-31434495D01*
X56437761Y-31396400D01*
X56475857Y-31358304D01*
X56475857Y-31434495D01*
X56094904Y-31624971D02*
X56094904Y-32158304D01*
X56094904Y-31701161D02*
X56056809Y-31663066D01*
X55980619Y-31624971D01*
X55866333Y-31624971D01*
X55790142Y-31663066D01*
X55752047Y-31739257D01*
X55752047Y-32158304D01*
X55028238Y-32158304D02*
X55028238Y-31739257D01*
X55066333Y-31663066D01*
X55142523Y-31624971D01*
X55294904Y-31624971D01*
X55371095Y-31663066D01*
X55028238Y-32120209D02*
X55104428Y-32158304D01*
X55294904Y-32158304D01*
X55371095Y-32120209D01*
X55409190Y-32044019D01*
X55409190Y-31967828D01*
X55371095Y-31891638D01*
X55294904Y-31853542D01*
X55104428Y-31853542D01*
X55028238Y-31815447D01*
X54761571Y-31624971D02*
X54456809Y-31624971D01*
X54647285Y-31358304D02*
X54647285Y-32044019D01*
X54609190Y-32120209D01*
X54533000Y-32158304D01*
X54456809Y-32158304D01*
X54190142Y-32158304D02*
X54190142Y-31624971D01*
X54190142Y-31358304D02*
X54228238Y-31396400D01*
X54190142Y-31434495D01*
X54152047Y-31396400D01*
X54190142Y-31358304D01*
X54190142Y-31434495D01*
X53694904Y-32158304D02*
X53771095Y-32120209D01*
X53809190Y-32082114D01*
X53847285Y-32005923D01*
X53847285Y-31777352D01*
X53809190Y-31701161D01*
X53771095Y-31663066D01*
X53694904Y-31624971D01*
X53580619Y-31624971D01*
X53504428Y-31663066D01*
X53466333Y-31701161D01*
X53428238Y-31777352D01*
X53428238Y-32005923D01*
X53466333Y-32082114D01*
X53504428Y-32120209D01*
X53580619Y-32158304D01*
X53694904Y-32158304D01*
X53085380Y-31624971D02*
X53085380Y-32158304D01*
X53085380Y-31701161D02*
X53047285Y-31663066D01*
X52971095Y-31624971D01*
X52856809Y-31624971D01*
X52780619Y-31663066D01*
X52742523Y-31739257D01*
X52742523Y-32158304D01*
X51752047Y-31739257D02*
X51485380Y-31739257D01*
X51371095Y-32158304D02*
X51752047Y-32158304D01*
X51752047Y-31358304D01*
X51371095Y-31358304D01*
X51028238Y-31624971D02*
X51028238Y-32158304D01*
X51028238Y-31701161D02*
X50990142Y-31663066D01*
X50913952Y-31624971D01*
X50799666Y-31624971D01*
X50723476Y-31663066D01*
X50685380Y-31739257D01*
X50685380Y-32158304D01*
X49961571Y-32158304D02*
X49961571Y-31739257D01*
X49999666Y-31663066D01*
X50075857Y-31624971D01*
X50228238Y-31624971D01*
X50304428Y-31663066D01*
X49961571Y-32120209D02*
X50037761Y-32158304D01*
X50228238Y-32158304D01*
X50304428Y-32120209D01*
X50342523Y-32044019D01*
X50342523Y-31967828D01*
X50304428Y-31891638D01*
X50228238Y-31853542D01*
X50037761Y-31853542D01*
X49961571Y-31815447D01*
X49580619Y-32158304D02*
X49580619Y-31358304D01*
X49580619Y-31663066D02*
X49504428Y-31624971D01*
X49352047Y-31624971D01*
X49275857Y-31663066D01*
X49237761Y-31701161D01*
X49199666Y-31777352D01*
X49199666Y-32005923D01*
X49237761Y-32082114D01*
X49275857Y-32120209D01*
X49352047Y-32158304D01*
X49504428Y-32158304D01*
X49580619Y-32120209D01*
X48742523Y-32158304D02*
X48818714Y-32120209D01*
X48856809Y-32044019D01*
X48856809Y-31358304D01*
X48133000Y-32120209D02*
X48209190Y-32158304D01*
X48361571Y-32158304D01*
X48437761Y-32120209D01*
X48475857Y-32044019D01*
X48475857Y-31739257D01*
X48437761Y-31663066D01*
X48361571Y-31624971D01*
X48209190Y-31624971D01*
X48133000Y-31663066D01*
X48094904Y-31739257D01*
X48094904Y-31815447D01*
X48475857Y-31891638D01*
X65758380Y-45312476D02*
X66472666Y-45312476D01*
X66615523Y-45264857D01*
X66710761Y-45169619D01*
X66758380Y-45026761D01*
X66758380Y-44931523D01*
X66758380Y-46312476D02*
X66758380Y-45741047D01*
X66758380Y-46026761D02*
X65758380Y-46026761D01*
X65901238Y-45931523D01*
X65996476Y-45836285D01*
X66044095Y-45741047D01*
X65758380Y-46931523D02*
X65758380Y-47026761D01*
X65806000Y-47122000D01*
X65853619Y-47169619D01*
X65948857Y-47217238D01*
X66139333Y-47264857D01*
X66377428Y-47264857D01*
X66567904Y-47217238D01*
X66663142Y-47169619D01*
X66710761Y-47122000D01*
X66758380Y-47026761D01*
X66758380Y-46931523D01*
X66710761Y-46836285D01*
X66663142Y-46788666D01*
X66567904Y-46741047D01*
X66377428Y-46693428D01*
X66139333Y-46693428D01*
X65948857Y-46741047D01*
X65853619Y-46788666D01*
X65806000Y-46836285D01*
X65758380Y-46931523D01*
X56733333Y-51162380D02*
X56733333Y-51876666D01*
X56780952Y-52019523D01*
X56876190Y-52114761D01*
X57019047Y-52162380D01*
X57114285Y-52162380D01*
X56209523Y-52162380D02*
X56019047Y-52162380D01*
X55923809Y-52114761D01*
X55876190Y-52067142D01*
X55780952Y-51924285D01*
X55733333Y-51733809D01*
X55733333Y-51352857D01*
X55780952Y-51257619D01*
X55828571Y-51210000D01*
X55923809Y-51162380D01*
X56114285Y-51162380D01*
X56209523Y-51210000D01*
X56257142Y-51257619D01*
X56304761Y-51352857D01*
X56304761Y-51590952D01*
X56257142Y-51686190D01*
X56209523Y-51733809D01*
X56114285Y-51781428D01*
X55923809Y-51781428D01*
X55828571Y-51733809D01*
X55780952Y-51686190D01*
X55733333Y-51590952D01*
D11*
X33794000Y-54504000D02*
X33794000Y-52472000D01*
X36080000Y-54504000D02*
X33794000Y-54504000D01*
X36080000Y-52472000D02*
X36080000Y-54504000D01*
X33794000Y-52472000D02*
X36080000Y-52472000D01*
X34048000Y-54250000D02*
X34048000Y-52726000D01*
X35826000Y-54250000D02*
X34048000Y-54250000D01*
X35826000Y-52726000D02*
X35826000Y-54250000D01*
X34048000Y-52726000D02*
X35826000Y-52726000D01*
X51828000Y-52218000D02*
X54114000Y-52218000D01*
X51828000Y-56790000D02*
X51828000Y-52218000D01*
X54114000Y-56790000D02*
X51828000Y-56790000D01*
X54114000Y-52218000D02*
X54114000Y-56790000D01*
X52082000Y-56536000D02*
X52082000Y-52472000D01*
X53860000Y-56536000D02*
X52082000Y-56536000D01*
X53860000Y-52472000D02*
X53860000Y-56536000D01*
X52082000Y-52472000D02*
X53860000Y-52472000D01*
D10*
X27850285Y-52097333D02*
X27469333Y-52097333D01*
X27926476Y-52325904D02*
X27659809Y-51525904D01*
X27393142Y-52325904D01*
X27240761Y-51525904D02*
X26783619Y-51525904D01*
X27012190Y-52325904D02*
X27012190Y-51525904D01*
X26516952Y-52325904D02*
X26516952Y-51525904D01*
X26059809Y-52325904D01*
X26059809Y-51525904D01*
X23310095Y-52325904D02*
X23576761Y-51944952D01*
X23767238Y-52325904D02*
X23767238Y-51525904D01*
X23462476Y-51525904D01*
X23386285Y-51564000D01*
X23348190Y-51602095D01*
X23310095Y-51678285D01*
X23310095Y-51792571D01*
X23348190Y-51868761D01*
X23386285Y-51906857D01*
X23462476Y-51944952D01*
X23767238Y-51944952D01*
X23005333Y-52287809D02*
X22891047Y-52325904D01*
X22700571Y-52325904D01*
X22624380Y-52287809D01*
X22586285Y-52249714D01*
X22548190Y-52173523D01*
X22548190Y-52097333D01*
X22586285Y-52021142D01*
X22624380Y-51983047D01*
X22700571Y-51944952D01*
X22852952Y-51906857D01*
X22929142Y-51868761D01*
X22967238Y-51830666D01*
X23005333Y-51754476D01*
X23005333Y-51678285D01*
X22967238Y-51602095D01*
X22929142Y-51564000D01*
X22852952Y-51525904D01*
X22662476Y-51525904D01*
X22548190Y-51564000D01*
X22319619Y-51525904D02*
X21862476Y-51525904D01*
X22091047Y-52325904D02*
X22091047Y-51525904D01*
X19481047Y-52325904D02*
X19481047Y-51525904D01*
X18947714Y-51525904D02*
X18795333Y-51525904D01*
X18719142Y-51564000D01*
X18642952Y-51640190D01*
X18604857Y-51792571D01*
X18604857Y-52059238D01*
X18642952Y-52211619D01*
X18719142Y-52287809D01*
X18795333Y-52325904D01*
X18947714Y-52325904D01*
X19023904Y-52287809D01*
X19100095Y-52211619D01*
X19138190Y-52059238D01*
X19138190Y-51792571D01*
X19100095Y-51640190D01*
X19023904Y-51564000D01*
X18947714Y-51525904D01*
X11810285Y-51779904D02*
X12191238Y-51779904D01*
X12229333Y-52160857D01*
X12191238Y-52122761D01*
X12115047Y-52084666D01*
X11924571Y-52084666D01*
X11848380Y-52122761D01*
X11810285Y-52160857D01*
X11772190Y-52237047D01*
X11772190Y-52427523D01*
X11810285Y-52503714D01*
X11848380Y-52541809D01*
X11924571Y-52579904D01*
X12115047Y-52579904D01*
X12191238Y-52541809D01*
X12229333Y-52503714D01*
X11505523Y-52046571D02*
X11315047Y-52579904D01*
X11124571Y-52046571D01*
X50926285Y-51525904D02*
X51307238Y-51525904D01*
X51345333Y-51906857D01*
X51307238Y-51868761D01*
X51231047Y-51830666D01*
X51040571Y-51830666D01*
X50964380Y-51868761D01*
X50926285Y-51906857D01*
X50888190Y-51983047D01*
X50888190Y-52173523D01*
X50926285Y-52249714D01*
X50964380Y-52287809D01*
X51040571Y-52325904D01*
X51231047Y-52325904D01*
X51307238Y-52287809D01*
X51345333Y-52249714D01*
X50621523Y-51792571D02*
X50431047Y-52325904D01*
X50240571Y-51792571D01*
X55390285Y-57659904D02*
X55771238Y-57659904D01*
X55771238Y-56859904D01*
X55123619Y-57240857D02*
X54856952Y-57240857D01*
X54742666Y-57659904D02*
X55123619Y-57659904D01*
X55123619Y-56859904D01*
X54742666Y-56859904D01*
X54399809Y-57659904D02*
X54399809Y-56859904D01*
X54209333Y-56859904D01*
X54095047Y-56898000D01*
X54018857Y-56974190D01*
X53980761Y-57050380D01*
X53942666Y-57202761D01*
X53942666Y-57317047D01*
X53980761Y-57469428D01*
X54018857Y-57545619D01*
X54095047Y-57621809D01*
X54209333Y-57659904D01*
X54399809Y-57659904D01*
X51180285Y-56859904D02*
X51561238Y-56859904D01*
X51599333Y-57240857D01*
X51561238Y-57202761D01*
X51485047Y-57164666D01*
X51294571Y-57164666D01*
X51218380Y-57202761D01*
X51180285Y-57240857D01*
X51142190Y-57317047D01*
X51142190Y-57507523D01*
X51180285Y-57583714D01*
X51218380Y-57621809D01*
X51294571Y-57659904D01*
X51485047Y-57659904D01*
X51561238Y-57621809D01*
X51599333Y-57583714D01*
X50875523Y-57126571D02*
X50685047Y-57659904D01*
X50494571Y-57126571D01*
X13080285Y-56859904D02*
X13461238Y-56859904D01*
X13499333Y-57240857D01*
X13461238Y-57202761D01*
X13385047Y-57164666D01*
X13194571Y-57164666D01*
X13118380Y-57202761D01*
X13080285Y-57240857D01*
X13042190Y-57317047D01*
X13042190Y-57507523D01*
X13080285Y-57583714D01*
X13118380Y-57621809D01*
X13194571Y-57659904D01*
X13385047Y-57659904D01*
X13461238Y-57621809D01*
X13499333Y-57583714D01*
X12775523Y-57126571D02*
X12585047Y-57659904D01*
X12394571Y-57126571D01*
X17201428Y-57659904D02*
X17468095Y-57278952D01*
X17658571Y-57659904D02*
X17658571Y-56859904D01*
X17353809Y-56859904D01*
X17277619Y-56898000D01*
X17239523Y-56936095D01*
X17201428Y-57012285D01*
X17201428Y-57126571D01*
X17239523Y-57202761D01*
X17277619Y-57240857D01*
X17353809Y-57278952D01*
X17658571Y-57278952D01*
X16325238Y-57736095D02*
X16401428Y-57698000D01*
X16477619Y-57621809D01*
X16591904Y-57507523D01*
X16668095Y-57469428D01*
X16744285Y-57469428D01*
X16706190Y-57659904D02*
X16782380Y-57621809D01*
X16858571Y-57545619D01*
X16896666Y-57393238D01*
X16896666Y-57126571D01*
X16858571Y-56974190D01*
X16782380Y-56898000D01*
X16706190Y-56859904D01*
X16553809Y-56859904D01*
X16477619Y-56898000D01*
X16401428Y-56974190D01*
X16363333Y-57126571D01*
X16363333Y-57393238D01*
X16401428Y-57545619D01*
X16477619Y-57621809D01*
X16553809Y-57659904D01*
X16706190Y-57659904D01*
X18960380Y-57583714D02*
X18998476Y-57621809D01*
X19112761Y-57659904D01*
X19188952Y-57659904D01*
X19303238Y-57621809D01*
X19379428Y-57545619D01*
X19417523Y-57469428D01*
X19455619Y-57317047D01*
X19455619Y-57202761D01*
X19417523Y-57050380D01*
X19379428Y-56974190D01*
X19303238Y-56898000D01*
X19188952Y-56859904D01*
X19112761Y-56859904D01*
X18998476Y-56898000D01*
X18960380Y-56936095D01*
X18617523Y-57659904D02*
X18617523Y-56859904D01*
X18427047Y-56859904D01*
X18312761Y-56898000D01*
X18236571Y-56974190D01*
X18198476Y-57050380D01*
X18160380Y-57202761D01*
X18160380Y-57317047D01*
X18198476Y-57469428D01*
X18236571Y-57545619D01*
X18312761Y-57621809D01*
X18427047Y-57659904D01*
X18617523Y-57659904D01*
X21392380Y-57621809D02*
X21278095Y-57659904D01*
X21087619Y-57659904D01*
X21011428Y-57621809D01*
X20973333Y-57583714D01*
X20935238Y-57507523D01*
X20935238Y-57431333D01*
X20973333Y-57355142D01*
X21011428Y-57317047D01*
X21087619Y-57278952D01*
X21240000Y-57240857D01*
X21316190Y-57202761D01*
X21354285Y-57164666D01*
X21392380Y-57088476D01*
X21392380Y-57012285D01*
X21354285Y-56936095D01*
X21316190Y-56898000D01*
X21240000Y-56859904D01*
X21049523Y-56859904D01*
X20935238Y-56898000D01*
X20211428Y-57659904D02*
X20592380Y-57659904D01*
X20592380Y-56859904D01*
X23538666Y-57659904D02*
X23538666Y-56859904D01*
X23272000Y-57431333D01*
X23005333Y-56859904D01*
X23005333Y-57659904D01*
X22205333Y-56898000D02*
X22281523Y-56859904D01*
X22395809Y-56859904D01*
X22510095Y-56898000D01*
X22586285Y-56974190D01*
X22624380Y-57050380D01*
X22662476Y-57202761D01*
X22662476Y-57317047D01*
X22624380Y-57469428D01*
X22586285Y-57545619D01*
X22510095Y-57621809D01*
X22395809Y-57659904D01*
X22319619Y-57659904D01*
X22205333Y-57621809D01*
X22167238Y-57583714D01*
X22167238Y-57317047D01*
X22319619Y-57317047D01*
X25494476Y-57431333D02*
X25113523Y-57431333D01*
X25570666Y-57659904D02*
X25304000Y-56859904D01*
X25037333Y-57659904D01*
X24770666Y-57659904D02*
X24770666Y-56859904D01*
X24313523Y-57659904D02*
X24656380Y-57202761D01*
X24313523Y-56859904D02*
X24770666Y-57317047D01*
X27221714Y-57240857D02*
X27107428Y-57278952D01*
X27069333Y-57317047D01*
X27031238Y-57393238D01*
X27031238Y-57507523D01*
X27069333Y-57583714D01*
X27107428Y-57621809D01*
X27183619Y-57659904D01*
X27488380Y-57659904D01*
X27488380Y-56859904D01*
X27221714Y-56859904D01*
X27145523Y-56898000D01*
X27107428Y-56936095D01*
X27069333Y-57012285D01*
X27069333Y-57088476D01*
X27107428Y-57164666D01*
X27145523Y-57202761D01*
X27221714Y-57240857D01*
X27488380Y-57240857D01*
X26536000Y-57278952D02*
X26536000Y-57659904D01*
X26802666Y-56859904D02*
X26536000Y-57278952D01*
X26269333Y-56859904D01*
X47338476Y-57659904D02*
X47338476Y-56859904D01*
X47148000Y-56859904D01*
X47033714Y-56898000D01*
X46957523Y-56974190D01*
X46919428Y-57050380D01*
X46881333Y-57202761D01*
X46881333Y-57317047D01*
X46919428Y-57469428D01*
X46957523Y-57545619D01*
X47033714Y-57621809D01*
X47148000Y-57659904D01*
X47338476Y-57659904D01*
X46386095Y-56859904D02*
X46309904Y-56859904D01*
X46233714Y-56898000D01*
X46195619Y-56936095D01*
X46157523Y-57012285D01*
X46119428Y-57164666D01*
X46119428Y-57355142D01*
X46157523Y-57507523D01*
X46195619Y-57583714D01*
X46233714Y-57621809D01*
X46309904Y-57659904D01*
X46386095Y-57659904D01*
X46462285Y-57621809D01*
X46500380Y-57583714D01*
X46538476Y-57507523D01*
X46576571Y-57355142D01*
X46576571Y-57164666D01*
X46538476Y-57012285D01*
X46500380Y-56936095D01*
X46462285Y-56898000D01*
X46386095Y-56859904D01*
X45560476Y-57659904D02*
X45560476Y-56859904D01*
X45370000Y-56859904D01*
X45255714Y-56898000D01*
X45179523Y-56974190D01*
X45141428Y-57050380D01*
X45103333Y-57202761D01*
X45103333Y-57317047D01*
X45141428Y-57469428D01*
X45179523Y-57545619D01*
X45255714Y-57621809D01*
X45370000Y-57659904D01*
X45560476Y-57659904D01*
X44341428Y-57659904D02*
X44798571Y-57659904D01*
X44570000Y-57659904D02*
X44570000Y-56859904D01*
X44646190Y-56974190D01*
X44722380Y-57050380D01*
X44798571Y-57088476D01*
X43528476Y-57659904D02*
X43528476Y-56859904D01*
X43338000Y-56859904D01*
X43223714Y-56898000D01*
X43147523Y-56974190D01*
X43109428Y-57050380D01*
X43071333Y-57202761D01*
X43071333Y-57317047D01*
X43109428Y-57469428D01*
X43147523Y-57545619D01*
X43223714Y-57621809D01*
X43338000Y-57659904D01*
X43528476Y-57659904D01*
X42766571Y-56936095D02*
X42728476Y-56898000D01*
X42652285Y-56859904D01*
X42461809Y-56859904D01*
X42385619Y-56898000D01*
X42347523Y-56936095D01*
X42309428Y-57012285D01*
X42309428Y-57088476D01*
X42347523Y-57202761D01*
X42804666Y-57659904D01*
X42309428Y-57659904D01*
X41496476Y-57659904D02*
X41496476Y-56859904D01*
X41306000Y-56859904D01*
X41191714Y-56898000D01*
X41115523Y-56974190D01*
X41077428Y-57050380D01*
X41039333Y-57202761D01*
X41039333Y-57317047D01*
X41077428Y-57469428D01*
X41115523Y-57545619D01*
X41191714Y-57621809D01*
X41306000Y-57659904D01*
X41496476Y-57659904D01*
X40772666Y-56859904D02*
X40277428Y-56859904D01*
X40544095Y-57164666D01*
X40429809Y-57164666D01*
X40353619Y-57202761D01*
X40315523Y-57240857D01*
X40277428Y-57317047D01*
X40277428Y-57507523D01*
X40315523Y-57583714D01*
X40353619Y-57621809D01*
X40429809Y-57659904D01*
X40658380Y-57659904D01*
X40734571Y-57621809D01*
X40772666Y-57583714D01*
X39464476Y-57659904D02*
X39464476Y-56859904D01*
X39274000Y-56859904D01*
X39159714Y-56898000D01*
X39083523Y-56974190D01*
X39045428Y-57050380D01*
X39007333Y-57202761D01*
X39007333Y-57317047D01*
X39045428Y-57469428D01*
X39083523Y-57545619D01*
X39159714Y-57621809D01*
X39274000Y-57659904D01*
X39464476Y-57659904D01*
X38321619Y-57126571D02*
X38321619Y-57659904D01*
X38512095Y-56821809D02*
X38702571Y-57393238D01*
X38207333Y-57393238D01*
X37432476Y-57659904D02*
X37432476Y-56859904D01*
X37242000Y-56859904D01*
X37127714Y-56898000D01*
X37051523Y-56974190D01*
X37013428Y-57050380D01*
X36975333Y-57202761D01*
X36975333Y-57317047D01*
X37013428Y-57469428D01*
X37051523Y-57545619D01*
X37127714Y-57621809D01*
X37242000Y-57659904D01*
X37432476Y-57659904D01*
X36251523Y-56859904D02*
X36632476Y-56859904D01*
X36670571Y-57240857D01*
X36632476Y-57202761D01*
X36556285Y-57164666D01*
X36365809Y-57164666D01*
X36289619Y-57202761D01*
X36251523Y-57240857D01*
X36213428Y-57317047D01*
X36213428Y-57507523D01*
X36251523Y-57583714D01*
X36289619Y-57621809D01*
X36365809Y-57659904D01*
X36556285Y-57659904D01*
X36632476Y-57621809D01*
X36670571Y-57583714D01*
X35400476Y-57659904D02*
X35400476Y-56859904D01*
X35210000Y-56859904D01*
X35095714Y-56898000D01*
X35019523Y-56974190D01*
X34981428Y-57050380D01*
X34943333Y-57202761D01*
X34943333Y-57317047D01*
X34981428Y-57469428D01*
X35019523Y-57545619D01*
X35095714Y-57621809D01*
X35210000Y-57659904D01*
X35400476Y-57659904D01*
X34257619Y-56859904D02*
X34410000Y-56859904D01*
X34486190Y-56898000D01*
X34524285Y-56936095D01*
X34600476Y-57050380D01*
X34638571Y-57202761D01*
X34638571Y-57507523D01*
X34600476Y-57583714D01*
X34562380Y-57621809D01*
X34486190Y-57659904D01*
X34333809Y-57659904D01*
X34257619Y-57621809D01*
X34219523Y-57583714D01*
X34181428Y-57507523D01*
X34181428Y-57317047D01*
X34219523Y-57240857D01*
X34257619Y-57202761D01*
X34333809Y-57164666D01*
X34486190Y-57164666D01*
X34562380Y-57202761D01*
X34600476Y-57240857D01*
X34638571Y-57317047D01*
X33368476Y-57659904D02*
X33368476Y-56859904D01*
X33178000Y-56859904D01*
X33063714Y-56898000D01*
X32987523Y-56974190D01*
X32949428Y-57050380D01*
X32911333Y-57202761D01*
X32911333Y-57317047D01*
X32949428Y-57469428D01*
X32987523Y-57545619D01*
X33063714Y-57621809D01*
X33178000Y-57659904D01*
X33368476Y-57659904D01*
X32644666Y-56859904D02*
X32111333Y-56859904D01*
X32454190Y-57659904D01*
X31609523Y-57659904D02*
X31609523Y-56859904D01*
X31419047Y-56859904D01*
X31304761Y-56898000D01*
X31228571Y-56974190D01*
X31190476Y-57050380D01*
X31152380Y-57202761D01*
X31152380Y-57317047D01*
X31190476Y-57469428D01*
X31228571Y-57545619D01*
X31304761Y-57621809D01*
X31419047Y-57659904D01*
X31609523Y-57659904D01*
X30809523Y-57659904D02*
X30809523Y-56859904D01*
X30504761Y-56859904D01*
X30428571Y-56898000D01*
X30390476Y-56936095D01*
X30352380Y-57012285D01*
X30352380Y-57126571D01*
X30390476Y-57202761D01*
X30428571Y-57240857D01*
X30504761Y-57278952D01*
X30809523Y-57278952D01*
X48602095Y-46483904D02*
X48602095Y-45683904D01*
X47649714Y-45645809D02*
X48335428Y-46674380D01*
X47230666Y-45683904D02*
X47078285Y-45683904D01*
X47002095Y-45722000D01*
X46925904Y-45798190D01*
X46887809Y-45950571D01*
X46887809Y-46217238D01*
X46925904Y-46369619D01*
X47002095Y-46445809D01*
X47078285Y-46483904D01*
X47230666Y-46483904D01*
X47306857Y-46445809D01*
X47383047Y-46369619D01*
X47421142Y-46217238D01*
X47421142Y-45950571D01*
X47383047Y-45798190D01*
X47306857Y-45722000D01*
X47230666Y-45683904D01*
X45703095Y-46483904D02*
X45969761Y-46102952D01*
X46160238Y-46483904D02*
X46160238Y-45683904D01*
X45855476Y-45683904D01*
X45779285Y-45722000D01*
X45741190Y-45760095D01*
X45703095Y-45836285D01*
X45703095Y-45950571D01*
X45741190Y-46026761D01*
X45779285Y-46064857D01*
X45855476Y-46102952D01*
X46160238Y-46102952D01*
X45398333Y-46445809D02*
X45284047Y-46483904D01*
X45093571Y-46483904D01*
X45017380Y-46445809D01*
X44979285Y-46407714D01*
X44941190Y-46331523D01*
X44941190Y-46255333D01*
X44979285Y-46179142D01*
X45017380Y-46141047D01*
X45093571Y-46102952D01*
X45245952Y-46064857D01*
X45322142Y-46026761D01*
X45360238Y-45988666D01*
X45398333Y-45912476D01*
X45398333Y-45836285D01*
X45360238Y-45760095D01*
X45322142Y-45722000D01*
X45245952Y-45683904D01*
X45055476Y-45683904D01*
X44941190Y-45722000D01*
X44712619Y-45683904D02*
X44255476Y-45683904D01*
X44484047Y-46483904D02*
X44484047Y-45683904D01*
X39280285Y-49239809D02*
X39166000Y-49277904D01*
X38975523Y-49277904D01*
X38899333Y-49239809D01*
X38861238Y-49201714D01*
X38823142Y-49125523D01*
X38823142Y-49049333D01*
X38861238Y-48973142D01*
X38899333Y-48935047D01*
X38975523Y-48896952D01*
X39127904Y-48858857D01*
X39204095Y-48820761D01*
X39242190Y-48782666D01*
X39280285Y-48706476D01*
X39280285Y-48630285D01*
X39242190Y-48554095D01*
X39204095Y-48516000D01*
X39127904Y-48477904D01*
X38937428Y-48477904D01*
X38823142Y-48516000D01*
X38480285Y-48858857D02*
X38213619Y-48858857D01*
X38099333Y-49277904D02*
X38480285Y-49277904D01*
X38480285Y-48477904D01*
X38099333Y-48477904D01*
X37375523Y-49277904D02*
X37756476Y-49277904D01*
X37756476Y-48477904D01*
X34806476Y-46483904D02*
X34806476Y-45683904D01*
X34616000Y-45683904D01*
X34501714Y-45722000D01*
X34425523Y-45798190D01*
X34387428Y-45874380D01*
X34349333Y-46026761D01*
X34349333Y-46141047D01*
X34387428Y-46293428D01*
X34425523Y-46369619D01*
X34501714Y-46445809D01*
X34616000Y-46483904D01*
X34806476Y-46483904D01*
X33854095Y-45683904D02*
X33777904Y-45683904D01*
X33701714Y-45722000D01*
X33663619Y-45760095D01*
X33625523Y-45836285D01*
X33587428Y-45988666D01*
X33587428Y-46179142D01*
X33625523Y-46331523D01*
X33663619Y-46407714D01*
X33701714Y-46445809D01*
X33777904Y-46483904D01*
X33854095Y-46483904D01*
X33930285Y-46445809D01*
X33968380Y-46407714D01*
X34006476Y-46331523D01*
X34044571Y-46179142D01*
X34044571Y-45988666D01*
X34006476Y-45836285D01*
X33968380Y-45760095D01*
X33930285Y-45722000D01*
X33854095Y-45683904D01*
X26510476Y-46483904D02*
X26510476Y-45683904D01*
X26320000Y-45683904D01*
X26205714Y-45722000D01*
X26129523Y-45798190D01*
X26091428Y-45874380D01*
X26053333Y-46026761D01*
X26053333Y-46141047D01*
X26091428Y-46293428D01*
X26129523Y-46369619D01*
X26205714Y-46445809D01*
X26320000Y-46483904D01*
X26510476Y-46483904D01*
X25329523Y-45683904D02*
X25710476Y-45683904D01*
X25748571Y-46064857D01*
X25710476Y-46026761D01*
X25634285Y-45988666D01*
X25443809Y-45988666D01*
X25367619Y-46026761D01*
X25329523Y-46064857D01*
X25291428Y-46141047D01*
X25291428Y-46331523D01*
X25329523Y-46407714D01*
X25367619Y-46445809D01*
X25443809Y-46483904D01*
X25634285Y-46483904D01*
X25710476Y-46445809D01*
X25748571Y-46407714D01*
X40302666Y-46064857D02*
X40188380Y-46102952D01*
X40150285Y-46141047D01*
X40112190Y-46217238D01*
X40112190Y-46331523D01*
X40150285Y-46407714D01*
X40188380Y-46445809D01*
X40264571Y-46483904D01*
X40569333Y-46483904D01*
X40569333Y-45683904D01*
X40302666Y-45683904D01*
X40226476Y-45722000D01*
X40188380Y-45760095D01*
X40150285Y-45836285D01*
X40150285Y-45912476D01*
X40188380Y-45988666D01*
X40226476Y-46026761D01*
X40302666Y-46064857D01*
X40569333Y-46064857D01*
X39807428Y-46445809D02*
X39693142Y-46483904D01*
X39502666Y-46483904D01*
X39426476Y-46445809D01*
X39388380Y-46407714D01*
X39350285Y-46331523D01*
X39350285Y-46255333D01*
X39388380Y-46179142D01*
X39426476Y-46141047D01*
X39502666Y-46102952D01*
X39655047Y-46064857D01*
X39731238Y-46026761D01*
X39769333Y-45988666D01*
X39807428Y-45912476D01*
X39807428Y-45836285D01*
X39769333Y-45760095D01*
X39731238Y-45722000D01*
X39655047Y-45683904D01*
X39464571Y-45683904D01*
X39350285Y-45722000D01*
X38855047Y-46102952D02*
X38855047Y-46483904D01*
X39121714Y-45683904D02*
X38855047Y-46102952D01*
X38588380Y-45683904D01*
X23630476Y-46483904D02*
X23630476Y-45683904D01*
X23440000Y-45683904D01*
X23325714Y-45722000D01*
X23249523Y-45798190D01*
X23211428Y-45874380D01*
X23173333Y-46026761D01*
X23173333Y-46141047D01*
X23211428Y-46293428D01*
X23249523Y-46369619D01*
X23325714Y-46445809D01*
X23440000Y-46483904D01*
X23630476Y-46483904D01*
X22487619Y-45683904D02*
X22640000Y-45683904D01*
X22716190Y-45722000D01*
X22754285Y-45760095D01*
X22830476Y-45874380D01*
X22868571Y-46026761D01*
X22868571Y-46331523D01*
X22830476Y-46407714D01*
X22792380Y-46445809D01*
X22716190Y-46483904D01*
X22563809Y-46483904D01*
X22487619Y-46445809D01*
X22449523Y-46407714D01*
X22411428Y-46331523D01*
X22411428Y-46141047D01*
X22449523Y-46064857D01*
X22487619Y-46026761D01*
X22563809Y-45988666D01*
X22716190Y-45988666D01*
X22792380Y-46026761D01*
X22830476Y-46064857D01*
X22868571Y-46141047D01*
X33368476Y-49277904D02*
X33368476Y-48477904D01*
X33178000Y-48477904D01*
X33063714Y-48516000D01*
X32987523Y-48592190D01*
X32949428Y-48668380D01*
X32911333Y-48820761D01*
X32911333Y-48935047D01*
X32949428Y-49087428D01*
X32987523Y-49163619D01*
X33063714Y-49239809D01*
X33178000Y-49277904D01*
X33368476Y-49277904D01*
X32149428Y-49277904D02*
X32606571Y-49277904D01*
X32378000Y-49277904D02*
X32378000Y-48477904D01*
X32454190Y-48592190D01*
X32530380Y-48668380D01*
X32606571Y-48706476D01*
X28034476Y-49277904D02*
X28034476Y-48477904D01*
X27844000Y-48477904D01*
X27729714Y-48516000D01*
X27653523Y-48592190D01*
X27615428Y-48668380D01*
X27577333Y-48820761D01*
X27577333Y-48935047D01*
X27615428Y-49087428D01*
X27653523Y-49163619D01*
X27729714Y-49239809D01*
X27844000Y-49277904D01*
X28034476Y-49277904D01*
X26891619Y-48744571D02*
X26891619Y-49277904D01*
X27082095Y-48439809D02*
X27272571Y-49011238D01*
X26777333Y-49011238D01*
X30574476Y-49277904D02*
X30574476Y-48477904D01*
X30384000Y-48477904D01*
X30269714Y-48516000D01*
X30193523Y-48592190D01*
X30155428Y-48668380D01*
X30117333Y-48820761D01*
X30117333Y-48935047D01*
X30155428Y-49087428D01*
X30193523Y-49163619D01*
X30269714Y-49239809D01*
X30384000Y-49277904D01*
X30574476Y-49277904D01*
X29812571Y-48554095D02*
X29774476Y-48516000D01*
X29698285Y-48477904D01*
X29507809Y-48477904D01*
X29431619Y-48516000D01*
X29393523Y-48554095D01*
X29355428Y-48630285D01*
X29355428Y-48706476D01*
X29393523Y-48820761D01*
X29850666Y-49277904D01*
X29355428Y-49277904D01*
X51859619Y-46483904D02*
X51859619Y-45683904D01*
X51592952Y-46255333D01*
X51326285Y-45683904D01*
X51326285Y-46483904D01*
X50983428Y-46445809D02*
X50869142Y-46483904D01*
X50678666Y-46483904D01*
X50602476Y-46445809D01*
X50564380Y-46407714D01*
X50526285Y-46331523D01*
X50526285Y-46255333D01*
X50564380Y-46179142D01*
X50602476Y-46141047D01*
X50678666Y-46102952D01*
X50831047Y-46064857D01*
X50907238Y-46026761D01*
X50945333Y-45988666D01*
X50983428Y-45912476D01*
X50983428Y-45836285D01*
X50945333Y-45760095D01*
X50907238Y-45722000D01*
X50831047Y-45683904D01*
X50640571Y-45683904D01*
X50526285Y-45722000D01*
X49764380Y-45722000D02*
X49840571Y-45683904D01*
X49954857Y-45683904D01*
X50069142Y-45722000D01*
X50145333Y-45798190D01*
X50183428Y-45874380D01*
X50221523Y-46026761D01*
X50221523Y-46141047D01*
X50183428Y-46293428D01*
X50145333Y-46369619D01*
X50069142Y-46445809D01*
X49954857Y-46483904D01*
X49878666Y-46483904D01*
X49764380Y-46445809D01*
X49726285Y-46407714D01*
X49726285Y-46141047D01*
X49878666Y-46141047D01*
X23341714Y-48477904D02*
X22884571Y-48477904D01*
X23113142Y-49277904D02*
X23113142Y-48477904D01*
X22617904Y-49277904D02*
X22617904Y-48477904D01*
X22313142Y-48477904D01*
X22236952Y-48516000D01*
X22198857Y-48554095D01*
X22160761Y-48630285D01*
X22160761Y-48744571D01*
X22198857Y-48820761D01*
X22236952Y-48858857D01*
X22313142Y-48896952D01*
X22617904Y-48896952D01*
X21894095Y-48477904D02*
X21703619Y-49277904D01*
X21551238Y-48706476D01*
X21398857Y-49277904D01*
X21208380Y-48477904D01*
X20446476Y-49277904D02*
X20713142Y-48896952D01*
X20903619Y-49277904D02*
X20903619Y-48477904D01*
X20598857Y-48477904D01*
X20522666Y-48516000D01*
X20484571Y-48554095D01*
X20446476Y-48630285D01*
X20446476Y-48744571D01*
X20484571Y-48820761D01*
X20522666Y-48858857D01*
X20598857Y-48896952D01*
X20903619Y-48896952D01*
X29304476Y-46483904D02*
X29304476Y-45683904D01*
X29114000Y-45683904D01*
X28999714Y-45722000D01*
X28923523Y-45798190D01*
X28885428Y-45874380D01*
X28847333Y-46026761D01*
X28847333Y-46141047D01*
X28885428Y-46293428D01*
X28923523Y-46369619D01*
X28999714Y-46445809D01*
X29114000Y-46483904D01*
X29304476Y-46483904D01*
X28580666Y-45683904D02*
X28085428Y-45683904D01*
X28352095Y-45988666D01*
X28237809Y-45988666D01*
X28161619Y-46026761D01*
X28123523Y-46064857D01*
X28085428Y-46141047D01*
X28085428Y-46331523D01*
X28123523Y-46407714D01*
X28161619Y-46445809D01*
X28237809Y-46483904D01*
X28466380Y-46483904D01*
X28542571Y-46445809D01*
X28580666Y-46407714D01*
X50113428Y-49201714D02*
X50151523Y-49239809D01*
X50265809Y-49277904D01*
X50342000Y-49277904D01*
X50456285Y-49239809D01*
X50532476Y-49163619D01*
X50570571Y-49087428D01*
X50608666Y-48935047D01*
X50608666Y-48820761D01*
X50570571Y-48668380D01*
X50532476Y-48592190D01*
X50456285Y-48516000D01*
X50342000Y-48477904D01*
X50265809Y-48477904D01*
X50151523Y-48516000D01*
X50113428Y-48554095D01*
X49199142Y-48439809D02*
X49884857Y-49468380D01*
X48932476Y-49277904D02*
X48932476Y-48477904D01*
X48742000Y-48477904D01*
X48627714Y-48516000D01*
X48551523Y-48592190D01*
X48513428Y-48668380D01*
X48475333Y-48820761D01*
X48475333Y-48935047D01*
X48513428Y-49087428D01*
X48551523Y-49163619D01*
X48627714Y-49239809D01*
X48742000Y-49277904D01*
X48932476Y-49277904D01*
X43588476Y-46258429D02*
X43207523Y-46258429D01*
X43664666Y-46487000D02*
X43398000Y-45687000D01*
X43131333Y-46487000D01*
X42407523Y-46410810D02*
X42445619Y-46448905D01*
X42559904Y-46487000D01*
X42636095Y-46487000D01*
X42750380Y-46448905D01*
X42826571Y-46372715D01*
X42864666Y-46296524D01*
X42902761Y-46144143D01*
X42902761Y-46029857D01*
X42864666Y-45877476D01*
X42826571Y-45801286D01*
X42750380Y-45725096D01*
X42636095Y-45687000D01*
X42559904Y-45687000D01*
X42445619Y-45725096D01*
X42407523Y-45763191D01*
X42064666Y-46487000D02*
X42064666Y-45687000D01*
X41607523Y-46487000D02*
X41950380Y-46029857D01*
X41607523Y-45687000D02*
X42064666Y-46144143D01*
X44868285Y-49049333D02*
X44487333Y-49049333D01*
X44944476Y-49277904D02*
X44677809Y-48477904D01*
X44411142Y-49277904D01*
X44258761Y-48477904D02*
X43801619Y-48477904D01*
X44030190Y-49277904D02*
X44030190Y-48477904D01*
X43534952Y-49277904D02*
X43534952Y-48477904D01*
X43077809Y-49277904D01*
X43077809Y-48477904D01*
X36181523Y-49277904D02*
X36181523Y-48477904D01*
X35991047Y-48477904D01*
X35876761Y-48516000D01*
X35800571Y-48592190D01*
X35762476Y-48668380D01*
X35724380Y-48820761D01*
X35724380Y-48935047D01*
X35762476Y-49087428D01*
X35800571Y-49163619D01*
X35876761Y-49239809D01*
X35991047Y-49277904D01*
X36181523Y-49277904D01*
X35381523Y-49277904D02*
X35381523Y-48477904D01*
X35076761Y-48477904D01*
X35000571Y-48516000D01*
X34962476Y-48554095D01*
X34924380Y-48630285D01*
X34924380Y-48744571D01*
X34962476Y-48820761D01*
X35000571Y-48858857D01*
X35076761Y-48896952D01*
X35381523Y-48896952D01*
X20922476Y-46483904D02*
X20922476Y-45683904D01*
X20732000Y-45683904D01*
X20617714Y-45722000D01*
X20541523Y-45798190D01*
X20503428Y-45874380D01*
X20465333Y-46026761D01*
X20465333Y-46141047D01*
X20503428Y-46293428D01*
X20541523Y-46369619D01*
X20617714Y-46445809D01*
X20732000Y-46483904D01*
X20922476Y-46483904D01*
X20198666Y-45683904D02*
X19665333Y-45683904D01*
X20008190Y-46483904D01*
X54393333Y-46448904D02*
X54660000Y-46067952D01*
X54850476Y-46448904D02*
X54850476Y-45648904D01*
X54545714Y-45648904D01*
X54469523Y-45687000D01*
X54431428Y-45725095D01*
X54393333Y-45801285D01*
X54393333Y-45915571D01*
X54431428Y-45991761D01*
X54469523Y-46029857D01*
X54545714Y-46067952D01*
X54850476Y-46067952D01*
X54050476Y-46029857D02*
X53783809Y-46029857D01*
X53669523Y-46448904D02*
X54050476Y-46448904D01*
X54050476Y-45648904D01*
X53669523Y-45648904D01*
X52793333Y-46525095D02*
X52869523Y-46487000D01*
X52945714Y-46410809D01*
X53060000Y-46296523D01*
X53136190Y-46258428D01*
X53212380Y-46258428D01*
X53174285Y-46448904D02*
X53250476Y-46410809D01*
X53326666Y-46334619D01*
X53364761Y-46182238D01*
X53364761Y-45915571D01*
X53326666Y-45763190D01*
X53250476Y-45687000D01*
X53174285Y-45648904D01*
X53021904Y-45648904D01*
X52945714Y-45687000D01*
X52869523Y-45763190D01*
X52831428Y-45915571D01*
X52831428Y-46182238D01*
X52869523Y-46334619D01*
X52945714Y-46410809D01*
X53021904Y-46448904D01*
X53174285Y-46448904D01*
X66847119Y-38822476D02*
X67847119Y-38822476D01*
X67894738Y-37870095D02*
X66609023Y-38555809D01*
X67847119Y-37451047D02*
X67847119Y-37298666D01*
X67799500Y-37222476D01*
X67704261Y-37146285D01*
X67513785Y-37108190D01*
X67180452Y-37108190D01*
X66989976Y-37146285D01*
X66894738Y-37222476D01*
X66847119Y-37298666D01*
X66847119Y-37451047D01*
X66894738Y-37527238D01*
X66989976Y-37603428D01*
X67180452Y-37641523D01*
X67513785Y-37641523D01*
X67704261Y-37603428D01*
X67799500Y-37527238D01*
X67847119Y-37451047D01*
X64352471Y-38365333D02*
X64828661Y-38632000D01*
X64352471Y-38822476D02*
X65352471Y-38822476D01*
X65352471Y-38517714D01*
X65304852Y-38441523D01*
X65257232Y-38403428D01*
X65161994Y-38365333D01*
X65019137Y-38365333D01*
X64923899Y-38403428D01*
X64876280Y-38441523D01*
X64828661Y-38517714D01*
X64828661Y-38822476D01*
X64876280Y-38022476D02*
X64876280Y-37755809D01*
X64352471Y-37641523D02*
X64352471Y-38022476D01*
X65352471Y-38022476D01*
X65352471Y-37641523D01*
X64257232Y-36765333D02*
X64304852Y-36841523D01*
X64400090Y-36917714D01*
X64542947Y-37032000D01*
X64590566Y-37108190D01*
X64590566Y-37184380D01*
X64352471Y-37146285D02*
X64400090Y-37222476D01*
X64495328Y-37298666D01*
X64685804Y-37336761D01*
X65019137Y-37336761D01*
X65209613Y-37298666D01*
X65304852Y-37222476D01*
X65352471Y-37146285D01*
X65352471Y-36993904D01*
X65304852Y-36917714D01*
X65209613Y-36841523D01*
X65019137Y-36803428D01*
X64685804Y-36803428D01*
X64495328Y-36841523D01*
X64400090Y-36917714D01*
X64352471Y-36993904D01*
X64352471Y-37146285D01*
X61953067Y-38365333D02*
X61905448Y-38403428D01*
X61857829Y-38517714D01*
X61857829Y-38593905D01*
X61905448Y-38708190D01*
X62000686Y-38784381D01*
X62095924Y-38822476D01*
X62286400Y-38860571D01*
X62429257Y-38860571D01*
X62619733Y-38822476D01*
X62714971Y-38784381D01*
X62810210Y-38708190D01*
X62857829Y-38593905D01*
X62857829Y-38517714D01*
X62810210Y-38403428D01*
X62762590Y-38365333D01*
X62905448Y-37451047D02*
X61619733Y-38136762D01*
X61857829Y-37184381D02*
X62857829Y-37184381D01*
X62857829Y-36993905D01*
X62810210Y-36879619D01*
X62714971Y-36803428D01*
X62619733Y-36765333D01*
X62429257Y-36727238D01*
X62286400Y-36727238D01*
X62095924Y-36765333D01*
X62000686Y-36803428D01*
X61905448Y-36879619D01*
X61857829Y-36993905D01*
X61857829Y-37184381D01*
X59410806Y-38860571D02*
X59363187Y-38746286D01*
X59363187Y-38555809D01*
X59410806Y-38479619D01*
X59458425Y-38441524D01*
X59553663Y-38403428D01*
X59648901Y-38403428D01*
X59744139Y-38441524D01*
X59791758Y-38479619D01*
X59839377Y-38555809D01*
X59886996Y-38708190D01*
X59934615Y-38784381D01*
X59982234Y-38822476D01*
X60077472Y-38860571D01*
X60172710Y-38860571D01*
X60267948Y-38822476D01*
X60315568Y-38784381D01*
X60363187Y-38708190D01*
X60363187Y-38517714D01*
X60315568Y-38403428D01*
X59886996Y-38060571D02*
X59886996Y-37793905D01*
X59363187Y-37679619D02*
X59363187Y-38060571D01*
X60363187Y-38060571D01*
X60363187Y-37679619D01*
X59363187Y-36955809D02*
X59363187Y-37336762D01*
X60363187Y-37336762D01*
X56868545Y-38822477D02*
X57868545Y-38822477D01*
X57154259Y-38555810D01*
X57868545Y-38289143D01*
X56868545Y-38289143D01*
X56916164Y-37946286D02*
X56868545Y-37832000D01*
X56868545Y-37641524D01*
X56916164Y-37565334D01*
X56963783Y-37527238D01*
X57059021Y-37489143D01*
X57154259Y-37489143D01*
X57249497Y-37527238D01*
X57297116Y-37565334D01*
X57344735Y-37641524D01*
X57392354Y-37793905D01*
X57439973Y-37870096D01*
X57487592Y-37908191D01*
X57582830Y-37946286D01*
X57678068Y-37946286D01*
X57773306Y-37908191D01*
X57820926Y-37870096D01*
X57868545Y-37793905D01*
X57868545Y-37603429D01*
X57820926Y-37489143D01*
X57820926Y-36727238D02*
X57868545Y-36803429D01*
X57868545Y-36917715D01*
X57820926Y-37032000D01*
X57725687Y-37108191D01*
X57630449Y-37146286D01*
X57439973Y-37184381D01*
X57297116Y-37184381D01*
X57106640Y-37146286D01*
X57011402Y-37108191D01*
X56916164Y-37032000D01*
X56868545Y-36917715D01*
X56868545Y-36841524D01*
X56916164Y-36727238D01*
X56963783Y-36689143D01*
X57297116Y-36689143D01*
X57297116Y-36841524D01*
X54373903Y-38365333D02*
X54850093Y-38631999D01*
X54373903Y-38822476D02*
X55373903Y-38822476D01*
X55373903Y-38517714D01*
X55326284Y-38441523D01*
X55278664Y-38403428D01*
X55183426Y-38365333D01*
X55040569Y-38365333D01*
X54945331Y-38403428D01*
X54897712Y-38441523D01*
X54850093Y-38517714D01*
X54850093Y-38822476D01*
X54421522Y-38060571D02*
X54373903Y-37946285D01*
X54373903Y-37755809D01*
X54421522Y-37679618D01*
X54469141Y-37641523D01*
X54564379Y-37603428D01*
X54659617Y-37603428D01*
X54754855Y-37641523D01*
X54802474Y-37679618D01*
X54850093Y-37755809D01*
X54897712Y-37908190D01*
X54945331Y-37984380D01*
X54992950Y-38022476D01*
X55088188Y-38060571D01*
X55183426Y-38060571D01*
X55278664Y-38022476D01*
X55326284Y-37984380D01*
X55373903Y-37908190D01*
X55373903Y-37717714D01*
X55326284Y-37603428D01*
X55373903Y-37374857D02*
X55373903Y-36917714D01*
X54373903Y-37146285D02*
X55373903Y-37146285D01*
X52164975Y-38860572D02*
X52164975Y-38479619D01*
X51879261Y-38936762D02*
X52879261Y-38670096D01*
X51879261Y-38403429D01*
X51974499Y-37679619D02*
X51926880Y-37717715D01*
X51879261Y-37832000D01*
X51879261Y-37908191D01*
X51926880Y-38022476D01*
X52022118Y-38098667D01*
X52117356Y-38136762D01*
X52307832Y-38174857D01*
X52450689Y-38174857D01*
X52641165Y-38136762D01*
X52736403Y-38098667D01*
X52831642Y-38022476D01*
X52879261Y-37908191D01*
X52879261Y-37832000D01*
X52831642Y-37717715D01*
X52784022Y-37679619D01*
X51879261Y-37336762D02*
X52879261Y-37336762D01*
X51879261Y-36879619D02*
X52450689Y-37222476D01*
X52879261Y-36879619D02*
X52307832Y-37336762D01*
X49908428Y-38555809D02*
X49860809Y-38441523D01*
X49813190Y-38403428D01*
X49717952Y-38365333D01*
X49575095Y-38365333D01*
X49479857Y-38403428D01*
X49432238Y-38441523D01*
X49384619Y-38517714D01*
X49384619Y-38822476D01*
X50384619Y-38822476D01*
X50384619Y-38555809D01*
X50337000Y-38479619D01*
X50289380Y-38441523D01*
X50194142Y-38403428D01*
X50098904Y-38403428D01*
X50003666Y-38441523D01*
X49956047Y-38479619D01*
X49908428Y-38555809D01*
X49908428Y-38822476D01*
X49432238Y-38060571D02*
X49384619Y-37946285D01*
X49384619Y-37755809D01*
X49432238Y-37679619D01*
X49479857Y-37641523D01*
X49575095Y-37603428D01*
X49670333Y-37603428D01*
X49765571Y-37641523D01*
X49813190Y-37679619D01*
X49860809Y-37755809D01*
X49908428Y-37908190D01*
X49956047Y-37984381D01*
X50003666Y-38022476D01*
X50098904Y-38060571D01*
X50194142Y-38060571D01*
X50289380Y-38022476D01*
X50337000Y-37984381D01*
X50384619Y-37908190D01*
X50384619Y-37717714D01*
X50337000Y-37603428D01*
X49860809Y-37108190D02*
X49384619Y-37108190D01*
X50384619Y-37374857D02*
X49860809Y-37108190D01*
X50384619Y-36841523D01*
X44590333Y-38860571D02*
X44590333Y-38479619D01*
X44304619Y-38936762D02*
X45304619Y-38670095D01*
X44304619Y-38403428D01*
X45304619Y-38251047D02*
X45304619Y-37793905D01*
X44304619Y-38022476D02*
X45304619Y-38022476D01*
X44304619Y-37527238D02*
X45304619Y-37527238D01*
X44304619Y-37070095D01*
X45304619Y-37070095D01*
X38151619Y-38936762D02*
X38151619Y-38479619D01*
X37151619Y-38708190D02*
X38151619Y-38708190D01*
X37151619Y-38212952D02*
X38151619Y-38212952D01*
X38151619Y-37908190D01*
X38104000Y-37832000D01*
X38056380Y-37793905D01*
X37961142Y-37755809D01*
X37818285Y-37755809D01*
X37723047Y-37793905D01*
X37675428Y-37832000D01*
X37627809Y-37908190D01*
X37627809Y-38212952D01*
X38151619Y-37489143D02*
X37151619Y-37298667D01*
X37865904Y-37146286D01*
X37151619Y-36993905D01*
X38151619Y-36803428D01*
X37151619Y-36041524D02*
X37627809Y-36308190D01*
X37151619Y-36498667D02*
X38151619Y-36498667D01*
X38151619Y-36193905D01*
X38104000Y-36117714D01*
X38056380Y-36079619D01*
X37961142Y-36041524D01*
X37818285Y-36041524D01*
X37723047Y-36079619D01*
X37675428Y-36117714D01*
X37627809Y-36193905D01*
X37627809Y-36498667D01*
X26270619Y-38841523D02*
X27270619Y-38841523D01*
X27270619Y-38651047D01*
X27223000Y-38536761D01*
X27127761Y-38460571D01*
X27032523Y-38422476D01*
X26842047Y-38384380D01*
X26699190Y-38384380D01*
X26508714Y-38422476D01*
X26413476Y-38460571D01*
X26318238Y-38536761D01*
X26270619Y-38651047D01*
X26270619Y-38841523D01*
X26270619Y-38041523D02*
X27270619Y-38041523D01*
X27270619Y-37736761D01*
X27223000Y-37660571D01*
X27175380Y-37622476D01*
X27080142Y-37584380D01*
X26937285Y-37584380D01*
X26842047Y-37622476D01*
X26794428Y-37660571D01*
X26746809Y-37736761D01*
X26746809Y-38041523D01*
X23738553Y-38822476D02*
X24738553Y-38822476D01*
X24738553Y-38632000D01*
X24690934Y-38517714D01*
X24595695Y-38441523D01*
X24500457Y-38403428D01*
X24309981Y-38365333D01*
X24167124Y-38365333D01*
X23976648Y-38403428D01*
X23881410Y-38441523D01*
X23786172Y-38517714D01*
X23738553Y-38632000D01*
X23738553Y-38822476D01*
X24738553Y-38098666D02*
X24738553Y-37565333D01*
X23738553Y-37908190D01*
X21206491Y-38822476D02*
X22206491Y-38822476D01*
X22206491Y-38632000D01*
X22158872Y-38517714D01*
X22063633Y-38441523D01*
X21968395Y-38403428D01*
X21777919Y-38365333D01*
X21635062Y-38365333D01*
X21444586Y-38403428D01*
X21349348Y-38441523D01*
X21254110Y-38517714D01*
X21206491Y-38632000D01*
X21206491Y-38822476D01*
X22206491Y-37679619D02*
X22206491Y-37832000D01*
X22158872Y-37908190D01*
X22111252Y-37946285D01*
X21968395Y-38022476D01*
X21777919Y-38060571D01*
X21396967Y-38060571D01*
X21301729Y-38022476D01*
X21254110Y-37984380D01*
X21206491Y-37908190D01*
X21206491Y-37755809D01*
X21254110Y-37679619D01*
X21301729Y-37641523D01*
X21396967Y-37603428D01*
X21635062Y-37603428D01*
X21730300Y-37641523D01*
X21777919Y-37679619D01*
X21825538Y-37755809D01*
X21825538Y-37908190D01*
X21777919Y-37984380D01*
X21730300Y-38022476D01*
X21635062Y-38060571D01*
X18674429Y-38822476D02*
X19674429Y-38822476D01*
X19674429Y-38632000D01*
X19626810Y-38517714D01*
X19531571Y-38441523D01*
X19436333Y-38403428D01*
X19245857Y-38365333D01*
X19103000Y-38365333D01*
X18912524Y-38403428D01*
X18817286Y-38441523D01*
X18722048Y-38517714D01*
X18674429Y-38632000D01*
X18674429Y-38822476D01*
X19674429Y-37641523D02*
X19674429Y-38022476D01*
X19198238Y-38060571D01*
X19245857Y-38022476D01*
X19293476Y-37946285D01*
X19293476Y-37755809D01*
X19245857Y-37679619D01*
X19198238Y-37641523D01*
X19103000Y-37603428D01*
X18864905Y-37603428D01*
X18769667Y-37641523D01*
X18722048Y-37679619D01*
X18674429Y-37755809D01*
X18674429Y-37946285D01*
X18722048Y-38022476D01*
X18769667Y-38060571D01*
X16142367Y-38822476D02*
X17142367Y-38822476D01*
X17142367Y-38632000D01*
X17094748Y-38517714D01*
X16999509Y-38441523D01*
X16904271Y-38403428D01*
X16713795Y-38365333D01*
X16570938Y-38365333D01*
X16380462Y-38403428D01*
X16285224Y-38441523D01*
X16189986Y-38517714D01*
X16142367Y-38632000D01*
X16142367Y-38822476D01*
X16809033Y-37679619D02*
X16142367Y-37679619D01*
X17189986Y-37870095D02*
X16475700Y-38060571D01*
X16475700Y-37565333D01*
X13610305Y-38822476D02*
X14610305Y-38822476D01*
X14610305Y-38632000D01*
X14562686Y-38517714D01*
X14467447Y-38441523D01*
X14372209Y-38403428D01*
X14181733Y-38365333D01*
X14038876Y-38365333D01*
X13848400Y-38403428D01*
X13753162Y-38441523D01*
X13657924Y-38517714D01*
X13610305Y-38632000D01*
X13610305Y-38822476D01*
X14610305Y-38098666D02*
X14610305Y-37603428D01*
X14229352Y-37870095D01*
X14229352Y-37755809D01*
X14181733Y-37679619D01*
X14134114Y-37641523D01*
X14038876Y-37603428D01*
X13800781Y-37603428D01*
X13705543Y-37641523D01*
X13657924Y-37679619D01*
X13610305Y-37755809D01*
X13610305Y-37984380D01*
X13657924Y-38060571D01*
X13705543Y-38098666D01*
X11078243Y-38822476D02*
X12078243Y-38822476D01*
X12078243Y-38632000D01*
X12030624Y-38517714D01*
X11935385Y-38441523D01*
X11840147Y-38403428D01*
X11649671Y-38365333D01*
X11506814Y-38365333D01*
X11316338Y-38403428D01*
X11221100Y-38441523D01*
X11125862Y-38517714D01*
X11078243Y-38632000D01*
X11078243Y-38822476D01*
X11983004Y-38060571D02*
X12030624Y-38022476D01*
X12078243Y-37946285D01*
X12078243Y-37755809D01*
X12030624Y-37679619D01*
X11983004Y-37641523D01*
X11887766Y-37603428D01*
X11792528Y-37603428D01*
X11649671Y-37641523D01*
X11078243Y-38098666D01*
X11078243Y-37603428D01*
X8546181Y-38822476D02*
X9546181Y-38822476D01*
X9546181Y-38632000D01*
X9498562Y-38517714D01*
X9403323Y-38441523D01*
X9308085Y-38403428D01*
X9117609Y-38365333D01*
X8974752Y-38365333D01*
X8784276Y-38403428D01*
X8689038Y-38441523D01*
X8593800Y-38517714D01*
X8546181Y-38632000D01*
X8546181Y-38822476D01*
X8546181Y-37603428D02*
X8546181Y-38060571D01*
X8546181Y-37832000D02*
X9546181Y-37832000D01*
X9403323Y-37908190D01*
X9308085Y-37984380D01*
X9260466Y-38060571D01*
X6014119Y-38822476D02*
X7014119Y-38822476D01*
X7014119Y-38632000D01*
X6966500Y-38517714D01*
X6871261Y-38441523D01*
X6776023Y-38403428D01*
X6585547Y-38365333D01*
X6442690Y-38365333D01*
X6252214Y-38403428D01*
X6156976Y-38441523D01*
X6061738Y-38517714D01*
X6014119Y-38632000D01*
X6014119Y-38822476D01*
X7014119Y-37870095D02*
X7014119Y-37793904D01*
X6966500Y-37717714D01*
X6918880Y-37679619D01*
X6823642Y-37641523D01*
X6633166Y-37603428D01*
X6395071Y-37603428D01*
X6204595Y-37641523D01*
X6109357Y-37679619D01*
X6061738Y-37717714D01*
X6014119Y-37793904D01*
X6014119Y-37870095D01*
X6061738Y-37946285D01*
X6109357Y-37984380D01*
X6204595Y-38022476D01*
X6395071Y-38060571D01*
X6633166Y-38060571D01*
X6823642Y-38022476D01*
X6918880Y-37984380D01*
X6966500Y-37946285D01*
X7014119Y-37870095D01*
D11*
X11038500Y-31183500D02*
X7292000Y-32707500D01*
X12308500Y-31247000D02*
X9959000Y-32580500D01*
X13705500Y-31310500D02*
X13134000Y-32072500D01*
X13197500Y-32072500D02*
X11864000Y-32072500D01*
X13197500Y-33406000D02*
X13197500Y-32072500D01*
X5387000Y-32072500D02*
X10530500Y-32072500D01*
X5387000Y-37279500D02*
X5387000Y-32072500D01*
X13197500Y-37279500D02*
X5387000Y-37279500D01*
X13197500Y-34612500D02*
X13197500Y-37279500D01*
X10530500Y-34612500D02*
X13197500Y-34612500D01*
X10530500Y-32072500D02*
X10530500Y-34612500D01*
X4802800Y-12260500D02*
X4802800Y-22484000D01*
X7406300Y-12260500D02*
X4802800Y-12260500D01*
X7406300Y-22484000D02*
X7406300Y-12260500D01*
X4802800Y-22484000D02*
X7406300Y-22484000D01*
X5260000Y-11816000D02*
X5260000Y-10482500D01*
X6593500Y-11816000D02*
X5260000Y-11816000D01*
X7800000Y-9212500D02*
X7800000Y-11816000D01*
X10467000Y-9212500D02*
X7800000Y-9212500D01*
X10467000Y-11816000D02*
X10467000Y-9212500D01*
X7863500Y-11816000D02*
X10467000Y-11816000D01*
D10*
X10744880Y-10212666D02*
X11459166Y-10212666D01*
X11602023Y-10165047D01*
X11697261Y-10069809D01*
X11744880Y-9926952D01*
X11744880Y-9831714D01*
X10744880Y-10593619D02*
X10744880Y-11260285D01*
X11744880Y-10831714D01*
X5857133Y-25584580D02*
X5857133Y-26298866D01*
X5904752Y-26441723D01*
X5999990Y-26536961D01*
X6142847Y-26584580D01*
X6238085Y-26584580D01*
X4952371Y-25917914D02*
X4952371Y-26584580D01*
X5190466Y-25536961D02*
X5428561Y-26251247D01*
X4809514Y-26251247D01*
X14800833Y-33556880D02*
X14800833Y-34271166D01*
X14848452Y-34414023D01*
X14943690Y-34509261D01*
X15086547Y-34556880D01*
X15181785Y-34556880D01*
X13848452Y-33556880D02*
X14324642Y-33556880D01*
X14372261Y-34033071D01*
X14324642Y-33985452D01*
X14229404Y-33937833D01*
X13991309Y-33937833D01*
X13896071Y-33985452D01*
X13848452Y-34033071D01*
X13800833Y-34128309D01*
X13800833Y-34366404D01*
X13848452Y-34461642D01*
X13896071Y-34509261D01*
X13991309Y-34556880D01*
X14229404Y-34556880D01*
X14324642Y-34509261D01*
X14372261Y-34461642D01*
X6037833Y-44923380D02*
X6037833Y-45637666D01*
X6085452Y-45780523D01*
X6180690Y-45875761D01*
X6323547Y-45923380D01*
X6418785Y-45923380D01*
X5656880Y-44923380D02*
X5037833Y-44923380D01*
X5371166Y-45304333D01*
X5228309Y-45304333D01*
X5133071Y-45351952D01*
X5085452Y-45399571D01*
X5037833Y-45494809D01*
X5037833Y-45732904D01*
X5085452Y-45828142D01*
X5133071Y-45875761D01*
X5228309Y-45923380D01*
X5514023Y-45923380D01*
X5609261Y-45875761D01*
X5656880Y-45828142D01*
D12*
X65610523Y-20806666D02*
X66517666Y-20806666D01*
X66699095Y-20746190D01*
X66820047Y-20625238D01*
X66880523Y-20443809D01*
X66880523Y-20322857D01*
X66154809Y-21592857D02*
X66094333Y-21471904D01*
X66033857Y-21411428D01*
X65912904Y-21350952D01*
X65852428Y-21350952D01*
X65731476Y-21411428D01*
X65671000Y-21471904D01*
X65610523Y-21592857D01*
X65610523Y-21834761D01*
X65671000Y-21955714D01*
X65731476Y-22016190D01*
X65852428Y-22076666D01*
X65912904Y-22076666D01*
X66033857Y-22016190D01*
X66094333Y-21955714D01*
X66154809Y-21834761D01*
X66154809Y-21592857D01*
X66215285Y-21471904D01*
X66275761Y-21411428D01*
X66396714Y-21350952D01*
X66638619Y-21350952D01*
X66759571Y-21411428D01*
X66820047Y-21471904D01*
X66880523Y-21592857D01*
X66880523Y-21834761D01*
X66820047Y-21955714D01*
X66759571Y-22016190D01*
X66638619Y-22076666D01*
X66396714Y-22076666D01*
X66275761Y-22016190D01*
X66215285Y-21955714D01*
X66154809Y-21834761D01*
D10*
X36327333Y-8855380D02*
X36327333Y-9569666D01*
X36374952Y-9712523D01*
X36470190Y-9807761D01*
X36613047Y-9855380D01*
X36708285Y-9855380D01*
X35327333Y-9855380D02*
X35898761Y-9855380D01*
X35613047Y-9855380D02*
X35613047Y-8855380D01*
X35708285Y-8998238D01*
X35803523Y-9093476D01*
X35898761Y-9141095D01*
X61591904Y-18194285D02*
X62239523Y-18194285D01*
X62315714Y-18232380D01*
X62353809Y-18270476D01*
X62391904Y-18346666D01*
X62391904Y-18499047D01*
X62353809Y-18575238D01*
X62315714Y-18613333D01*
X62239523Y-18651428D01*
X61591904Y-18651428D01*
X62353809Y-18994285D02*
X62391904Y-19108571D01*
X62391904Y-19299047D01*
X62353809Y-19375238D01*
X62315714Y-19413333D01*
X62239523Y-19451428D01*
X62163333Y-19451428D01*
X62087142Y-19413333D01*
X62049047Y-19375238D01*
X62010952Y-19299047D01*
X61972857Y-19146666D01*
X61934761Y-19070476D01*
X61896666Y-19032380D01*
X61820476Y-18994285D01*
X61744285Y-18994285D01*
X61668095Y-19032380D01*
X61630000Y-19070476D01*
X61591904Y-19146666D01*
X61591904Y-19337142D01*
X61630000Y-19451428D01*
X61972857Y-20060952D02*
X62010952Y-20175238D01*
X62049047Y-20213333D01*
X62125238Y-20251428D01*
X62239523Y-20251428D01*
X62315714Y-20213333D01*
X62353809Y-20175238D01*
X62391904Y-20099047D01*
X62391904Y-19794285D01*
X61591904Y-19794285D01*
X61591904Y-20060952D01*
X61630000Y-20137142D01*
X61668095Y-20175238D01*
X61744285Y-20213333D01*
X61820476Y-20213333D01*
X61896666Y-20175238D01*
X61934761Y-20137142D01*
X61972857Y-20060952D01*
X61972857Y-19794285D01*
X62391904Y-21203809D02*
X61591904Y-21203809D01*
X61591904Y-21508571D01*
X61630000Y-21584761D01*
X61668095Y-21622857D01*
X61744285Y-21660952D01*
X61858571Y-21660952D01*
X61934761Y-21622857D01*
X61972857Y-21584761D01*
X62010952Y-21508571D01*
X62010952Y-21203809D01*
X62391904Y-22118095D02*
X62353809Y-22041904D01*
X62315714Y-22003809D01*
X62239523Y-21965714D01*
X62010952Y-21965714D01*
X61934761Y-22003809D01*
X61896666Y-22041904D01*
X61858571Y-22118095D01*
X61858571Y-22232380D01*
X61896666Y-22308571D01*
X61934761Y-22346666D01*
X62010952Y-22384761D01*
X62239523Y-22384761D01*
X62315714Y-22346666D01*
X62353809Y-22308571D01*
X62391904Y-22232380D01*
X62391904Y-22118095D01*
X61858571Y-22651428D02*
X62391904Y-22803809D01*
X62010952Y-22956190D01*
X62391904Y-23108571D01*
X61858571Y-23260952D01*
X62353809Y-23870476D02*
X62391904Y-23794285D01*
X62391904Y-23641904D01*
X62353809Y-23565714D01*
X62277619Y-23527619D01*
X61972857Y-23527619D01*
X61896666Y-23565714D01*
X61858571Y-23641904D01*
X61858571Y-23794285D01*
X61896666Y-23870476D01*
X61972857Y-23908571D01*
X62049047Y-23908571D01*
X62125238Y-23527619D01*
X62391904Y-24251428D02*
X61858571Y-24251428D01*
X62010952Y-24251428D02*
X61934761Y-24289523D01*
X61896666Y-24327619D01*
X61858571Y-24403809D01*
X61858571Y-24480000D01*
X56225333Y-45828380D02*
X56225333Y-46542666D01*
X56272952Y-46685523D01*
X56368190Y-46780761D01*
X56511047Y-46828380D01*
X56606285Y-46828380D01*
X55320571Y-45828380D02*
X55511047Y-45828380D01*
X55606285Y-45876000D01*
X55653904Y-45923619D01*
X55749142Y-46066476D01*
X55796761Y-46256952D01*
X55796761Y-46637904D01*
X55749142Y-46733142D01*
X55701523Y-46780761D01*
X55606285Y-46828380D01*
X55415809Y-46828380D01*
X55320571Y-46780761D01*
X55272952Y-46733142D01*
X55225333Y-46637904D01*
X55225333Y-46399809D01*
X55272952Y-46304571D01*
X55320571Y-46256952D01*
X55415809Y-46209333D01*
X55606285Y-46209333D01*
X55701523Y-46256952D01*
X55749142Y-46304571D01*
X55796761Y-46399809D01*
D13*
X39312261Y-17766761D02*
X39859880Y-16814380D01*
X40455119Y-17766761D02*
X40205119Y-15766761D01*
X39443214Y-15766761D01*
X39264642Y-15862000D01*
X39181309Y-15957238D01*
X39109880Y-16147714D01*
X39145595Y-16433428D01*
X39264642Y-16623904D01*
X39371785Y-16719142D01*
X39574166Y-16814380D01*
X40336071Y-16814380D01*
X37597976Y-17766761D02*
X37467023Y-16719142D01*
X37538452Y-16528666D01*
X37717023Y-16433428D01*
X38097976Y-16433428D01*
X38300357Y-16528666D01*
X37586071Y-17671523D02*
X37788452Y-17766761D01*
X38264642Y-17766761D01*
X38443214Y-17671523D01*
X38514642Y-17481047D01*
X38490833Y-17290571D01*
X38371785Y-17100095D01*
X38169404Y-17004857D01*
X37693214Y-17004857D01*
X37490833Y-16909619D01*
X36728928Y-17671523D02*
X36455119Y-17766761D01*
X35978928Y-17766761D01*
X35776547Y-17671523D01*
X35669404Y-17576285D01*
X35550357Y-17385809D01*
X35526547Y-17195333D01*
X35597976Y-17004857D01*
X35681309Y-16909619D01*
X35859880Y-16814380D01*
X36228928Y-16719142D01*
X36407500Y-16623904D01*
X36490833Y-16528666D01*
X36562261Y-16338190D01*
X36538452Y-16147714D01*
X36419404Y-15957238D01*
X36312261Y-15862000D01*
X36109880Y-15766761D01*
X35633690Y-15766761D01*
X35359880Y-15862000D01*
X33574166Y-17576285D02*
X33681309Y-17671523D01*
X33978928Y-17766761D01*
X34169404Y-17766761D01*
X34443214Y-17671523D01*
X34609880Y-17481047D01*
X34681309Y-17290571D01*
X34728928Y-16909619D01*
X34693214Y-16623904D01*
X34550357Y-16242952D01*
X34431309Y-16052476D01*
X34217023Y-15862000D01*
X33919404Y-15766761D01*
X33728928Y-15766761D01*
X33455119Y-15862000D01*
X33371785Y-15957238D01*
X32824166Y-17671523D02*
X32550357Y-17766761D01*
X32074166Y-17766761D01*
X31871785Y-17671523D01*
X31764642Y-17576285D01*
X31645595Y-17385809D01*
X31621785Y-17195333D01*
X31693214Y-17004857D01*
X31776547Y-16909619D01*
X31955119Y-16814380D01*
X32324166Y-16719142D01*
X32502738Y-16623904D01*
X32586071Y-16528666D01*
X32657500Y-16338190D01*
X32633690Y-16147714D01*
X32514642Y-15957238D01*
X32407500Y-15862000D01*
X32205119Y-15766761D01*
X31728928Y-15766761D01*
X31455119Y-15862000D01*
X30836071Y-17766761D02*
X30586071Y-15766761D01*
D10*
X42413666Y-14409380D02*
X42604142Y-14409380D01*
X42699380Y-14457000D01*
X42747000Y-14504619D01*
X42842238Y-14647476D01*
X42889857Y-14837952D01*
X42889857Y-15218904D01*
X42842238Y-15314142D01*
X42794619Y-15361761D01*
X42699380Y-15409380D01*
X42508904Y-15409380D01*
X42413666Y-15361761D01*
X42366047Y-15314142D01*
X42318428Y-15218904D01*
X42318428Y-14980809D01*
X42366047Y-14885571D01*
X42413666Y-14837952D01*
X42508904Y-14790333D01*
X42699380Y-14790333D01*
X42794619Y-14837952D01*
X42842238Y-14885571D01*
X42889857Y-14980809D01*
X41747000Y-14837952D02*
X41842238Y-14790333D01*
X41889857Y-14742714D01*
X41937476Y-14647476D01*
X41937476Y-14599857D01*
X41889857Y-14504619D01*
X41842238Y-14457000D01*
X41747000Y-14409380D01*
X41556523Y-14409380D01*
X41461285Y-14457000D01*
X41413666Y-14504619D01*
X41366047Y-14599857D01*
X41366047Y-14647476D01*
X41413666Y-14742714D01*
X41461285Y-14790333D01*
X41556523Y-14837952D01*
X41747000Y-14837952D01*
X41842238Y-14885571D01*
X41889857Y-14933190D01*
X41937476Y-15028428D01*
X41937476Y-15218904D01*
X41889857Y-15314142D01*
X41842238Y-15361761D01*
X41747000Y-15409380D01*
X41556523Y-15409380D01*
X41461285Y-15361761D01*
X41413666Y-15314142D01*
X41366047Y-15218904D01*
X41366047Y-15028428D01*
X41413666Y-14933190D01*
X41461285Y-14885571D01*
X41556523Y-14837952D01*
X40937476Y-15409380D02*
X40937476Y-14409380D01*
X40842238Y-15028428D02*
X40556523Y-15409380D01*
X40556523Y-14742714D02*
X40937476Y-15123666D01*
X40127952Y-15409380D02*
X40127952Y-14742714D01*
X40127952Y-14837952D02*
X40080333Y-14790333D01*
X39985095Y-14742714D01*
X39842238Y-14742714D01*
X39747000Y-14790333D01*
X39699380Y-14885571D01*
X39699380Y-15409380D01*
X39699380Y-14885571D02*
X39651761Y-14790333D01*
X39556523Y-14742714D01*
X39413666Y-14742714D01*
X39318428Y-14790333D01*
X39270809Y-14885571D01*
X39270809Y-15409380D01*
X38651761Y-15409380D02*
X38747000Y-15361761D01*
X38794619Y-15266523D01*
X38794619Y-14409380D01*
X37842238Y-15409380D02*
X37842238Y-14885571D01*
X37889857Y-14790333D01*
X37985095Y-14742714D01*
X38175571Y-14742714D01*
X38270809Y-14790333D01*
X37842238Y-15361761D02*
X37937476Y-15409380D01*
X38175571Y-15409380D01*
X38270809Y-15361761D01*
X38318428Y-15266523D01*
X38318428Y-15171285D01*
X38270809Y-15076047D01*
X38175571Y-15028428D01*
X37937476Y-15028428D01*
X37842238Y-14980809D01*
X36747000Y-14409380D02*
X36413666Y-15409380D01*
X36080333Y-14409380D01*
X35366047Y-15361761D02*
X35461285Y-15409380D01*
X35651761Y-15409380D01*
X35747000Y-15361761D01*
X35794619Y-15266523D01*
X35794619Y-14885571D01*
X35747000Y-14790333D01*
X35651761Y-14742714D01*
X35461285Y-14742714D01*
X35366047Y-14790333D01*
X35318428Y-14885571D01*
X35318428Y-14980809D01*
X35794619Y-15076047D01*
X34889857Y-15409380D02*
X34889857Y-14742714D01*
X34889857Y-14933190D02*
X34842238Y-14837952D01*
X34794619Y-14790333D01*
X34699380Y-14742714D01*
X34604142Y-14742714D01*
X34318428Y-15361761D02*
X34223190Y-15409380D01*
X34032714Y-15409380D01*
X33937476Y-15361761D01*
X33889857Y-15266523D01*
X33889857Y-15218904D01*
X33937476Y-15123666D01*
X34032714Y-15076047D01*
X34175571Y-15076047D01*
X34270809Y-15028428D01*
X34318428Y-14933190D01*
X34318428Y-14885571D01*
X34270809Y-14790333D01*
X34175571Y-14742714D01*
X34032714Y-14742714D01*
X33937476Y-14790333D01*
X33461285Y-15409380D02*
X33461285Y-14742714D01*
X33461285Y-14409380D02*
X33508904Y-14457000D01*
X33461285Y-14504619D01*
X33413666Y-14457000D01*
X33461285Y-14409380D01*
X33461285Y-14504619D01*
X32842238Y-15409380D02*
X32937476Y-15361761D01*
X32985095Y-15314142D01*
X33032714Y-15218904D01*
X33032714Y-14933190D01*
X32985095Y-14837952D01*
X32937476Y-14790333D01*
X32842238Y-14742714D01*
X32699380Y-14742714D01*
X32604142Y-14790333D01*
X32556523Y-14837952D01*
X32508904Y-14933190D01*
X32508904Y-15218904D01*
X32556523Y-15314142D01*
X32604142Y-15361761D01*
X32699380Y-15409380D01*
X32842238Y-15409380D01*
X32080333Y-14742714D02*
X32080333Y-15409380D01*
X32080333Y-14837952D02*
X32032714Y-14790333D01*
X31937476Y-14742714D01*
X31794619Y-14742714D01*
X31699380Y-14790333D01*
X31651761Y-14885571D01*
X31651761Y-15409380D01*
X30461285Y-14504619D02*
X30413666Y-14457000D01*
X30318428Y-14409380D01*
X30080333Y-14409380D01*
X29985095Y-14457000D01*
X29937476Y-14504619D01*
X29889857Y-14599857D01*
X29889857Y-14695095D01*
X29937476Y-14837952D01*
X30508904Y-15409380D01*
X29889857Y-15409380D01*
X29461285Y-15314142D02*
X29413666Y-15361761D01*
X29461285Y-15409380D01*
X29508904Y-15361761D01*
X29461285Y-15314142D01*
X29461285Y-15409380D01*
X28556523Y-14742714D02*
X28556523Y-15409380D01*
X28794619Y-14361761D02*
X29032714Y-15076047D01*
X28413666Y-15076047D01*
X27651761Y-15361761D02*
X27747000Y-15409380D01*
X27937476Y-15409380D01*
X28032714Y-15361761D01*
X28080333Y-15266523D01*
X28080333Y-14885571D01*
X28032714Y-14790333D01*
X27937476Y-14742714D01*
X27747000Y-14742714D01*
X27651761Y-14790333D01*
X27604142Y-14885571D01*
X27604142Y-14980809D01*
X28080333Y-15076047D01*
D11*
X43692500Y-18767000D02*
X43692500Y-13687000D01*
X43629000Y-13687000D02*
X26674500Y-13687000D01*
X27246000Y-14068000D02*
X43248000Y-14068000D01*
X27246000Y-14068000D02*
X27182500Y-14068000D01*
X43248000Y-18386000D02*
X27182500Y-18386000D01*
X27182500Y-18386000D02*
X27182500Y-14131500D01*
X43248000Y-14068000D02*
X43248000Y-18386000D01*
X43692500Y-18767000D02*
X26674500Y-18767000D01*
X27182500Y-14068000D02*
X27182500Y-14322000D01*
X26674500Y-13687000D02*
X26674500Y-18767000D01*
D10*
X61749523Y-11352500D02*
X61825714Y-11314404D01*
X61940000Y-11314404D01*
X62054285Y-11352500D01*
X62130476Y-11428690D01*
X62168571Y-11504880D01*
X62206666Y-11657261D01*
X62206666Y-11771547D01*
X62168571Y-11923928D01*
X62130476Y-12000119D01*
X62054285Y-12076309D01*
X61940000Y-12114404D01*
X61863809Y-12114404D01*
X61749523Y-12076309D01*
X61711428Y-12038214D01*
X61711428Y-11771547D01*
X61863809Y-11771547D01*
X61368571Y-12114404D02*
X61368571Y-11314404D01*
X60911428Y-12114404D01*
X60911428Y-11314404D01*
X60530476Y-12114404D02*
X60530476Y-11314404D01*
X60340000Y-11314404D01*
X60225714Y-11352500D01*
X60149523Y-11428690D01*
X60111428Y-11504880D01*
X60073333Y-11657261D01*
X60073333Y-11771547D01*
X60111428Y-11923928D01*
X60149523Y-12000119D01*
X60225714Y-12076309D01*
X60340000Y-12114404D01*
X60530476Y-12114404D01*
X61654238Y-14743333D02*
X61273285Y-14743333D01*
X61730428Y-14971904D02*
X61463761Y-14171904D01*
X61197095Y-14971904D01*
X60473285Y-14895714D02*
X60511380Y-14933809D01*
X60625666Y-14971904D01*
X60701857Y-14971904D01*
X60816142Y-14933809D01*
X60892333Y-14857619D01*
X60930428Y-14781428D01*
X60968523Y-14629047D01*
X60968523Y-14514761D01*
X60930428Y-14362380D01*
X60892333Y-14286190D01*
X60816142Y-14210000D01*
X60701857Y-14171904D01*
X60625666Y-14171904D01*
X60511380Y-14210000D01*
X60473285Y-14248095D01*
X60244714Y-14171904D02*
X59787571Y-14171904D01*
X60016142Y-14971904D02*
X60016142Y-14171904D01*
X48633000Y-24075542D02*
X48633000Y-23175542D01*
X48247285Y-24075542D02*
X48247285Y-23604114D01*
X48290142Y-23518400D01*
X48375857Y-23475542D01*
X48504428Y-23475542D01*
X48590142Y-23518400D01*
X48633000Y-23561257D01*
X47947285Y-23475542D02*
X47604428Y-23475542D01*
X47818714Y-23175542D02*
X47818714Y-23946971D01*
X47775857Y-24032685D01*
X47690142Y-24075542D01*
X47604428Y-24075542D01*
X47433000Y-23475542D02*
X47090142Y-23475542D01*
X47304428Y-23175542D02*
X47304428Y-23946971D01*
X47261571Y-24032685D01*
X47175857Y-24075542D01*
X47090142Y-24075542D01*
X46790142Y-23475542D02*
X46790142Y-24375542D01*
X46790142Y-23518400D02*
X46704428Y-23475542D01*
X46533000Y-23475542D01*
X46447285Y-23518400D01*
X46404428Y-23561257D01*
X46361571Y-23646971D01*
X46361571Y-23904114D01*
X46404428Y-23989828D01*
X46447285Y-24032685D01*
X46533000Y-24075542D01*
X46704428Y-24075542D01*
X46790142Y-24032685D01*
X46018714Y-24032685D02*
X45933000Y-24075542D01*
X45761571Y-24075542D01*
X45675857Y-24032685D01*
X45633000Y-23946971D01*
X45633000Y-23904114D01*
X45675857Y-23818400D01*
X45761571Y-23775542D01*
X45890142Y-23775542D01*
X45975857Y-23732685D01*
X46018714Y-23646971D01*
X46018714Y-23604114D01*
X45975857Y-23518400D01*
X45890142Y-23475542D01*
X45761571Y-23475542D01*
X45675857Y-23518400D01*
X45247285Y-23989828D02*
X45204428Y-24032685D01*
X45247285Y-24075542D01*
X45290142Y-24032685D01*
X45247285Y-23989828D01*
X45247285Y-24075542D01*
X45247285Y-23518400D02*
X45204428Y-23561257D01*
X45247285Y-23604114D01*
X45290142Y-23561257D01*
X45247285Y-23518400D01*
X45247285Y-23604114D01*
X44175857Y-23132685D02*
X44947285Y-24289828D01*
X43233000Y-23132685D02*
X44004428Y-24289828D01*
X42547285Y-23475542D02*
X42547285Y-24204114D01*
X42590142Y-24289828D01*
X42633000Y-24332685D01*
X42718714Y-24375542D01*
X42847285Y-24375542D01*
X42933000Y-24332685D01*
X42547285Y-24032685D02*
X42633000Y-24075542D01*
X42804428Y-24075542D01*
X42890142Y-24032685D01*
X42933000Y-23989828D01*
X42975857Y-23904114D01*
X42975857Y-23646971D01*
X42933000Y-23561257D01*
X42890142Y-23518400D01*
X42804428Y-23475542D01*
X42633000Y-23475542D01*
X42547285Y-23518400D01*
X42118714Y-24075542D02*
X42118714Y-23475542D01*
X42118714Y-23175542D02*
X42161571Y-23218400D01*
X42118714Y-23261257D01*
X42075857Y-23218400D01*
X42118714Y-23175542D01*
X42118714Y-23261257D01*
X41818714Y-23475542D02*
X41475857Y-23475542D01*
X41690142Y-23175542D02*
X41690142Y-23946971D01*
X41647285Y-24032685D01*
X41561571Y-24075542D01*
X41475857Y-24075542D01*
X41175857Y-24075542D02*
X41175857Y-23175542D01*
X40790142Y-24075542D02*
X40790142Y-23604114D01*
X40833000Y-23518400D01*
X40918714Y-23475542D01*
X41047285Y-23475542D01*
X41133000Y-23518400D01*
X41175857Y-23561257D01*
X39975857Y-23475542D02*
X39975857Y-24075542D01*
X40361571Y-23475542D02*
X40361571Y-23946971D01*
X40318714Y-24032685D01*
X40233000Y-24075542D01*
X40104428Y-24075542D01*
X40018714Y-24032685D01*
X39975857Y-23989828D01*
X39547285Y-24075542D02*
X39547285Y-23175542D01*
X39547285Y-23518400D02*
X39461571Y-23475542D01*
X39290142Y-23475542D01*
X39204428Y-23518400D01*
X39161571Y-23561257D01*
X39118714Y-23646971D01*
X39118714Y-23904114D01*
X39161571Y-23989828D01*
X39204428Y-24032685D01*
X39290142Y-24075542D01*
X39461571Y-24075542D01*
X39547285Y-24032685D01*
X38733000Y-23989828D02*
X38690142Y-24032685D01*
X38733000Y-24075542D01*
X38775857Y-24032685D01*
X38733000Y-23989828D01*
X38733000Y-24075542D01*
X37918714Y-24032685D02*
X38004428Y-24075542D01*
X38175857Y-24075542D01*
X38261571Y-24032685D01*
X38304428Y-23989828D01*
X38347285Y-23904114D01*
X38347285Y-23646971D01*
X38304428Y-23561257D01*
X38261571Y-23518400D01*
X38175857Y-23475542D01*
X38004428Y-23475542D01*
X37918714Y-23518400D01*
X37404428Y-24075542D02*
X37490142Y-24032685D01*
X37533000Y-23989828D01*
X37575857Y-23904114D01*
X37575857Y-23646971D01*
X37533000Y-23561257D01*
X37490142Y-23518400D01*
X37404428Y-23475542D01*
X37275857Y-23475542D01*
X37190142Y-23518400D01*
X37147285Y-23561257D01*
X37104428Y-23646971D01*
X37104428Y-23904114D01*
X37147285Y-23989828D01*
X37190142Y-24032685D01*
X37275857Y-24075542D01*
X37404428Y-24075542D01*
X36718714Y-24075542D02*
X36718714Y-23475542D01*
X36718714Y-23561257D02*
X36675857Y-23518400D01*
X36590142Y-23475542D01*
X36461571Y-23475542D01*
X36375857Y-23518400D01*
X36333000Y-23604114D01*
X36333000Y-24075542D01*
X36333000Y-23604114D02*
X36290142Y-23518400D01*
X36204428Y-23475542D01*
X36075857Y-23475542D01*
X35990142Y-23518400D01*
X35947285Y-23604114D01*
X35947285Y-24075542D01*
X34875857Y-23132685D02*
X35647285Y-24289828D01*
X34575857Y-23475542D02*
X34575857Y-24075542D01*
X34575857Y-23561257D02*
X34533000Y-23518400D01*
X34447285Y-23475542D01*
X34318714Y-23475542D01*
X34233000Y-23518400D01*
X34190142Y-23604114D01*
X34190142Y-24075542D01*
X33633000Y-24075542D02*
X33718714Y-24032685D01*
X33761571Y-23989828D01*
X33804428Y-23904114D01*
X33804428Y-23646971D01*
X33761571Y-23561257D01*
X33718714Y-23518400D01*
X33633000Y-23475542D01*
X33504428Y-23475542D01*
X33418714Y-23518400D01*
X33375857Y-23561257D01*
X33333000Y-23646971D01*
X33333000Y-23904114D01*
X33375857Y-23989828D01*
X33418714Y-24032685D01*
X33504428Y-24075542D01*
X33633000Y-24075542D01*
X32990142Y-24032685D02*
X32904428Y-24075542D01*
X32733000Y-24075542D01*
X32647285Y-24032685D01*
X32604428Y-23946971D01*
X32604428Y-23904114D01*
X32647285Y-23818400D01*
X32733000Y-23775542D01*
X32861571Y-23775542D01*
X32947285Y-23732685D01*
X32990142Y-23646971D01*
X32990142Y-23604114D01*
X32947285Y-23518400D01*
X32861571Y-23475542D01*
X32733000Y-23475542D01*
X32647285Y-23518400D01*
X32218714Y-23475542D02*
X32218714Y-24375542D01*
X32218714Y-23518400D02*
X32133000Y-23475542D01*
X31961571Y-23475542D01*
X31875857Y-23518400D01*
X31833000Y-23561257D01*
X31790142Y-23646971D01*
X31790142Y-23904114D01*
X31833000Y-23989828D01*
X31875857Y-24032685D01*
X31961571Y-24075542D01*
X32133000Y-24075542D01*
X32218714Y-24032685D01*
X31018714Y-24075542D02*
X31018714Y-23604114D01*
X31061571Y-23518400D01*
X31147285Y-23475542D01*
X31318714Y-23475542D01*
X31404428Y-23518400D01*
X31018714Y-24032685D02*
X31104428Y-24075542D01*
X31318714Y-24075542D01*
X31404428Y-24032685D01*
X31447285Y-23946971D01*
X31447285Y-23861257D01*
X31404428Y-23775542D01*
X31318714Y-23732685D01*
X31104428Y-23732685D01*
X31018714Y-23689828D01*
X30590142Y-24075542D02*
X30590142Y-23475542D01*
X30590142Y-23561257D02*
X30547285Y-23518400D01*
X30461571Y-23475542D01*
X30333000Y-23475542D01*
X30247285Y-23518400D01*
X30204428Y-23604114D01*
X30204428Y-24075542D01*
X30204428Y-23604114D02*
X30161571Y-23518400D01*
X30075857Y-23475542D01*
X29947285Y-23475542D01*
X29861571Y-23518400D01*
X29818714Y-23604114D01*
X29818714Y-24075542D01*
X29433000Y-23261257D02*
X29390142Y-23218400D01*
X29304428Y-23175542D01*
X29090142Y-23175542D01*
X29004428Y-23218400D01*
X28961571Y-23261257D01*
X28918714Y-23346971D01*
X28918714Y-23432685D01*
X28961571Y-23561257D01*
X29475857Y-24075542D01*
X28918714Y-24075542D01*
X28361571Y-23175542D02*
X28275857Y-23175542D01*
X28190142Y-23218400D01*
X28147285Y-23261257D01*
X28104428Y-23346971D01*
X28061571Y-23518400D01*
X28061571Y-23732685D01*
X28104428Y-23904114D01*
X28147285Y-23989828D01*
X28190142Y-24032685D01*
X28275857Y-24075542D01*
X28361571Y-24075542D01*
X28447285Y-24032685D01*
X28490142Y-23989828D01*
X28533000Y-23904114D01*
X28575857Y-23732685D01*
X28575857Y-23518400D01*
X28533000Y-23346971D01*
X28490142Y-23261257D01*
X28447285Y-23218400D01*
X28361571Y-23175542D01*
X27504428Y-23175542D02*
X27418714Y-23175542D01*
X27333000Y-23218400D01*
X27290142Y-23261257D01*
X27247285Y-23346971D01*
X27204428Y-23518400D01*
X27204428Y-23732685D01*
X27247285Y-23904114D01*
X27290142Y-23989828D01*
X27333000Y-24032685D01*
X27418714Y-24075542D01*
X27504428Y-24075542D01*
X27590142Y-24032685D01*
X27633000Y-23989828D01*
X27675857Y-23904114D01*
X27718714Y-23732685D01*
X27718714Y-23518400D01*
X27675857Y-23346971D01*
X27633000Y-23261257D01*
X27590142Y-23218400D01*
X27504428Y-23175542D01*
X26647285Y-23175542D02*
X26561571Y-23175542D01*
X26475857Y-23218400D01*
X26433000Y-23261257D01*
X26390142Y-23346971D01*
X26347285Y-23518400D01*
X26347285Y-23732685D01*
X26390142Y-23904114D01*
X26433000Y-23989828D01*
X26475857Y-24032685D01*
X26561571Y-24075542D01*
X26647285Y-24075542D01*
X26733000Y-24032685D01*
X26775857Y-23989828D01*
X26818714Y-23904114D01*
X26861571Y-23732685D01*
X26861571Y-23518400D01*
X26818714Y-23346971D01*
X26775857Y-23261257D01*
X26733000Y-23218400D01*
X26647285Y-23175542D01*
X25318714Y-23132685D02*
X26090142Y-24289828D01*
X24504428Y-24075542D02*
X24804428Y-23646971D01*
X25018714Y-24075542D02*
X25018714Y-23175542D01*
X24675857Y-23175542D01*
X24590142Y-23218400D01*
X24547285Y-23261257D01*
X24504428Y-23346971D01*
X24504428Y-23475542D01*
X24547285Y-23561257D01*
X24590142Y-23604114D01*
X24675857Y-23646971D01*
X25018714Y-23646971D01*
X24161571Y-23818400D02*
X23733000Y-23818400D01*
X24247285Y-24075542D02*
X23947285Y-23175542D01*
X23647285Y-24075542D01*
X23390142Y-24032685D02*
X23261571Y-24075542D01*
X23047285Y-24075542D01*
X22961571Y-24032685D01*
X22918714Y-23989828D01*
X22875857Y-23904114D01*
X22875857Y-23818400D01*
X22918714Y-23732685D01*
X22961571Y-23689828D01*
X23047285Y-23646971D01*
X23218714Y-23604114D01*
X23304428Y-23561257D01*
X23347285Y-23518400D01*
X23390142Y-23432685D01*
X23390142Y-23346971D01*
X23347285Y-23261257D01*
X23304428Y-23218400D01*
X23218714Y-23175542D01*
X23004428Y-23175542D01*
X22875857Y-23218400D01*
X21975857Y-23989828D02*
X22018714Y-24032685D01*
X22147285Y-24075542D01*
X22233000Y-24075542D01*
X22361571Y-24032685D01*
X22447285Y-23946971D01*
X22490142Y-23861257D01*
X22533000Y-23689828D01*
X22533000Y-23561257D01*
X22490142Y-23389828D01*
X22447285Y-23304114D01*
X22361571Y-23218400D01*
X22233000Y-23175542D01*
X22147285Y-23175542D01*
X22018714Y-23218400D01*
X21975857Y-23261257D01*
X21633000Y-24032685D02*
X21504428Y-24075542D01*
X21290142Y-24075542D01*
X21204428Y-24032685D01*
X21161571Y-23989828D01*
X21118714Y-23904114D01*
X21118714Y-23818400D01*
X21161571Y-23732685D01*
X21204428Y-23689828D01*
X21290142Y-23646971D01*
X21461571Y-23604114D01*
X21547285Y-23561257D01*
X21590142Y-23518400D01*
X21633000Y-23432685D01*
X21633000Y-23346971D01*
X21590142Y-23261257D01*
X21547285Y-23218400D01*
X21461571Y-23175542D01*
X21247285Y-23175542D01*
X21118714Y-23218400D01*
X20733000Y-24075542D02*
X20733000Y-23175542D01*
D11*
X19143000Y-68763000D02*
X19079500Y-68763000D01*
X19079500Y-68763000D02*
X19079500Y-69017000D01*
X33937000Y-17954000D02*
X34064000Y-17954000D01*
X52504000Y-48773000D02*
X54917000Y-48773000D01*
X54917000Y-48773000D02*
X54917000Y-46487000D01*
X52377000Y-48900000D02*
X55044000Y-48900000D01*
X55044000Y-48900000D02*
X55044000Y-46360000D01*
X68760000Y-44328000D02*
X7673000Y-44328000D01*
X68760000Y-39121000D02*
X68760000Y-44328000D01*
X5133000Y-39121000D02*
X68760000Y-39121000D01*
X5133000Y-41788000D02*
X5133000Y-39121000D01*
X7673000Y-41788000D02*
X5133000Y-41788000D01*
X7673000Y-44328000D02*
X7673000Y-41788000D01*
X5133000Y-44328000D02*
X6530000Y-44328000D01*
X5133000Y-42931000D02*
X5133000Y-44328000D01*
D10*
X15331023Y-35482500D02*
X15407214Y-35444404D01*
X15521500Y-35444404D01*
X15635785Y-35482500D01*
X15711976Y-35558690D01*
X15750071Y-35634880D01*
X15788166Y-35787261D01*
X15788166Y-35901547D01*
X15750071Y-36053928D01*
X15711976Y-36130119D01*
X15635785Y-36206309D01*
X15521500Y-36244404D01*
X15445309Y-36244404D01*
X15331023Y-36206309D01*
X15292928Y-36168214D01*
X15292928Y-35901547D01*
X15445309Y-35901547D01*
X14950071Y-36244404D02*
X14950071Y-35444404D01*
X14492928Y-36244404D01*
X14492928Y-35444404D01*
X14111976Y-36244404D02*
X14111976Y-35444404D01*
X13921500Y-35444404D01*
X13807214Y-35482500D01*
X13731023Y-35558690D01*
X13692928Y-35634880D01*
X13654833Y-35787261D01*
X13654833Y-35901547D01*
X13692928Y-36053928D01*
X13731023Y-36130119D01*
X13807214Y-36206309D01*
X13921500Y-36244404D01*
X14111976Y-36244404D01*
D11*
X5323500Y-36898500D02*
X5323500Y-36771500D01*
X17007500Y-36898500D02*
X5323500Y-36898500D01*
X17007500Y-34866500D02*
X17007500Y-36898500D01*
X5323500Y-34866500D02*
X17007500Y-34866500D01*
X5323500Y-36771500D02*
X5323500Y-34866500D01*
X4675800Y-25278000D02*
X6072800Y-25278000D01*
X4675800Y-23754000D02*
X4675800Y-25278000D01*
D10*
X11819500Y-30586452D02*
X11857595Y-30662642D01*
X11857595Y-30776928D01*
X11819500Y-30891214D01*
X11743309Y-30967404D01*
X11667119Y-31005500D01*
X11514738Y-31043595D01*
X11400452Y-31043595D01*
X11248071Y-31005500D01*
X11171880Y-30967404D01*
X11095690Y-30891214D01*
X11057595Y-30776928D01*
X11057595Y-30700738D01*
X11095690Y-30586452D01*
X11133785Y-30548357D01*
X11400452Y-30548357D01*
X11400452Y-30700738D01*
X11057595Y-30205500D02*
X11857595Y-30205500D01*
X11857595Y-29900738D01*
X11819500Y-29824547D01*
X11781404Y-29786452D01*
X11705214Y-29748357D01*
X11590928Y-29748357D01*
X11514738Y-29786452D01*
X11476642Y-29824547D01*
X11438547Y-29900738D01*
X11438547Y-30205500D01*
X11057595Y-29405500D02*
X11857595Y-29405500D01*
X11857595Y-28872166D02*
X11857595Y-28719785D01*
X11819500Y-28643595D01*
X11743309Y-28567404D01*
X11590928Y-28529309D01*
X11324261Y-28529309D01*
X11171880Y-28567404D01*
X11095690Y-28643595D01*
X11057595Y-28719785D01*
X11057595Y-28872166D01*
X11095690Y-28948357D01*
X11171880Y-29024547D01*
X11324261Y-29062642D01*
X11590928Y-29062642D01*
X11743309Y-29024547D01*
X11819500Y-28948357D01*
X11857595Y-28872166D01*
X11057595Y-28148357D02*
X11057595Y-27995976D01*
X11095690Y-27919785D01*
X11133785Y-27881690D01*
X11248071Y-27805500D01*
X11400452Y-27767404D01*
X11705214Y-27767404D01*
X11781404Y-27805500D01*
X11819500Y-27843595D01*
X11857595Y-27919785D01*
X11857595Y-28072166D01*
X11819500Y-28148357D01*
X11781404Y-28186452D01*
X11705214Y-28224547D01*
X11514738Y-28224547D01*
X11438547Y-28186452D01*
X11400452Y-28148357D01*
X11362357Y-28072166D01*
X11362357Y-27919785D01*
X11400452Y-27843595D01*
X11438547Y-27805500D01*
X11514738Y-27767404D01*
X13026000Y-30586452D02*
X13064095Y-30662642D01*
X13064095Y-30776928D01*
X13026000Y-30891214D01*
X12949809Y-30967404D01*
X12873619Y-31005500D01*
X12721238Y-31043595D01*
X12606952Y-31043595D01*
X12454571Y-31005500D01*
X12378380Y-30967404D01*
X12302190Y-30891214D01*
X12264095Y-30776928D01*
X12264095Y-30700738D01*
X12302190Y-30586452D01*
X12340285Y-30548357D01*
X12606952Y-30548357D01*
X12606952Y-30700738D01*
X12264095Y-30205500D02*
X13064095Y-30205500D01*
X13064095Y-29900738D01*
X13026000Y-29824547D01*
X12987904Y-29786452D01*
X12911714Y-29748357D01*
X12797428Y-29748357D01*
X12721238Y-29786452D01*
X12683142Y-29824547D01*
X12645047Y-29900738D01*
X12645047Y-30205500D01*
X12264095Y-29405500D02*
X13064095Y-29405500D01*
X13064095Y-28872166D02*
X13064095Y-28719785D01*
X13026000Y-28643595D01*
X12949809Y-28567404D01*
X12797428Y-28529309D01*
X12530761Y-28529309D01*
X12378380Y-28567404D01*
X12302190Y-28643595D01*
X12264095Y-28719785D01*
X12264095Y-28872166D01*
X12302190Y-28948357D01*
X12378380Y-29024547D01*
X12530761Y-29062642D01*
X12797428Y-29062642D01*
X12949809Y-29024547D01*
X13026000Y-28948357D01*
X13064095Y-28872166D01*
X12264095Y-27767404D02*
X12264095Y-28224547D01*
X12264095Y-27995976D02*
X13064095Y-27995976D01*
X12949809Y-28072166D01*
X12873619Y-28148357D01*
X12835523Y-28224547D01*
X14105500Y-30649952D02*
X14143595Y-30726142D01*
X14143595Y-30840428D01*
X14105500Y-30954714D01*
X14029309Y-31030904D01*
X13953119Y-31069000D01*
X13800738Y-31107095D01*
X13686452Y-31107095D01*
X13534071Y-31069000D01*
X13457880Y-31030904D01*
X13381690Y-30954714D01*
X13343595Y-30840428D01*
X13343595Y-30764238D01*
X13381690Y-30649952D01*
X13419785Y-30611857D01*
X13686452Y-30611857D01*
X13686452Y-30764238D01*
X13343595Y-30269000D02*
X14143595Y-30269000D01*
X14143595Y-29964238D01*
X14105500Y-29888047D01*
X14067404Y-29849952D01*
X13991214Y-29811857D01*
X13876928Y-29811857D01*
X13800738Y-29849952D01*
X13762642Y-29888047D01*
X13724547Y-29964238D01*
X13724547Y-30269000D01*
X13343595Y-29469000D02*
X14143595Y-29469000D01*
X14143595Y-28935666D02*
X14143595Y-28783285D01*
X14105500Y-28707095D01*
X14029309Y-28630904D01*
X13876928Y-28592809D01*
X13610261Y-28592809D01*
X13457880Y-28630904D01*
X13381690Y-28707095D01*
X13343595Y-28783285D01*
X13343595Y-28935666D01*
X13381690Y-29011857D01*
X13457880Y-29088047D01*
X13610261Y-29126142D01*
X13876928Y-29126142D01*
X14029309Y-29088047D01*
X14105500Y-29011857D01*
X14143595Y-28935666D01*
X14143595Y-28097571D02*
X14143595Y-28021380D01*
X14105500Y-27945190D01*
X14067404Y-27907095D01*
X13991214Y-27869000D01*
X13838833Y-27830904D01*
X13648357Y-27830904D01*
X13495976Y-27869000D01*
X13419785Y-27907095D01*
X13381690Y-27945190D01*
X13343595Y-28021380D01*
X13343595Y-28097571D01*
X13381690Y-28173761D01*
X13419785Y-28211857D01*
X13495976Y-28249952D01*
X13648357Y-28288047D01*
X13838833Y-28288047D01*
X13991214Y-28249952D01*
X14067404Y-28211857D01*
X14105500Y-28173761D01*
X14143595Y-28097571D01*
X8603495Y-24112885D02*
X8603495Y-24493838D01*
X8222542Y-24531933D01*
X8260638Y-24493838D01*
X8298733Y-24417647D01*
X8298733Y-24227171D01*
X8260638Y-24150980D01*
X8222542Y-24112885D01*
X8146352Y-24074790D01*
X7955876Y-24074790D01*
X7879685Y-24112885D01*
X7841590Y-24150980D01*
X7803495Y-24227171D01*
X7803495Y-24417647D01*
X7841590Y-24493838D01*
X7879685Y-24531933D01*
X8336828Y-23808123D02*
X7803495Y-23617647D01*
X8336828Y-23427171D01*
X8530200Y-22001323D02*
X8568295Y-22077514D01*
X8568295Y-22191800D01*
X8530200Y-22306085D01*
X8454009Y-22382276D01*
X8377819Y-22420371D01*
X8225438Y-22458466D01*
X8111152Y-22458466D01*
X7958771Y-22420371D01*
X7882580Y-22382276D01*
X7806390Y-22306085D01*
X7768295Y-22191800D01*
X7768295Y-22115609D01*
X7806390Y-22001323D01*
X7844485Y-21963228D01*
X8111152Y-21963228D01*
X8111152Y-22115609D01*
X7768295Y-21620371D02*
X8568295Y-21620371D01*
X7768295Y-21163228D01*
X8568295Y-21163228D01*
X7768295Y-20782276D02*
X8568295Y-20782276D01*
X8568295Y-20591800D01*
X8530200Y-20477514D01*
X8454009Y-20401323D01*
X8377819Y-20363228D01*
X8225438Y-20325133D01*
X8111152Y-20325133D01*
X7958771Y-20363228D01*
X7882580Y-20401323D01*
X7806390Y-20477514D01*
X7768295Y-20591800D01*
X7768295Y-20782276D01*
X8568295Y-19689895D02*
X8568295Y-19194657D01*
X8263533Y-19461323D01*
X8263533Y-19347038D01*
X8225438Y-19270847D01*
X8187342Y-19232752D01*
X8111152Y-19194657D01*
X7920676Y-19194657D01*
X7844485Y-19232752D01*
X7806390Y-19270847D01*
X7768295Y-19347038D01*
X7768295Y-19575609D01*
X7806390Y-19651800D01*
X7844485Y-19689895D01*
X7844485Y-18851800D02*
X7806390Y-18813704D01*
X7768295Y-18851800D01*
X7806390Y-18889895D01*
X7844485Y-18851800D01*
X7768295Y-18851800D01*
X8568295Y-18547038D02*
X8568295Y-18051800D01*
X8263533Y-18318466D01*
X8263533Y-18204180D01*
X8225438Y-18127990D01*
X8187342Y-18089895D01*
X8111152Y-18051800D01*
X7920676Y-18051800D01*
X7844485Y-18089895D01*
X7806390Y-18127990D01*
X7768295Y-18204180D01*
X7768295Y-18432752D01*
X7806390Y-18508942D01*
X7844485Y-18547038D01*
X7806390Y-17010180D02*
X7768295Y-16895895D01*
X7768295Y-16705419D01*
X7806390Y-16629228D01*
X7844485Y-16591133D01*
X7920676Y-16553038D01*
X7996866Y-16553038D01*
X8073057Y-16591133D01*
X8111152Y-16629228D01*
X8149247Y-16705419D01*
X8187342Y-16857800D01*
X8225438Y-16933990D01*
X8263533Y-16972085D01*
X8339723Y-17010180D01*
X8415914Y-17010180D01*
X8492104Y-16972085D01*
X8530200Y-16933990D01*
X8568295Y-16857800D01*
X8568295Y-16667323D01*
X8530200Y-16553038D01*
X7844485Y-15753038D02*
X7806390Y-15791133D01*
X7768295Y-15905419D01*
X7768295Y-15981609D01*
X7806390Y-16095895D01*
X7882580Y-16172085D01*
X7958771Y-16210180D01*
X8111152Y-16248276D01*
X8225438Y-16248276D01*
X8377819Y-16210180D01*
X8454009Y-16172085D01*
X8530200Y-16095895D01*
X8568295Y-15981609D01*
X8568295Y-15905419D01*
X8530200Y-15791133D01*
X8492104Y-15753038D01*
X7768295Y-15029228D02*
X7768295Y-15410180D01*
X8568295Y-15410180D01*
X7806390Y-14489228D02*
X7768295Y-14374942D01*
X7768295Y-14184466D01*
X7806390Y-14108276D01*
X7844485Y-14070180D01*
X7920676Y-14032085D01*
X7996866Y-14032085D01*
X8073057Y-14070180D01*
X8111152Y-14108276D01*
X8149247Y-14184466D01*
X8187342Y-14336847D01*
X8225438Y-14413038D01*
X8263533Y-14451133D01*
X8339723Y-14489228D01*
X8415914Y-14489228D01*
X8492104Y-14451133D01*
X8530200Y-14413038D01*
X8568295Y-14336847D01*
X8568295Y-14146371D01*
X8530200Y-14032085D01*
X7768295Y-13689228D02*
X8568295Y-13689228D01*
X8568295Y-13498752D01*
X8530200Y-13384466D01*
X8454009Y-13308276D01*
X8377819Y-13270180D01*
X8225438Y-13232085D01*
X8111152Y-13232085D01*
X7958771Y-13270180D01*
X7882580Y-13308276D01*
X7806390Y-13384466D01*
X7768295Y-13498752D01*
X7768295Y-13689228D01*
X7996866Y-12927323D02*
X7996866Y-12546371D01*
X7768295Y-13003514D02*
X8568295Y-12736847D01*
X7768295Y-12470180D01*
X6072785Y-8647404D02*
X6453738Y-8647404D01*
X6491833Y-9028357D01*
X6453738Y-8990261D01*
X6377547Y-8952166D01*
X6187071Y-8952166D01*
X6110880Y-8990261D01*
X6072785Y-9028357D01*
X6034690Y-9104547D01*
X6034690Y-9295023D01*
X6072785Y-9371214D01*
X6110880Y-9409309D01*
X6187071Y-9447404D01*
X6377547Y-9447404D01*
X6453738Y-9409309D01*
X6491833Y-9371214D01*
X5768023Y-8914071D02*
X5577547Y-9447404D01*
X5387071Y-8914071D01*
X10781523Y-8384000D02*
X10857714Y-8345904D01*
X10972000Y-8345904D01*
X11086285Y-8384000D01*
X11162476Y-8460190D01*
X11200571Y-8536380D01*
X11238666Y-8688761D01*
X11238666Y-8803047D01*
X11200571Y-8955428D01*
X11162476Y-9031619D01*
X11086285Y-9107809D01*
X10972000Y-9145904D01*
X10895809Y-9145904D01*
X10781523Y-9107809D01*
X10743428Y-9069714D01*
X10743428Y-8803047D01*
X10895809Y-8803047D01*
X10400571Y-9145904D02*
X10400571Y-8345904D01*
X9943428Y-9145904D01*
X9943428Y-8345904D01*
X9562476Y-9145904D02*
X9562476Y-8345904D01*
X9372000Y-8345904D01*
X9257714Y-8384000D01*
X9181523Y-8460190D01*
X9143428Y-8536380D01*
X9105333Y-8688761D01*
X9105333Y-8803047D01*
X9143428Y-8955428D01*
X9181523Y-9031619D01*
X9257714Y-9107809D01*
X9372000Y-9145904D01*
X9562476Y-9145904D01*
X53249752Y-20650571D02*
X53583085Y-20650571D01*
X53583085Y-21174380D02*
X53583085Y-20174380D01*
X53106895Y-20174380D01*
X52725942Y-20174380D02*
X52725942Y-20983904D01*
X52678323Y-21079142D01*
X52630704Y-21126761D01*
X52535466Y-21174380D01*
X52344990Y-21174380D01*
X52249752Y-21126761D01*
X52202133Y-21079142D01*
X52154514Y-20983904D01*
X52154514Y-20174380D01*
X51202133Y-21174380D02*
X51678323Y-21174380D01*
X51678323Y-20174380D01*
X50392609Y-21174380D02*
X50868800Y-21174380D01*
X50868800Y-20174380D01*
X50106895Y-21126761D02*
X49964038Y-21174380D01*
X49725942Y-21174380D01*
X49630704Y-21126761D01*
X49583085Y-21079142D01*
X49535466Y-20983904D01*
X49535466Y-20888666D01*
X49583085Y-20793428D01*
X49630704Y-20745809D01*
X49725942Y-20698190D01*
X49916419Y-20650571D01*
X50011657Y-20602952D01*
X50059276Y-20555333D01*
X50106895Y-20460095D01*
X50106895Y-20364857D01*
X50059276Y-20269619D01*
X50011657Y-20222000D01*
X49916419Y-20174380D01*
X49678323Y-20174380D01*
X49535466Y-20222000D01*
X49106895Y-21174380D02*
X49106895Y-20174380D01*
X48725942Y-20174380D01*
X48630704Y-20222000D01*
X48583085Y-20269619D01*
X48535466Y-20364857D01*
X48535466Y-20507714D01*
X48583085Y-20602952D01*
X48630704Y-20650571D01*
X48725942Y-20698190D01*
X49106895Y-20698190D01*
X48106895Y-20650571D02*
X47773561Y-20650571D01*
X47630704Y-21174380D02*
X48106895Y-21174380D01*
X48106895Y-20174380D01*
X47630704Y-20174380D01*
X46630704Y-21079142D02*
X46678323Y-21126761D01*
X46821180Y-21174380D01*
X46916419Y-21174380D01*
X47059276Y-21126761D01*
X47154514Y-21031523D01*
X47202133Y-20936285D01*
X47249752Y-20745809D01*
X47249752Y-20602952D01*
X47202133Y-20412476D01*
X47154514Y-20317238D01*
X47059276Y-20222000D01*
X46916419Y-20174380D01*
X46821180Y-20174380D01*
X46678323Y-20222000D01*
X46630704Y-20269619D01*
X45106895Y-20650571D02*
X44964038Y-20698190D01*
X44916419Y-20745809D01*
X44868800Y-20841047D01*
X44868800Y-20983904D01*
X44916419Y-21079142D01*
X44964038Y-21126761D01*
X45059276Y-21174380D01*
X45440228Y-21174380D01*
X45440228Y-20174380D01*
X45106895Y-20174380D01*
X45011657Y-20222000D01*
X44964038Y-20269619D01*
X44916419Y-20364857D01*
X44916419Y-20460095D01*
X44964038Y-20555333D01*
X45011657Y-20602952D01*
X45106895Y-20650571D01*
X45440228Y-20650571D01*
X44297371Y-21174380D02*
X44392609Y-21126761D01*
X44440228Y-21079142D01*
X44487847Y-20983904D01*
X44487847Y-20698190D01*
X44440228Y-20602952D01*
X44392609Y-20555333D01*
X44297371Y-20507714D01*
X44154514Y-20507714D01*
X44059276Y-20555333D01*
X44011657Y-20602952D01*
X43964038Y-20698190D01*
X43964038Y-20983904D01*
X44011657Y-21079142D01*
X44059276Y-21126761D01*
X44154514Y-21174380D01*
X44297371Y-21174380D01*
X43106895Y-21174380D02*
X43106895Y-20650571D01*
X43154514Y-20555333D01*
X43249752Y-20507714D01*
X43440228Y-20507714D01*
X43535466Y-20555333D01*
X43106895Y-21126761D02*
X43202133Y-21174380D01*
X43440228Y-21174380D01*
X43535466Y-21126761D01*
X43583085Y-21031523D01*
X43583085Y-20936285D01*
X43535466Y-20841047D01*
X43440228Y-20793428D01*
X43202133Y-20793428D01*
X43106895Y-20745809D01*
X42630704Y-21174380D02*
X42630704Y-20507714D01*
X42630704Y-20698190D02*
X42583085Y-20602952D01*
X42535466Y-20555333D01*
X42440228Y-20507714D01*
X42344990Y-20507714D01*
X41583085Y-21174380D02*
X41583085Y-20174380D01*
X41583085Y-21126761D02*
X41678323Y-21174380D01*
X41868800Y-21174380D01*
X41964038Y-21126761D01*
X42011657Y-21079142D01*
X42059276Y-20983904D01*
X42059276Y-20698190D01*
X42011657Y-20602952D01*
X41964038Y-20555333D01*
X41868800Y-20507714D01*
X41678323Y-20507714D01*
X41583085Y-20555333D01*
X40487847Y-20174380D02*
X40154514Y-21174380D01*
X39821180Y-20174380D01*
X39106895Y-21126761D02*
X39202133Y-21174380D01*
X39392609Y-21174380D01*
X39487847Y-21126761D01*
X39535466Y-21031523D01*
X39535466Y-20650571D01*
X39487847Y-20555333D01*
X39392609Y-20507714D01*
X39202133Y-20507714D01*
X39106895Y-20555333D01*
X39059276Y-20650571D01*
X39059276Y-20745809D01*
X39535466Y-20841047D01*
X38630704Y-21174380D02*
X38630704Y-20507714D01*
X38630704Y-20698190D02*
X38583085Y-20602952D01*
X38535466Y-20555333D01*
X38440228Y-20507714D01*
X38344990Y-20507714D01*
X38059276Y-21126761D02*
X37964038Y-21174380D01*
X37773561Y-21174380D01*
X37678323Y-21126761D01*
X37630704Y-21031523D01*
X37630704Y-20983904D01*
X37678323Y-20888666D01*
X37773561Y-20841047D01*
X37916419Y-20841047D01*
X38011657Y-20793428D01*
X38059276Y-20698190D01*
X38059276Y-20650571D01*
X38011657Y-20555333D01*
X37916419Y-20507714D01*
X37773561Y-20507714D01*
X37678323Y-20555333D01*
X37202133Y-21174380D02*
X37202133Y-20507714D01*
X37202133Y-20174380D02*
X37249752Y-20222000D01*
X37202133Y-20269619D01*
X37154514Y-20222000D01*
X37202133Y-20174380D01*
X37202133Y-20269619D01*
X36583085Y-21174380D02*
X36678323Y-21126761D01*
X36725942Y-21079142D01*
X36773561Y-20983904D01*
X36773561Y-20698190D01*
X36725942Y-20602952D01*
X36678323Y-20555333D01*
X36583085Y-20507714D01*
X36440228Y-20507714D01*
X36344990Y-20555333D01*
X36297371Y-20602952D01*
X36249752Y-20698190D01*
X36249752Y-20983904D01*
X36297371Y-21079142D01*
X36344990Y-21126761D01*
X36440228Y-21174380D01*
X36583085Y-21174380D01*
X35821180Y-20507714D02*
X35821180Y-21174380D01*
X35821180Y-20602952D02*
X35773561Y-20555333D01*
X35678323Y-20507714D01*
X35535466Y-20507714D01*
X35440228Y-20555333D01*
X35392609Y-20650571D01*
X35392609Y-21174380D01*
X34249752Y-20507714D02*
X34059276Y-21174380D01*
X33868800Y-20698190D01*
X33678323Y-21174380D01*
X33487847Y-20507714D01*
X33106895Y-21174380D02*
X33106895Y-20507714D01*
X33106895Y-20174380D02*
X33154514Y-20222000D01*
X33106895Y-20269619D01*
X33059276Y-20222000D01*
X33106895Y-20174380D01*
X33106895Y-20269619D01*
X32773561Y-20507714D02*
X32392609Y-20507714D01*
X32630704Y-20174380D02*
X32630704Y-21031523D01*
X32583085Y-21126761D01*
X32487847Y-21174380D01*
X32392609Y-21174380D01*
X32059276Y-21174380D02*
X32059276Y-20174380D01*
X31630704Y-21174380D02*
X31630704Y-20650571D01*
X31678323Y-20555333D01*
X31773561Y-20507714D01*
X31916419Y-20507714D01*
X32011657Y-20555333D01*
X32059276Y-20602952D01*
X29964038Y-21174380D02*
X29964038Y-20650571D01*
X30011657Y-20555333D01*
X30106895Y-20507714D01*
X30297371Y-20507714D01*
X30392609Y-20555333D01*
X29964038Y-21126761D02*
X30059276Y-21174380D01*
X30297371Y-21174380D01*
X30392609Y-21126761D01*
X30440228Y-21031523D01*
X30440228Y-20936285D01*
X30392609Y-20841047D01*
X30297371Y-20793428D01*
X30059276Y-20793428D01*
X29964038Y-20745809D01*
X29059276Y-21126761D02*
X29154514Y-21174380D01*
X29344990Y-21174380D01*
X29440228Y-21126761D01*
X29487847Y-21079142D01*
X29535466Y-20983904D01*
X29535466Y-20698190D01*
X29487847Y-20602952D01*
X29440228Y-20555333D01*
X29344990Y-20507714D01*
X29154514Y-20507714D01*
X29059276Y-20555333D01*
X28773561Y-20507714D02*
X28392609Y-20507714D01*
X28630704Y-20174380D02*
X28630704Y-21031523D01*
X28583085Y-21126761D01*
X28487847Y-21174380D01*
X28392609Y-21174380D01*
X28059276Y-21174380D02*
X28059276Y-20507714D01*
X28059276Y-20174380D02*
X28106895Y-20222000D01*
X28059276Y-20269619D01*
X28011657Y-20222000D01*
X28059276Y-20174380D01*
X28059276Y-20269619D01*
X27678323Y-20507714D02*
X27440228Y-21174380D01*
X27202133Y-20507714D01*
X26440228Y-21126761D02*
X26535466Y-21174380D01*
X26725942Y-21174380D01*
X26821180Y-21126761D01*
X26868800Y-21031523D01*
X26868800Y-20650571D01*
X26821180Y-20555333D01*
X26725942Y-20507714D01*
X26535466Y-20507714D01*
X26440228Y-20555333D01*
X26392609Y-20650571D01*
X26392609Y-20745809D01*
X26868800Y-20841047D01*
X25344990Y-20507714D02*
X24964038Y-20507714D01*
X25202133Y-20174380D02*
X25202133Y-21031523D01*
X25154514Y-21126761D01*
X25059276Y-21174380D01*
X24964038Y-21174380D01*
X24249752Y-21126761D02*
X24344990Y-21174380D01*
X24535466Y-21174380D01*
X24630704Y-21126761D01*
X24678323Y-21031523D01*
X24678323Y-20650571D01*
X24630704Y-20555333D01*
X24535466Y-20507714D01*
X24344990Y-20507714D01*
X24249752Y-20555333D01*
X24202133Y-20650571D01*
X24202133Y-20745809D01*
X24678323Y-20841047D01*
X23773561Y-21174380D02*
X23773561Y-20507714D01*
X23773561Y-20698190D02*
X23725942Y-20602952D01*
X23678323Y-20555333D01*
X23583085Y-20507714D01*
X23487847Y-20507714D01*
X23154514Y-21174380D02*
X23154514Y-20507714D01*
X23154514Y-20602952D02*
X23106895Y-20555333D01*
X23011657Y-20507714D01*
X22868800Y-20507714D01*
X22773561Y-20555333D01*
X22725942Y-20650571D01*
X22725942Y-21174380D01*
X22725942Y-20650571D02*
X22678323Y-20555333D01*
X22583085Y-20507714D01*
X22440228Y-20507714D01*
X22344990Y-20555333D01*
X22297371Y-20650571D01*
X22297371Y-21174380D01*
X21821180Y-21174380D02*
X21821180Y-20507714D01*
X21821180Y-20174380D02*
X21868800Y-20222000D01*
X21821180Y-20269619D01*
X21773561Y-20222000D01*
X21821180Y-20174380D01*
X21821180Y-20269619D01*
X21344990Y-20507714D02*
X21344990Y-21174380D01*
X21344990Y-20602952D02*
X21297371Y-20555333D01*
X21202133Y-20507714D01*
X21059276Y-20507714D01*
X20964038Y-20555333D01*
X20916419Y-20650571D01*
X20916419Y-21174380D01*
X20011657Y-21174380D02*
X20011657Y-20650571D01*
X20059276Y-20555333D01*
X20154514Y-20507714D01*
X20344990Y-20507714D01*
X20440228Y-20555333D01*
X20011657Y-21126761D02*
X20106895Y-21174380D01*
X20344990Y-21174380D01*
X20440228Y-21126761D01*
X20487847Y-21031523D01*
X20487847Y-20936285D01*
X20440228Y-20841047D01*
X20344990Y-20793428D01*
X20106895Y-20793428D01*
X20011657Y-20745809D01*
X19678323Y-20507714D02*
X19297371Y-20507714D01*
X19535466Y-20174380D02*
X19535466Y-21031523D01*
X19487847Y-21126761D01*
X19392609Y-21174380D01*
X19297371Y-21174380D01*
X18964038Y-21174380D02*
X18964038Y-20507714D01*
X18964038Y-20174380D02*
X19011657Y-20222000D01*
X18964038Y-20269619D01*
X18916419Y-20222000D01*
X18964038Y-20174380D01*
X18964038Y-20269619D01*
X18344990Y-21174380D02*
X18440228Y-21126761D01*
X18487847Y-21079142D01*
X18535466Y-20983904D01*
X18535466Y-20698190D01*
X18487847Y-20602952D01*
X18440228Y-20555333D01*
X18344990Y-20507714D01*
X18202133Y-20507714D01*
X18106895Y-20555333D01*
X18059276Y-20602952D01*
X18011657Y-20698190D01*
X18011657Y-20983904D01*
X18059276Y-21079142D01*
X18106895Y-21126761D01*
X18202133Y-21174380D01*
X18344990Y-21174380D01*
X17583085Y-20507714D02*
X17583085Y-21174380D01*
X17583085Y-20602952D02*
X17535466Y-20555333D01*
X17440228Y-20507714D01*
X17297371Y-20507714D01*
X17202133Y-20555333D01*
X17154514Y-20650571D01*
X17154514Y-21174380D01*
X46833333Y-11319761D02*
X46690476Y-11367380D01*
X46452380Y-11367380D01*
X46357142Y-11319761D01*
X46309523Y-11272142D01*
X46261904Y-11176904D01*
X46261904Y-11081666D01*
X46309523Y-10986428D01*
X46357142Y-10938809D01*
X46452380Y-10891190D01*
X46642857Y-10843571D01*
X46738095Y-10795952D01*
X46785714Y-10748333D01*
X46833333Y-10653095D01*
X46833333Y-10557857D01*
X46785714Y-10462619D01*
X46738095Y-10415000D01*
X46642857Y-10367380D01*
X46404761Y-10367380D01*
X46261904Y-10415000D01*
X45833333Y-10700714D02*
X45833333Y-11700714D01*
X45833333Y-10748333D02*
X45738095Y-10700714D01*
X45547619Y-10700714D01*
X45452380Y-10748333D01*
X45404761Y-10795952D01*
X45357142Y-10891190D01*
X45357142Y-11176904D01*
X45404761Y-11272142D01*
X45452380Y-11319761D01*
X45547619Y-11367380D01*
X45738095Y-11367380D01*
X45833333Y-11319761D01*
X44547619Y-11319761D02*
X44642857Y-11367380D01*
X44833333Y-11367380D01*
X44928571Y-11319761D01*
X44976190Y-11224523D01*
X44976190Y-10843571D01*
X44928571Y-10748333D01*
X44833333Y-10700714D01*
X44642857Y-10700714D01*
X44547619Y-10748333D01*
X44500000Y-10843571D01*
X44500000Y-10938809D01*
X44976190Y-11034047D01*
X43642857Y-11319761D02*
X43738095Y-11367380D01*
X43928571Y-11367380D01*
X44023809Y-11319761D01*
X44071428Y-11272142D01*
X44119047Y-11176904D01*
X44119047Y-10891190D01*
X44071428Y-10795952D01*
X44023809Y-10748333D01*
X43928571Y-10700714D01*
X43738095Y-10700714D01*
X43642857Y-10748333D01*
X43214285Y-11367380D02*
X43214285Y-10700714D01*
X43214285Y-10367380D02*
X43261904Y-10415000D01*
X43214285Y-10462619D01*
X43166666Y-10415000D01*
X43214285Y-10367380D01*
X43214285Y-10462619D01*
X42309523Y-11367380D02*
X42309523Y-10843571D01*
X42357142Y-10748333D01*
X42452380Y-10700714D01*
X42642857Y-10700714D01*
X42738095Y-10748333D01*
X42309523Y-11319761D02*
X42404761Y-11367380D01*
X42642857Y-11367380D01*
X42738095Y-11319761D01*
X42785714Y-11224523D01*
X42785714Y-11129285D01*
X42738095Y-11034047D01*
X42642857Y-10986428D01*
X42404761Y-10986428D01*
X42309523Y-10938809D01*
X41690476Y-11367380D02*
X41785714Y-11319761D01*
X41833333Y-11224523D01*
X41833333Y-10367380D01*
X40690476Y-10700714D02*
X40309523Y-10700714D01*
X40547619Y-10367380D02*
X40547619Y-11224523D01*
X40500000Y-11319761D01*
X40404761Y-11367380D01*
X40309523Y-11367380D01*
X39976190Y-11367380D02*
X39976190Y-10367380D01*
X39547619Y-11367380D02*
X39547619Y-10843571D01*
X39595238Y-10748333D01*
X39690476Y-10700714D01*
X39833333Y-10700714D01*
X39928571Y-10748333D01*
X39976190Y-10795952D01*
X38642857Y-11367380D02*
X38642857Y-10843571D01*
X38690476Y-10748333D01*
X38785714Y-10700714D01*
X38976190Y-10700714D01*
X39071428Y-10748333D01*
X38642857Y-11319761D02*
X38738095Y-11367380D01*
X38976190Y-11367380D01*
X39071428Y-11319761D01*
X39119047Y-11224523D01*
X39119047Y-11129285D01*
X39071428Y-11034047D01*
X38976190Y-10986428D01*
X38738095Y-10986428D01*
X38642857Y-10938809D01*
X38166666Y-10700714D02*
X38166666Y-11367380D01*
X38166666Y-10795952D02*
X38119047Y-10748333D01*
X38023809Y-10700714D01*
X37880952Y-10700714D01*
X37785714Y-10748333D01*
X37738095Y-10843571D01*
X37738095Y-11367380D01*
X37261904Y-11367380D02*
X37261904Y-10367380D01*
X37166666Y-10986428D02*
X36880952Y-11367380D01*
X36880952Y-10700714D02*
X37261904Y-11081666D01*
X36500000Y-11319761D02*
X36404761Y-11367380D01*
X36214285Y-11367380D01*
X36119047Y-11319761D01*
X36071428Y-11224523D01*
X36071428Y-11176904D01*
X36119047Y-11081666D01*
X36214285Y-11034047D01*
X36357142Y-11034047D01*
X36452380Y-10986428D01*
X36500000Y-10891190D01*
X36500000Y-10843571D01*
X36452380Y-10748333D01*
X36357142Y-10700714D01*
X36214285Y-10700714D01*
X36119047Y-10748333D01*
X35023809Y-10700714D02*
X34642857Y-10700714D01*
X34880952Y-10367380D02*
X34880952Y-11224523D01*
X34833333Y-11319761D01*
X34738095Y-11367380D01*
X34642857Y-11367380D01*
X34166666Y-11367380D02*
X34261904Y-11319761D01*
X34309523Y-11272142D01*
X34357142Y-11176904D01*
X34357142Y-10891190D01*
X34309523Y-10795952D01*
X34261904Y-10748333D01*
X34166666Y-10700714D01*
X34023809Y-10700714D01*
X33928571Y-10748333D01*
X33880952Y-10795952D01*
X33833333Y-10891190D01*
X33833333Y-11176904D01*
X33880952Y-11272142D01*
X33928571Y-11319761D01*
X34023809Y-11367380D01*
X34166666Y-11367380D01*
X32119047Y-10415000D02*
X32214285Y-10367380D01*
X32357142Y-10367380D01*
X32500000Y-10415000D01*
X32595238Y-10510238D01*
X32642857Y-10605476D01*
X32690476Y-10795952D01*
X32690476Y-10938809D01*
X32642857Y-11129285D01*
X32595238Y-11224523D01*
X32500000Y-11319761D01*
X32357142Y-11367380D01*
X32261904Y-11367380D01*
X32119047Y-11319761D01*
X32071428Y-11272142D01*
X32071428Y-10938809D01*
X32261904Y-10938809D01*
X31642857Y-11367380D02*
X31642857Y-10367380D01*
X31166666Y-11367380D02*
X31166666Y-10367380D01*
X30833333Y-11081666D01*
X30500000Y-10367380D01*
X30500000Y-11367380D01*
X29833333Y-10367380D02*
X29642857Y-10367380D01*
X29547619Y-10415000D01*
X29452380Y-10510238D01*
X29404761Y-10700714D01*
X29404761Y-11034047D01*
X29452380Y-11224523D01*
X29547619Y-11319761D01*
X29642857Y-11367380D01*
X29833333Y-11367380D01*
X29928571Y-11319761D01*
X30023809Y-11224523D01*
X30071428Y-11034047D01*
X30071428Y-10700714D01*
X30023809Y-10510238D01*
X29928571Y-10415000D01*
X29833333Y-10367380D01*
X28976190Y-11367380D02*
X28976190Y-10367380D01*
X28404761Y-11367380D01*
X28404761Y-10367380D01*
X27976190Y-11319761D02*
X27833333Y-11367380D01*
X27595238Y-11367380D01*
X27500000Y-11319761D01*
X27452380Y-11272142D01*
X27404761Y-11176904D01*
X27404761Y-11081666D01*
X27452380Y-10986428D01*
X27500000Y-10938809D01*
X27595238Y-10891190D01*
X27785714Y-10843571D01*
X27880952Y-10795952D01*
X27928571Y-10748333D01*
X27976190Y-10653095D01*
X27976190Y-10557857D01*
X27928571Y-10462619D01*
X27880952Y-10415000D01*
X27785714Y-10367380D01*
X27547619Y-10367380D01*
X27404761Y-10415000D01*
X25785714Y-11367380D02*
X25785714Y-10843571D01*
X25833333Y-10748333D01*
X25928571Y-10700714D01*
X26119047Y-10700714D01*
X26214285Y-10748333D01*
X25785714Y-11319761D02*
X25880952Y-11367380D01*
X26119047Y-11367380D01*
X26214285Y-11319761D01*
X26261904Y-11224523D01*
X26261904Y-11129285D01*
X26214285Y-11034047D01*
X26119047Y-10986428D01*
X25880952Y-10986428D01*
X25785714Y-10938809D01*
X25309523Y-10700714D02*
X25309523Y-11367380D01*
X25309523Y-10795952D02*
X25261904Y-10748333D01*
X25166666Y-10700714D01*
X25023809Y-10700714D01*
X24928571Y-10748333D01*
X24880952Y-10843571D01*
X24880952Y-11367380D01*
X23976190Y-11367380D02*
X23976190Y-10367380D01*
X23976190Y-11319761D02*
X24071428Y-11367380D01*
X24261904Y-11367380D01*
X24357142Y-11319761D01*
X24404761Y-11272142D01*
X24452380Y-11176904D01*
X24452380Y-10891190D01*
X24404761Y-10795952D01*
X24357142Y-10748333D01*
X24261904Y-10700714D01*
X24071428Y-10700714D01*
X23976190Y-10748333D01*
X43119047Y-13017380D02*
X43119047Y-12493571D01*
X43166666Y-12398333D01*
X43261904Y-12350714D01*
X43452380Y-12350714D01*
X43547619Y-12398333D01*
X43119047Y-12969761D02*
X43214285Y-13017380D01*
X43452380Y-13017380D01*
X43547619Y-12969761D01*
X43595238Y-12874523D01*
X43595238Y-12779285D01*
X43547619Y-12684047D01*
X43452380Y-12636428D01*
X43214285Y-12636428D01*
X43119047Y-12588809D01*
X42500000Y-13017380D02*
X42595238Y-12969761D01*
X42642857Y-12874523D01*
X42642857Y-12017380D01*
X41976190Y-13017380D02*
X42071428Y-12969761D01*
X42119047Y-12874523D01*
X42119047Y-12017380D01*
X40690476Y-13017380D02*
X40785714Y-12969761D01*
X40833333Y-12922142D01*
X40880952Y-12826904D01*
X40880952Y-12541190D01*
X40833333Y-12445952D01*
X40785714Y-12398333D01*
X40690476Y-12350714D01*
X40547619Y-12350714D01*
X40452380Y-12398333D01*
X40404761Y-12445952D01*
X40357142Y-12541190D01*
X40357142Y-12826904D01*
X40404761Y-12922142D01*
X40452380Y-12969761D01*
X40547619Y-13017380D01*
X40690476Y-13017380D01*
X40071428Y-12350714D02*
X39690476Y-12350714D01*
X39928571Y-13017380D02*
X39928571Y-12160238D01*
X39880952Y-12065000D01*
X39785714Y-12017380D01*
X39690476Y-12017380D01*
X38738095Y-12350714D02*
X38357142Y-12350714D01*
X38595238Y-12017380D02*
X38595238Y-12874523D01*
X38547619Y-12969761D01*
X38452380Y-13017380D01*
X38357142Y-13017380D01*
X38023809Y-13017380D02*
X38023809Y-12017380D01*
X37595238Y-13017380D02*
X37595238Y-12493571D01*
X37642857Y-12398333D01*
X37738095Y-12350714D01*
X37880952Y-12350714D01*
X37976190Y-12398333D01*
X38023809Y-12445952D01*
X36738095Y-12969761D02*
X36833333Y-13017380D01*
X37023809Y-13017380D01*
X37119047Y-12969761D01*
X37166666Y-12874523D01*
X37166666Y-12493571D01*
X37119047Y-12398333D01*
X37023809Y-12350714D01*
X36833333Y-12350714D01*
X36738095Y-12398333D01*
X36690476Y-12493571D01*
X36690476Y-12588809D01*
X37166666Y-12684047D01*
X35071428Y-12969761D02*
X35166666Y-13017380D01*
X35357142Y-13017380D01*
X35452380Y-12969761D01*
X35500000Y-12922142D01*
X35547619Y-12826904D01*
X35547619Y-12541190D01*
X35500000Y-12445952D01*
X35452380Y-12398333D01*
X35357142Y-12350714D01*
X35166666Y-12350714D01*
X35071428Y-12398333D01*
X34500000Y-13017380D02*
X34595238Y-12969761D01*
X34642857Y-12922142D01*
X34690476Y-12826904D01*
X34690476Y-12541190D01*
X34642857Y-12445952D01*
X34595238Y-12398333D01*
X34500000Y-12350714D01*
X34357142Y-12350714D01*
X34261904Y-12398333D01*
X34214285Y-12445952D01*
X34166666Y-12541190D01*
X34166666Y-12826904D01*
X34214285Y-12922142D01*
X34261904Y-12969761D01*
X34357142Y-13017380D01*
X34500000Y-13017380D01*
X33738095Y-12350714D02*
X33738095Y-13017380D01*
X33738095Y-12445952D02*
X33690476Y-12398333D01*
X33595238Y-12350714D01*
X33452380Y-12350714D01*
X33357142Y-12398333D01*
X33309523Y-12493571D01*
X33309523Y-13017380D01*
X32976190Y-12350714D02*
X32595238Y-12350714D01*
X32833333Y-12017380D02*
X32833333Y-12874523D01*
X32785714Y-12969761D01*
X32690476Y-13017380D01*
X32595238Y-13017380D01*
X32261904Y-13017380D02*
X32261904Y-12350714D01*
X32261904Y-12541190D02*
X32214285Y-12445952D01*
X32166666Y-12398333D01*
X32071428Y-12350714D01*
X31976190Y-12350714D01*
X31642857Y-13017380D02*
X31642857Y-12350714D01*
X31642857Y-12017380D02*
X31690476Y-12065000D01*
X31642857Y-12112619D01*
X31595238Y-12065000D01*
X31642857Y-12017380D01*
X31642857Y-12112619D01*
X31166666Y-13017380D02*
X31166666Y-12017380D01*
X31166666Y-12398333D02*
X31071428Y-12350714D01*
X30880952Y-12350714D01*
X30785714Y-12398333D01*
X30738095Y-12445952D01*
X30690476Y-12541190D01*
X30690476Y-12826904D01*
X30738095Y-12922142D01*
X30785714Y-12969761D01*
X30880952Y-13017380D01*
X31071428Y-13017380D01*
X31166666Y-12969761D01*
X29833333Y-12350714D02*
X29833333Y-13017380D01*
X30261904Y-12350714D02*
X30261904Y-12874523D01*
X30214285Y-12969761D01*
X30119047Y-13017380D01*
X29976190Y-13017380D01*
X29880952Y-12969761D01*
X29833333Y-12922142D01*
X29500000Y-12350714D02*
X29119047Y-12350714D01*
X29357142Y-12017380D02*
X29357142Y-12874523D01*
X29309523Y-12969761D01*
X29214285Y-13017380D01*
X29119047Y-13017380D01*
X28642857Y-13017380D02*
X28738095Y-12969761D01*
X28785714Y-12922142D01*
X28833333Y-12826904D01*
X28833333Y-12541190D01*
X28785714Y-12445952D01*
X28738095Y-12398333D01*
X28642857Y-12350714D01*
X28500000Y-12350714D01*
X28404761Y-12398333D01*
X28357142Y-12445952D01*
X28309523Y-12541190D01*
X28309523Y-12826904D01*
X28357142Y-12922142D01*
X28404761Y-12969761D01*
X28500000Y-13017380D01*
X28642857Y-13017380D01*
X27880952Y-13017380D02*
X27880952Y-12350714D01*
X27880952Y-12541190D02*
X27833333Y-12445952D01*
X27785714Y-12398333D01*
X27690476Y-12350714D01*
X27595238Y-12350714D01*
X27309523Y-12969761D02*
X27214285Y-13017380D01*
X27023809Y-13017380D01*
X26928571Y-12969761D01*
X26880952Y-12874523D01*
X26880952Y-12826904D01*
X26928571Y-12731666D01*
X27023809Y-12684047D01*
X27166666Y-12684047D01*
X27261904Y-12636428D01*
X27309523Y-12541190D01*
X27309523Y-12493571D01*
X27261904Y-12398333D01*
X27166666Y-12350714D01*
X27023809Y-12350714D01*
X26928571Y-12398333D01*
X26452380Y-12922142D02*
X26404761Y-12969761D01*
X26452380Y-13017380D01*
X26500000Y-12969761D01*
X26452380Y-12922142D01*
X26452380Y-13017380D01*
X26452380Y-12636428D02*
X26500000Y-12065000D01*
X26452380Y-12017380D01*
X26404761Y-12065000D01*
X26452380Y-12636428D01*
X26452380Y-12017380D01*
D14*
X8000000Y-58496000D02*
X66000000Y-58496000D01*
X8000000Y-58496000D02*
G75*
G02*
X4500000Y-54996000I0J3500000D01*
G01*
X69500000Y-54996000D02*
G75*
G02*
X66000000Y-58496000I-3500000J0D01*
G01*
X4500000Y-6000000D02*
X4500000Y-54996000D01*
X69500000Y-6000000D02*
X69500000Y-54996000D01*
X8000000Y-2500000D02*
X66000000Y-2500000D01*
X4500000Y-6000000D02*
G75*
G02*
X8000000Y-2500000I3500000J0D01*
G01*
X66000000Y-2500000D02*
G75*
G02*
X69500000Y-6000000I0J-3500000D01*
G01*
D15*
%TO.C,J6*%
X63522000Y-58550000D02*
X63522000Y-46150000D01*
X10482000Y-58550000D02*
X63522000Y-58550000D01*
X10482000Y-46150000D02*
X10482000Y-58550000D01*
X63522000Y-46150000D02*
X10482000Y-46150000D01*
D11*
%TO.C,JP3*%
X11626000Y-22570000D02*
X11926000Y-22870000D01*
X11926000Y-22270000D02*
X11926000Y-22870000D01*
X11626000Y-22570000D02*
X11926000Y-22270000D01*
X10726000Y-21720000D02*
X10126000Y-21720000D01*
X11426000Y-25170000D02*
X11426000Y-22370000D01*
X10126000Y-25820000D02*
X10726000Y-25820000D01*
X9426000Y-22370000D02*
X9426000Y-25170000D01*
X10126000Y-21720000D02*
G75*
G03*
X9426000Y-22420000I0J-700000D01*
G01*
X11426000Y-22420000D02*
G75*
G03*
X10726000Y-21720000I-700000J0D01*
G01*
X10726000Y-25820000D02*
G75*
G03*
X11426000Y-25120000I0J700000D01*
G01*
X9426000Y-25120000D02*
G75*
G03*
X10126000Y-25820000I700000J0D01*
G01*
%TO.C,JP2*%
X62742000Y-35691800D02*
X62742000Y-30491800D01*
X62742000Y-30491800D02*
X65402000Y-30491800D01*
X65402000Y-30491800D02*
X65402000Y-35691800D01*
X65402000Y-35691800D02*
X62742000Y-35691800D01*
X65402000Y-34741800D02*
X71402000Y-34741800D01*
X71402000Y-34741800D02*
X71402000Y-33981800D01*
X71402000Y-33981800D02*
X65402000Y-33981800D01*
X65402000Y-34681800D02*
X71402000Y-34681800D01*
X65402000Y-34561800D02*
X71402000Y-34561800D01*
X65402000Y-34441800D02*
X71402000Y-34441800D01*
X65402000Y-34321800D02*
X71402000Y-34321800D01*
X65402000Y-34201800D02*
X71402000Y-34201800D01*
X65402000Y-34081800D02*
X71402000Y-34081800D01*
X62412000Y-34741800D02*
X62742000Y-34741800D01*
X62412000Y-33981800D02*
X62742000Y-33981800D01*
X62742000Y-33091800D02*
X65402000Y-33091800D01*
X65402000Y-32201800D02*
X71402000Y-32201800D01*
X71402000Y-32201800D02*
X71402000Y-31441800D01*
X71402000Y-31441800D02*
X65402000Y-31441800D01*
X62344929Y-32201800D02*
X62742000Y-32201800D01*
X62344929Y-31441800D02*
X62742000Y-31441800D01*
X60032000Y-34361800D02*
X60032000Y-35631800D01*
X60032000Y-35631800D02*
X61302000Y-35631800D01*
%TO.C,J1*%
X11540000Y-3400000D02*
X11540000Y-6000000D01*
X11540000Y-3400000D02*
X62460000Y-3400000D01*
X62460000Y-3400000D02*
X62460000Y-8600000D01*
X14140000Y-8600000D02*
X62460000Y-8600000D01*
X14140000Y-6000000D02*
X14140000Y-8600000D01*
X11540000Y-6000000D02*
X14140000Y-6000000D01*
X11540000Y-8600000D02*
X12870000Y-8600000D01*
X11540000Y-7270000D02*
X11540000Y-8600000D01*
%TO.C,JP1*%
X65528000Y-51586000D02*
X65528000Y-48786000D01*
X65528000Y-48786000D02*
X63528000Y-48786000D01*
X63528000Y-48786000D02*
X63528000Y-51586000D01*
X63528000Y-51586000D02*
X65528000Y-51586000D01*
%TO.C,TP1*%
X65550000Y-20050000D02*
G75*
G03*
X65550000Y-20050000I-700000J0D01*
G01*
%TO.C,TP2*%
X64160000Y-21460000D02*
G75*
G03*
X64160000Y-21460000I-700000J0D01*
G01*
%TO.C,TP3*%
X65550000Y-22910000D02*
G75*
G03*
X65550000Y-22910000I-700000J0D01*
G01*
%TO.C,J2*%
X64866000Y-15813000D02*
X64866000Y-10613000D01*
X64866000Y-10613000D02*
X67526000Y-10613000D01*
X67526000Y-10613000D02*
X67526000Y-15813000D01*
X67526000Y-15813000D02*
X64866000Y-15813000D01*
X67526000Y-14863000D02*
X73526000Y-14863000D01*
X73526000Y-14863000D02*
X73526000Y-14103000D01*
X73526000Y-14103000D02*
X67526000Y-14103000D01*
X67526000Y-14803000D02*
X73526000Y-14803000D01*
X67526000Y-14683000D02*
X73526000Y-14683000D01*
X67526000Y-14563000D02*
X73526000Y-14563000D01*
X67526000Y-14443000D02*
X73526000Y-14443000D01*
X67526000Y-14323000D02*
X73526000Y-14323000D01*
X67526000Y-14203000D02*
X73526000Y-14203000D01*
X64536000Y-14863000D02*
X64866000Y-14863000D01*
X64536000Y-14103000D02*
X64866000Y-14103000D01*
X64866000Y-13213000D02*
X67526000Y-13213000D01*
X67526000Y-12323000D02*
X73526000Y-12323000D01*
X73526000Y-12323000D02*
X73526000Y-11563000D01*
X73526000Y-11563000D02*
X67526000Y-11563000D01*
X64468929Y-12323000D02*
X64866000Y-12323000D01*
X64468929Y-11563000D02*
X64866000Y-11563000D01*
X62156000Y-14483000D02*
X62156000Y-15753000D01*
X62156000Y-15753000D02*
X63426000Y-15753000D01*
%TD*%
%TO.C,JP3*%
D10*
X12164380Y-22784266D02*
X12878666Y-22784266D01*
X13021523Y-22736647D01*
X13116761Y-22641409D01*
X13164380Y-22498552D01*
X13164380Y-22403314D01*
X13164380Y-23260457D02*
X12164380Y-23260457D01*
X12164380Y-23641409D01*
X12212000Y-23736647D01*
X12259619Y-23784266D01*
X12354857Y-23831885D01*
X12497714Y-23831885D01*
X12592952Y-23784266D01*
X12640571Y-23736647D01*
X12688190Y-23641409D01*
X12688190Y-23260457D01*
X12164380Y-24165219D02*
X12164380Y-24784266D01*
X12545333Y-24450933D01*
X12545333Y-24593790D01*
X12592952Y-24689028D01*
X12640571Y-24736647D01*
X12735809Y-24784266D01*
X12973904Y-24784266D01*
X13069142Y-24736647D01*
X13116761Y-24689028D01*
X13164380Y-24593790D01*
X13164380Y-24308076D01*
X13116761Y-24212838D01*
X13069142Y-24165219D01*
%TO.C,JP2*%
X62262333Y-28759580D02*
X62262333Y-29473866D01*
X62309952Y-29616723D01*
X62405190Y-29711961D01*
X62548047Y-29759580D01*
X62643285Y-29759580D01*
X61786142Y-29759580D02*
X61786142Y-28759580D01*
X61405190Y-28759580D01*
X61309952Y-28807200D01*
X61262333Y-28854819D01*
X61214714Y-28950057D01*
X61214714Y-29092914D01*
X61262333Y-29188152D01*
X61309952Y-29235771D01*
X61405190Y-29283390D01*
X61786142Y-29283390D01*
X60833761Y-28854819D02*
X60786142Y-28807200D01*
X60690904Y-28759580D01*
X60452809Y-28759580D01*
X60357571Y-28807200D01*
X60309952Y-28854819D01*
X60262333Y-28950057D01*
X60262333Y-29045295D01*
X60309952Y-29188152D01*
X60881380Y-29759580D01*
X60262333Y-29759580D01*
%TO.C,J1*%
X9979980Y-3065866D02*
X10694266Y-3065866D01*
X10837123Y-3018247D01*
X10932361Y-2923009D01*
X10979980Y-2780152D01*
X10979980Y-2684914D01*
X10979980Y-4065866D02*
X10979980Y-3494438D01*
X10979980Y-3780152D02*
X9979980Y-3780152D01*
X10122838Y-3684914D01*
X10218076Y-3589676D01*
X10265695Y-3494438D01*
%TO.C,J2*%
X66680333Y-9299880D02*
X66680333Y-10014166D01*
X66727952Y-10157023D01*
X66823190Y-10252261D01*
X66966047Y-10299880D01*
X67061285Y-10299880D01*
X66251761Y-9395119D02*
X66204142Y-9347500D01*
X66108904Y-9299880D01*
X65870809Y-9299880D01*
X65775571Y-9347500D01*
X65727952Y-9395119D01*
X65680333Y-9490357D01*
X65680333Y-9585595D01*
X65727952Y-9728452D01*
X66299380Y-10299880D01*
X65680333Y-10299880D01*
%TD*%
M02*
