%TF.GenerationSoftware,KiCad,Pcbnew,(5.1.12-1-10_14)*%
%TF.CreationDate,2021-12-05T11:04:37+01:00*%
%TF.ProjectId,rascsi_2p4,72617363-7369-45f3-9270-342e6b696361,rev?*%
%TF.SameCoordinates,Original*%
%TF.FileFunction,Soldermask,Top*%
%TF.FilePolarity,Negative*%
%FSLAX46Y46*%
G04 Gerber Fmt 4.6, Leading zero omitted, Abs format (unit mm)*
G04 Created by KiCad (PCBNEW (5.1.12-1-10_14)) date 2021-12-05 11:04:37*
%MOMM*%
%LPD*%
G01*
G04 APERTURE LIST*
%TA.AperFunction,Profile*%
%ADD10C,0.050000*%
%TD*%
%ADD11C,1.800000*%
%ADD12R,1.800000X1.800000*%
%ADD13O,1.700000X1.700000*%
%ADD14R,1.700000X1.700000*%
%ADD15C,1.545000*%
%ADD16C,4.845000*%
%ADD17C,2.000000*%
%ADD18R,1.400000X0.400000*%
%ADD19O,1.350000X1.350000*%
%ADD20R,1.350000X1.350000*%
%ADD21R,1.100000X1.100000*%
%ADD22C,0.800000*%
%ADD23C,5.400000*%
G04 APERTURE END LIST*
D10*
X8000000Y-58496000D02*
X66000000Y-58496000D01*
X8000000Y-58496000D02*
G75*
G02*
X4500000Y-54996000I0J3500000D01*
G01*
X69500000Y-54996000D02*
G75*
G02*
X66000000Y-58496000I-3500000J0D01*
G01*
X4500000Y-6000000D02*
X4500000Y-54996000D01*
X69500000Y-6000000D02*
X69500000Y-54996000D01*
X8000000Y-2500000D02*
X66000000Y-2500000D01*
X4500000Y-6000000D02*
G75*
G02*
X8000000Y-2500000I3500000J0D01*
G01*
X66000000Y-2500000D02*
G75*
G02*
X69500000Y-6000000I0J-3500000D01*
G01*
%TO.C,R24*%
G36*
G01*
X57866500Y-35466200D02*
X58211500Y-35466200D01*
G75*
G02*
X58359000Y-35613700I0J-147500D01*
G01*
X58359000Y-35908700D01*
G75*
G02*
X58211500Y-36056200I-147500J0D01*
G01*
X57866500Y-36056200D01*
G75*
G02*
X57719000Y-35908700I0J147500D01*
G01*
X57719000Y-35613700D01*
G75*
G02*
X57866500Y-35466200I147500J0D01*
G01*
G37*
G36*
G01*
X57866500Y-34496200D02*
X58211500Y-34496200D01*
G75*
G02*
X58359000Y-34643700I0J-147500D01*
G01*
X58359000Y-34938700D01*
G75*
G02*
X58211500Y-35086200I-147500J0D01*
G01*
X57866500Y-35086200D01*
G75*
G02*
X57719000Y-34938700I0J147500D01*
G01*
X57719000Y-34643700D01*
G75*
G02*
X57866500Y-34496200I147500J0D01*
G01*
G37*
%TD*%
D11*
%TO.C,J20*%
X36309000Y-27420600D03*
X36309000Y-29920600D03*
X36309000Y-32420600D03*
D12*
X36309000Y-34920600D03*
%TD*%
D13*
%TO.C,J3*%
X67426000Y-40454500D03*
X67426000Y-42994500D03*
X64886000Y-40454500D03*
X64886000Y-42994500D03*
X62346000Y-40454500D03*
X62346000Y-42994500D03*
X59806000Y-40454500D03*
X59806000Y-42994500D03*
X57266000Y-40454500D03*
X57266000Y-42994500D03*
X54726000Y-40454500D03*
X54726000Y-42994500D03*
X52186000Y-40454500D03*
X52186000Y-42994500D03*
X49646000Y-40454500D03*
X49646000Y-42994500D03*
X47106000Y-40454500D03*
X47106000Y-42994500D03*
X44566000Y-40454500D03*
X44566000Y-42994500D03*
X42026000Y-40454500D03*
X42026000Y-42994500D03*
X39486000Y-40454500D03*
X39486000Y-42994500D03*
X36946000Y-40454500D03*
X36946000Y-42994500D03*
X34406000Y-40454500D03*
X34406000Y-42994500D03*
X31866000Y-40454500D03*
X31866000Y-42994500D03*
X29326000Y-40454500D03*
X29326000Y-42994500D03*
X26786000Y-40454500D03*
X26786000Y-42994500D03*
X24246000Y-40454500D03*
X24246000Y-42994500D03*
X21706000Y-40454500D03*
X21706000Y-42994500D03*
X19166000Y-40454500D03*
X19166000Y-42994500D03*
X16626000Y-40454500D03*
X16626000Y-42994500D03*
X14086000Y-40454500D03*
X14086000Y-42994500D03*
X11546000Y-40454500D03*
X11546000Y-42994500D03*
X9006000Y-40454500D03*
X9006000Y-42994500D03*
X6466000Y-40454500D03*
D14*
X6466000Y-42994500D03*
%TD*%
D15*
%TO.C,J6*%
X53622000Y-47630000D03*
X50852000Y-47630000D03*
X48082000Y-47630000D03*
X45312000Y-47630000D03*
X42542000Y-47630000D03*
X39772000Y-47630000D03*
X37002000Y-47630000D03*
X34232000Y-47630000D03*
X31462000Y-47630000D03*
X28692000Y-47630000D03*
X25922000Y-47630000D03*
X23152000Y-47630000D03*
X20382000Y-47630000D03*
X52237000Y-50470000D03*
X49467000Y-50470000D03*
X46697000Y-50470000D03*
X43927000Y-50470000D03*
X41157000Y-50470000D03*
X38387000Y-50470000D03*
X35617000Y-50470000D03*
X32847000Y-50470000D03*
X30077000Y-50470000D03*
X27307000Y-50470000D03*
X24537000Y-50470000D03*
X21767000Y-50470000D03*
D16*
X60522000Y-49050000D03*
X13482000Y-49050000D03*
%TD*%
D17*
%TO.C,J8*%
X64905000Y-25035000D03*
X64905000Y-17885000D03*
X68355000Y-17885000D03*
X68355000Y-25035000D03*
D18*
X65405000Y-20160000D03*
X65405000Y-20810000D03*
X65405000Y-21460000D03*
X65405000Y-22110000D03*
X65405000Y-22760000D03*
%TD*%
%TO.C,U4*%
G36*
G01*
X49819000Y-15446000D02*
X49519000Y-15446000D01*
G75*
G02*
X49369000Y-15296000I0J150000D01*
G01*
X49369000Y-13546000D01*
G75*
G02*
X49519000Y-13396000I150000J0D01*
G01*
X49819000Y-13396000D01*
G75*
G02*
X49969000Y-13546000I0J-150000D01*
G01*
X49969000Y-15296000D01*
G75*
G02*
X49819000Y-15446000I-150000J0D01*
G01*
G37*
G36*
G01*
X51089000Y-15446000D02*
X50789000Y-15446000D01*
G75*
G02*
X50639000Y-15296000I0J150000D01*
G01*
X50639000Y-13546000D01*
G75*
G02*
X50789000Y-13396000I150000J0D01*
G01*
X51089000Y-13396000D01*
G75*
G02*
X51239000Y-13546000I0J-150000D01*
G01*
X51239000Y-15296000D01*
G75*
G02*
X51089000Y-15446000I-150000J0D01*
G01*
G37*
G36*
G01*
X52359000Y-15446000D02*
X52059000Y-15446000D01*
G75*
G02*
X51909000Y-15296000I0J150000D01*
G01*
X51909000Y-13546000D01*
G75*
G02*
X52059000Y-13396000I150000J0D01*
G01*
X52359000Y-13396000D01*
G75*
G02*
X52509000Y-13546000I0J-150000D01*
G01*
X52509000Y-15296000D01*
G75*
G02*
X52359000Y-15446000I-150000J0D01*
G01*
G37*
G36*
G01*
X53629000Y-15446000D02*
X53329000Y-15446000D01*
G75*
G02*
X53179000Y-15296000I0J150000D01*
G01*
X53179000Y-13546000D01*
G75*
G02*
X53329000Y-13396000I150000J0D01*
G01*
X53629000Y-13396000D01*
G75*
G02*
X53779000Y-13546000I0J-150000D01*
G01*
X53779000Y-15296000D01*
G75*
G02*
X53629000Y-15446000I-150000J0D01*
G01*
G37*
G36*
G01*
X54899000Y-15446000D02*
X54599000Y-15446000D01*
G75*
G02*
X54449000Y-15296000I0J150000D01*
G01*
X54449000Y-13546000D01*
G75*
G02*
X54599000Y-13396000I150000J0D01*
G01*
X54899000Y-13396000D01*
G75*
G02*
X55049000Y-13546000I0J-150000D01*
G01*
X55049000Y-15296000D01*
G75*
G02*
X54899000Y-15446000I-150000J0D01*
G01*
G37*
G36*
G01*
X56169000Y-15446000D02*
X55869000Y-15446000D01*
G75*
G02*
X55719000Y-15296000I0J150000D01*
G01*
X55719000Y-13546000D01*
G75*
G02*
X55869000Y-13396000I150000J0D01*
G01*
X56169000Y-13396000D01*
G75*
G02*
X56319000Y-13546000I0J-150000D01*
G01*
X56319000Y-15296000D01*
G75*
G02*
X56169000Y-15446000I-150000J0D01*
G01*
G37*
G36*
G01*
X57439000Y-15446000D02*
X57139000Y-15446000D01*
G75*
G02*
X56989000Y-15296000I0J150000D01*
G01*
X56989000Y-13546000D01*
G75*
G02*
X57139000Y-13396000I150000J0D01*
G01*
X57439000Y-13396000D01*
G75*
G02*
X57589000Y-13546000I0J-150000D01*
G01*
X57589000Y-15296000D01*
G75*
G02*
X57439000Y-15446000I-150000J0D01*
G01*
G37*
G36*
G01*
X58709000Y-15446000D02*
X58409000Y-15446000D01*
G75*
G02*
X58259000Y-15296000I0J150000D01*
G01*
X58259000Y-13546000D01*
G75*
G02*
X58409000Y-13396000I150000J0D01*
G01*
X58709000Y-13396000D01*
G75*
G02*
X58859000Y-13546000I0J-150000D01*
G01*
X58859000Y-15296000D01*
G75*
G02*
X58709000Y-15446000I-150000J0D01*
G01*
G37*
G36*
G01*
X59979000Y-15446000D02*
X59679000Y-15446000D01*
G75*
G02*
X59529000Y-15296000I0J150000D01*
G01*
X59529000Y-13546000D01*
G75*
G02*
X59679000Y-13396000I150000J0D01*
G01*
X59979000Y-13396000D01*
G75*
G02*
X60129000Y-13546000I0J-150000D01*
G01*
X60129000Y-15296000D01*
G75*
G02*
X59979000Y-15446000I-150000J0D01*
G01*
G37*
G36*
G01*
X61249000Y-15446000D02*
X60949000Y-15446000D01*
G75*
G02*
X60799000Y-15296000I0J150000D01*
G01*
X60799000Y-13546000D01*
G75*
G02*
X60949000Y-13396000I150000J0D01*
G01*
X61249000Y-13396000D01*
G75*
G02*
X61399000Y-13546000I0J-150000D01*
G01*
X61399000Y-15296000D01*
G75*
G02*
X61249000Y-15446000I-150000J0D01*
G01*
G37*
G36*
G01*
X61249000Y-24746000D02*
X60949000Y-24746000D01*
G75*
G02*
X60799000Y-24596000I0J150000D01*
G01*
X60799000Y-22846000D01*
G75*
G02*
X60949000Y-22696000I150000J0D01*
G01*
X61249000Y-22696000D01*
G75*
G02*
X61399000Y-22846000I0J-150000D01*
G01*
X61399000Y-24596000D01*
G75*
G02*
X61249000Y-24746000I-150000J0D01*
G01*
G37*
G36*
G01*
X59979000Y-24746000D02*
X59679000Y-24746000D01*
G75*
G02*
X59529000Y-24596000I0J150000D01*
G01*
X59529000Y-22846000D01*
G75*
G02*
X59679000Y-22696000I150000J0D01*
G01*
X59979000Y-22696000D01*
G75*
G02*
X60129000Y-22846000I0J-150000D01*
G01*
X60129000Y-24596000D01*
G75*
G02*
X59979000Y-24746000I-150000J0D01*
G01*
G37*
G36*
G01*
X58709000Y-24746000D02*
X58409000Y-24746000D01*
G75*
G02*
X58259000Y-24596000I0J150000D01*
G01*
X58259000Y-22846000D01*
G75*
G02*
X58409000Y-22696000I150000J0D01*
G01*
X58709000Y-22696000D01*
G75*
G02*
X58859000Y-22846000I0J-150000D01*
G01*
X58859000Y-24596000D01*
G75*
G02*
X58709000Y-24746000I-150000J0D01*
G01*
G37*
G36*
G01*
X57439000Y-24746000D02*
X57139000Y-24746000D01*
G75*
G02*
X56989000Y-24596000I0J150000D01*
G01*
X56989000Y-22846000D01*
G75*
G02*
X57139000Y-22696000I150000J0D01*
G01*
X57439000Y-22696000D01*
G75*
G02*
X57589000Y-22846000I0J-150000D01*
G01*
X57589000Y-24596000D01*
G75*
G02*
X57439000Y-24746000I-150000J0D01*
G01*
G37*
G36*
G01*
X56169000Y-24746000D02*
X55869000Y-24746000D01*
G75*
G02*
X55719000Y-24596000I0J150000D01*
G01*
X55719000Y-22846000D01*
G75*
G02*
X55869000Y-22696000I150000J0D01*
G01*
X56169000Y-22696000D01*
G75*
G02*
X56319000Y-22846000I0J-150000D01*
G01*
X56319000Y-24596000D01*
G75*
G02*
X56169000Y-24746000I-150000J0D01*
G01*
G37*
G36*
G01*
X54899000Y-24746000D02*
X54599000Y-24746000D01*
G75*
G02*
X54449000Y-24596000I0J150000D01*
G01*
X54449000Y-22846000D01*
G75*
G02*
X54599000Y-22696000I150000J0D01*
G01*
X54899000Y-22696000D01*
G75*
G02*
X55049000Y-22846000I0J-150000D01*
G01*
X55049000Y-24596000D01*
G75*
G02*
X54899000Y-24746000I-150000J0D01*
G01*
G37*
G36*
G01*
X53629000Y-24746000D02*
X53329000Y-24746000D01*
G75*
G02*
X53179000Y-24596000I0J150000D01*
G01*
X53179000Y-22846000D01*
G75*
G02*
X53329000Y-22696000I150000J0D01*
G01*
X53629000Y-22696000D01*
G75*
G02*
X53779000Y-22846000I0J-150000D01*
G01*
X53779000Y-24596000D01*
G75*
G02*
X53629000Y-24746000I-150000J0D01*
G01*
G37*
G36*
G01*
X52359000Y-24746000D02*
X52059000Y-24746000D01*
G75*
G02*
X51909000Y-24596000I0J150000D01*
G01*
X51909000Y-22846000D01*
G75*
G02*
X52059000Y-22696000I150000J0D01*
G01*
X52359000Y-22696000D01*
G75*
G02*
X52509000Y-22846000I0J-150000D01*
G01*
X52509000Y-24596000D01*
G75*
G02*
X52359000Y-24746000I-150000J0D01*
G01*
G37*
G36*
G01*
X51089000Y-24746000D02*
X50789000Y-24746000D01*
G75*
G02*
X50639000Y-24596000I0J150000D01*
G01*
X50639000Y-22846000D01*
G75*
G02*
X50789000Y-22696000I150000J0D01*
G01*
X51089000Y-22696000D01*
G75*
G02*
X51239000Y-22846000I0J-150000D01*
G01*
X51239000Y-24596000D01*
G75*
G02*
X51089000Y-24746000I-150000J0D01*
G01*
G37*
G36*
G01*
X49819000Y-24746000D02*
X49519000Y-24746000D01*
G75*
G02*
X49369000Y-24596000I0J150000D01*
G01*
X49369000Y-22846000D01*
G75*
G02*
X49519000Y-22696000I150000J0D01*
G01*
X49819000Y-22696000D01*
G75*
G02*
X49969000Y-22846000I0J-150000D01*
G01*
X49969000Y-24596000D01*
G75*
G02*
X49819000Y-24746000I-150000J0D01*
G01*
G37*
%TD*%
%TO.C,U3*%
G36*
G01*
X36306000Y-15446000D02*
X36006000Y-15446000D01*
G75*
G02*
X35856000Y-15296000I0J150000D01*
G01*
X35856000Y-13546000D01*
G75*
G02*
X36006000Y-13396000I150000J0D01*
G01*
X36306000Y-13396000D01*
G75*
G02*
X36456000Y-13546000I0J-150000D01*
G01*
X36456000Y-15296000D01*
G75*
G02*
X36306000Y-15446000I-150000J0D01*
G01*
G37*
G36*
G01*
X37576000Y-15446000D02*
X37276000Y-15446000D01*
G75*
G02*
X37126000Y-15296000I0J150000D01*
G01*
X37126000Y-13546000D01*
G75*
G02*
X37276000Y-13396000I150000J0D01*
G01*
X37576000Y-13396000D01*
G75*
G02*
X37726000Y-13546000I0J-150000D01*
G01*
X37726000Y-15296000D01*
G75*
G02*
X37576000Y-15446000I-150000J0D01*
G01*
G37*
G36*
G01*
X38846000Y-15446000D02*
X38546000Y-15446000D01*
G75*
G02*
X38396000Y-15296000I0J150000D01*
G01*
X38396000Y-13546000D01*
G75*
G02*
X38546000Y-13396000I150000J0D01*
G01*
X38846000Y-13396000D01*
G75*
G02*
X38996000Y-13546000I0J-150000D01*
G01*
X38996000Y-15296000D01*
G75*
G02*
X38846000Y-15446000I-150000J0D01*
G01*
G37*
G36*
G01*
X40116000Y-15446000D02*
X39816000Y-15446000D01*
G75*
G02*
X39666000Y-15296000I0J150000D01*
G01*
X39666000Y-13546000D01*
G75*
G02*
X39816000Y-13396000I150000J0D01*
G01*
X40116000Y-13396000D01*
G75*
G02*
X40266000Y-13546000I0J-150000D01*
G01*
X40266000Y-15296000D01*
G75*
G02*
X40116000Y-15446000I-150000J0D01*
G01*
G37*
G36*
G01*
X41386000Y-15446000D02*
X41086000Y-15446000D01*
G75*
G02*
X40936000Y-15296000I0J150000D01*
G01*
X40936000Y-13546000D01*
G75*
G02*
X41086000Y-13396000I150000J0D01*
G01*
X41386000Y-13396000D01*
G75*
G02*
X41536000Y-13546000I0J-150000D01*
G01*
X41536000Y-15296000D01*
G75*
G02*
X41386000Y-15446000I-150000J0D01*
G01*
G37*
G36*
G01*
X42656000Y-15446000D02*
X42356000Y-15446000D01*
G75*
G02*
X42206000Y-15296000I0J150000D01*
G01*
X42206000Y-13546000D01*
G75*
G02*
X42356000Y-13396000I150000J0D01*
G01*
X42656000Y-13396000D01*
G75*
G02*
X42806000Y-13546000I0J-150000D01*
G01*
X42806000Y-15296000D01*
G75*
G02*
X42656000Y-15446000I-150000J0D01*
G01*
G37*
G36*
G01*
X43926000Y-15446000D02*
X43626000Y-15446000D01*
G75*
G02*
X43476000Y-15296000I0J150000D01*
G01*
X43476000Y-13546000D01*
G75*
G02*
X43626000Y-13396000I150000J0D01*
G01*
X43926000Y-13396000D01*
G75*
G02*
X44076000Y-13546000I0J-150000D01*
G01*
X44076000Y-15296000D01*
G75*
G02*
X43926000Y-15446000I-150000J0D01*
G01*
G37*
G36*
G01*
X45196000Y-15446000D02*
X44896000Y-15446000D01*
G75*
G02*
X44746000Y-15296000I0J150000D01*
G01*
X44746000Y-13546000D01*
G75*
G02*
X44896000Y-13396000I150000J0D01*
G01*
X45196000Y-13396000D01*
G75*
G02*
X45346000Y-13546000I0J-150000D01*
G01*
X45346000Y-15296000D01*
G75*
G02*
X45196000Y-15446000I-150000J0D01*
G01*
G37*
G36*
G01*
X46466000Y-15446000D02*
X46166000Y-15446000D01*
G75*
G02*
X46016000Y-15296000I0J150000D01*
G01*
X46016000Y-13546000D01*
G75*
G02*
X46166000Y-13396000I150000J0D01*
G01*
X46466000Y-13396000D01*
G75*
G02*
X46616000Y-13546000I0J-150000D01*
G01*
X46616000Y-15296000D01*
G75*
G02*
X46466000Y-15446000I-150000J0D01*
G01*
G37*
G36*
G01*
X47736000Y-15446000D02*
X47436000Y-15446000D01*
G75*
G02*
X47286000Y-15296000I0J150000D01*
G01*
X47286000Y-13546000D01*
G75*
G02*
X47436000Y-13396000I150000J0D01*
G01*
X47736000Y-13396000D01*
G75*
G02*
X47886000Y-13546000I0J-150000D01*
G01*
X47886000Y-15296000D01*
G75*
G02*
X47736000Y-15446000I-150000J0D01*
G01*
G37*
G36*
G01*
X47736000Y-24746000D02*
X47436000Y-24746000D01*
G75*
G02*
X47286000Y-24596000I0J150000D01*
G01*
X47286000Y-22846000D01*
G75*
G02*
X47436000Y-22696000I150000J0D01*
G01*
X47736000Y-22696000D01*
G75*
G02*
X47886000Y-22846000I0J-150000D01*
G01*
X47886000Y-24596000D01*
G75*
G02*
X47736000Y-24746000I-150000J0D01*
G01*
G37*
G36*
G01*
X46466000Y-24746000D02*
X46166000Y-24746000D01*
G75*
G02*
X46016000Y-24596000I0J150000D01*
G01*
X46016000Y-22846000D01*
G75*
G02*
X46166000Y-22696000I150000J0D01*
G01*
X46466000Y-22696000D01*
G75*
G02*
X46616000Y-22846000I0J-150000D01*
G01*
X46616000Y-24596000D01*
G75*
G02*
X46466000Y-24746000I-150000J0D01*
G01*
G37*
G36*
G01*
X45196000Y-24746000D02*
X44896000Y-24746000D01*
G75*
G02*
X44746000Y-24596000I0J150000D01*
G01*
X44746000Y-22846000D01*
G75*
G02*
X44896000Y-22696000I150000J0D01*
G01*
X45196000Y-22696000D01*
G75*
G02*
X45346000Y-22846000I0J-150000D01*
G01*
X45346000Y-24596000D01*
G75*
G02*
X45196000Y-24746000I-150000J0D01*
G01*
G37*
G36*
G01*
X43926000Y-24746000D02*
X43626000Y-24746000D01*
G75*
G02*
X43476000Y-24596000I0J150000D01*
G01*
X43476000Y-22846000D01*
G75*
G02*
X43626000Y-22696000I150000J0D01*
G01*
X43926000Y-22696000D01*
G75*
G02*
X44076000Y-22846000I0J-150000D01*
G01*
X44076000Y-24596000D01*
G75*
G02*
X43926000Y-24746000I-150000J0D01*
G01*
G37*
G36*
G01*
X42656000Y-24746000D02*
X42356000Y-24746000D01*
G75*
G02*
X42206000Y-24596000I0J150000D01*
G01*
X42206000Y-22846000D01*
G75*
G02*
X42356000Y-22696000I150000J0D01*
G01*
X42656000Y-22696000D01*
G75*
G02*
X42806000Y-22846000I0J-150000D01*
G01*
X42806000Y-24596000D01*
G75*
G02*
X42656000Y-24746000I-150000J0D01*
G01*
G37*
G36*
G01*
X41386000Y-24746000D02*
X41086000Y-24746000D01*
G75*
G02*
X40936000Y-24596000I0J150000D01*
G01*
X40936000Y-22846000D01*
G75*
G02*
X41086000Y-22696000I150000J0D01*
G01*
X41386000Y-22696000D01*
G75*
G02*
X41536000Y-22846000I0J-150000D01*
G01*
X41536000Y-24596000D01*
G75*
G02*
X41386000Y-24746000I-150000J0D01*
G01*
G37*
G36*
G01*
X40116000Y-24746000D02*
X39816000Y-24746000D01*
G75*
G02*
X39666000Y-24596000I0J150000D01*
G01*
X39666000Y-22846000D01*
G75*
G02*
X39816000Y-22696000I150000J0D01*
G01*
X40116000Y-22696000D01*
G75*
G02*
X40266000Y-22846000I0J-150000D01*
G01*
X40266000Y-24596000D01*
G75*
G02*
X40116000Y-24746000I-150000J0D01*
G01*
G37*
G36*
G01*
X38846000Y-24746000D02*
X38546000Y-24746000D01*
G75*
G02*
X38396000Y-24596000I0J150000D01*
G01*
X38396000Y-22846000D01*
G75*
G02*
X38546000Y-22696000I150000J0D01*
G01*
X38846000Y-22696000D01*
G75*
G02*
X38996000Y-22846000I0J-150000D01*
G01*
X38996000Y-24596000D01*
G75*
G02*
X38846000Y-24746000I-150000J0D01*
G01*
G37*
G36*
G01*
X37576000Y-24746000D02*
X37276000Y-24746000D01*
G75*
G02*
X37126000Y-24596000I0J150000D01*
G01*
X37126000Y-22846000D01*
G75*
G02*
X37276000Y-22696000I150000J0D01*
G01*
X37576000Y-22696000D01*
G75*
G02*
X37726000Y-22846000I0J-150000D01*
G01*
X37726000Y-24596000D01*
G75*
G02*
X37576000Y-24746000I-150000J0D01*
G01*
G37*
G36*
G01*
X36306000Y-24746000D02*
X36006000Y-24746000D01*
G75*
G02*
X35856000Y-24596000I0J150000D01*
G01*
X35856000Y-22846000D01*
G75*
G02*
X36006000Y-22696000I150000J0D01*
G01*
X36306000Y-22696000D01*
G75*
G02*
X36456000Y-22846000I0J-150000D01*
G01*
X36456000Y-24596000D01*
G75*
G02*
X36306000Y-24746000I-150000J0D01*
G01*
G37*
%TD*%
%TO.C,U2*%
G36*
G01*
X22793000Y-15446000D02*
X22493000Y-15446000D01*
G75*
G02*
X22343000Y-15296000I0J150000D01*
G01*
X22343000Y-13546000D01*
G75*
G02*
X22493000Y-13396000I150000J0D01*
G01*
X22793000Y-13396000D01*
G75*
G02*
X22943000Y-13546000I0J-150000D01*
G01*
X22943000Y-15296000D01*
G75*
G02*
X22793000Y-15446000I-150000J0D01*
G01*
G37*
G36*
G01*
X24063000Y-15446000D02*
X23763000Y-15446000D01*
G75*
G02*
X23613000Y-15296000I0J150000D01*
G01*
X23613000Y-13546000D01*
G75*
G02*
X23763000Y-13396000I150000J0D01*
G01*
X24063000Y-13396000D01*
G75*
G02*
X24213000Y-13546000I0J-150000D01*
G01*
X24213000Y-15296000D01*
G75*
G02*
X24063000Y-15446000I-150000J0D01*
G01*
G37*
G36*
G01*
X25333000Y-15446000D02*
X25033000Y-15446000D01*
G75*
G02*
X24883000Y-15296000I0J150000D01*
G01*
X24883000Y-13546000D01*
G75*
G02*
X25033000Y-13396000I150000J0D01*
G01*
X25333000Y-13396000D01*
G75*
G02*
X25483000Y-13546000I0J-150000D01*
G01*
X25483000Y-15296000D01*
G75*
G02*
X25333000Y-15446000I-150000J0D01*
G01*
G37*
G36*
G01*
X26603000Y-15446000D02*
X26303000Y-15446000D01*
G75*
G02*
X26153000Y-15296000I0J150000D01*
G01*
X26153000Y-13546000D01*
G75*
G02*
X26303000Y-13396000I150000J0D01*
G01*
X26603000Y-13396000D01*
G75*
G02*
X26753000Y-13546000I0J-150000D01*
G01*
X26753000Y-15296000D01*
G75*
G02*
X26603000Y-15446000I-150000J0D01*
G01*
G37*
G36*
G01*
X27873000Y-15446000D02*
X27573000Y-15446000D01*
G75*
G02*
X27423000Y-15296000I0J150000D01*
G01*
X27423000Y-13546000D01*
G75*
G02*
X27573000Y-13396000I150000J0D01*
G01*
X27873000Y-13396000D01*
G75*
G02*
X28023000Y-13546000I0J-150000D01*
G01*
X28023000Y-15296000D01*
G75*
G02*
X27873000Y-15446000I-150000J0D01*
G01*
G37*
G36*
G01*
X29143000Y-15446000D02*
X28843000Y-15446000D01*
G75*
G02*
X28693000Y-15296000I0J150000D01*
G01*
X28693000Y-13546000D01*
G75*
G02*
X28843000Y-13396000I150000J0D01*
G01*
X29143000Y-13396000D01*
G75*
G02*
X29293000Y-13546000I0J-150000D01*
G01*
X29293000Y-15296000D01*
G75*
G02*
X29143000Y-15446000I-150000J0D01*
G01*
G37*
G36*
G01*
X30413000Y-15446000D02*
X30113000Y-15446000D01*
G75*
G02*
X29963000Y-15296000I0J150000D01*
G01*
X29963000Y-13546000D01*
G75*
G02*
X30113000Y-13396000I150000J0D01*
G01*
X30413000Y-13396000D01*
G75*
G02*
X30563000Y-13546000I0J-150000D01*
G01*
X30563000Y-15296000D01*
G75*
G02*
X30413000Y-15446000I-150000J0D01*
G01*
G37*
G36*
G01*
X31683000Y-15446000D02*
X31383000Y-15446000D01*
G75*
G02*
X31233000Y-15296000I0J150000D01*
G01*
X31233000Y-13546000D01*
G75*
G02*
X31383000Y-13396000I150000J0D01*
G01*
X31683000Y-13396000D01*
G75*
G02*
X31833000Y-13546000I0J-150000D01*
G01*
X31833000Y-15296000D01*
G75*
G02*
X31683000Y-15446000I-150000J0D01*
G01*
G37*
G36*
G01*
X32953000Y-15446000D02*
X32653000Y-15446000D01*
G75*
G02*
X32503000Y-15296000I0J150000D01*
G01*
X32503000Y-13546000D01*
G75*
G02*
X32653000Y-13396000I150000J0D01*
G01*
X32953000Y-13396000D01*
G75*
G02*
X33103000Y-13546000I0J-150000D01*
G01*
X33103000Y-15296000D01*
G75*
G02*
X32953000Y-15446000I-150000J0D01*
G01*
G37*
G36*
G01*
X34223000Y-15446000D02*
X33923000Y-15446000D01*
G75*
G02*
X33773000Y-15296000I0J150000D01*
G01*
X33773000Y-13546000D01*
G75*
G02*
X33923000Y-13396000I150000J0D01*
G01*
X34223000Y-13396000D01*
G75*
G02*
X34373000Y-13546000I0J-150000D01*
G01*
X34373000Y-15296000D01*
G75*
G02*
X34223000Y-15446000I-150000J0D01*
G01*
G37*
G36*
G01*
X34223000Y-24746000D02*
X33923000Y-24746000D01*
G75*
G02*
X33773000Y-24596000I0J150000D01*
G01*
X33773000Y-22846000D01*
G75*
G02*
X33923000Y-22696000I150000J0D01*
G01*
X34223000Y-22696000D01*
G75*
G02*
X34373000Y-22846000I0J-150000D01*
G01*
X34373000Y-24596000D01*
G75*
G02*
X34223000Y-24746000I-150000J0D01*
G01*
G37*
G36*
G01*
X32953000Y-24746000D02*
X32653000Y-24746000D01*
G75*
G02*
X32503000Y-24596000I0J150000D01*
G01*
X32503000Y-22846000D01*
G75*
G02*
X32653000Y-22696000I150000J0D01*
G01*
X32953000Y-22696000D01*
G75*
G02*
X33103000Y-22846000I0J-150000D01*
G01*
X33103000Y-24596000D01*
G75*
G02*
X32953000Y-24746000I-150000J0D01*
G01*
G37*
G36*
G01*
X31683000Y-24746000D02*
X31383000Y-24746000D01*
G75*
G02*
X31233000Y-24596000I0J150000D01*
G01*
X31233000Y-22846000D01*
G75*
G02*
X31383000Y-22696000I150000J0D01*
G01*
X31683000Y-22696000D01*
G75*
G02*
X31833000Y-22846000I0J-150000D01*
G01*
X31833000Y-24596000D01*
G75*
G02*
X31683000Y-24746000I-150000J0D01*
G01*
G37*
G36*
G01*
X30413000Y-24746000D02*
X30113000Y-24746000D01*
G75*
G02*
X29963000Y-24596000I0J150000D01*
G01*
X29963000Y-22846000D01*
G75*
G02*
X30113000Y-22696000I150000J0D01*
G01*
X30413000Y-22696000D01*
G75*
G02*
X30563000Y-22846000I0J-150000D01*
G01*
X30563000Y-24596000D01*
G75*
G02*
X30413000Y-24746000I-150000J0D01*
G01*
G37*
G36*
G01*
X29143000Y-24746000D02*
X28843000Y-24746000D01*
G75*
G02*
X28693000Y-24596000I0J150000D01*
G01*
X28693000Y-22846000D01*
G75*
G02*
X28843000Y-22696000I150000J0D01*
G01*
X29143000Y-22696000D01*
G75*
G02*
X29293000Y-22846000I0J-150000D01*
G01*
X29293000Y-24596000D01*
G75*
G02*
X29143000Y-24746000I-150000J0D01*
G01*
G37*
G36*
G01*
X27873000Y-24746000D02*
X27573000Y-24746000D01*
G75*
G02*
X27423000Y-24596000I0J150000D01*
G01*
X27423000Y-22846000D01*
G75*
G02*
X27573000Y-22696000I150000J0D01*
G01*
X27873000Y-22696000D01*
G75*
G02*
X28023000Y-22846000I0J-150000D01*
G01*
X28023000Y-24596000D01*
G75*
G02*
X27873000Y-24746000I-150000J0D01*
G01*
G37*
G36*
G01*
X26603000Y-24746000D02*
X26303000Y-24746000D01*
G75*
G02*
X26153000Y-24596000I0J150000D01*
G01*
X26153000Y-22846000D01*
G75*
G02*
X26303000Y-22696000I150000J0D01*
G01*
X26603000Y-22696000D01*
G75*
G02*
X26753000Y-22846000I0J-150000D01*
G01*
X26753000Y-24596000D01*
G75*
G02*
X26603000Y-24746000I-150000J0D01*
G01*
G37*
G36*
G01*
X25333000Y-24746000D02*
X25033000Y-24746000D01*
G75*
G02*
X24883000Y-24596000I0J150000D01*
G01*
X24883000Y-22846000D01*
G75*
G02*
X25033000Y-22696000I150000J0D01*
G01*
X25333000Y-22696000D01*
G75*
G02*
X25483000Y-22846000I0J-150000D01*
G01*
X25483000Y-24596000D01*
G75*
G02*
X25333000Y-24746000I-150000J0D01*
G01*
G37*
G36*
G01*
X24063000Y-24746000D02*
X23763000Y-24746000D01*
G75*
G02*
X23613000Y-24596000I0J150000D01*
G01*
X23613000Y-22846000D01*
G75*
G02*
X23763000Y-22696000I150000J0D01*
G01*
X24063000Y-22696000D01*
G75*
G02*
X24213000Y-22846000I0J-150000D01*
G01*
X24213000Y-24596000D01*
G75*
G02*
X24063000Y-24746000I-150000J0D01*
G01*
G37*
G36*
G01*
X22793000Y-24746000D02*
X22493000Y-24746000D01*
G75*
G02*
X22343000Y-24596000I0J150000D01*
G01*
X22343000Y-22846000D01*
G75*
G02*
X22493000Y-22696000I150000J0D01*
G01*
X22793000Y-22696000D01*
G75*
G02*
X22943000Y-22846000I0J-150000D01*
G01*
X22943000Y-24596000D01*
G75*
G02*
X22793000Y-24746000I-150000J0D01*
G01*
G37*
%TD*%
%TO.C,U1*%
G36*
G01*
X9281000Y-15446000D02*
X8981000Y-15446000D01*
G75*
G02*
X8831000Y-15296000I0J150000D01*
G01*
X8831000Y-13546000D01*
G75*
G02*
X8981000Y-13396000I150000J0D01*
G01*
X9281000Y-13396000D01*
G75*
G02*
X9431000Y-13546000I0J-150000D01*
G01*
X9431000Y-15296000D01*
G75*
G02*
X9281000Y-15446000I-150000J0D01*
G01*
G37*
G36*
G01*
X10551000Y-15446000D02*
X10251000Y-15446000D01*
G75*
G02*
X10101000Y-15296000I0J150000D01*
G01*
X10101000Y-13546000D01*
G75*
G02*
X10251000Y-13396000I150000J0D01*
G01*
X10551000Y-13396000D01*
G75*
G02*
X10701000Y-13546000I0J-150000D01*
G01*
X10701000Y-15296000D01*
G75*
G02*
X10551000Y-15446000I-150000J0D01*
G01*
G37*
G36*
G01*
X11821000Y-15446000D02*
X11521000Y-15446000D01*
G75*
G02*
X11371000Y-15296000I0J150000D01*
G01*
X11371000Y-13546000D01*
G75*
G02*
X11521000Y-13396000I150000J0D01*
G01*
X11821000Y-13396000D01*
G75*
G02*
X11971000Y-13546000I0J-150000D01*
G01*
X11971000Y-15296000D01*
G75*
G02*
X11821000Y-15446000I-150000J0D01*
G01*
G37*
G36*
G01*
X13091000Y-15446000D02*
X12791000Y-15446000D01*
G75*
G02*
X12641000Y-15296000I0J150000D01*
G01*
X12641000Y-13546000D01*
G75*
G02*
X12791000Y-13396000I150000J0D01*
G01*
X13091000Y-13396000D01*
G75*
G02*
X13241000Y-13546000I0J-150000D01*
G01*
X13241000Y-15296000D01*
G75*
G02*
X13091000Y-15446000I-150000J0D01*
G01*
G37*
G36*
G01*
X14361000Y-15446000D02*
X14061000Y-15446000D01*
G75*
G02*
X13911000Y-15296000I0J150000D01*
G01*
X13911000Y-13546000D01*
G75*
G02*
X14061000Y-13396000I150000J0D01*
G01*
X14361000Y-13396000D01*
G75*
G02*
X14511000Y-13546000I0J-150000D01*
G01*
X14511000Y-15296000D01*
G75*
G02*
X14361000Y-15446000I-150000J0D01*
G01*
G37*
G36*
G01*
X15631000Y-15446000D02*
X15331000Y-15446000D01*
G75*
G02*
X15181000Y-15296000I0J150000D01*
G01*
X15181000Y-13546000D01*
G75*
G02*
X15331000Y-13396000I150000J0D01*
G01*
X15631000Y-13396000D01*
G75*
G02*
X15781000Y-13546000I0J-150000D01*
G01*
X15781000Y-15296000D01*
G75*
G02*
X15631000Y-15446000I-150000J0D01*
G01*
G37*
G36*
G01*
X16901000Y-15446000D02*
X16601000Y-15446000D01*
G75*
G02*
X16451000Y-15296000I0J150000D01*
G01*
X16451000Y-13546000D01*
G75*
G02*
X16601000Y-13396000I150000J0D01*
G01*
X16901000Y-13396000D01*
G75*
G02*
X17051000Y-13546000I0J-150000D01*
G01*
X17051000Y-15296000D01*
G75*
G02*
X16901000Y-15446000I-150000J0D01*
G01*
G37*
G36*
G01*
X18171000Y-15446000D02*
X17871000Y-15446000D01*
G75*
G02*
X17721000Y-15296000I0J150000D01*
G01*
X17721000Y-13546000D01*
G75*
G02*
X17871000Y-13396000I150000J0D01*
G01*
X18171000Y-13396000D01*
G75*
G02*
X18321000Y-13546000I0J-150000D01*
G01*
X18321000Y-15296000D01*
G75*
G02*
X18171000Y-15446000I-150000J0D01*
G01*
G37*
G36*
G01*
X19441000Y-15446000D02*
X19141000Y-15446000D01*
G75*
G02*
X18991000Y-15296000I0J150000D01*
G01*
X18991000Y-13546000D01*
G75*
G02*
X19141000Y-13396000I150000J0D01*
G01*
X19441000Y-13396000D01*
G75*
G02*
X19591000Y-13546000I0J-150000D01*
G01*
X19591000Y-15296000D01*
G75*
G02*
X19441000Y-15446000I-150000J0D01*
G01*
G37*
G36*
G01*
X20711000Y-15446000D02*
X20411000Y-15446000D01*
G75*
G02*
X20261000Y-15296000I0J150000D01*
G01*
X20261000Y-13546000D01*
G75*
G02*
X20411000Y-13396000I150000J0D01*
G01*
X20711000Y-13396000D01*
G75*
G02*
X20861000Y-13546000I0J-150000D01*
G01*
X20861000Y-15296000D01*
G75*
G02*
X20711000Y-15446000I-150000J0D01*
G01*
G37*
G36*
G01*
X20711000Y-24746000D02*
X20411000Y-24746000D01*
G75*
G02*
X20261000Y-24596000I0J150000D01*
G01*
X20261000Y-22846000D01*
G75*
G02*
X20411000Y-22696000I150000J0D01*
G01*
X20711000Y-22696000D01*
G75*
G02*
X20861000Y-22846000I0J-150000D01*
G01*
X20861000Y-24596000D01*
G75*
G02*
X20711000Y-24746000I-150000J0D01*
G01*
G37*
G36*
G01*
X19441000Y-24746000D02*
X19141000Y-24746000D01*
G75*
G02*
X18991000Y-24596000I0J150000D01*
G01*
X18991000Y-22846000D01*
G75*
G02*
X19141000Y-22696000I150000J0D01*
G01*
X19441000Y-22696000D01*
G75*
G02*
X19591000Y-22846000I0J-150000D01*
G01*
X19591000Y-24596000D01*
G75*
G02*
X19441000Y-24746000I-150000J0D01*
G01*
G37*
G36*
G01*
X18171000Y-24746000D02*
X17871000Y-24746000D01*
G75*
G02*
X17721000Y-24596000I0J150000D01*
G01*
X17721000Y-22846000D01*
G75*
G02*
X17871000Y-22696000I150000J0D01*
G01*
X18171000Y-22696000D01*
G75*
G02*
X18321000Y-22846000I0J-150000D01*
G01*
X18321000Y-24596000D01*
G75*
G02*
X18171000Y-24746000I-150000J0D01*
G01*
G37*
G36*
G01*
X16901000Y-24746000D02*
X16601000Y-24746000D01*
G75*
G02*
X16451000Y-24596000I0J150000D01*
G01*
X16451000Y-22846000D01*
G75*
G02*
X16601000Y-22696000I150000J0D01*
G01*
X16901000Y-22696000D01*
G75*
G02*
X17051000Y-22846000I0J-150000D01*
G01*
X17051000Y-24596000D01*
G75*
G02*
X16901000Y-24746000I-150000J0D01*
G01*
G37*
G36*
G01*
X15631000Y-24746000D02*
X15331000Y-24746000D01*
G75*
G02*
X15181000Y-24596000I0J150000D01*
G01*
X15181000Y-22846000D01*
G75*
G02*
X15331000Y-22696000I150000J0D01*
G01*
X15631000Y-22696000D01*
G75*
G02*
X15781000Y-22846000I0J-150000D01*
G01*
X15781000Y-24596000D01*
G75*
G02*
X15631000Y-24746000I-150000J0D01*
G01*
G37*
G36*
G01*
X14361000Y-24746000D02*
X14061000Y-24746000D01*
G75*
G02*
X13911000Y-24596000I0J150000D01*
G01*
X13911000Y-22846000D01*
G75*
G02*
X14061000Y-22696000I150000J0D01*
G01*
X14361000Y-22696000D01*
G75*
G02*
X14511000Y-22846000I0J-150000D01*
G01*
X14511000Y-24596000D01*
G75*
G02*
X14361000Y-24746000I-150000J0D01*
G01*
G37*
G36*
G01*
X13091000Y-24746000D02*
X12791000Y-24746000D01*
G75*
G02*
X12641000Y-24596000I0J150000D01*
G01*
X12641000Y-22846000D01*
G75*
G02*
X12791000Y-22696000I150000J0D01*
G01*
X13091000Y-22696000D01*
G75*
G02*
X13241000Y-22846000I0J-150000D01*
G01*
X13241000Y-24596000D01*
G75*
G02*
X13091000Y-24746000I-150000J0D01*
G01*
G37*
G36*
G01*
X11821000Y-24746000D02*
X11521000Y-24746000D01*
G75*
G02*
X11371000Y-24596000I0J150000D01*
G01*
X11371000Y-22846000D01*
G75*
G02*
X11521000Y-22696000I150000J0D01*
G01*
X11821000Y-22696000D01*
G75*
G02*
X11971000Y-22846000I0J-150000D01*
G01*
X11971000Y-24596000D01*
G75*
G02*
X11821000Y-24746000I-150000J0D01*
G01*
G37*
G36*
G01*
X10551000Y-24746000D02*
X10251000Y-24746000D01*
G75*
G02*
X10101000Y-24596000I0J150000D01*
G01*
X10101000Y-22846000D01*
G75*
G02*
X10251000Y-22696000I150000J0D01*
G01*
X10551000Y-22696000D01*
G75*
G02*
X10701000Y-22846000I0J-150000D01*
G01*
X10701000Y-24596000D01*
G75*
G02*
X10551000Y-24746000I-150000J0D01*
G01*
G37*
G36*
G01*
X9281000Y-24746000D02*
X8981000Y-24746000D01*
G75*
G02*
X8831000Y-24596000I0J150000D01*
G01*
X8831000Y-22846000D01*
G75*
G02*
X8981000Y-22696000I150000J0D01*
G01*
X9281000Y-22696000D01*
G75*
G02*
X9431000Y-22846000I0J-150000D01*
G01*
X9431000Y-24596000D01*
G75*
G02*
X9281000Y-24746000I-150000J0D01*
G01*
G37*
%TD*%
D13*
%TO.C,JP2*%
X61302000Y-31821800D03*
D14*
X61302000Y-34361800D03*
%TD*%
%TO.C,C4*%
G36*
G01*
X59009000Y-11018250D02*
X59009000Y-10105750D01*
G75*
G02*
X59252750Y-9862000I243750J0D01*
G01*
X59740250Y-9862000D01*
G75*
G02*
X59984000Y-10105750I0J-243750D01*
G01*
X59984000Y-11018250D01*
G75*
G02*
X59740250Y-11262000I-243750J0D01*
G01*
X59252750Y-11262000D01*
G75*
G02*
X59009000Y-11018250I0J243750D01*
G01*
G37*
G36*
G01*
X57134000Y-11018250D02*
X57134000Y-10105750D01*
G75*
G02*
X57377750Y-9862000I243750J0D01*
G01*
X57865250Y-9862000D01*
G75*
G02*
X58109000Y-10105750I0J-243750D01*
G01*
X58109000Y-11018250D01*
G75*
G02*
X57865250Y-11262000I-243750J0D01*
G01*
X57377750Y-11262000D01*
G75*
G02*
X57134000Y-11018250I0J243750D01*
G01*
G37*
%TD*%
%TO.C,C3*%
G36*
G01*
X34436000Y-10105750D02*
X34436000Y-11018250D01*
G75*
G02*
X34192250Y-11262000I-243750J0D01*
G01*
X33704750Y-11262000D01*
G75*
G02*
X33461000Y-11018250I0J243750D01*
G01*
X33461000Y-10105750D01*
G75*
G02*
X33704750Y-9862000I243750J0D01*
G01*
X34192250Y-9862000D01*
G75*
G02*
X34436000Y-10105750I0J-243750D01*
G01*
G37*
G36*
G01*
X36311000Y-10105750D02*
X36311000Y-11018250D01*
G75*
G02*
X36067250Y-11262000I-243750J0D01*
G01*
X35579750Y-11262000D01*
G75*
G02*
X35336000Y-11018250I0J243750D01*
G01*
X35336000Y-10105750D01*
G75*
G02*
X35579750Y-9862000I243750J0D01*
G01*
X36067250Y-9862000D01*
G75*
G02*
X36311000Y-10105750I0J-243750D01*
G01*
G37*
%TD*%
%TO.C,C2*%
G36*
G01*
X20909000Y-11018250D02*
X20909000Y-10105750D01*
G75*
G02*
X21152750Y-9862000I243750J0D01*
G01*
X21640250Y-9862000D01*
G75*
G02*
X21884000Y-10105750I0J-243750D01*
G01*
X21884000Y-11018250D01*
G75*
G02*
X21640250Y-11262000I-243750J0D01*
G01*
X21152750Y-11262000D01*
G75*
G02*
X20909000Y-11018250I0J243750D01*
G01*
G37*
G36*
G01*
X19034000Y-11018250D02*
X19034000Y-10105750D01*
G75*
G02*
X19277750Y-9862000I243750J0D01*
G01*
X19765250Y-9862000D01*
G75*
G02*
X20009000Y-10105750I0J-243750D01*
G01*
X20009000Y-11018250D01*
G75*
G02*
X19765250Y-11262000I-243750J0D01*
G01*
X19277750Y-11262000D01*
G75*
G02*
X19034000Y-11018250I0J243750D01*
G01*
G37*
%TD*%
%TO.C,C1*%
G36*
G01*
X11747750Y-30062000D02*
X12660250Y-30062000D01*
G75*
G02*
X12904000Y-30305750I0J-243750D01*
G01*
X12904000Y-30793250D01*
G75*
G02*
X12660250Y-31037000I-243750J0D01*
G01*
X11747750Y-31037000D01*
G75*
G02*
X11504000Y-30793250I0J243750D01*
G01*
X11504000Y-30305750D01*
G75*
G02*
X11747750Y-30062000I243750J0D01*
G01*
G37*
G36*
G01*
X11747750Y-28187000D02*
X12660250Y-28187000D01*
G75*
G02*
X12904000Y-28430750I0J-243750D01*
G01*
X12904000Y-28918250D01*
G75*
G02*
X12660250Y-29162000I-243750J0D01*
G01*
X11747750Y-29162000D01*
G75*
G02*
X11504000Y-28918250I0J243750D01*
G01*
X11504000Y-28430750D01*
G75*
G02*
X11747750Y-28187000I243750J0D01*
G01*
G37*
%TD*%
%TO.C,U6*%
G36*
G01*
X22545000Y-26391000D02*
X22545000Y-26191000D01*
G75*
G02*
X22645000Y-26091000I100000J0D01*
G01*
X23920000Y-26091000D01*
G75*
G02*
X24020000Y-26191000I0J-100000D01*
G01*
X24020000Y-26391000D01*
G75*
G02*
X23920000Y-26491000I-100000J0D01*
G01*
X22645000Y-26491000D01*
G75*
G02*
X22545000Y-26391000I0J100000D01*
G01*
G37*
G36*
G01*
X22545000Y-27041000D02*
X22545000Y-26841000D01*
G75*
G02*
X22645000Y-26741000I100000J0D01*
G01*
X23920000Y-26741000D01*
G75*
G02*
X24020000Y-26841000I0J-100000D01*
G01*
X24020000Y-27041000D01*
G75*
G02*
X23920000Y-27141000I-100000J0D01*
G01*
X22645000Y-27141000D01*
G75*
G02*
X22545000Y-27041000I0J100000D01*
G01*
G37*
G36*
G01*
X22545000Y-27691000D02*
X22545000Y-27491000D01*
G75*
G02*
X22645000Y-27391000I100000J0D01*
G01*
X23920000Y-27391000D01*
G75*
G02*
X24020000Y-27491000I0J-100000D01*
G01*
X24020000Y-27691000D01*
G75*
G02*
X23920000Y-27791000I-100000J0D01*
G01*
X22645000Y-27791000D01*
G75*
G02*
X22545000Y-27691000I0J100000D01*
G01*
G37*
G36*
G01*
X22545000Y-28341000D02*
X22545000Y-28141000D01*
G75*
G02*
X22645000Y-28041000I100000J0D01*
G01*
X23920000Y-28041000D01*
G75*
G02*
X24020000Y-28141000I0J-100000D01*
G01*
X24020000Y-28341000D01*
G75*
G02*
X23920000Y-28441000I-100000J0D01*
G01*
X22645000Y-28441000D01*
G75*
G02*
X22545000Y-28341000I0J100000D01*
G01*
G37*
G36*
G01*
X22545000Y-28991000D02*
X22545000Y-28791000D01*
G75*
G02*
X22645000Y-28691000I100000J0D01*
G01*
X23920000Y-28691000D01*
G75*
G02*
X24020000Y-28791000I0J-100000D01*
G01*
X24020000Y-28991000D01*
G75*
G02*
X23920000Y-29091000I-100000J0D01*
G01*
X22645000Y-29091000D01*
G75*
G02*
X22545000Y-28991000I0J100000D01*
G01*
G37*
G36*
G01*
X22545000Y-29641000D02*
X22545000Y-29441000D01*
G75*
G02*
X22645000Y-29341000I100000J0D01*
G01*
X23920000Y-29341000D01*
G75*
G02*
X24020000Y-29441000I0J-100000D01*
G01*
X24020000Y-29641000D01*
G75*
G02*
X23920000Y-29741000I-100000J0D01*
G01*
X22645000Y-29741000D01*
G75*
G02*
X22545000Y-29641000I0J100000D01*
G01*
G37*
G36*
G01*
X22545000Y-30291000D02*
X22545000Y-30091000D01*
G75*
G02*
X22645000Y-29991000I100000J0D01*
G01*
X23920000Y-29991000D01*
G75*
G02*
X24020000Y-30091000I0J-100000D01*
G01*
X24020000Y-30291000D01*
G75*
G02*
X23920000Y-30391000I-100000J0D01*
G01*
X22645000Y-30391000D01*
G75*
G02*
X22545000Y-30291000I0J100000D01*
G01*
G37*
G36*
G01*
X22545000Y-30941000D02*
X22545000Y-30741000D01*
G75*
G02*
X22645000Y-30641000I100000J0D01*
G01*
X23920000Y-30641000D01*
G75*
G02*
X24020000Y-30741000I0J-100000D01*
G01*
X24020000Y-30941000D01*
G75*
G02*
X23920000Y-31041000I-100000J0D01*
G01*
X22645000Y-31041000D01*
G75*
G02*
X22545000Y-30941000I0J100000D01*
G01*
G37*
G36*
G01*
X22545000Y-31591000D02*
X22545000Y-31391000D01*
G75*
G02*
X22645000Y-31291000I100000J0D01*
G01*
X23920000Y-31291000D01*
G75*
G02*
X24020000Y-31391000I0J-100000D01*
G01*
X24020000Y-31591000D01*
G75*
G02*
X23920000Y-31691000I-100000J0D01*
G01*
X22645000Y-31691000D01*
G75*
G02*
X22545000Y-31591000I0J100000D01*
G01*
G37*
G36*
G01*
X22545000Y-32241000D02*
X22545000Y-32041000D01*
G75*
G02*
X22645000Y-31941000I100000J0D01*
G01*
X23920000Y-31941000D01*
G75*
G02*
X24020000Y-32041000I0J-100000D01*
G01*
X24020000Y-32241000D01*
G75*
G02*
X23920000Y-32341000I-100000J0D01*
G01*
X22645000Y-32341000D01*
G75*
G02*
X22545000Y-32241000I0J100000D01*
G01*
G37*
G36*
G01*
X22545000Y-32891000D02*
X22545000Y-32691000D01*
G75*
G02*
X22645000Y-32591000I100000J0D01*
G01*
X23920000Y-32591000D01*
G75*
G02*
X24020000Y-32691000I0J-100000D01*
G01*
X24020000Y-32891000D01*
G75*
G02*
X23920000Y-32991000I-100000J0D01*
G01*
X22645000Y-32991000D01*
G75*
G02*
X22545000Y-32891000I0J100000D01*
G01*
G37*
G36*
G01*
X22545000Y-33541000D02*
X22545000Y-33341000D01*
G75*
G02*
X22645000Y-33241000I100000J0D01*
G01*
X23920000Y-33241000D01*
G75*
G02*
X24020000Y-33341000I0J-100000D01*
G01*
X24020000Y-33541000D01*
G75*
G02*
X23920000Y-33641000I-100000J0D01*
G01*
X22645000Y-33641000D01*
G75*
G02*
X22545000Y-33541000I0J100000D01*
G01*
G37*
G36*
G01*
X15120000Y-33541000D02*
X15120000Y-33341000D01*
G75*
G02*
X15220000Y-33241000I100000J0D01*
G01*
X16495000Y-33241000D01*
G75*
G02*
X16595000Y-33341000I0J-100000D01*
G01*
X16595000Y-33541000D01*
G75*
G02*
X16495000Y-33641000I-100000J0D01*
G01*
X15220000Y-33641000D01*
G75*
G02*
X15120000Y-33541000I0J100000D01*
G01*
G37*
G36*
G01*
X15120000Y-32891000D02*
X15120000Y-32691000D01*
G75*
G02*
X15220000Y-32591000I100000J0D01*
G01*
X16495000Y-32591000D01*
G75*
G02*
X16595000Y-32691000I0J-100000D01*
G01*
X16595000Y-32891000D01*
G75*
G02*
X16495000Y-32991000I-100000J0D01*
G01*
X15220000Y-32991000D01*
G75*
G02*
X15120000Y-32891000I0J100000D01*
G01*
G37*
G36*
G01*
X15120000Y-32241000D02*
X15120000Y-32041000D01*
G75*
G02*
X15220000Y-31941000I100000J0D01*
G01*
X16495000Y-31941000D01*
G75*
G02*
X16595000Y-32041000I0J-100000D01*
G01*
X16595000Y-32241000D01*
G75*
G02*
X16495000Y-32341000I-100000J0D01*
G01*
X15220000Y-32341000D01*
G75*
G02*
X15120000Y-32241000I0J100000D01*
G01*
G37*
G36*
G01*
X15120000Y-31591000D02*
X15120000Y-31391000D01*
G75*
G02*
X15220000Y-31291000I100000J0D01*
G01*
X16495000Y-31291000D01*
G75*
G02*
X16595000Y-31391000I0J-100000D01*
G01*
X16595000Y-31591000D01*
G75*
G02*
X16495000Y-31691000I-100000J0D01*
G01*
X15220000Y-31691000D01*
G75*
G02*
X15120000Y-31591000I0J100000D01*
G01*
G37*
G36*
G01*
X15120000Y-30941000D02*
X15120000Y-30741000D01*
G75*
G02*
X15220000Y-30641000I100000J0D01*
G01*
X16495000Y-30641000D01*
G75*
G02*
X16595000Y-30741000I0J-100000D01*
G01*
X16595000Y-30941000D01*
G75*
G02*
X16495000Y-31041000I-100000J0D01*
G01*
X15220000Y-31041000D01*
G75*
G02*
X15120000Y-30941000I0J100000D01*
G01*
G37*
G36*
G01*
X15120000Y-30291000D02*
X15120000Y-30091000D01*
G75*
G02*
X15220000Y-29991000I100000J0D01*
G01*
X16495000Y-29991000D01*
G75*
G02*
X16595000Y-30091000I0J-100000D01*
G01*
X16595000Y-30291000D01*
G75*
G02*
X16495000Y-30391000I-100000J0D01*
G01*
X15220000Y-30391000D01*
G75*
G02*
X15120000Y-30291000I0J100000D01*
G01*
G37*
G36*
G01*
X15120000Y-29641000D02*
X15120000Y-29441000D01*
G75*
G02*
X15220000Y-29341000I100000J0D01*
G01*
X16495000Y-29341000D01*
G75*
G02*
X16595000Y-29441000I0J-100000D01*
G01*
X16595000Y-29641000D01*
G75*
G02*
X16495000Y-29741000I-100000J0D01*
G01*
X15220000Y-29741000D01*
G75*
G02*
X15120000Y-29641000I0J100000D01*
G01*
G37*
G36*
G01*
X15120000Y-28991000D02*
X15120000Y-28791000D01*
G75*
G02*
X15220000Y-28691000I100000J0D01*
G01*
X16495000Y-28691000D01*
G75*
G02*
X16595000Y-28791000I0J-100000D01*
G01*
X16595000Y-28991000D01*
G75*
G02*
X16495000Y-29091000I-100000J0D01*
G01*
X15220000Y-29091000D01*
G75*
G02*
X15120000Y-28991000I0J100000D01*
G01*
G37*
G36*
G01*
X15120000Y-28341000D02*
X15120000Y-28141000D01*
G75*
G02*
X15220000Y-28041000I100000J0D01*
G01*
X16495000Y-28041000D01*
G75*
G02*
X16595000Y-28141000I0J-100000D01*
G01*
X16595000Y-28341000D01*
G75*
G02*
X16495000Y-28441000I-100000J0D01*
G01*
X15220000Y-28441000D01*
G75*
G02*
X15120000Y-28341000I0J100000D01*
G01*
G37*
G36*
G01*
X15120000Y-27691000D02*
X15120000Y-27491000D01*
G75*
G02*
X15220000Y-27391000I100000J0D01*
G01*
X16495000Y-27391000D01*
G75*
G02*
X16595000Y-27491000I0J-100000D01*
G01*
X16595000Y-27691000D01*
G75*
G02*
X16495000Y-27791000I-100000J0D01*
G01*
X15220000Y-27791000D01*
G75*
G02*
X15120000Y-27691000I0J100000D01*
G01*
G37*
G36*
G01*
X15120000Y-27041000D02*
X15120000Y-26841000D01*
G75*
G02*
X15220000Y-26741000I100000J0D01*
G01*
X16495000Y-26741000D01*
G75*
G02*
X16595000Y-26841000I0J-100000D01*
G01*
X16595000Y-27041000D01*
G75*
G02*
X16495000Y-27141000I-100000J0D01*
G01*
X15220000Y-27141000D01*
G75*
G02*
X15120000Y-27041000I0J100000D01*
G01*
G37*
G36*
G01*
X15120000Y-26391000D02*
X15120000Y-26191000D01*
G75*
G02*
X15220000Y-26091000I100000J0D01*
G01*
X16495000Y-26091000D01*
G75*
G02*
X16595000Y-26191000I0J-100000D01*
G01*
X16595000Y-26391000D01*
G75*
G02*
X16495000Y-26491000I-100000J0D01*
G01*
X15220000Y-26491000D01*
G75*
G02*
X15120000Y-26391000I0J100000D01*
G01*
G37*
%TD*%
%TO.C,U5*%
G36*
G01*
X46929000Y-26391000D02*
X46929000Y-26191000D01*
G75*
G02*
X47029000Y-26091000I100000J0D01*
G01*
X48304000Y-26091000D01*
G75*
G02*
X48404000Y-26191000I0J-100000D01*
G01*
X48404000Y-26391000D01*
G75*
G02*
X48304000Y-26491000I-100000J0D01*
G01*
X47029000Y-26491000D01*
G75*
G02*
X46929000Y-26391000I0J100000D01*
G01*
G37*
G36*
G01*
X46929000Y-27041000D02*
X46929000Y-26841000D01*
G75*
G02*
X47029000Y-26741000I100000J0D01*
G01*
X48304000Y-26741000D01*
G75*
G02*
X48404000Y-26841000I0J-100000D01*
G01*
X48404000Y-27041000D01*
G75*
G02*
X48304000Y-27141000I-100000J0D01*
G01*
X47029000Y-27141000D01*
G75*
G02*
X46929000Y-27041000I0J100000D01*
G01*
G37*
G36*
G01*
X46929000Y-27691000D02*
X46929000Y-27491000D01*
G75*
G02*
X47029000Y-27391000I100000J0D01*
G01*
X48304000Y-27391000D01*
G75*
G02*
X48404000Y-27491000I0J-100000D01*
G01*
X48404000Y-27691000D01*
G75*
G02*
X48304000Y-27791000I-100000J0D01*
G01*
X47029000Y-27791000D01*
G75*
G02*
X46929000Y-27691000I0J100000D01*
G01*
G37*
G36*
G01*
X46929000Y-28341000D02*
X46929000Y-28141000D01*
G75*
G02*
X47029000Y-28041000I100000J0D01*
G01*
X48304000Y-28041000D01*
G75*
G02*
X48404000Y-28141000I0J-100000D01*
G01*
X48404000Y-28341000D01*
G75*
G02*
X48304000Y-28441000I-100000J0D01*
G01*
X47029000Y-28441000D01*
G75*
G02*
X46929000Y-28341000I0J100000D01*
G01*
G37*
G36*
G01*
X46929000Y-28991000D02*
X46929000Y-28791000D01*
G75*
G02*
X47029000Y-28691000I100000J0D01*
G01*
X48304000Y-28691000D01*
G75*
G02*
X48404000Y-28791000I0J-100000D01*
G01*
X48404000Y-28991000D01*
G75*
G02*
X48304000Y-29091000I-100000J0D01*
G01*
X47029000Y-29091000D01*
G75*
G02*
X46929000Y-28991000I0J100000D01*
G01*
G37*
G36*
G01*
X46929000Y-29641000D02*
X46929000Y-29441000D01*
G75*
G02*
X47029000Y-29341000I100000J0D01*
G01*
X48304000Y-29341000D01*
G75*
G02*
X48404000Y-29441000I0J-100000D01*
G01*
X48404000Y-29641000D01*
G75*
G02*
X48304000Y-29741000I-100000J0D01*
G01*
X47029000Y-29741000D01*
G75*
G02*
X46929000Y-29641000I0J100000D01*
G01*
G37*
G36*
G01*
X46929000Y-30291000D02*
X46929000Y-30091000D01*
G75*
G02*
X47029000Y-29991000I100000J0D01*
G01*
X48304000Y-29991000D01*
G75*
G02*
X48404000Y-30091000I0J-100000D01*
G01*
X48404000Y-30291000D01*
G75*
G02*
X48304000Y-30391000I-100000J0D01*
G01*
X47029000Y-30391000D01*
G75*
G02*
X46929000Y-30291000I0J100000D01*
G01*
G37*
G36*
G01*
X46929000Y-30941000D02*
X46929000Y-30741000D01*
G75*
G02*
X47029000Y-30641000I100000J0D01*
G01*
X48304000Y-30641000D01*
G75*
G02*
X48404000Y-30741000I0J-100000D01*
G01*
X48404000Y-30941000D01*
G75*
G02*
X48304000Y-31041000I-100000J0D01*
G01*
X47029000Y-31041000D01*
G75*
G02*
X46929000Y-30941000I0J100000D01*
G01*
G37*
G36*
G01*
X46929000Y-31591000D02*
X46929000Y-31391000D01*
G75*
G02*
X47029000Y-31291000I100000J0D01*
G01*
X48304000Y-31291000D01*
G75*
G02*
X48404000Y-31391000I0J-100000D01*
G01*
X48404000Y-31591000D01*
G75*
G02*
X48304000Y-31691000I-100000J0D01*
G01*
X47029000Y-31691000D01*
G75*
G02*
X46929000Y-31591000I0J100000D01*
G01*
G37*
G36*
G01*
X46929000Y-32241000D02*
X46929000Y-32041000D01*
G75*
G02*
X47029000Y-31941000I100000J0D01*
G01*
X48304000Y-31941000D01*
G75*
G02*
X48404000Y-32041000I0J-100000D01*
G01*
X48404000Y-32241000D01*
G75*
G02*
X48304000Y-32341000I-100000J0D01*
G01*
X47029000Y-32341000D01*
G75*
G02*
X46929000Y-32241000I0J100000D01*
G01*
G37*
G36*
G01*
X46929000Y-32891000D02*
X46929000Y-32691000D01*
G75*
G02*
X47029000Y-32591000I100000J0D01*
G01*
X48304000Y-32591000D01*
G75*
G02*
X48404000Y-32691000I0J-100000D01*
G01*
X48404000Y-32891000D01*
G75*
G02*
X48304000Y-32991000I-100000J0D01*
G01*
X47029000Y-32991000D01*
G75*
G02*
X46929000Y-32891000I0J100000D01*
G01*
G37*
G36*
G01*
X46929000Y-33541000D02*
X46929000Y-33341000D01*
G75*
G02*
X47029000Y-33241000I100000J0D01*
G01*
X48304000Y-33241000D01*
G75*
G02*
X48404000Y-33341000I0J-100000D01*
G01*
X48404000Y-33541000D01*
G75*
G02*
X48304000Y-33641000I-100000J0D01*
G01*
X47029000Y-33641000D01*
G75*
G02*
X46929000Y-33541000I0J100000D01*
G01*
G37*
G36*
G01*
X39504000Y-33541000D02*
X39504000Y-33341000D01*
G75*
G02*
X39604000Y-33241000I100000J0D01*
G01*
X40879000Y-33241000D01*
G75*
G02*
X40979000Y-33341000I0J-100000D01*
G01*
X40979000Y-33541000D01*
G75*
G02*
X40879000Y-33641000I-100000J0D01*
G01*
X39604000Y-33641000D01*
G75*
G02*
X39504000Y-33541000I0J100000D01*
G01*
G37*
G36*
G01*
X39504000Y-32891000D02*
X39504000Y-32691000D01*
G75*
G02*
X39604000Y-32591000I100000J0D01*
G01*
X40879000Y-32591000D01*
G75*
G02*
X40979000Y-32691000I0J-100000D01*
G01*
X40979000Y-32891000D01*
G75*
G02*
X40879000Y-32991000I-100000J0D01*
G01*
X39604000Y-32991000D01*
G75*
G02*
X39504000Y-32891000I0J100000D01*
G01*
G37*
G36*
G01*
X39504000Y-32241000D02*
X39504000Y-32041000D01*
G75*
G02*
X39604000Y-31941000I100000J0D01*
G01*
X40879000Y-31941000D01*
G75*
G02*
X40979000Y-32041000I0J-100000D01*
G01*
X40979000Y-32241000D01*
G75*
G02*
X40879000Y-32341000I-100000J0D01*
G01*
X39604000Y-32341000D01*
G75*
G02*
X39504000Y-32241000I0J100000D01*
G01*
G37*
G36*
G01*
X39504000Y-31591000D02*
X39504000Y-31391000D01*
G75*
G02*
X39604000Y-31291000I100000J0D01*
G01*
X40879000Y-31291000D01*
G75*
G02*
X40979000Y-31391000I0J-100000D01*
G01*
X40979000Y-31591000D01*
G75*
G02*
X40879000Y-31691000I-100000J0D01*
G01*
X39604000Y-31691000D01*
G75*
G02*
X39504000Y-31591000I0J100000D01*
G01*
G37*
G36*
G01*
X39504000Y-30941000D02*
X39504000Y-30741000D01*
G75*
G02*
X39604000Y-30641000I100000J0D01*
G01*
X40879000Y-30641000D01*
G75*
G02*
X40979000Y-30741000I0J-100000D01*
G01*
X40979000Y-30941000D01*
G75*
G02*
X40879000Y-31041000I-100000J0D01*
G01*
X39604000Y-31041000D01*
G75*
G02*
X39504000Y-30941000I0J100000D01*
G01*
G37*
G36*
G01*
X39504000Y-30291000D02*
X39504000Y-30091000D01*
G75*
G02*
X39604000Y-29991000I100000J0D01*
G01*
X40879000Y-29991000D01*
G75*
G02*
X40979000Y-30091000I0J-100000D01*
G01*
X40979000Y-30291000D01*
G75*
G02*
X40879000Y-30391000I-100000J0D01*
G01*
X39604000Y-30391000D01*
G75*
G02*
X39504000Y-30291000I0J100000D01*
G01*
G37*
G36*
G01*
X39504000Y-29641000D02*
X39504000Y-29441000D01*
G75*
G02*
X39604000Y-29341000I100000J0D01*
G01*
X40879000Y-29341000D01*
G75*
G02*
X40979000Y-29441000I0J-100000D01*
G01*
X40979000Y-29641000D01*
G75*
G02*
X40879000Y-29741000I-100000J0D01*
G01*
X39604000Y-29741000D01*
G75*
G02*
X39504000Y-29641000I0J100000D01*
G01*
G37*
G36*
G01*
X39504000Y-28991000D02*
X39504000Y-28791000D01*
G75*
G02*
X39604000Y-28691000I100000J0D01*
G01*
X40879000Y-28691000D01*
G75*
G02*
X40979000Y-28791000I0J-100000D01*
G01*
X40979000Y-28991000D01*
G75*
G02*
X40879000Y-29091000I-100000J0D01*
G01*
X39604000Y-29091000D01*
G75*
G02*
X39504000Y-28991000I0J100000D01*
G01*
G37*
G36*
G01*
X39504000Y-28341000D02*
X39504000Y-28141000D01*
G75*
G02*
X39604000Y-28041000I100000J0D01*
G01*
X40879000Y-28041000D01*
G75*
G02*
X40979000Y-28141000I0J-100000D01*
G01*
X40979000Y-28341000D01*
G75*
G02*
X40879000Y-28441000I-100000J0D01*
G01*
X39604000Y-28441000D01*
G75*
G02*
X39504000Y-28341000I0J100000D01*
G01*
G37*
G36*
G01*
X39504000Y-27691000D02*
X39504000Y-27491000D01*
G75*
G02*
X39604000Y-27391000I100000J0D01*
G01*
X40879000Y-27391000D01*
G75*
G02*
X40979000Y-27491000I0J-100000D01*
G01*
X40979000Y-27691000D01*
G75*
G02*
X40879000Y-27791000I-100000J0D01*
G01*
X39604000Y-27791000D01*
G75*
G02*
X39504000Y-27691000I0J100000D01*
G01*
G37*
G36*
G01*
X39504000Y-27041000D02*
X39504000Y-26841000D01*
G75*
G02*
X39604000Y-26741000I100000J0D01*
G01*
X40879000Y-26741000D01*
G75*
G02*
X40979000Y-26841000I0J-100000D01*
G01*
X40979000Y-27041000D01*
G75*
G02*
X40879000Y-27141000I-100000J0D01*
G01*
X39604000Y-27141000D01*
G75*
G02*
X39504000Y-27041000I0J100000D01*
G01*
G37*
G36*
G01*
X39504000Y-26391000D02*
X39504000Y-26191000D01*
G75*
G02*
X39604000Y-26091000I100000J0D01*
G01*
X40879000Y-26091000D01*
G75*
G02*
X40979000Y-26191000I0J-100000D01*
G01*
X40979000Y-26391000D01*
G75*
G02*
X40879000Y-26491000I-100000J0D01*
G01*
X39604000Y-26491000D01*
G75*
G02*
X39504000Y-26391000I0J100000D01*
G01*
G37*
%TD*%
%TO.C,R23*%
G36*
G01*
X56941500Y-35086200D02*
X56596500Y-35086200D01*
G75*
G02*
X56449000Y-34938700I0J147500D01*
G01*
X56449000Y-34643700D01*
G75*
G02*
X56596500Y-34496200I147500J0D01*
G01*
X56941500Y-34496200D01*
G75*
G02*
X57089000Y-34643700I0J-147500D01*
G01*
X57089000Y-34938700D01*
G75*
G02*
X56941500Y-35086200I-147500J0D01*
G01*
G37*
G36*
G01*
X56941500Y-36056200D02*
X56596500Y-36056200D01*
G75*
G02*
X56449000Y-35908700I0J147500D01*
G01*
X56449000Y-35613700D01*
G75*
G02*
X56596500Y-35466200I147500J0D01*
G01*
X56941500Y-35466200D01*
G75*
G02*
X57089000Y-35613700I0J-147500D01*
G01*
X57089000Y-35908700D01*
G75*
G02*
X56941500Y-36056200I-147500J0D01*
G01*
G37*
%TD*%
%TO.C,D6*%
G36*
G01*
X54488000Y-35732450D02*
X54488000Y-34819950D01*
G75*
G02*
X54731750Y-34576200I243750J0D01*
G01*
X55219250Y-34576200D01*
G75*
G02*
X55463000Y-34819950I0J-243750D01*
G01*
X55463000Y-35732450D01*
G75*
G02*
X55219250Y-35976200I-243750J0D01*
G01*
X54731750Y-35976200D01*
G75*
G02*
X54488000Y-35732450I0J243750D01*
G01*
G37*
G36*
G01*
X52613000Y-35732450D02*
X52613000Y-34819950D01*
G75*
G02*
X52856750Y-34576200I243750J0D01*
G01*
X53344250Y-34576200D01*
G75*
G02*
X53588000Y-34819950I0J-243750D01*
G01*
X53588000Y-35732450D01*
G75*
G02*
X53344250Y-35976200I-243750J0D01*
G01*
X52856750Y-35976200D01*
G75*
G02*
X52613000Y-35732450I0J243750D01*
G01*
G37*
%TD*%
%TO.C,C6*%
G36*
G01*
X21914000Y-34997750D02*
X21914000Y-35910250D01*
G75*
G02*
X21670250Y-36154000I-243750J0D01*
G01*
X21182750Y-36154000D01*
G75*
G02*
X20939000Y-35910250I0J243750D01*
G01*
X20939000Y-34997750D01*
G75*
G02*
X21182750Y-34754000I243750J0D01*
G01*
X21670250Y-34754000D01*
G75*
G02*
X21914000Y-34997750I0J-243750D01*
G01*
G37*
G36*
G01*
X23789000Y-34997750D02*
X23789000Y-35910250D01*
G75*
G02*
X23545250Y-36154000I-243750J0D01*
G01*
X23057750Y-36154000D01*
G75*
G02*
X22814000Y-35910250I0J243750D01*
G01*
X22814000Y-34997750D01*
G75*
G02*
X23057750Y-34754000I243750J0D01*
G01*
X23545250Y-34754000D01*
G75*
G02*
X23789000Y-34997750I0J-243750D01*
G01*
G37*
%TD*%
%TO.C,C5*%
G36*
G01*
X49720750Y-29020600D02*
X50633250Y-29020600D01*
G75*
G02*
X50877000Y-29264350I0J-243750D01*
G01*
X50877000Y-29751850D01*
G75*
G02*
X50633250Y-29995600I-243750J0D01*
G01*
X49720750Y-29995600D01*
G75*
G02*
X49477000Y-29751850I0J243750D01*
G01*
X49477000Y-29264350D01*
G75*
G02*
X49720750Y-29020600I243750J0D01*
G01*
G37*
G36*
G01*
X49720750Y-27145600D02*
X50633250Y-27145600D01*
G75*
G02*
X50877000Y-27389350I0J-243750D01*
G01*
X50877000Y-27876850D01*
G75*
G02*
X50633250Y-28120600I-243750J0D01*
G01*
X49720750Y-28120600D01*
G75*
G02*
X49477000Y-27876850I0J243750D01*
G01*
X49477000Y-27389350D01*
G75*
G02*
X49720750Y-27145600I243750J0D01*
G01*
G37*
%TD*%
%TO.C,C9*%
G36*
G01*
X41356000Y-35808650D02*
X41356000Y-34896150D01*
G75*
G02*
X41599750Y-34652400I243750J0D01*
G01*
X42087250Y-34652400D01*
G75*
G02*
X42331000Y-34896150I0J-243750D01*
G01*
X42331000Y-35808650D01*
G75*
G02*
X42087250Y-36052400I-243750J0D01*
G01*
X41599750Y-36052400D01*
G75*
G02*
X41356000Y-35808650I0J243750D01*
G01*
G37*
G36*
G01*
X39481000Y-35808650D02*
X39481000Y-34896150D01*
G75*
G02*
X39724750Y-34652400I243750J0D01*
G01*
X40212250Y-34652400D01*
G75*
G02*
X40456000Y-34896150I0J-243750D01*
G01*
X40456000Y-35808650D01*
G75*
G02*
X40212250Y-36052400I-243750J0D01*
G01*
X39724750Y-36052400D01*
G75*
G02*
X39481000Y-35808650I0J243750D01*
G01*
G37*
%TD*%
%TO.C,C8*%
G36*
G01*
X46501000Y-34896150D02*
X46501000Y-35808650D01*
G75*
G02*
X46257250Y-36052400I-243750J0D01*
G01*
X45769750Y-36052400D01*
G75*
G02*
X45526000Y-35808650I0J243750D01*
G01*
X45526000Y-34896150D01*
G75*
G02*
X45769750Y-34652400I243750J0D01*
G01*
X46257250Y-34652400D01*
G75*
G02*
X46501000Y-34896150I0J-243750D01*
G01*
G37*
G36*
G01*
X48376000Y-34896150D02*
X48376000Y-35808650D01*
G75*
G02*
X48132250Y-36052400I-243750J0D01*
G01*
X47644750Y-36052400D01*
G75*
G02*
X47401000Y-35808650I0J243750D01*
G01*
X47401000Y-34896150D01*
G75*
G02*
X47644750Y-34652400I243750J0D01*
G01*
X48132250Y-34652400D01*
G75*
G02*
X48376000Y-34896150I0J-243750D01*
G01*
G37*
%TD*%
D13*
%TO.C,J1*%
X61130000Y-4730000D03*
X61130000Y-7270000D03*
X58590000Y-4730000D03*
X58590000Y-7270000D03*
X56050000Y-4730000D03*
X56050000Y-7270000D03*
X53510000Y-4730000D03*
X53510000Y-7270000D03*
X50970000Y-4730000D03*
X50970000Y-7270000D03*
X48430000Y-4730000D03*
X48430000Y-7270000D03*
X45890000Y-4730000D03*
X45890000Y-7270000D03*
X43350000Y-4730000D03*
X43350000Y-7270000D03*
X40810000Y-4730000D03*
X40810000Y-7270000D03*
X38270000Y-4730000D03*
X38270000Y-7270000D03*
X35730000Y-4730000D03*
X35730000Y-7270000D03*
X33190000Y-4730000D03*
X33190000Y-7270000D03*
X30650000Y-4730000D03*
X30650000Y-7270000D03*
X28110000Y-4730000D03*
X28110000Y-7270000D03*
X25570000Y-4730000D03*
X25570000Y-7270000D03*
X23030000Y-4730000D03*
X23030000Y-7270000D03*
X20490000Y-4730000D03*
X20490000Y-7270000D03*
X17950000Y-4730000D03*
X17950000Y-7270000D03*
X15410000Y-4730000D03*
X15410000Y-7270000D03*
X12870000Y-4730000D03*
D14*
X12870000Y-7270000D03*
%TD*%
D13*
%TO.C,J5*%
X6730000Y-35840000D03*
X6730000Y-33300000D03*
X9270000Y-35840000D03*
X9270000Y-33300000D03*
X11810000Y-35840000D03*
D14*
X11810000Y-33300000D03*
%TD*%
D19*
%TO.C,J9*%
X12972000Y-55488000D03*
X12972000Y-53488000D03*
X14972000Y-55488000D03*
X14972000Y-53488000D03*
X16972000Y-55488000D03*
X16972000Y-53488000D03*
X18972000Y-55488000D03*
X18972000Y-53488000D03*
X20972000Y-55488000D03*
X20972000Y-53488000D03*
X22972000Y-55488000D03*
X22972000Y-53488000D03*
X24972000Y-55488000D03*
X24972000Y-53488000D03*
X26972000Y-55488000D03*
X26972000Y-53488000D03*
X28972000Y-55488000D03*
X28972000Y-53488000D03*
X30972000Y-55488000D03*
X30972000Y-53488000D03*
X32972000Y-55488000D03*
X32972000Y-53488000D03*
X34972000Y-55488000D03*
X34972000Y-53488000D03*
X36972000Y-55488000D03*
X36972000Y-53488000D03*
X38972000Y-55488000D03*
X38972000Y-53488000D03*
X40972000Y-55488000D03*
X40972000Y-53488000D03*
X42972000Y-55488000D03*
X42972000Y-53488000D03*
X44972000Y-55488000D03*
X44972000Y-53488000D03*
X46972000Y-55488000D03*
X46972000Y-53488000D03*
X48972000Y-55488000D03*
X48972000Y-53488000D03*
X50972000Y-55488000D03*
D20*
X50972000Y-53488000D03*
D19*
X52972000Y-55488000D03*
X52972000Y-53488000D03*
X54972000Y-55488000D03*
X54972000Y-53488000D03*
X56972000Y-55488000D03*
X56972000Y-53488000D03*
X58972000Y-55488000D03*
X58972000Y-53488000D03*
X60972000Y-55488000D03*
D20*
X60972000Y-53488000D03*
%TD*%
D19*
%TO.C,J10*%
X67830000Y-51392000D03*
X67830000Y-49392000D03*
X67830000Y-47392000D03*
D20*
X67830000Y-45392000D03*
%TD*%
%TO.C,R4*%
G36*
G01*
X63606000Y-33493600D02*
X63976000Y-33493600D01*
G75*
G02*
X64111000Y-33628600I0J-135000D01*
G01*
X64111000Y-33898600D01*
G75*
G02*
X63976000Y-34033600I-135000J0D01*
G01*
X63606000Y-34033600D01*
G75*
G02*
X63471000Y-33898600I0J135000D01*
G01*
X63471000Y-33628600D01*
G75*
G02*
X63606000Y-33493600I135000J0D01*
G01*
G37*
G36*
G01*
X63606000Y-32473600D02*
X63976000Y-32473600D01*
G75*
G02*
X64111000Y-32608600I0J-135000D01*
G01*
X64111000Y-32878600D01*
G75*
G02*
X63976000Y-33013600I-135000J0D01*
G01*
X63606000Y-33013600D01*
G75*
G02*
X63471000Y-32878600I0J135000D01*
G01*
X63471000Y-32608600D01*
G75*
G02*
X63606000Y-32473600I135000J0D01*
G01*
G37*
%TD*%
%TO.C,R3*%
G36*
G01*
X63976000Y-34985400D02*
X63606000Y-34985400D01*
G75*
G02*
X63471000Y-34850400I0J135000D01*
G01*
X63471000Y-34580400D01*
G75*
G02*
X63606000Y-34445400I135000J0D01*
G01*
X63976000Y-34445400D01*
G75*
G02*
X64111000Y-34580400I0J-135000D01*
G01*
X64111000Y-34850400D01*
G75*
G02*
X63976000Y-34985400I-135000J0D01*
G01*
G37*
G36*
G01*
X63976000Y-36005400D02*
X63606000Y-36005400D01*
G75*
G02*
X63471000Y-35870400I0J135000D01*
G01*
X63471000Y-35600400D01*
G75*
G02*
X63606000Y-35465400I135000J0D01*
G01*
X63976000Y-35465400D01*
G75*
G02*
X64111000Y-35600400I0J-135000D01*
G01*
X64111000Y-35870400D01*
G75*
G02*
X63976000Y-36005400I-135000J0D01*
G01*
G37*
%TD*%
%TO.C,R2*%
G36*
G01*
X63198000Y-9524500D02*
X63198000Y-9154500D01*
G75*
G02*
X63333000Y-9019500I135000J0D01*
G01*
X63603000Y-9019500D01*
G75*
G02*
X63738000Y-9154500I0J-135000D01*
G01*
X63738000Y-9524500D01*
G75*
G02*
X63603000Y-9659500I-135000J0D01*
G01*
X63333000Y-9659500D01*
G75*
G02*
X63198000Y-9524500I0J135000D01*
G01*
G37*
G36*
G01*
X62178000Y-9524500D02*
X62178000Y-9154500D01*
G75*
G02*
X62313000Y-9019500I135000J0D01*
G01*
X62583000Y-9019500D01*
G75*
G02*
X62718000Y-9154500I0J-135000D01*
G01*
X62718000Y-9524500D01*
G75*
G02*
X62583000Y-9659500I-135000J0D01*
G01*
X62313000Y-9659500D01*
G75*
G02*
X62178000Y-9524500I0J135000D01*
G01*
G37*
%TD*%
%TO.C,R1*%
G36*
G01*
X63198000Y-10540500D02*
X63198000Y-10170500D01*
G75*
G02*
X63333000Y-10035500I135000J0D01*
G01*
X63603000Y-10035500D01*
G75*
G02*
X63738000Y-10170500I0J-135000D01*
G01*
X63738000Y-10540500D01*
G75*
G02*
X63603000Y-10675500I-135000J0D01*
G01*
X63333000Y-10675500D01*
G75*
G02*
X63198000Y-10540500I0J135000D01*
G01*
G37*
G36*
G01*
X62178000Y-10540500D02*
X62178000Y-10170500D01*
G75*
G02*
X62313000Y-10035500I135000J0D01*
G01*
X62583000Y-10035500D01*
G75*
G02*
X62718000Y-10170500I0J-135000D01*
G01*
X62718000Y-10540500D01*
G75*
G02*
X62583000Y-10675500I-135000J0D01*
G01*
X62313000Y-10675500D01*
G75*
G02*
X62178000Y-10540500I0J135000D01*
G01*
G37*
%TD*%
%TO.C,R22*%
G36*
G01*
X28773000Y-10809000D02*
X29143000Y-10809000D01*
G75*
G02*
X29278000Y-10944000I0J-135000D01*
G01*
X29278000Y-11214000D01*
G75*
G02*
X29143000Y-11349000I-135000J0D01*
G01*
X28773000Y-11349000D01*
G75*
G02*
X28638000Y-11214000I0J135000D01*
G01*
X28638000Y-10944000D01*
G75*
G02*
X28773000Y-10809000I135000J0D01*
G01*
G37*
G36*
G01*
X28773000Y-9789000D02*
X29143000Y-9789000D01*
G75*
G02*
X29278000Y-9924000I0J-135000D01*
G01*
X29278000Y-10194000D01*
G75*
G02*
X29143000Y-10329000I-135000J0D01*
G01*
X28773000Y-10329000D01*
G75*
G02*
X28638000Y-10194000I0J135000D01*
G01*
X28638000Y-9924000D01*
G75*
G02*
X28773000Y-9789000I135000J0D01*
G01*
G37*
%TD*%
%TO.C,R21*%
G36*
G01*
X27503000Y-10809000D02*
X27873000Y-10809000D01*
G75*
G02*
X28008000Y-10944000I0J-135000D01*
G01*
X28008000Y-11214000D01*
G75*
G02*
X27873000Y-11349000I-135000J0D01*
G01*
X27503000Y-11349000D01*
G75*
G02*
X27368000Y-11214000I0J135000D01*
G01*
X27368000Y-10944000D01*
G75*
G02*
X27503000Y-10809000I135000J0D01*
G01*
G37*
G36*
G01*
X27503000Y-9789000D02*
X27873000Y-9789000D01*
G75*
G02*
X28008000Y-9924000I0J-135000D01*
G01*
X28008000Y-10194000D01*
G75*
G02*
X27873000Y-10329000I-135000J0D01*
G01*
X27503000Y-10329000D01*
G75*
G02*
X27368000Y-10194000I0J135000D01*
G01*
X27368000Y-9924000D01*
G75*
G02*
X27503000Y-9789000I135000J0D01*
G01*
G37*
%TD*%
%TO.C,R20*%
G36*
G01*
X26233000Y-10809000D02*
X26603000Y-10809000D01*
G75*
G02*
X26738000Y-10944000I0J-135000D01*
G01*
X26738000Y-11214000D01*
G75*
G02*
X26603000Y-11349000I-135000J0D01*
G01*
X26233000Y-11349000D01*
G75*
G02*
X26098000Y-11214000I0J135000D01*
G01*
X26098000Y-10944000D01*
G75*
G02*
X26233000Y-10809000I135000J0D01*
G01*
G37*
G36*
G01*
X26233000Y-9789000D02*
X26603000Y-9789000D01*
G75*
G02*
X26738000Y-9924000I0J-135000D01*
G01*
X26738000Y-10194000D01*
G75*
G02*
X26603000Y-10329000I-135000J0D01*
G01*
X26233000Y-10329000D01*
G75*
G02*
X26098000Y-10194000I0J135000D01*
G01*
X26098000Y-9924000D01*
G75*
G02*
X26233000Y-9789000I135000J0D01*
G01*
G37*
%TD*%
%TO.C,R19*%
G36*
G01*
X24973000Y-10809000D02*
X25343000Y-10809000D01*
G75*
G02*
X25478000Y-10944000I0J-135000D01*
G01*
X25478000Y-11214000D01*
G75*
G02*
X25343000Y-11349000I-135000J0D01*
G01*
X24973000Y-11349000D01*
G75*
G02*
X24838000Y-11214000I0J135000D01*
G01*
X24838000Y-10944000D01*
G75*
G02*
X24973000Y-10809000I135000J0D01*
G01*
G37*
G36*
G01*
X24973000Y-9789000D02*
X25343000Y-9789000D01*
G75*
G02*
X25478000Y-9924000I0J-135000D01*
G01*
X25478000Y-10194000D01*
G75*
G02*
X25343000Y-10329000I-135000J0D01*
G01*
X24973000Y-10329000D01*
G75*
G02*
X24838000Y-10194000I0J135000D01*
G01*
X24838000Y-9924000D01*
G75*
G02*
X24973000Y-9789000I135000J0D01*
G01*
G37*
%TD*%
%TO.C,R18*%
G36*
G01*
X16556000Y-10809000D02*
X16926000Y-10809000D01*
G75*
G02*
X17061000Y-10944000I0J-135000D01*
G01*
X17061000Y-11214000D01*
G75*
G02*
X16926000Y-11349000I-135000J0D01*
G01*
X16556000Y-11349000D01*
G75*
G02*
X16421000Y-11214000I0J135000D01*
G01*
X16421000Y-10944000D01*
G75*
G02*
X16556000Y-10809000I135000J0D01*
G01*
G37*
G36*
G01*
X16556000Y-9789000D02*
X16926000Y-9789000D01*
G75*
G02*
X17061000Y-9924000I0J-135000D01*
G01*
X17061000Y-10194000D01*
G75*
G02*
X16926000Y-10329000I-135000J0D01*
G01*
X16556000Y-10329000D01*
G75*
G02*
X16421000Y-10194000I0J135000D01*
G01*
X16421000Y-9924000D01*
G75*
G02*
X16556000Y-9789000I135000J0D01*
G01*
G37*
%TD*%
%TO.C,R17*%
G36*
G01*
X15286000Y-10809000D02*
X15656000Y-10809000D01*
G75*
G02*
X15791000Y-10944000I0J-135000D01*
G01*
X15791000Y-11214000D01*
G75*
G02*
X15656000Y-11349000I-135000J0D01*
G01*
X15286000Y-11349000D01*
G75*
G02*
X15151000Y-11214000I0J135000D01*
G01*
X15151000Y-10944000D01*
G75*
G02*
X15286000Y-10809000I135000J0D01*
G01*
G37*
G36*
G01*
X15286000Y-9789000D02*
X15656000Y-9789000D01*
G75*
G02*
X15791000Y-9924000I0J-135000D01*
G01*
X15791000Y-10194000D01*
G75*
G02*
X15656000Y-10329000I-135000J0D01*
G01*
X15286000Y-10329000D01*
G75*
G02*
X15151000Y-10194000I0J135000D01*
G01*
X15151000Y-9924000D01*
G75*
G02*
X15286000Y-9789000I135000J0D01*
G01*
G37*
%TD*%
%TO.C,R16*%
G36*
G01*
X14016000Y-10809000D02*
X14386000Y-10809000D01*
G75*
G02*
X14521000Y-10944000I0J-135000D01*
G01*
X14521000Y-11214000D01*
G75*
G02*
X14386000Y-11349000I-135000J0D01*
G01*
X14016000Y-11349000D01*
G75*
G02*
X13881000Y-11214000I0J135000D01*
G01*
X13881000Y-10944000D01*
G75*
G02*
X14016000Y-10809000I135000J0D01*
G01*
G37*
G36*
G01*
X14016000Y-9789000D02*
X14386000Y-9789000D01*
G75*
G02*
X14521000Y-9924000I0J-135000D01*
G01*
X14521000Y-10194000D01*
G75*
G02*
X14386000Y-10329000I-135000J0D01*
G01*
X14016000Y-10329000D01*
G75*
G02*
X13881000Y-10194000I0J135000D01*
G01*
X13881000Y-9924000D01*
G75*
G02*
X14016000Y-9789000I135000J0D01*
G01*
G37*
%TD*%
%TO.C,R15*%
G36*
G01*
X12746000Y-10809000D02*
X13116000Y-10809000D01*
G75*
G02*
X13251000Y-10944000I0J-135000D01*
G01*
X13251000Y-11214000D01*
G75*
G02*
X13116000Y-11349000I-135000J0D01*
G01*
X12746000Y-11349000D01*
G75*
G02*
X12611000Y-11214000I0J135000D01*
G01*
X12611000Y-10944000D01*
G75*
G02*
X12746000Y-10809000I135000J0D01*
G01*
G37*
G36*
G01*
X12746000Y-9789000D02*
X13116000Y-9789000D01*
G75*
G02*
X13251000Y-9924000I0J-135000D01*
G01*
X13251000Y-10194000D01*
G75*
G02*
X13116000Y-10329000I-135000J0D01*
G01*
X12746000Y-10329000D01*
G75*
G02*
X12611000Y-10194000I0J135000D01*
G01*
X12611000Y-9924000D01*
G75*
G02*
X12746000Y-9789000I135000J0D01*
G01*
G37*
%TD*%
%TO.C,R14*%
G36*
G01*
X11476000Y-10809000D02*
X11846000Y-10809000D01*
G75*
G02*
X11981000Y-10944000I0J-135000D01*
G01*
X11981000Y-11214000D01*
G75*
G02*
X11846000Y-11349000I-135000J0D01*
G01*
X11476000Y-11349000D01*
G75*
G02*
X11341000Y-11214000I0J135000D01*
G01*
X11341000Y-10944000D01*
G75*
G02*
X11476000Y-10809000I135000J0D01*
G01*
G37*
G36*
G01*
X11476000Y-9789000D02*
X11846000Y-9789000D01*
G75*
G02*
X11981000Y-9924000I0J-135000D01*
G01*
X11981000Y-10194000D01*
G75*
G02*
X11846000Y-10329000I-135000J0D01*
G01*
X11476000Y-10329000D01*
G75*
G02*
X11341000Y-10194000I0J135000D01*
G01*
X11341000Y-9924000D01*
G75*
G02*
X11476000Y-9789000I135000J0D01*
G01*
G37*
%TD*%
%TO.C,R13*%
G36*
G01*
X47401000Y-10802000D02*
X47771000Y-10802000D01*
G75*
G02*
X47906000Y-10937000I0J-135000D01*
G01*
X47906000Y-11207000D01*
G75*
G02*
X47771000Y-11342000I-135000J0D01*
G01*
X47401000Y-11342000D01*
G75*
G02*
X47266000Y-11207000I0J135000D01*
G01*
X47266000Y-10937000D01*
G75*
G02*
X47401000Y-10802000I135000J0D01*
G01*
G37*
G36*
G01*
X47401000Y-9782000D02*
X47771000Y-9782000D01*
G75*
G02*
X47906000Y-9917000I0J-135000D01*
G01*
X47906000Y-10187000D01*
G75*
G02*
X47771000Y-10322000I-135000J0D01*
G01*
X47401000Y-10322000D01*
G75*
G02*
X47266000Y-10187000I0J135000D01*
G01*
X47266000Y-9917000D01*
G75*
G02*
X47401000Y-9782000I135000J0D01*
G01*
G37*
%TD*%
%TO.C,R12*%
G36*
G01*
X46147000Y-10809000D02*
X46517000Y-10809000D01*
G75*
G02*
X46652000Y-10944000I0J-135000D01*
G01*
X46652000Y-11214000D01*
G75*
G02*
X46517000Y-11349000I-135000J0D01*
G01*
X46147000Y-11349000D01*
G75*
G02*
X46012000Y-11214000I0J135000D01*
G01*
X46012000Y-10944000D01*
G75*
G02*
X46147000Y-10809000I135000J0D01*
G01*
G37*
G36*
G01*
X46147000Y-9789000D02*
X46517000Y-9789000D01*
G75*
G02*
X46652000Y-9924000I0J-135000D01*
G01*
X46652000Y-10194000D01*
G75*
G02*
X46517000Y-10329000I-135000J0D01*
G01*
X46147000Y-10329000D01*
G75*
G02*
X46012000Y-10194000I0J135000D01*
G01*
X46012000Y-9924000D01*
G75*
G02*
X46147000Y-9789000I135000J0D01*
G01*
G37*
%TD*%
%TO.C,R11*%
G36*
G01*
X41016000Y-10809000D02*
X41386000Y-10809000D01*
G75*
G02*
X41521000Y-10944000I0J-135000D01*
G01*
X41521000Y-11214000D01*
G75*
G02*
X41386000Y-11349000I-135000J0D01*
G01*
X41016000Y-11349000D01*
G75*
G02*
X40881000Y-11214000I0J135000D01*
G01*
X40881000Y-10944000D01*
G75*
G02*
X41016000Y-10809000I135000J0D01*
G01*
G37*
G36*
G01*
X41016000Y-9789000D02*
X41386000Y-9789000D01*
G75*
G02*
X41521000Y-9924000I0J-135000D01*
G01*
X41521000Y-10194000D01*
G75*
G02*
X41386000Y-10329000I-135000J0D01*
G01*
X41016000Y-10329000D01*
G75*
G02*
X40881000Y-10194000I0J135000D01*
G01*
X40881000Y-9924000D01*
G75*
G02*
X41016000Y-9789000I135000J0D01*
G01*
G37*
%TD*%
%TO.C,R10*%
G36*
G01*
X39746000Y-10809000D02*
X40116000Y-10809000D01*
G75*
G02*
X40251000Y-10944000I0J-135000D01*
G01*
X40251000Y-11214000D01*
G75*
G02*
X40116000Y-11349000I-135000J0D01*
G01*
X39746000Y-11349000D01*
G75*
G02*
X39611000Y-11214000I0J135000D01*
G01*
X39611000Y-10944000D01*
G75*
G02*
X39746000Y-10809000I135000J0D01*
G01*
G37*
G36*
G01*
X39746000Y-9789000D02*
X40116000Y-9789000D01*
G75*
G02*
X40251000Y-9924000I0J-135000D01*
G01*
X40251000Y-10194000D01*
G75*
G02*
X40116000Y-10329000I-135000J0D01*
G01*
X39746000Y-10329000D01*
G75*
G02*
X39611000Y-10194000I0J135000D01*
G01*
X39611000Y-9924000D01*
G75*
G02*
X39746000Y-9789000I135000J0D01*
G01*
G37*
%TD*%
%TO.C,R9*%
G36*
G01*
X38476000Y-10809000D02*
X38846000Y-10809000D01*
G75*
G02*
X38981000Y-10944000I0J-135000D01*
G01*
X38981000Y-11214000D01*
G75*
G02*
X38846000Y-11349000I-135000J0D01*
G01*
X38476000Y-11349000D01*
G75*
G02*
X38341000Y-11214000I0J135000D01*
G01*
X38341000Y-10944000D01*
G75*
G02*
X38476000Y-10809000I135000J0D01*
G01*
G37*
G36*
G01*
X38476000Y-9789000D02*
X38846000Y-9789000D01*
G75*
G02*
X38981000Y-9924000I0J-135000D01*
G01*
X38981000Y-10194000D01*
G75*
G02*
X38846000Y-10329000I-135000J0D01*
G01*
X38476000Y-10329000D01*
G75*
G02*
X38341000Y-10194000I0J135000D01*
G01*
X38341000Y-9924000D01*
G75*
G02*
X38476000Y-9789000I135000J0D01*
G01*
G37*
%TD*%
%TO.C,R8*%
G36*
G01*
X54998000Y-10809000D02*
X55368000Y-10809000D01*
G75*
G02*
X55503000Y-10944000I0J-135000D01*
G01*
X55503000Y-11214000D01*
G75*
G02*
X55368000Y-11349000I-135000J0D01*
G01*
X54998000Y-11349000D01*
G75*
G02*
X54863000Y-11214000I0J135000D01*
G01*
X54863000Y-10944000D01*
G75*
G02*
X54998000Y-10809000I135000J0D01*
G01*
G37*
G36*
G01*
X54998000Y-9789000D02*
X55368000Y-9789000D01*
G75*
G02*
X55503000Y-9924000I0J-135000D01*
G01*
X55503000Y-10194000D01*
G75*
G02*
X55368000Y-10329000I-135000J0D01*
G01*
X54998000Y-10329000D01*
G75*
G02*
X54863000Y-10194000I0J135000D01*
G01*
X54863000Y-9924000D01*
G75*
G02*
X54998000Y-9789000I135000J0D01*
G01*
G37*
%TD*%
%TO.C,R7*%
G36*
G01*
X53728000Y-10809000D02*
X54098000Y-10809000D01*
G75*
G02*
X54233000Y-10944000I0J-135000D01*
G01*
X54233000Y-11214000D01*
G75*
G02*
X54098000Y-11349000I-135000J0D01*
G01*
X53728000Y-11349000D01*
G75*
G02*
X53593000Y-11214000I0J135000D01*
G01*
X53593000Y-10944000D01*
G75*
G02*
X53728000Y-10809000I135000J0D01*
G01*
G37*
G36*
G01*
X53728000Y-9789000D02*
X54098000Y-9789000D01*
G75*
G02*
X54233000Y-9924000I0J-135000D01*
G01*
X54233000Y-10194000D01*
G75*
G02*
X54098000Y-10329000I-135000J0D01*
G01*
X53728000Y-10329000D01*
G75*
G02*
X53593000Y-10194000I0J135000D01*
G01*
X53593000Y-9924000D01*
G75*
G02*
X53728000Y-9789000I135000J0D01*
G01*
G37*
%TD*%
%TO.C,R6*%
G36*
G01*
X51493000Y-10809000D02*
X51863000Y-10809000D01*
G75*
G02*
X51998000Y-10944000I0J-135000D01*
G01*
X51998000Y-11214000D01*
G75*
G02*
X51863000Y-11349000I-135000J0D01*
G01*
X51493000Y-11349000D01*
G75*
G02*
X51358000Y-11214000I0J135000D01*
G01*
X51358000Y-10944000D01*
G75*
G02*
X51493000Y-10809000I135000J0D01*
G01*
G37*
G36*
G01*
X51493000Y-9789000D02*
X51863000Y-9789000D01*
G75*
G02*
X51998000Y-9924000I0J-135000D01*
G01*
X51998000Y-10194000D01*
G75*
G02*
X51863000Y-10329000I-135000J0D01*
G01*
X51493000Y-10329000D01*
G75*
G02*
X51358000Y-10194000I0J135000D01*
G01*
X51358000Y-9924000D01*
G75*
G02*
X51493000Y-9789000I135000J0D01*
G01*
G37*
%TD*%
%TO.C,R5*%
G36*
G01*
X50223000Y-10809000D02*
X50593000Y-10809000D01*
G75*
G02*
X50728000Y-10944000I0J-135000D01*
G01*
X50728000Y-11214000D01*
G75*
G02*
X50593000Y-11349000I-135000J0D01*
G01*
X50223000Y-11349000D01*
G75*
G02*
X50088000Y-11214000I0J135000D01*
G01*
X50088000Y-10944000D01*
G75*
G02*
X50223000Y-10809000I135000J0D01*
G01*
G37*
G36*
G01*
X50223000Y-9789000D02*
X50593000Y-9789000D01*
G75*
G02*
X50728000Y-9924000I0J-135000D01*
G01*
X50728000Y-10194000D01*
G75*
G02*
X50593000Y-10329000I-135000J0D01*
G01*
X50223000Y-10329000D01*
G75*
G02*
X50088000Y-10194000I0J135000D01*
G01*
X50088000Y-9924000D01*
G75*
G02*
X50223000Y-9789000I135000J0D01*
G01*
G37*
%TD*%
D21*
%TO.C,D5*%
X57467000Y-27881800D03*
X57467000Y-30681800D03*
%TD*%
D13*
%TO.C,J2*%
X63426000Y-11943000D03*
D14*
X63426000Y-14483000D03*
%TD*%
D13*
%TO.C,J7*%
X9120000Y-10520000D03*
D14*
X6580000Y-10520000D03*
%TD*%
%TO.C,FUSE1*%
G36*
G01*
X54001000Y-30069200D02*
X55251000Y-30069200D01*
G75*
G02*
X55501000Y-30319200I0J-250000D01*
G01*
X55501000Y-31069200D01*
G75*
G02*
X55251000Y-31319200I-250000J0D01*
G01*
X54001000Y-31319200D01*
G75*
G02*
X53751000Y-31069200I0J250000D01*
G01*
X53751000Y-30319200D01*
G75*
G02*
X54001000Y-30069200I250000J0D01*
G01*
G37*
G36*
G01*
X54001000Y-27269200D02*
X55251000Y-27269200D01*
G75*
G02*
X55501000Y-27519200I0J-250000D01*
G01*
X55501000Y-28269200D01*
G75*
G02*
X55251000Y-28519200I-250000J0D01*
G01*
X54001000Y-28519200D01*
G75*
G02*
X53751000Y-28269200I0J250000D01*
G01*
X53751000Y-27519200D01*
G75*
G02*
X54001000Y-27269200I250000J0D01*
G01*
G37*
%TD*%
D22*
%TO.C,H2*%
X67431891Y-4568109D03*
X66000000Y-3975000D03*
X64568109Y-4568109D03*
X63975000Y-6000000D03*
X64568109Y-7431891D03*
X66000000Y-8025000D03*
X67431891Y-7431891D03*
X68025000Y-6000000D03*
D23*
X66000000Y-6000000D03*
%TD*%
D22*
%TO.C,H1*%
X9431891Y-4568109D03*
X8000000Y-3975000D03*
X6568109Y-4568109D03*
X5975000Y-6000000D03*
X6568109Y-7431891D03*
X8000000Y-8025000D03*
X9431891Y-7431891D03*
X10025000Y-6000000D03*
D23*
X8000000Y-6000000D03*
%TD*%
D13*
%TO.C,J4*%
X6286000Y-13610000D03*
X6286000Y-16150000D03*
X6286000Y-18690000D03*
X6286000Y-21230000D03*
D14*
X6286000Y-23770000D03*
%TD*%
D22*
%TO.C,H6*%
X67431891Y-53568109D03*
X66000000Y-52975000D03*
X64568109Y-53568109D03*
X63975000Y-55000000D03*
X64568109Y-56431891D03*
X66000000Y-57025000D03*
X67431891Y-56431891D03*
X68025000Y-55000000D03*
D23*
X66000000Y-55000000D03*
%TD*%
D22*
%TO.C,H5*%
X9431891Y-53568109D03*
X8000000Y-52975000D03*
X6568109Y-53568109D03*
X5975000Y-55000000D03*
X6568109Y-56431891D03*
X8000000Y-57025000D03*
X9431891Y-56431891D03*
X10025000Y-55000000D03*
D23*
X8000000Y-55000000D03*
%TD*%
D22*
%TO.C,H4*%
X67431891Y-27568109D03*
X66000000Y-26975000D03*
X64568109Y-27568109D03*
X63975000Y-29000000D03*
X64568109Y-30431891D03*
X66000000Y-31025000D03*
X67431891Y-30431891D03*
X68025000Y-29000000D03*
D23*
X66000000Y-29000000D03*
%TD*%
D22*
%TO.C,H3*%
X9431891Y-27568109D03*
X8000000Y-26975000D03*
X6568109Y-27568109D03*
X5975000Y-29000000D03*
X6568109Y-30431891D03*
X8000000Y-31025000D03*
X9431891Y-30431891D03*
X10025000Y-29000000D03*
D23*
X8000000Y-29000000D03*
%TD*%
%TO.C,D4*%
G36*
G01*
X65577000Y-32813350D02*
X65577000Y-33725850D01*
G75*
G02*
X65333250Y-33969600I-243750J0D01*
G01*
X64845750Y-33969600D01*
G75*
G02*
X64602000Y-33725850I0J243750D01*
G01*
X64602000Y-32813350D01*
G75*
G02*
X64845750Y-32569600I243750J0D01*
G01*
X65333250Y-32569600D01*
G75*
G02*
X65577000Y-32813350I0J-243750D01*
G01*
G37*
G36*
G01*
X67452000Y-32813350D02*
X67452000Y-33725850D01*
G75*
G02*
X67208250Y-33969600I-243750J0D01*
G01*
X66720750Y-33969600D01*
G75*
G02*
X66477000Y-33725850I0J243750D01*
G01*
X66477000Y-32813350D01*
G75*
G02*
X66720750Y-32569600I243750J0D01*
G01*
X67208250Y-32569600D01*
G75*
G02*
X67452000Y-32813350I0J-243750D01*
G01*
G37*
%TD*%
%TO.C,D3*%
G36*
G01*
X65580000Y-34765850D02*
X65580000Y-35678350D01*
G75*
G02*
X65336250Y-35922100I-243750J0D01*
G01*
X64848750Y-35922100D01*
G75*
G02*
X64605000Y-35678350I0J243750D01*
G01*
X64605000Y-34765850D01*
G75*
G02*
X64848750Y-34522100I243750J0D01*
G01*
X65336250Y-34522100D01*
G75*
G02*
X65580000Y-34765850I0J-243750D01*
G01*
G37*
G36*
G01*
X67455000Y-34765850D02*
X67455000Y-35678350D01*
G75*
G02*
X67211250Y-35922100I-243750J0D01*
G01*
X66723750Y-35922100D01*
G75*
G02*
X66480000Y-35678350I0J243750D01*
G01*
X66480000Y-34765850D01*
G75*
G02*
X66723750Y-34522100I243750J0D01*
G01*
X67211250Y-34522100D01*
G75*
G02*
X67455000Y-34765850I0J-243750D01*
G01*
G37*
%TD*%
%TO.C,D2*%
G36*
G01*
X66342000Y-13899750D02*
X66342000Y-14812250D01*
G75*
G02*
X66098250Y-15056000I-243750J0D01*
G01*
X65610750Y-15056000D01*
G75*
G02*
X65367000Y-14812250I0J243750D01*
G01*
X65367000Y-13899750D01*
G75*
G02*
X65610750Y-13656000I243750J0D01*
G01*
X66098250Y-13656000D01*
G75*
G02*
X66342000Y-13899750I0J-243750D01*
G01*
G37*
G36*
G01*
X68217000Y-13899750D02*
X68217000Y-14812250D01*
G75*
G02*
X67973250Y-15056000I-243750J0D01*
G01*
X67485750Y-15056000D01*
G75*
G02*
X67242000Y-14812250I0J243750D01*
G01*
X67242000Y-13899750D01*
G75*
G02*
X67485750Y-13656000I243750J0D01*
G01*
X67973250Y-13656000D01*
G75*
G02*
X68217000Y-13899750I0J-243750D01*
G01*
G37*
%TD*%
%TO.C,D1*%
G36*
G01*
X66454000Y-9962750D02*
X66454000Y-10875250D01*
G75*
G02*
X66210250Y-11119000I-243750J0D01*
G01*
X65722750Y-11119000D01*
G75*
G02*
X65479000Y-10875250I0J243750D01*
G01*
X65479000Y-9962750D01*
G75*
G02*
X65722750Y-9719000I243750J0D01*
G01*
X66210250Y-9719000D01*
G75*
G02*
X66454000Y-9962750I0J-243750D01*
G01*
G37*
G36*
G01*
X68329000Y-9962750D02*
X68329000Y-10875250D01*
G75*
G02*
X68085250Y-11119000I-243750J0D01*
G01*
X67597750Y-11119000D01*
G75*
G02*
X67354000Y-10875250I0J243750D01*
G01*
X67354000Y-9962750D01*
G75*
G02*
X67597750Y-9719000I243750J0D01*
G01*
X68085250Y-9719000D01*
G75*
G02*
X68329000Y-9962750I0J-243750D01*
G01*
G37*
%TD*%
M02*
