M48
; DRILL file {KiCad (5.1.6-0-10_14)} date Tuesday, August 10, 2021 at 07:50:42 PM
; FORMAT={-:-/ absolute / inch / decimal}
; #@! TF.CreationDate,2021-08-10T19:50:42+02:00
; #@! TF.GenerationSoftware,Kicad,Pcbnew,(5.1.6-0-10_14)
; #@! TF.FileFunction,Plated,1,2,PTH
FMAT,2
INCH
T1C0.0157
T2C0.0197
T3C0.0236
T4C0.0315
T5C0.0394
T6C0.0406
T7C0.0472
T8C0.0523
T9C0.1063
T10C0.1272
%
G90
G05
T1
X3.5082Y-0.8809
X3.5344Y-0.4122
X3.5481Y-0.7128
X3.5662Y-0.599
X3.5693Y-0.7432
X3.5722Y-0.0191
X3.5942Y-0.4982
X3.5953Y-1.1507
X3.6058Y-0.7437
X3.6153Y-1.2611
X3.6257Y-0.5755
X3.6261Y0.0361
X3.6279Y-0.7983
X3.6317Y0.0781
X3.6321Y-0.6375
X3.6631Y-0.1208
X3.67Y-0.4984
X3.6913Y-0.5983
X3.6918Y-0.4686
X3.6963Y0.0361
X3.6998Y-0.7559
X3.7064Y-0.8206
X3.7076Y-0.8582
X3.7222Y-0.4423
X3.7226Y-0.6971
X3.733Y-0.1256
X3.7372Y0.3823
X3.7411Y-0.5986
X3.7544Y-0.4789
X3.7616Y-0.0198
X3.7702Y-0.1227
X3.7801Y-0.4423
X3.8354Y0.0644
X3.8405Y-0.5972
X3.8414Y-1.2617
X3.8537Y-0.8909
X3.9521Y-0.5677
X3.9822Y-1.2598
X3.9861Y0.0364
X4.0051Y-0.36
X4.0144Y-0.0115
X4.0161Y-0.0637
X4.0401Y-1.2645
X4.0941Y-0.8715
X4.1139Y-1.4885
X4.1367Y0.0591
X4.1369Y0.1584
X4.1729Y-0.1767
X4.18Y-0.36
X4.2155Y-1.5158
X4.2407Y-1.2954
X4.2497Y-0.0039
X4.2613Y-0.3343
X4.29Y-0.2978
X4.3166Y-0.3326
X4.3757Y-0.4689
X4.3773Y-1.2309
X4.3796Y0.1451
X4.4257Y-0.3489
X4.4559Y0.1547
X4.4832Y-0.6101
X4.4871Y-0.8252
X4.5106Y-0.6351
X4.513Y-0.9495
X4.6099Y-0.3156
X4.6112Y-0.6375
X4.6278Y-1.6384
X4.6703Y-0.6148
X4.6869Y-0.495
X4.7105Y-0.5887
X4.7108Y-0.6641
X4.7217Y-0.7649
X4.7327Y0.0359
X4.7657Y-0.1288
X4.7813Y0.0331
X4.7907Y-0.8649
X4.7951Y-0.4442
X4.8378Y-0.4978
X4.8422Y-0.0034
X4.8747Y-0.7779
X4.8772Y-0.4443
X4.8827Y-0.9919
X4.8973Y-0.3119
X4.9046Y-0.4177
X4.9153Y-1.2981
X4.9523Y-0.4655
X4.9618Y0.0359
X4.9729Y-0.0059
X4.9942Y-0.311
X5.0094Y0.0035
X5.0347Y-0.3118
X5.0657Y-0.4654
X5.102Y-0.8212
X5.1063Y-1.5328
X5.1099Y-0.6915
X5.1219Y0.3756
X5.1537Y-0.2749
X5.1571Y-0.401
X5.172Y-1.2703
X5.1787Y-1.5099
X5.2028Y-0.2807
X5.2346Y-0.6435
X5.2389Y0.1449
X5.2977Y0.1294
X5.3414Y-0.6337
X5.3517Y-0.4549
X5.3657Y-0.2589
X5.3799Y-0.0729
X5.4523Y0.1707
X5.4701Y-0.99
X5.4939Y-1.3987
X5.4965Y-0.2859
X5.5456Y-1.2434
X5.6076Y-0.3165
X5.6077Y-0.3665
T2
X5.503Y-0.6378
X5.5263Y-0.5814
X5.5263Y-0.6942
X5.5827Y-0.5581
X5.5827Y-0.7175
X5.6391Y-0.5814
X5.6391Y-0.6942
X5.6624Y-0.6378
X5.503Y-1.6614
X5.5263Y-1.605
X5.5263Y-1.7178
X5.5827Y-1.5817
X5.5827Y-1.7411
X5.6391Y-1.605
X5.6391Y-1.7178
X5.6624Y-1.6614
X3.2195Y-0.6378
X3.2428Y-0.5814
X3.2428Y-0.6942
X3.2992Y-0.5581
X3.2992Y-0.7175
X3.3556Y-0.5814
X3.3556Y-0.6942
X3.3789Y-0.6378
X5.503Y0.2677
X5.5263Y0.3241
X5.5263Y0.2113
X5.5827Y0.3474
X5.5827Y0.188
X5.6391Y0.3241
X5.6391Y0.2113
X5.6624Y0.2677
X3.2195Y-1.6614
X3.2428Y-1.605
X3.2428Y-1.7178
X3.2992Y-1.5817
X3.2992Y-1.7411
X3.3556Y-1.605
X3.3556Y-1.7178
X3.3789Y-1.6614
X3.2195Y0.2677
X3.2428Y0.3241
X3.2428Y0.2113
X3.2992Y0.3474
X3.2992Y0.188
X3.3556Y0.3241
X3.3556Y0.2113
X3.3789Y0.2677
T3
X3.4774Y-0.4529
X3.6435Y-0.303
X3.7663Y-0.6996
X3.8009Y0.0157
X3.8582Y-0.303
X3.8923Y0.0151
X3.9185Y-0.6996
X4.045Y0.0892
X4.3817Y0.0826
X4.4844Y0.0032
X4.5434Y-0.7413
X4.6034Y0.1001
X4.7801Y-0.262
X4.8066Y-0.1237
X4.8894Y-0.8631
X4.9163Y0.0029
X4.9301Y0.1001
X5.015Y-0.1237
X5.0821Y0.0182
X5.1577Y-0.7534
X5.1729Y-0.9143
X5.1903Y-0.2048
X5.1912Y-0.8097
X5.2613Y-0.0234
X5.277Y-0.8313
X5.3264Y-0.1237
X5.3438Y-1.289
X5.3943Y-0.9825
X5.4348Y-0.7583
X5.4899Y-0.406
T4
X3.495Y-1.6019
X3.495Y-1.6806
X3.5737Y-1.6019
X3.5737Y-1.6806
X3.6524Y-1.6019
X3.6524Y-1.6806
X3.7312Y-1.6019
X3.7312Y-1.6806
X3.8099Y-1.6019
X3.8099Y-1.6806
X3.8887Y-1.6019
X3.8887Y-1.6806
X3.9674Y-1.6019
X3.9674Y-1.6806
X4.0461Y-1.6019
X4.0461Y-1.6806
X4.1249Y-1.6019
X4.1249Y-1.6806
X4.2036Y-1.6019
X4.2036Y-1.6806
X4.2824Y-1.6019
X4.2824Y-1.6806
X4.3611Y-1.6019
X4.3611Y-1.6806
X4.4398Y-1.6019
X4.4398Y-1.6806
X4.5186Y-1.6019
X4.5186Y-1.6806
X4.5973Y-1.6019
X4.5973Y-1.6806
X4.6761Y-1.6019
X4.6761Y-1.6806
X4.7548Y-1.6019
X4.7548Y-1.6806
X4.8335Y-1.6019
X4.8335Y-1.6806
X4.9123Y-1.6019
X4.9123Y-1.6806
X4.991Y-1.6019
X4.991Y-1.6806
X5.0698Y-1.6019
X5.0698Y-1.6806
X5.1485Y-1.6019
X5.1485Y-1.6806
X5.2272Y-1.6019
X5.2272Y-1.6806
X5.306Y-1.6019
X5.306Y-1.6806
X5.3847Y-1.6019
X5.3847Y-1.6806
X5.6547Y-1.2831
X5.6547Y-1.3619
X5.6547Y-1.4406
X5.6547Y-1.5194
T5
X5.4813Y0.0337
X5.4813Y-0.0663
X3.2492Y-0.8071
X3.2492Y-0.9071
X3.3492Y-0.8071
X3.3492Y-0.9071
X3.4492Y-0.8071
X3.4492Y-0.9071
X3.2388Y-1.0888
X3.2388Y-1.1888
X3.3388Y-1.0888
X3.3388Y-1.1888
X3.4388Y-1.0888
X3.4388Y-1.1888
X3.5388Y-1.0888
X3.5388Y-1.1888
X3.6388Y-1.0888
X3.6388Y-1.1888
X3.7388Y-1.0888
X3.7388Y-1.1888
X3.8388Y-1.0888
X3.8388Y-1.1888
X3.9388Y-1.0888
X3.9388Y-1.1888
X4.0388Y-1.0888
X4.0388Y-1.1888
X4.1388Y-1.0888
X4.1388Y-1.1888
X4.2388Y-1.0888
X4.2388Y-1.1888
X4.3388Y-1.0888
X4.3388Y-1.1888
X4.4388Y-1.0888
X4.4388Y-1.1888
X4.5388Y-1.0888
X4.5388Y-1.1888
X4.6388Y-1.0888
X4.6388Y-1.1888
X4.7388Y-1.0888
X4.7388Y-1.1888
X4.8388Y-1.0888
X4.8388Y-1.1888
X4.9388Y-1.0888
X4.9388Y-1.1888
X5.0388Y-1.0888
X5.0388Y-1.1888
X5.1388Y-1.0888
X5.1388Y-1.1888
X5.2388Y-1.0888
X5.2388Y-1.1888
X5.3388Y-1.0888
X5.3388Y-1.1888
X5.4388Y-1.0888
X5.4388Y-1.1888
X5.5388Y-1.0888
X5.5388Y-1.1888
X5.6388Y-1.0888
X5.6388Y-1.1888
X3.2433Y0.0898
X3.3433Y0.0898
X3.2996Y-0.0323
X3.2996Y-0.1323
X3.2996Y-0.2323
X3.2996Y-0.3323
X3.2996Y-0.4323
X3.4909Y0.3177
X3.4909Y0.2177
X3.5909Y0.3177
X3.5909Y0.2177
X3.6909Y0.3177
X3.6909Y0.2177
X3.7909Y0.3177
X3.7909Y0.2177
X3.8909Y0.3177
X3.8909Y0.2177
X3.9909Y0.3177
X3.9909Y0.2177
X4.0909Y0.3177
X4.0909Y0.2177
X4.1909Y0.3177
X4.1909Y0.2177
X4.2909Y0.3177
X4.2909Y0.2177
X4.3909Y0.3177
X4.3909Y0.2177
X4.4909Y0.3177
X4.4909Y0.2177
X4.5909Y0.3177
X4.5909Y0.2177
X4.6909Y0.3177
X4.6909Y0.2177
X4.7909Y0.3177
X4.7909Y0.2177
X4.8909Y0.3177
X4.8909Y0.2177
X4.9909Y0.3177
X4.9909Y0.2177
X5.0909Y0.3177
X5.0909Y0.2177
X5.1909Y0.3177
X5.1909Y0.2177
X5.2909Y0.3177
X5.2909Y0.2177
X5.3909Y0.3177
X5.3909Y0.2177
T6
X3.7867Y-1.3713
X3.8412Y-1.4831
X3.8957Y-1.3713
X3.9503Y-1.4831
X4.0048Y-1.3713
X4.0593Y-1.4831
X4.1139Y-1.3713
X4.1684Y-1.4831
X4.2229Y-1.3713
X4.2774Y-1.4831
X4.332Y-1.3713
X4.3865Y-1.4831
X4.441Y-1.3713
X4.4956Y-1.4831
X4.5501Y-1.3713
X4.6046Y-1.4831
X4.6591Y-1.3713
X4.7137Y-1.4831
X4.7682Y-1.3713
X4.8227Y-1.4831
X4.8772Y-1.3713
X4.9318Y-1.4831
X4.9863Y-1.3713
X5.0408Y-1.4831
X5.0954Y-1.3713
T7
X4.3947Y-0.6216
X4.3947Y-0.72
X4.3947Y-0.8185
X4.3947Y-0.9169
T8
X5.5396Y-0.2002
X5.5396Y-0.4817
X5.6754Y-0.2002
X5.6754Y-0.4817
T9
X5.5827Y-0.6378
X5.5827Y-1.6614
X3.2992Y-0.6378
X5.5827Y0.2677
X3.2992Y-1.6614
X3.2992Y0.2677
T10
X3.515Y-1.4272
X5.367Y-1.4272
T0
M30
