M48
; DRILL file {KiCad (5.1.6-0-10_14)} date Wednesday, August 11, 2021 at 10:29:50 AM
; FORMAT={-:-/ absolute / inch / decimal}
; #@! TF.CreationDate,2021-08-11T10:29:50+02:00
; #@! TF.GenerationSoftware,Kicad,Pcbnew,(5.1.6-0-10_14)
; #@! TF.FileFunction,Plated,1,2,PTH
FMAT,2
INCH
T1C0.0157
T2C0.0197
T3C0.0236
T4C0.0315
T5C0.0394
T6C0.0406
T7C0.0472
T8C0.0523
T9C0.1063
T10C0.1272
%
G90
G05
T1
X3.3962Y-0.5229
X3.4985Y-0.3621
X3.545Y-0.1197
X3.5609Y-0.4973
X3.5663Y-0.5983
X3.6141Y0.0354
X3.6231Y-0.6432
X3.6377Y-0.2759
X3.6389Y-0.6009
X3.6491Y-0.7884
X3.6597Y-0.1944
X3.6603Y0.0632
X3.6828Y-0.4898
X3.6978Y-0.2888
X3.7153Y-0.8675
X3.7222Y-0.4792
X3.7222Y-0.7319
X3.7311Y-1.2617
X3.7371Y-0.9259
X3.7413Y-0.5983
X3.7487Y-0.4268
X3.7626Y-0.1991
X3.7682Y-0.1203
X3.7716Y-1.2715
X3.7885Y-0.9332
X3.7906Y-1.7748
X3.7913Y-0.5983
X3.7983Y-0.9697
X3.8409Y-0.6952
X3.8412Y0.0678
X3.8413Y-0.5983
X3.8465Y-0.7621
X3.8622Y-0.8244
X3.865Y-0.7228
X3.8826Y0.0403
X3.8908Y-0.5967
X3.9218Y-0.7314
X3.9275Y-1.538
X3.9747Y-0.9569
X4.0047Y-0.8569
X4.0064Y-0.3109
X4.0149Y-0.2097
X4.0553Y-0.7658
X4.0647Y-0.6569
X4.1197Y0.1456
X4.1642Y0.0643
X4.1936Y-0.6941
X4.2097Y-0.0069
X4.2105Y-1.2667
X4.2114Y-1.3094
X4.2397Y-0.3944
X4.2572Y-0.2769
X4.281Y-0.7084
X4.2878Y-1.2748
X4.335Y-1.2432
X4.3535Y-0.0162
X4.393Y0.0169
X4.4384Y0.1666
X4.4522Y-0.4869
X4.4606Y0.0844
X4.5138Y-0.8828
X4.5297Y0.1181
X4.6113Y-0.6374
X4.6384Y-1.5288
X4.6709Y-0.6661
X4.6738Y-0.312
X4.6969Y0.0242
X4.7099Y-1.566
X4.7327Y-0.5213
X4.7337Y0.0354
X4.763Y0.1689
X4.7709Y0.0274
X4.7712Y-0.6366
X4.8044Y-0.1503
X4.8059Y-0.5141
X4.8069Y-1.2529
X4.8426Y0.137
X4.8569Y0.0678
X4.8579Y-0.5798
X4.8695Y-0.4768
X4.8797Y-0.8544
X4.8943Y-1.156
X4.8953Y-0.5061
X4.921Y-0.4666
X4.9228Y-1.5436
X4.9581Y-0.4614
X4.9735Y-0.4123
X4.9886Y0.0381
X4.9945Y-1.1554
X4.9953Y-0.3119
X5.008Y-1.3034
X5.0349Y-0.0145
X5.0445Y-1.307
X5.0722Y-0.1944
X5.0743Y0.1357
X5.0813Y-0.6265
X5.1351Y-0.6431
X5.1601Y-0.3621
X5.283Y-0.6451
X5.3414Y-0.7448
X5.3747Y-0.4719
X5.4042Y0.1358
X5.433Y-0.9719
X5.4531Y-0.3114
X5.4764Y-0.9635
X5.4968Y-0.2928
X5.5297Y-1.2794
X5.6078Y-0.3549
X5.6522Y-0.9944
T2
X5.503Y0.2677
X5.5263Y0.3241
X5.5263Y0.2113
X5.5827Y0.3474
X5.5827Y0.188
X5.6391Y0.3241
X5.6391Y0.2113
X5.6624Y0.2677
X5.503Y-1.6614
X5.5263Y-1.605
X5.5263Y-1.7178
X5.5827Y-1.5817
X5.5827Y-1.7411
X5.6391Y-1.605
X5.6391Y-1.7178
X5.6624Y-1.6614
X5.503Y-0.6378
X5.5263Y-0.5814
X5.5263Y-0.6942
X5.5827Y-0.5581
X5.5827Y-0.7175
X5.6391Y-0.5814
X5.6391Y-0.6942
X5.6624Y-0.6378
X3.2195Y-0.6378
X3.2428Y-0.5814
X3.2428Y-0.6942
X3.2992Y-0.5581
X3.2992Y-0.7175
X3.3556Y-0.5814
X3.3556Y-0.6942
X3.3789Y-0.6378
X3.2195Y0.2677
X3.2428Y0.3241
X3.2428Y0.2113
X3.2992Y0.3474
X3.2992Y0.188
X3.3556Y0.3241
X3.3556Y0.2113
X3.3789Y0.2677
X3.2195Y-1.6614
X3.2428Y-1.605
X3.2428Y-1.7178
X3.2992Y-1.5817
X3.2992Y-1.7411
X3.3556Y-1.605
X3.3556Y-1.7178
X3.3789Y-1.6614
T3
X3.5001Y-0.8636
X3.5844Y-0.0087
X3.6047Y-0.4746
X3.6435Y-0.4351
X3.6451Y-0.1241
X3.86Y-0.3083
X3.8774Y-0.1391
X4.0399Y-0.5365
X4.4841Y-0.3558
X4.5823Y-0.5352
X4.6257Y0.0858
X4.7485Y-0.1762
X4.7689Y-0.7371
X4.7985Y-0.3079
X4.8707Y-0.2783
X4.9559Y-0.1651
X5.0251Y-0.4161
X5.0252Y-0.2787
X5.1021Y-0.7487
X5.5839Y-0.9484
T4
X3.495Y-1.6019
X3.495Y-1.6806
X3.5737Y-1.6019
X3.5737Y-1.6806
X3.6524Y-1.6019
X3.6524Y-1.6806
X3.7312Y-1.6019
X3.7312Y-1.6806
X3.8099Y-1.6019
X3.8099Y-1.6806
X3.8887Y-1.6019
X3.8887Y-1.6806
X3.9674Y-1.6019
X3.9674Y-1.6806
X4.0461Y-1.6019
X4.0461Y-1.6806
X4.1249Y-1.6019
X4.1249Y-1.6806
X4.2036Y-1.6019
X4.2036Y-1.6806
X4.2824Y-1.6019
X4.2824Y-1.6806
X4.3611Y-1.6019
X4.3611Y-1.6806
X4.4398Y-1.6019
X4.4398Y-1.6806
X4.5186Y-1.6019
X4.5186Y-1.6806
X4.5973Y-1.6019
X4.5973Y-1.6806
X4.6761Y-1.6019
X4.6761Y-1.6806
X4.7548Y-1.6019
X4.7548Y-1.6806
X4.8335Y-1.6019
X4.8335Y-1.6806
X4.9123Y-1.6019
X4.9123Y-1.6806
X4.991Y-1.6019
X4.991Y-1.6806
X5.0698Y-1.6019
X5.0698Y-1.6806
X5.1485Y-1.6019
X5.1485Y-1.6806
X5.2272Y-1.6019
X5.2272Y-1.6806
X5.306Y-1.6019
X5.306Y-1.6806
X5.3847Y-1.6019
X5.3847Y-1.6806
X5.6547Y-1.2831
X5.6547Y-1.3619
X5.6547Y-1.4406
X5.6547Y-1.5194
T5
X3.2492Y-0.8071
X3.2492Y-0.9071
X3.3492Y-0.8071
X3.3492Y-0.9071
X3.4492Y-0.8071
X3.4492Y-0.9071
X3.4909Y0.3177
X3.4909Y0.2177
X3.5909Y0.3177
X3.5909Y0.2177
X3.6909Y0.3177
X3.6909Y0.2177
X3.7909Y0.3177
X3.7909Y0.2177
X3.8909Y0.3177
X3.8909Y0.2177
X3.9909Y0.3177
X3.9909Y0.2177
X4.0909Y0.3177
X4.0909Y0.2177
X4.1909Y0.3177
X4.1909Y0.2177
X4.2909Y0.3177
X4.2909Y0.2177
X4.3909Y0.3177
X4.3909Y0.2177
X4.4909Y0.3177
X4.4909Y0.2177
X4.5909Y0.3177
X4.5909Y0.2177
X4.6909Y0.3177
X4.6909Y0.2177
X4.7909Y0.3177
X4.7909Y0.2177
X4.8909Y0.3177
X4.8909Y0.2177
X4.9909Y0.3177
X4.9909Y0.2177
X5.0909Y0.3177
X5.0909Y0.2177
X5.1909Y0.3177
X5.1909Y0.2177
X5.2909Y0.3177
X5.2909Y0.2177
X5.3909Y0.3177
X5.3909Y0.2177
X5.4813Y0.0337
X5.4813Y-0.0663
X3.2388Y-1.0888
X3.2388Y-1.1888
X3.3388Y-1.0888
X3.3388Y-1.1888
X3.4388Y-1.0888
X3.4388Y-1.1888
X3.5388Y-1.0888
X3.5388Y-1.1888
X3.6388Y-1.0888
X3.6388Y-1.1888
X3.7388Y-1.0888
X3.7388Y-1.1888
X3.8388Y-1.0888
X3.8388Y-1.1888
X3.9388Y-1.0888
X3.9388Y-1.1888
X4.0388Y-1.0888
X4.0388Y-1.1888
X4.1388Y-1.0888
X4.1388Y-1.1888
X4.2388Y-1.0888
X4.2388Y-1.1888
X4.3388Y-1.0888
X4.3388Y-1.1888
X4.4388Y-1.0888
X4.4388Y-1.1888
X4.5388Y-1.0888
X4.5388Y-1.1888
X4.6388Y-1.0888
X4.6388Y-1.1888
X4.7388Y-1.0888
X4.7388Y-1.1888
X4.8388Y-1.0888
X4.8388Y-1.1888
X4.9388Y-1.0888
X4.9388Y-1.1888
X5.0388Y-1.0888
X5.0388Y-1.1888
X5.1388Y-1.0888
X5.1388Y-1.1888
X5.2388Y-1.0888
X5.2388Y-1.1888
X5.3388Y-1.0888
X5.3388Y-1.1888
X5.4388Y-1.0888
X5.4388Y-1.1888
X5.5388Y-1.0888
X5.5388Y-1.1888
X5.6388Y-1.0888
X5.6388Y-1.1888
X3.2433Y0.0898
X3.3433Y0.0898
X3.2996Y-0.0323
X3.2996Y-0.1323
X3.2996Y-0.2323
X3.2996Y-0.3323
X3.2996Y-0.4323
T6
X3.7867Y-1.3713
X3.8412Y-1.4831
X3.8957Y-1.3713
X3.9503Y-1.4831
X4.0048Y-1.3713
X4.0593Y-1.4831
X4.1139Y-1.3713
X4.1684Y-1.4831
X4.2229Y-1.3713
X4.2774Y-1.4831
X4.332Y-1.3713
X4.3865Y-1.4831
X4.441Y-1.3713
X4.4956Y-1.4831
X4.5501Y-1.3713
X4.6046Y-1.4831
X4.6591Y-1.3713
X4.7137Y-1.4831
X4.7682Y-1.3713
X4.8227Y-1.4831
X4.8772Y-1.3713
X4.9318Y-1.4831
X4.9863Y-1.3713
X5.0408Y-1.4831
X5.0954Y-1.3713
T7
X4.3947Y-0.6216
X4.3947Y-0.72
X4.3947Y-0.8185
X4.3947Y-0.9169
T8
X5.5396Y-0.2002
X5.5396Y-0.4817
X5.6754Y-0.2002
X5.6754Y-0.4817
T9
X5.5827Y0.2677
X5.5827Y-1.6614
X5.5827Y-0.6378
X3.2992Y-0.6378
X3.2992Y0.2677
X3.2992Y-1.6614
T10
X3.515Y-1.4272
X5.367Y-1.4272
T0
M30
