M48
; DRILL file {KiCad (5.1.6-0-10_14)} date Tuesday, August 17, 2021 at 12:11:09 AM
; FORMAT={-:-/ absolute / inch / decimal}
; #@! TF.CreationDate,2021-08-17T00:11:09+02:00
; #@! TF.GenerationSoftware,Kicad,Pcbnew,(5.1.6-0-10_14)
; #@! TF.FileFunction,Plated,1,2,PTH
FMAT,2
INCH
T1C0.0157
T2C0.0197
T3C0.0236
T4C0.0315
T5C0.0394
T6C0.0406
T7C0.0472
T8C0.0523
T9C0.1063
T10C0.1272
%
G90
G05
T1
X3.3767Y-0.1669
X3.4217Y-0.5219
X3.4917Y-0.3529
X3.5017Y-0.2229
X3.5887Y-0.3529
X3.5947Y-0.9909
X3.5948Y0.0362
X3.6741Y-1.2332
X3.6917Y-0.9729
X3.695Y-0.8179
X3.6958Y-0.8544
X3.708Y-0.3622
X3.7085Y-1.3086
X3.7206Y-0.8812
X3.7467Y-0.5249
X3.7847Y-0.1819
X3.8065Y-0.3276
X3.8091Y-0.5632
X3.8121Y-1.0283
X3.8157Y-0.8059
X3.8214Y0.0061
X3.8464Y-1.7114
X3.858Y-1.3007
X3.8945Y-0.1757
X3.9104Y-0.2874
X3.9411Y-0.5061
X3.9504Y-0.5461
X3.9567Y-0.3569
X3.9786Y-0.2865
X3.9867Y-0.9599
X4.0004Y-1.5454
X4.0427Y0.1541
X4.0493Y0.0428
X4.095Y-0.2487
X4.1105Y-0.0019
X4.1407Y-0.5059
X4.1479Y0.0418
X4.1817Y-0.2669
X4.2074Y-1.1424
X4.2257Y-0.3448
X4.286Y-1.2569
X4.3589Y-0.0671
X4.3646Y-0.0299
X4.4707Y-0.7289
X4.4916Y-1.4245
X4.4997Y0.1624
X4.5111Y-0.3668
X4.5184Y-0.7922
X4.5477Y-0.1379
X4.5837Y-0.3407
X4.5994Y0.0096
X4.6304Y-1.2436
X4.6499Y-0.5325
X4.6547Y-0.002
X4.6585Y0.1329
X4.6631Y-0.253
X4.7047Y-0.7669
X4.7121Y0.0573
X4.728Y0.1326
X4.7323Y-1.2705
X4.7387Y-0.1549
X4.7685Y-0.6436
X4.791Y-0.6754
X4.8284Y0.0344
X4.8307Y-0.1899
X4.8847Y-0.9549
X4.911Y-0.5638
X4.9156Y-0.5273
X4.9353Y0.0671
X4.9548Y0.035
X5.0507Y-0.1869
X5.099Y-1.5412
X5.1257Y-0.1853
X5.1756Y-1.4436
X5.191Y-1.1553
X5.2767Y-0.2709
X5.3767Y-0.3079
X5.4111Y0.0962
X5.4147Y-1.2502
X5.4827Y-0.3824
X5.4888Y-0.9838
X5.608Y-0.3665
X5.6083Y-0.3143
T2
X5.503Y0.2677
X5.5263Y0.3241
X5.5263Y0.2113
X5.5827Y0.3474
X5.5827Y0.188
X5.6391Y0.3241
X5.6391Y0.2113
X5.6624Y0.2677
X3.2195Y-1.6614
X3.2428Y-1.605
X3.2428Y-1.7178
X3.2992Y-1.5817
X3.2992Y-1.7411
X3.3556Y-1.605
X3.3556Y-1.7178
X3.3789Y-1.6614
X3.2195Y0.2677
X3.2428Y0.3241
X3.2428Y0.2113
X3.2992Y0.3474
X3.2992Y0.188
X3.3556Y0.3241
X3.3556Y0.2113
X3.3789Y0.2677
X5.503Y-1.6614
X5.5263Y-1.605
X5.5263Y-1.7178
X5.5827Y-1.5817
X5.5827Y-1.7411
X5.6391Y-1.605
X5.6391Y-1.7178
X5.6624Y-1.6614
X5.503Y-0.6378
X5.5263Y-0.5814
X5.5263Y-0.6942
X5.5827Y-0.5581
X5.5827Y-0.7175
X5.6391Y-0.5814
X5.6391Y-0.6942
X5.6624Y-0.6378
X3.2195Y-0.6378
X3.2428Y-0.5814
X3.2428Y-0.6942
X3.2992Y-0.5581
X3.2992Y-0.7175
X3.3556Y-0.5814
X3.3556Y-0.6942
X3.3789Y-0.6378
T3
X3.6773Y0.0444
X3.8387Y-0.6459
X3.9447Y-0.8465
X3.9657Y-0.5829
X4.0125Y-0.6591
X4.1627Y0.1014
X4.4148Y-0.2815
X4.8101Y-0.7511
X4.8945Y-0.8416
X4.9397Y-0.2763
X5.0741Y0.0415
X5.229Y-0.5115
X5.2456Y0.0024
X5.4152Y-0.5629
T4
X3.495Y-1.6019
X3.495Y-1.6806
X3.5737Y-1.6019
X3.5737Y-1.6806
X3.6524Y-1.6019
X3.6524Y-1.6806
X3.7312Y-1.6019
X3.7312Y-1.6806
X3.8099Y-1.6019
X3.8099Y-1.6806
X3.8887Y-1.6019
X3.8887Y-1.6806
X3.9674Y-1.6019
X3.9674Y-1.6806
X4.0461Y-1.6019
X4.0461Y-1.6806
X4.1249Y-1.6019
X4.1249Y-1.6806
X4.2036Y-1.6019
X4.2036Y-1.6806
X4.2824Y-1.6019
X4.2824Y-1.6806
X4.3611Y-1.6019
X4.3611Y-1.6806
X4.4398Y-1.6019
X4.4398Y-1.6806
X4.5186Y-1.6019
X4.5186Y-1.6806
X4.5973Y-1.6019
X4.5973Y-1.6806
X4.6761Y-1.6019
X4.6761Y-1.6806
X4.7548Y-1.6019
X4.7548Y-1.6806
X4.8335Y-1.6019
X4.8335Y-1.6806
X4.9123Y-1.6019
X4.9123Y-1.6806
X4.991Y-1.6019
X4.991Y-1.6806
X5.0698Y-1.6019
X5.0698Y-1.6806
X5.1485Y-1.6019
X5.1485Y-1.6806
X5.2272Y-1.6019
X5.2272Y-1.6806
X5.306Y-1.6019
X5.306Y-1.6806
X5.3847Y-1.6019
X5.3847Y-1.6806
X5.6547Y-1.2831
X5.6547Y-1.3619
X5.6547Y-1.4406
X5.6547Y-1.5194
T5
X3.4909Y0.3177
X3.4909Y0.2177
X3.5909Y0.3177
X3.5909Y0.2177
X3.6909Y0.3177
X3.6909Y0.2177
X3.7909Y0.3177
X3.7909Y0.2177
X3.8909Y0.3177
X3.8909Y0.2177
X3.9909Y0.3177
X3.9909Y0.2177
X4.0909Y0.3177
X4.0909Y0.2177
X4.1909Y0.3177
X4.1909Y0.2177
X4.2909Y0.3177
X4.2909Y0.2177
X4.3909Y0.3177
X4.3909Y0.2177
X4.4909Y0.3177
X4.4909Y0.2177
X4.5909Y0.3177
X4.5909Y0.2177
X4.6909Y0.3177
X4.6909Y0.2177
X4.7909Y0.3177
X4.7909Y0.2177
X4.8909Y0.3177
X4.8909Y0.2177
X4.9909Y0.3177
X4.9909Y0.2177
X5.0909Y0.3177
X5.0909Y0.2177
X5.1909Y0.3177
X5.1909Y0.2177
X5.2909Y0.3177
X5.2909Y0.2177
X5.3909Y0.3177
X5.3909Y0.2177
X3.2388Y-1.0888
X3.2388Y-1.1888
X3.3388Y-1.0888
X3.3388Y-1.1888
X3.4388Y-1.0888
X3.4388Y-1.1888
X3.5388Y-1.0888
X3.5388Y-1.1888
X3.6388Y-1.0888
X3.6388Y-1.1888
X3.7388Y-1.0888
X3.7388Y-1.1888
X3.8388Y-1.0888
X3.8388Y-1.1888
X3.9388Y-1.0888
X3.9388Y-1.1888
X4.0388Y-1.0888
X4.0388Y-1.1888
X4.1388Y-1.0888
X4.1388Y-1.1888
X4.2388Y-1.0888
X4.2388Y-1.1888
X4.3388Y-1.0888
X4.3388Y-1.1888
X4.4388Y-1.0888
X4.4388Y-1.1888
X4.5388Y-1.0888
X4.5388Y-1.1888
X4.6388Y-1.0888
X4.6388Y-1.1888
X4.7388Y-1.0888
X4.7388Y-1.1888
X4.8388Y-1.0888
X4.8388Y-1.1888
X4.9388Y-1.0888
X4.9388Y-1.1888
X5.0388Y-1.0888
X5.0388Y-1.1888
X5.1388Y-1.0888
X5.1388Y-1.1888
X5.2388Y-1.0888
X5.2388Y-1.1888
X5.3388Y-1.0888
X5.3388Y-1.1888
X5.4388Y-1.0888
X5.4388Y-1.1888
X5.5388Y-1.0888
X5.5388Y-1.1888
X5.6388Y-1.0888
X5.6388Y-1.1888
X3.2317Y-0.0319
X3.2317Y-0.1319
X3.2317Y-0.2319
X3.2317Y-0.3319
X3.2317Y-0.4319
X3.2433Y0.0898
X3.3433Y0.0898
X5.4813Y0.0337
X5.4813Y-0.0663
X5.3977Y-0.7489
X5.3977Y-0.8489
X3.2492Y-0.8071
X3.2492Y-0.9071
X3.3492Y-0.8071
X3.3492Y-0.9071
X3.4492Y-0.8071
X3.4492Y-0.9071
T6
X3.7867Y-1.3713
X3.8412Y-1.4831
X3.8957Y-1.3713
X3.9503Y-1.4831
X4.0048Y-1.3713
X4.0593Y-1.4831
X4.1139Y-1.3713
X4.1684Y-1.4831
X4.2229Y-1.3713
X4.2774Y-1.4831
X4.332Y-1.3713
X4.3865Y-1.4831
X4.441Y-1.3713
X4.4956Y-1.4831
X4.5501Y-1.3713
X4.6046Y-1.4831
X4.6591Y-1.3713
X4.7137Y-1.4831
X4.7682Y-1.3713
X4.8227Y-1.4831
X4.8772Y-1.3713
X4.9318Y-1.4831
X4.9863Y-1.3713
X5.0408Y-1.4831
X5.0954Y-1.3713
T7
X4.4137Y-0.5756
X4.4137Y-0.674
X4.4137Y-0.7725
X4.4137Y-0.8709
T8
X5.5396Y-0.2002
X5.5396Y-0.4817
X5.6754Y-0.2002
X5.6754Y-0.4817
T9
X3.2992Y-1.6614
X5.5827Y-1.6614
X5.5827Y-0.6378
X3.2992Y-0.6378
X5.5827Y0.2677
X3.2992Y0.2677
T10
X3.515Y-1.4272
X5.367Y-1.4272
T0
M30
