%TF.GenerationSoftware,KiCad,Pcbnew,(5.1.6-0-10_14)*%
%TF.CreationDate,2021-08-16T00:39:19+02:00*%
%TF.ProjectId,rascsi_2p4,72617363-7369-45f3-9270-342e6b696361,rev?*%
%TF.SameCoordinates,PX59d60c0PY325aa00*%
%TF.FileFunction,Soldermask,Top*%
%TF.FilePolarity,Negative*%
%FSLAX46Y46*%
G04 Gerber Fmt 4.6, Leading zero omitted, Abs format (unit mm)*
G04 Created by KiCad (PCBNEW (5.1.6-0-10_14)) date 2021-08-16 00:39:19*
%MOMM*%
%LPD*%
G01*
G04 APERTURE LIST*
%TA.AperFunction,Profile*%
%ADD10C,0.050000*%
%TD*%
%ADD11C,1.800000*%
%ADD12R,1.800000X1.800000*%
%ADD13O,1.700000X1.700000*%
%ADD14R,1.700000X1.700000*%
%ADD15C,4.845000*%
%ADD16C,1.545000*%
%ADD17O,1.350000X1.350000*%
%ADD18R,1.350000X1.350000*%
%ADD19C,2.000000*%
%ADD20R,1.400000X0.400000*%
%ADD21R,1.100000X1.100000*%
%ADD22C,0.800000*%
%ADD23C,5.400000*%
G04 APERTURE END LIST*
D10*
X83800000Y-45696000D02*
X141800000Y-45696000D01*
X83800000Y-45696000D02*
G75*
G02*
X80300000Y-42196000I0J3500000D01*
G01*
X145300000Y-42196000D02*
G75*
G02*
X141800000Y-45696000I-3500000J0D01*
G01*
X80300000Y6800000D02*
X80300000Y-42196000D01*
X145300000Y6800000D02*
X145300000Y-42196000D01*
X83800000Y10300000D02*
X141800000Y10300000D01*
X80300000Y6800000D02*
G75*
G02*
X83800000Y10300000I3500000J0D01*
G01*
X141800000Y10300000D02*
G75*
G02*
X145300000Y6800000I0J-3500000D01*
G01*
D11*
%TO.C,J20*%
X112109000Y-14620600D03*
X112109000Y-17120600D03*
X112109000Y-19620600D03*
D12*
X112109000Y-22120600D03*
%TD*%
%TO.C,U4*%
G36*
G01*
X125619000Y-2646000D02*
X125319000Y-2646000D01*
G75*
G02*
X125169000Y-2496000I0J150000D01*
G01*
X125169000Y-746000D01*
G75*
G02*
X125319000Y-596000I150000J0D01*
G01*
X125619000Y-596000D01*
G75*
G02*
X125769000Y-746000I0J-150000D01*
G01*
X125769000Y-2496000D01*
G75*
G02*
X125619000Y-2646000I-150000J0D01*
G01*
G37*
G36*
G01*
X126889000Y-2646000D02*
X126589000Y-2646000D01*
G75*
G02*
X126439000Y-2496000I0J150000D01*
G01*
X126439000Y-746000D01*
G75*
G02*
X126589000Y-596000I150000J0D01*
G01*
X126889000Y-596000D01*
G75*
G02*
X127039000Y-746000I0J-150000D01*
G01*
X127039000Y-2496000D01*
G75*
G02*
X126889000Y-2646000I-150000J0D01*
G01*
G37*
G36*
G01*
X128159000Y-2646000D02*
X127859000Y-2646000D01*
G75*
G02*
X127709000Y-2496000I0J150000D01*
G01*
X127709000Y-746000D01*
G75*
G02*
X127859000Y-596000I150000J0D01*
G01*
X128159000Y-596000D01*
G75*
G02*
X128309000Y-746000I0J-150000D01*
G01*
X128309000Y-2496000D01*
G75*
G02*
X128159000Y-2646000I-150000J0D01*
G01*
G37*
G36*
G01*
X129429000Y-2646000D02*
X129129000Y-2646000D01*
G75*
G02*
X128979000Y-2496000I0J150000D01*
G01*
X128979000Y-746000D01*
G75*
G02*
X129129000Y-596000I150000J0D01*
G01*
X129429000Y-596000D01*
G75*
G02*
X129579000Y-746000I0J-150000D01*
G01*
X129579000Y-2496000D01*
G75*
G02*
X129429000Y-2646000I-150000J0D01*
G01*
G37*
G36*
G01*
X130699000Y-2646000D02*
X130399000Y-2646000D01*
G75*
G02*
X130249000Y-2496000I0J150000D01*
G01*
X130249000Y-746000D01*
G75*
G02*
X130399000Y-596000I150000J0D01*
G01*
X130699000Y-596000D01*
G75*
G02*
X130849000Y-746000I0J-150000D01*
G01*
X130849000Y-2496000D01*
G75*
G02*
X130699000Y-2646000I-150000J0D01*
G01*
G37*
G36*
G01*
X131969000Y-2646000D02*
X131669000Y-2646000D01*
G75*
G02*
X131519000Y-2496000I0J150000D01*
G01*
X131519000Y-746000D01*
G75*
G02*
X131669000Y-596000I150000J0D01*
G01*
X131969000Y-596000D01*
G75*
G02*
X132119000Y-746000I0J-150000D01*
G01*
X132119000Y-2496000D01*
G75*
G02*
X131969000Y-2646000I-150000J0D01*
G01*
G37*
G36*
G01*
X133239000Y-2646000D02*
X132939000Y-2646000D01*
G75*
G02*
X132789000Y-2496000I0J150000D01*
G01*
X132789000Y-746000D01*
G75*
G02*
X132939000Y-596000I150000J0D01*
G01*
X133239000Y-596000D01*
G75*
G02*
X133389000Y-746000I0J-150000D01*
G01*
X133389000Y-2496000D01*
G75*
G02*
X133239000Y-2646000I-150000J0D01*
G01*
G37*
G36*
G01*
X134509000Y-2646000D02*
X134209000Y-2646000D01*
G75*
G02*
X134059000Y-2496000I0J150000D01*
G01*
X134059000Y-746000D01*
G75*
G02*
X134209000Y-596000I150000J0D01*
G01*
X134509000Y-596000D01*
G75*
G02*
X134659000Y-746000I0J-150000D01*
G01*
X134659000Y-2496000D01*
G75*
G02*
X134509000Y-2646000I-150000J0D01*
G01*
G37*
G36*
G01*
X135779000Y-2646000D02*
X135479000Y-2646000D01*
G75*
G02*
X135329000Y-2496000I0J150000D01*
G01*
X135329000Y-746000D01*
G75*
G02*
X135479000Y-596000I150000J0D01*
G01*
X135779000Y-596000D01*
G75*
G02*
X135929000Y-746000I0J-150000D01*
G01*
X135929000Y-2496000D01*
G75*
G02*
X135779000Y-2646000I-150000J0D01*
G01*
G37*
G36*
G01*
X137049000Y-2646000D02*
X136749000Y-2646000D01*
G75*
G02*
X136599000Y-2496000I0J150000D01*
G01*
X136599000Y-746000D01*
G75*
G02*
X136749000Y-596000I150000J0D01*
G01*
X137049000Y-596000D01*
G75*
G02*
X137199000Y-746000I0J-150000D01*
G01*
X137199000Y-2496000D01*
G75*
G02*
X137049000Y-2646000I-150000J0D01*
G01*
G37*
G36*
G01*
X137049000Y-11946000D02*
X136749000Y-11946000D01*
G75*
G02*
X136599000Y-11796000I0J150000D01*
G01*
X136599000Y-10046000D01*
G75*
G02*
X136749000Y-9896000I150000J0D01*
G01*
X137049000Y-9896000D01*
G75*
G02*
X137199000Y-10046000I0J-150000D01*
G01*
X137199000Y-11796000D01*
G75*
G02*
X137049000Y-11946000I-150000J0D01*
G01*
G37*
G36*
G01*
X135779000Y-11946000D02*
X135479000Y-11946000D01*
G75*
G02*
X135329000Y-11796000I0J150000D01*
G01*
X135329000Y-10046000D01*
G75*
G02*
X135479000Y-9896000I150000J0D01*
G01*
X135779000Y-9896000D01*
G75*
G02*
X135929000Y-10046000I0J-150000D01*
G01*
X135929000Y-11796000D01*
G75*
G02*
X135779000Y-11946000I-150000J0D01*
G01*
G37*
G36*
G01*
X134509000Y-11946000D02*
X134209000Y-11946000D01*
G75*
G02*
X134059000Y-11796000I0J150000D01*
G01*
X134059000Y-10046000D01*
G75*
G02*
X134209000Y-9896000I150000J0D01*
G01*
X134509000Y-9896000D01*
G75*
G02*
X134659000Y-10046000I0J-150000D01*
G01*
X134659000Y-11796000D01*
G75*
G02*
X134509000Y-11946000I-150000J0D01*
G01*
G37*
G36*
G01*
X133239000Y-11946000D02*
X132939000Y-11946000D01*
G75*
G02*
X132789000Y-11796000I0J150000D01*
G01*
X132789000Y-10046000D01*
G75*
G02*
X132939000Y-9896000I150000J0D01*
G01*
X133239000Y-9896000D01*
G75*
G02*
X133389000Y-10046000I0J-150000D01*
G01*
X133389000Y-11796000D01*
G75*
G02*
X133239000Y-11946000I-150000J0D01*
G01*
G37*
G36*
G01*
X131969000Y-11946000D02*
X131669000Y-11946000D01*
G75*
G02*
X131519000Y-11796000I0J150000D01*
G01*
X131519000Y-10046000D01*
G75*
G02*
X131669000Y-9896000I150000J0D01*
G01*
X131969000Y-9896000D01*
G75*
G02*
X132119000Y-10046000I0J-150000D01*
G01*
X132119000Y-11796000D01*
G75*
G02*
X131969000Y-11946000I-150000J0D01*
G01*
G37*
G36*
G01*
X130699000Y-11946000D02*
X130399000Y-11946000D01*
G75*
G02*
X130249000Y-11796000I0J150000D01*
G01*
X130249000Y-10046000D01*
G75*
G02*
X130399000Y-9896000I150000J0D01*
G01*
X130699000Y-9896000D01*
G75*
G02*
X130849000Y-10046000I0J-150000D01*
G01*
X130849000Y-11796000D01*
G75*
G02*
X130699000Y-11946000I-150000J0D01*
G01*
G37*
G36*
G01*
X129429000Y-11946000D02*
X129129000Y-11946000D01*
G75*
G02*
X128979000Y-11796000I0J150000D01*
G01*
X128979000Y-10046000D01*
G75*
G02*
X129129000Y-9896000I150000J0D01*
G01*
X129429000Y-9896000D01*
G75*
G02*
X129579000Y-10046000I0J-150000D01*
G01*
X129579000Y-11796000D01*
G75*
G02*
X129429000Y-11946000I-150000J0D01*
G01*
G37*
G36*
G01*
X128159000Y-11946000D02*
X127859000Y-11946000D01*
G75*
G02*
X127709000Y-11796000I0J150000D01*
G01*
X127709000Y-10046000D01*
G75*
G02*
X127859000Y-9896000I150000J0D01*
G01*
X128159000Y-9896000D01*
G75*
G02*
X128309000Y-10046000I0J-150000D01*
G01*
X128309000Y-11796000D01*
G75*
G02*
X128159000Y-11946000I-150000J0D01*
G01*
G37*
G36*
G01*
X126889000Y-11946000D02*
X126589000Y-11946000D01*
G75*
G02*
X126439000Y-11796000I0J150000D01*
G01*
X126439000Y-10046000D01*
G75*
G02*
X126589000Y-9896000I150000J0D01*
G01*
X126889000Y-9896000D01*
G75*
G02*
X127039000Y-10046000I0J-150000D01*
G01*
X127039000Y-11796000D01*
G75*
G02*
X126889000Y-11946000I-150000J0D01*
G01*
G37*
G36*
G01*
X125619000Y-11946000D02*
X125319000Y-11946000D01*
G75*
G02*
X125169000Y-11796000I0J150000D01*
G01*
X125169000Y-10046000D01*
G75*
G02*
X125319000Y-9896000I150000J0D01*
G01*
X125619000Y-9896000D01*
G75*
G02*
X125769000Y-10046000I0J-150000D01*
G01*
X125769000Y-11796000D01*
G75*
G02*
X125619000Y-11946000I-150000J0D01*
G01*
G37*
%TD*%
%TO.C,U3*%
G36*
G01*
X112106000Y-2646000D02*
X111806000Y-2646000D01*
G75*
G02*
X111656000Y-2496000I0J150000D01*
G01*
X111656000Y-746000D01*
G75*
G02*
X111806000Y-596000I150000J0D01*
G01*
X112106000Y-596000D01*
G75*
G02*
X112256000Y-746000I0J-150000D01*
G01*
X112256000Y-2496000D01*
G75*
G02*
X112106000Y-2646000I-150000J0D01*
G01*
G37*
G36*
G01*
X113376000Y-2646000D02*
X113076000Y-2646000D01*
G75*
G02*
X112926000Y-2496000I0J150000D01*
G01*
X112926000Y-746000D01*
G75*
G02*
X113076000Y-596000I150000J0D01*
G01*
X113376000Y-596000D01*
G75*
G02*
X113526000Y-746000I0J-150000D01*
G01*
X113526000Y-2496000D01*
G75*
G02*
X113376000Y-2646000I-150000J0D01*
G01*
G37*
G36*
G01*
X114646000Y-2646000D02*
X114346000Y-2646000D01*
G75*
G02*
X114196000Y-2496000I0J150000D01*
G01*
X114196000Y-746000D01*
G75*
G02*
X114346000Y-596000I150000J0D01*
G01*
X114646000Y-596000D01*
G75*
G02*
X114796000Y-746000I0J-150000D01*
G01*
X114796000Y-2496000D01*
G75*
G02*
X114646000Y-2646000I-150000J0D01*
G01*
G37*
G36*
G01*
X115916000Y-2646000D02*
X115616000Y-2646000D01*
G75*
G02*
X115466000Y-2496000I0J150000D01*
G01*
X115466000Y-746000D01*
G75*
G02*
X115616000Y-596000I150000J0D01*
G01*
X115916000Y-596000D01*
G75*
G02*
X116066000Y-746000I0J-150000D01*
G01*
X116066000Y-2496000D01*
G75*
G02*
X115916000Y-2646000I-150000J0D01*
G01*
G37*
G36*
G01*
X117186000Y-2646000D02*
X116886000Y-2646000D01*
G75*
G02*
X116736000Y-2496000I0J150000D01*
G01*
X116736000Y-746000D01*
G75*
G02*
X116886000Y-596000I150000J0D01*
G01*
X117186000Y-596000D01*
G75*
G02*
X117336000Y-746000I0J-150000D01*
G01*
X117336000Y-2496000D01*
G75*
G02*
X117186000Y-2646000I-150000J0D01*
G01*
G37*
G36*
G01*
X118456000Y-2646000D02*
X118156000Y-2646000D01*
G75*
G02*
X118006000Y-2496000I0J150000D01*
G01*
X118006000Y-746000D01*
G75*
G02*
X118156000Y-596000I150000J0D01*
G01*
X118456000Y-596000D01*
G75*
G02*
X118606000Y-746000I0J-150000D01*
G01*
X118606000Y-2496000D01*
G75*
G02*
X118456000Y-2646000I-150000J0D01*
G01*
G37*
G36*
G01*
X119726000Y-2646000D02*
X119426000Y-2646000D01*
G75*
G02*
X119276000Y-2496000I0J150000D01*
G01*
X119276000Y-746000D01*
G75*
G02*
X119426000Y-596000I150000J0D01*
G01*
X119726000Y-596000D01*
G75*
G02*
X119876000Y-746000I0J-150000D01*
G01*
X119876000Y-2496000D01*
G75*
G02*
X119726000Y-2646000I-150000J0D01*
G01*
G37*
G36*
G01*
X120996000Y-2646000D02*
X120696000Y-2646000D01*
G75*
G02*
X120546000Y-2496000I0J150000D01*
G01*
X120546000Y-746000D01*
G75*
G02*
X120696000Y-596000I150000J0D01*
G01*
X120996000Y-596000D01*
G75*
G02*
X121146000Y-746000I0J-150000D01*
G01*
X121146000Y-2496000D01*
G75*
G02*
X120996000Y-2646000I-150000J0D01*
G01*
G37*
G36*
G01*
X122266000Y-2646000D02*
X121966000Y-2646000D01*
G75*
G02*
X121816000Y-2496000I0J150000D01*
G01*
X121816000Y-746000D01*
G75*
G02*
X121966000Y-596000I150000J0D01*
G01*
X122266000Y-596000D01*
G75*
G02*
X122416000Y-746000I0J-150000D01*
G01*
X122416000Y-2496000D01*
G75*
G02*
X122266000Y-2646000I-150000J0D01*
G01*
G37*
G36*
G01*
X123536000Y-2646000D02*
X123236000Y-2646000D01*
G75*
G02*
X123086000Y-2496000I0J150000D01*
G01*
X123086000Y-746000D01*
G75*
G02*
X123236000Y-596000I150000J0D01*
G01*
X123536000Y-596000D01*
G75*
G02*
X123686000Y-746000I0J-150000D01*
G01*
X123686000Y-2496000D01*
G75*
G02*
X123536000Y-2646000I-150000J0D01*
G01*
G37*
G36*
G01*
X123536000Y-11946000D02*
X123236000Y-11946000D01*
G75*
G02*
X123086000Y-11796000I0J150000D01*
G01*
X123086000Y-10046000D01*
G75*
G02*
X123236000Y-9896000I150000J0D01*
G01*
X123536000Y-9896000D01*
G75*
G02*
X123686000Y-10046000I0J-150000D01*
G01*
X123686000Y-11796000D01*
G75*
G02*
X123536000Y-11946000I-150000J0D01*
G01*
G37*
G36*
G01*
X122266000Y-11946000D02*
X121966000Y-11946000D01*
G75*
G02*
X121816000Y-11796000I0J150000D01*
G01*
X121816000Y-10046000D01*
G75*
G02*
X121966000Y-9896000I150000J0D01*
G01*
X122266000Y-9896000D01*
G75*
G02*
X122416000Y-10046000I0J-150000D01*
G01*
X122416000Y-11796000D01*
G75*
G02*
X122266000Y-11946000I-150000J0D01*
G01*
G37*
G36*
G01*
X120996000Y-11946000D02*
X120696000Y-11946000D01*
G75*
G02*
X120546000Y-11796000I0J150000D01*
G01*
X120546000Y-10046000D01*
G75*
G02*
X120696000Y-9896000I150000J0D01*
G01*
X120996000Y-9896000D01*
G75*
G02*
X121146000Y-10046000I0J-150000D01*
G01*
X121146000Y-11796000D01*
G75*
G02*
X120996000Y-11946000I-150000J0D01*
G01*
G37*
G36*
G01*
X119726000Y-11946000D02*
X119426000Y-11946000D01*
G75*
G02*
X119276000Y-11796000I0J150000D01*
G01*
X119276000Y-10046000D01*
G75*
G02*
X119426000Y-9896000I150000J0D01*
G01*
X119726000Y-9896000D01*
G75*
G02*
X119876000Y-10046000I0J-150000D01*
G01*
X119876000Y-11796000D01*
G75*
G02*
X119726000Y-11946000I-150000J0D01*
G01*
G37*
G36*
G01*
X118456000Y-11946000D02*
X118156000Y-11946000D01*
G75*
G02*
X118006000Y-11796000I0J150000D01*
G01*
X118006000Y-10046000D01*
G75*
G02*
X118156000Y-9896000I150000J0D01*
G01*
X118456000Y-9896000D01*
G75*
G02*
X118606000Y-10046000I0J-150000D01*
G01*
X118606000Y-11796000D01*
G75*
G02*
X118456000Y-11946000I-150000J0D01*
G01*
G37*
G36*
G01*
X117186000Y-11946000D02*
X116886000Y-11946000D01*
G75*
G02*
X116736000Y-11796000I0J150000D01*
G01*
X116736000Y-10046000D01*
G75*
G02*
X116886000Y-9896000I150000J0D01*
G01*
X117186000Y-9896000D01*
G75*
G02*
X117336000Y-10046000I0J-150000D01*
G01*
X117336000Y-11796000D01*
G75*
G02*
X117186000Y-11946000I-150000J0D01*
G01*
G37*
G36*
G01*
X115916000Y-11946000D02*
X115616000Y-11946000D01*
G75*
G02*
X115466000Y-11796000I0J150000D01*
G01*
X115466000Y-10046000D01*
G75*
G02*
X115616000Y-9896000I150000J0D01*
G01*
X115916000Y-9896000D01*
G75*
G02*
X116066000Y-10046000I0J-150000D01*
G01*
X116066000Y-11796000D01*
G75*
G02*
X115916000Y-11946000I-150000J0D01*
G01*
G37*
G36*
G01*
X114646000Y-11946000D02*
X114346000Y-11946000D01*
G75*
G02*
X114196000Y-11796000I0J150000D01*
G01*
X114196000Y-10046000D01*
G75*
G02*
X114346000Y-9896000I150000J0D01*
G01*
X114646000Y-9896000D01*
G75*
G02*
X114796000Y-10046000I0J-150000D01*
G01*
X114796000Y-11796000D01*
G75*
G02*
X114646000Y-11946000I-150000J0D01*
G01*
G37*
G36*
G01*
X113376000Y-11946000D02*
X113076000Y-11946000D01*
G75*
G02*
X112926000Y-11796000I0J150000D01*
G01*
X112926000Y-10046000D01*
G75*
G02*
X113076000Y-9896000I150000J0D01*
G01*
X113376000Y-9896000D01*
G75*
G02*
X113526000Y-10046000I0J-150000D01*
G01*
X113526000Y-11796000D01*
G75*
G02*
X113376000Y-11946000I-150000J0D01*
G01*
G37*
G36*
G01*
X112106000Y-11946000D02*
X111806000Y-11946000D01*
G75*
G02*
X111656000Y-11796000I0J150000D01*
G01*
X111656000Y-10046000D01*
G75*
G02*
X111806000Y-9896000I150000J0D01*
G01*
X112106000Y-9896000D01*
G75*
G02*
X112256000Y-10046000I0J-150000D01*
G01*
X112256000Y-11796000D01*
G75*
G02*
X112106000Y-11946000I-150000J0D01*
G01*
G37*
%TD*%
%TO.C,U2*%
G36*
G01*
X98593000Y-2646000D02*
X98293000Y-2646000D01*
G75*
G02*
X98143000Y-2496000I0J150000D01*
G01*
X98143000Y-746000D01*
G75*
G02*
X98293000Y-596000I150000J0D01*
G01*
X98593000Y-596000D01*
G75*
G02*
X98743000Y-746000I0J-150000D01*
G01*
X98743000Y-2496000D01*
G75*
G02*
X98593000Y-2646000I-150000J0D01*
G01*
G37*
G36*
G01*
X99863000Y-2646000D02*
X99563000Y-2646000D01*
G75*
G02*
X99413000Y-2496000I0J150000D01*
G01*
X99413000Y-746000D01*
G75*
G02*
X99563000Y-596000I150000J0D01*
G01*
X99863000Y-596000D01*
G75*
G02*
X100013000Y-746000I0J-150000D01*
G01*
X100013000Y-2496000D01*
G75*
G02*
X99863000Y-2646000I-150000J0D01*
G01*
G37*
G36*
G01*
X101133000Y-2646000D02*
X100833000Y-2646000D01*
G75*
G02*
X100683000Y-2496000I0J150000D01*
G01*
X100683000Y-746000D01*
G75*
G02*
X100833000Y-596000I150000J0D01*
G01*
X101133000Y-596000D01*
G75*
G02*
X101283000Y-746000I0J-150000D01*
G01*
X101283000Y-2496000D01*
G75*
G02*
X101133000Y-2646000I-150000J0D01*
G01*
G37*
G36*
G01*
X102403000Y-2646000D02*
X102103000Y-2646000D01*
G75*
G02*
X101953000Y-2496000I0J150000D01*
G01*
X101953000Y-746000D01*
G75*
G02*
X102103000Y-596000I150000J0D01*
G01*
X102403000Y-596000D01*
G75*
G02*
X102553000Y-746000I0J-150000D01*
G01*
X102553000Y-2496000D01*
G75*
G02*
X102403000Y-2646000I-150000J0D01*
G01*
G37*
G36*
G01*
X103673000Y-2646000D02*
X103373000Y-2646000D01*
G75*
G02*
X103223000Y-2496000I0J150000D01*
G01*
X103223000Y-746000D01*
G75*
G02*
X103373000Y-596000I150000J0D01*
G01*
X103673000Y-596000D01*
G75*
G02*
X103823000Y-746000I0J-150000D01*
G01*
X103823000Y-2496000D01*
G75*
G02*
X103673000Y-2646000I-150000J0D01*
G01*
G37*
G36*
G01*
X104943000Y-2646000D02*
X104643000Y-2646000D01*
G75*
G02*
X104493000Y-2496000I0J150000D01*
G01*
X104493000Y-746000D01*
G75*
G02*
X104643000Y-596000I150000J0D01*
G01*
X104943000Y-596000D01*
G75*
G02*
X105093000Y-746000I0J-150000D01*
G01*
X105093000Y-2496000D01*
G75*
G02*
X104943000Y-2646000I-150000J0D01*
G01*
G37*
G36*
G01*
X106213000Y-2646000D02*
X105913000Y-2646000D01*
G75*
G02*
X105763000Y-2496000I0J150000D01*
G01*
X105763000Y-746000D01*
G75*
G02*
X105913000Y-596000I150000J0D01*
G01*
X106213000Y-596000D01*
G75*
G02*
X106363000Y-746000I0J-150000D01*
G01*
X106363000Y-2496000D01*
G75*
G02*
X106213000Y-2646000I-150000J0D01*
G01*
G37*
G36*
G01*
X107483000Y-2646000D02*
X107183000Y-2646000D01*
G75*
G02*
X107033000Y-2496000I0J150000D01*
G01*
X107033000Y-746000D01*
G75*
G02*
X107183000Y-596000I150000J0D01*
G01*
X107483000Y-596000D01*
G75*
G02*
X107633000Y-746000I0J-150000D01*
G01*
X107633000Y-2496000D01*
G75*
G02*
X107483000Y-2646000I-150000J0D01*
G01*
G37*
G36*
G01*
X108753000Y-2646000D02*
X108453000Y-2646000D01*
G75*
G02*
X108303000Y-2496000I0J150000D01*
G01*
X108303000Y-746000D01*
G75*
G02*
X108453000Y-596000I150000J0D01*
G01*
X108753000Y-596000D01*
G75*
G02*
X108903000Y-746000I0J-150000D01*
G01*
X108903000Y-2496000D01*
G75*
G02*
X108753000Y-2646000I-150000J0D01*
G01*
G37*
G36*
G01*
X110023000Y-2646000D02*
X109723000Y-2646000D01*
G75*
G02*
X109573000Y-2496000I0J150000D01*
G01*
X109573000Y-746000D01*
G75*
G02*
X109723000Y-596000I150000J0D01*
G01*
X110023000Y-596000D01*
G75*
G02*
X110173000Y-746000I0J-150000D01*
G01*
X110173000Y-2496000D01*
G75*
G02*
X110023000Y-2646000I-150000J0D01*
G01*
G37*
G36*
G01*
X110023000Y-11946000D02*
X109723000Y-11946000D01*
G75*
G02*
X109573000Y-11796000I0J150000D01*
G01*
X109573000Y-10046000D01*
G75*
G02*
X109723000Y-9896000I150000J0D01*
G01*
X110023000Y-9896000D01*
G75*
G02*
X110173000Y-10046000I0J-150000D01*
G01*
X110173000Y-11796000D01*
G75*
G02*
X110023000Y-11946000I-150000J0D01*
G01*
G37*
G36*
G01*
X108753000Y-11946000D02*
X108453000Y-11946000D01*
G75*
G02*
X108303000Y-11796000I0J150000D01*
G01*
X108303000Y-10046000D01*
G75*
G02*
X108453000Y-9896000I150000J0D01*
G01*
X108753000Y-9896000D01*
G75*
G02*
X108903000Y-10046000I0J-150000D01*
G01*
X108903000Y-11796000D01*
G75*
G02*
X108753000Y-11946000I-150000J0D01*
G01*
G37*
G36*
G01*
X107483000Y-11946000D02*
X107183000Y-11946000D01*
G75*
G02*
X107033000Y-11796000I0J150000D01*
G01*
X107033000Y-10046000D01*
G75*
G02*
X107183000Y-9896000I150000J0D01*
G01*
X107483000Y-9896000D01*
G75*
G02*
X107633000Y-10046000I0J-150000D01*
G01*
X107633000Y-11796000D01*
G75*
G02*
X107483000Y-11946000I-150000J0D01*
G01*
G37*
G36*
G01*
X106213000Y-11946000D02*
X105913000Y-11946000D01*
G75*
G02*
X105763000Y-11796000I0J150000D01*
G01*
X105763000Y-10046000D01*
G75*
G02*
X105913000Y-9896000I150000J0D01*
G01*
X106213000Y-9896000D01*
G75*
G02*
X106363000Y-10046000I0J-150000D01*
G01*
X106363000Y-11796000D01*
G75*
G02*
X106213000Y-11946000I-150000J0D01*
G01*
G37*
G36*
G01*
X104943000Y-11946000D02*
X104643000Y-11946000D01*
G75*
G02*
X104493000Y-11796000I0J150000D01*
G01*
X104493000Y-10046000D01*
G75*
G02*
X104643000Y-9896000I150000J0D01*
G01*
X104943000Y-9896000D01*
G75*
G02*
X105093000Y-10046000I0J-150000D01*
G01*
X105093000Y-11796000D01*
G75*
G02*
X104943000Y-11946000I-150000J0D01*
G01*
G37*
G36*
G01*
X103673000Y-11946000D02*
X103373000Y-11946000D01*
G75*
G02*
X103223000Y-11796000I0J150000D01*
G01*
X103223000Y-10046000D01*
G75*
G02*
X103373000Y-9896000I150000J0D01*
G01*
X103673000Y-9896000D01*
G75*
G02*
X103823000Y-10046000I0J-150000D01*
G01*
X103823000Y-11796000D01*
G75*
G02*
X103673000Y-11946000I-150000J0D01*
G01*
G37*
G36*
G01*
X102403000Y-11946000D02*
X102103000Y-11946000D01*
G75*
G02*
X101953000Y-11796000I0J150000D01*
G01*
X101953000Y-10046000D01*
G75*
G02*
X102103000Y-9896000I150000J0D01*
G01*
X102403000Y-9896000D01*
G75*
G02*
X102553000Y-10046000I0J-150000D01*
G01*
X102553000Y-11796000D01*
G75*
G02*
X102403000Y-11946000I-150000J0D01*
G01*
G37*
G36*
G01*
X101133000Y-11946000D02*
X100833000Y-11946000D01*
G75*
G02*
X100683000Y-11796000I0J150000D01*
G01*
X100683000Y-10046000D01*
G75*
G02*
X100833000Y-9896000I150000J0D01*
G01*
X101133000Y-9896000D01*
G75*
G02*
X101283000Y-10046000I0J-150000D01*
G01*
X101283000Y-11796000D01*
G75*
G02*
X101133000Y-11946000I-150000J0D01*
G01*
G37*
G36*
G01*
X99863000Y-11946000D02*
X99563000Y-11946000D01*
G75*
G02*
X99413000Y-11796000I0J150000D01*
G01*
X99413000Y-10046000D01*
G75*
G02*
X99563000Y-9896000I150000J0D01*
G01*
X99863000Y-9896000D01*
G75*
G02*
X100013000Y-10046000I0J-150000D01*
G01*
X100013000Y-11796000D01*
G75*
G02*
X99863000Y-11946000I-150000J0D01*
G01*
G37*
G36*
G01*
X98593000Y-11946000D02*
X98293000Y-11946000D01*
G75*
G02*
X98143000Y-11796000I0J150000D01*
G01*
X98143000Y-10046000D01*
G75*
G02*
X98293000Y-9896000I150000J0D01*
G01*
X98593000Y-9896000D01*
G75*
G02*
X98743000Y-10046000I0J-150000D01*
G01*
X98743000Y-11796000D01*
G75*
G02*
X98593000Y-11946000I-150000J0D01*
G01*
G37*
%TD*%
%TO.C,U1*%
G36*
G01*
X85081000Y-2646000D02*
X84781000Y-2646000D01*
G75*
G02*
X84631000Y-2496000I0J150000D01*
G01*
X84631000Y-746000D01*
G75*
G02*
X84781000Y-596000I150000J0D01*
G01*
X85081000Y-596000D01*
G75*
G02*
X85231000Y-746000I0J-150000D01*
G01*
X85231000Y-2496000D01*
G75*
G02*
X85081000Y-2646000I-150000J0D01*
G01*
G37*
G36*
G01*
X86351000Y-2646000D02*
X86051000Y-2646000D01*
G75*
G02*
X85901000Y-2496000I0J150000D01*
G01*
X85901000Y-746000D01*
G75*
G02*
X86051000Y-596000I150000J0D01*
G01*
X86351000Y-596000D01*
G75*
G02*
X86501000Y-746000I0J-150000D01*
G01*
X86501000Y-2496000D01*
G75*
G02*
X86351000Y-2646000I-150000J0D01*
G01*
G37*
G36*
G01*
X87621000Y-2646000D02*
X87321000Y-2646000D01*
G75*
G02*
X87171000Y-2496000I0J150000D01*
G01*
X87171000Y-746000D01*
G75*
G02*
X87321000Y-596000I150000J0D01*
G01*
X87621000Y-596000D01*
G75*
G02*
X87771000Y-746000I0J-150000D01*
G01*
X87771000Y-2496000D01*
G75*
G02*
X87621000Y-2646000I-150000J0D01*
G01*
G37*
G36*
G01*
X88891000Y-2646000D02*
X88591000Y-2646000D01*
G75*
G02*
X88441000Y-2496000I0J150000D01*
G01*
X88441000Y-746000D01*
G75*
G02*
X88591000Y-596000I150000J0D01*
G01*
X88891000Y-596000D01*
G75*
G02*
X89041000Y-746000I0J-150000D01*
G01*
X89041000Y-2496000D01*
G75*
G02*
X88891000Y-2646000I-150000J0D01*
G01*
G37*
G36*
G01*
X90161000Y-2646000D02*
X89861000Y-2646000D01*
G75*
G02*
X89711000Y-2496000I0J150000D01*
G01*
X89711000Y-746000D01*
G75*
G02*
X89861000Y-596000I150000J0D01*
G01*
X90161000Y-596000D01*
G75*
G02*
X90311000Y-746000I0J-150000D01*
G01*
X90311000Y-2496000D01*
G75*
G02*
X90161000Y-2646000I-150000J0D01*
G01*
G37*
G36*
G01*
X91431000Y-2646000D02*
X91131000Y-2646000D01*
G75*
G02*
X90981000Y-2496000I0J150000D01*
G01*
X90981000Y-746000D01*
G75*
G02*
X91131000Y-596000I150000J0D01*
G01*
X91431000Y-596000D01*
G75*
G02*
X91581000Y-746000I0J-150000D01*
G01*
X91581000Y-2496000D01*
G75*
G02*
X91431000Y-2646000I-150000J0D01*
G01*
G37*
G36*
G01*
X92701000Y-2646000D02*
X92401000Y-2646000D01*
G75*
G02*
X92251000Y-2496000I0J150000D01*
G01*
X92251000Y-746000D01*
G75*
G02*
X92401000Y-596000I150000J0D01*
G01*
X92701000Y-596000D01*
G75*
G02*
X92851000Y-746000I0J-150000D01*
G01*
X92851000Y-2496000D01*
G75*
G02*
X92701000Y-2646000I-150000J0D01*
G01*
G37*
G36*
G01*
X93971000Y-2646000D02*
X93671000Y-2646000D01*
G75*
G02*
X93521000Y-2496000I0J150000D01*
G01*
X93521000Y-746000D01*
G75*
G02*
X93671000Y-596000I150000J0D01*
G01*
X93971000Y-596000D01*
G75*
G02*
X94121000Y-746000I0J-150000D01*
G01*
X94121000Y-2496000D01*
G75*
G02*
X93971000Y-2646000I-150000J0D01*
G01*
G37*
G36*
G01*
X95241000Y-2646000D02*
X94941000Y-2646000D01*
G75*
G02*
X94791000Y-2496000I0J150000D01*
G01*
X94791000Y-746000D01*
G75*
G02*
X94941000Y-596000I150000J0D01*
G01*
X95241000Y-596000D01*
G75*
G02*
X95391000Y-746000I0J-150000D01*
G01*
X95391000Y-2496000D01*
G75*
G02*
X95241000Y-2646000I-150000J0D01*
G01*
G37*
G36*
G01*
X96511000Y-2646000D02*
X96211000Y-2646000D01*
G75*
G02*
X96061000Y-2496000I0J150000D01*
G01*
X96061000Y-746000D01*
G75*
G02*
X96211000Y-596000I150000J0D01*
G01*
X96511000Y-596000D01*
G75*
G02*
X96661000Y-746000I0J-150000D01*
G01*
X96661000Y-2496000D01*
G75*
G02*
X96511000Y-2646000I-150000J0D01*
G01*
G37*
G36*
G01*
X96511000Y-11946000D02*
X96211000Y-11946000D01*
G75*
G02*
X96061000Y-11796000I0J150000D01*
G01*
X96061000Y-10046000D01*
G75*
G02*
X96211000Y-9896000I150000J0D01*
G01*
X96511000Y-9896000D01*
G75*
G02*
X96661000Y-10046000I0J-150000D01*
G01*
X96661000Y-11796000D01*
G75*
G02*
X96511000Y-11946000I-150000J0D01*
G01*
G37*
G36*
G01*
X95241000Y-11946000D02*
X94941000Y-11946000D01*
G75*
G02*
X94791000Y-11796000I0J150000D01*
G01*
X94791000Y-10046000D01*
G75*
G02*
X94941000Y-9896000I150000J0D01*
G01*
X95241000Y-9896000D01*
G75*
G02*
X95391000Y-10046000I0J-150000D01*
G01*
X95391000Y-11796000D01*
G75*
G02*
X95241000Y-11946000I-150000J0D01*
G01*
G37*
G36*
G01*
X93971000Y-11946000D02*
X93671000Y-11946000D01*
G75*
G02*
X93521000Y-11796000I0J150000D01*
G01*
X93521000Y-10046000D01*
G75*
G02*
X93671000Y-9896000I150000J0D01*
G01*
X93971000Y-9896000D01*
G75*
G02*
X94121000Y-10046000I0J-150000D01*
G01*
X94121000Y-11796000D01*
G75*
G02*
X93971000Y-11946000I-150000J0D01*
G01*
G37*
G36*
G01*
X92701000Y-11946000D02*
X92401000Y-11946000D01*
G75*
G02*
X92251000Y-11796000I0J150000D01*
G01*
X92251000Y-10046000D01*
G75*
G02*
X92401000Y-9896000I150000J0D01*
G01*
X92701000Y-9896000D01*
G75*
G02*
X92851000Y-10046000I0J-150000D01*
G01*
X92851000Y-11796000D01*
G75*
G02*
X92701000Y-11946000I-150000J0D01*
G01*
G37*
G36*
G01*
X91431000Y-11946000D02*
X91131000Y-11946000D01*
G75*
G02*
X90981000Y-11796000I0J150000D01*
G01*
X90981000Y-10046000D01*
G75*
G02*
X91131000Y-9896000I150000J0D01*
G01*
X91431000Y-9896000D01*
G75*
G02*
X91581000Y-10046000I0J-150000D01*
G01*
X91581000Y-11796000D01*
G75*
G02*
X91431000Y-11946000I-150000J0D01*
G01*
G37*
G36*
G01*
X90161000Y-11946000D02*
X89861000Y-11946000D01*
G75*
G02*
X89711000Y-11796000I0J150000D01*
G01*
X89711000Y-10046000D01*
G75*
G02*
X89861000Y-9896000I150000J0D01*
G01*
X90161000Y-9896000D01*
G75*
G02*
X90311000Y-10046000I0J-150000D01*
G01*
X90311000Y-11796000D01*
G75*
G02*
X90161000Y-11946000I-150000J0D01*
G01*
G37*
G36*
G01*
X88891000Y-11946000D02*
X88591000Y-11946000D01*
G75*
G02*
X88441000Y-11796000I0J150000D01*
G01*
X88441000Y-10046000D01*
G75*
G02*
X88591000Y-9896000I150000J0D01*
G01*
X88891000Y-9896000D01*
G75*
G02*
X89041000Y-10046000I0J-150000D01*
G01*
X89041000Y-11796000D01*
G75*
G02*
X88891000Y-11946000I-150000J0D01*
G01*
G37*
G36*
G01*
X87621000Y-11946000D02*
X87321000Y-11946000D01*
G75*
G02*
X87171000Y-11796000I0J150000D01*
G01*
X87171000Y-10046000D01*
G75*
G02*
X87321000Y-9896000I150000J0D01*
G01*
X87621000Y-9896000D01*
G75*
G02*
X87771000Y-10046000I0J-150000D01*
G01*
X87771000Y-11796000D01*
G75*
G02*
X87621000Y-11946000I-150000J0D01*
G01*
G37*
G36*
G01*
X86351000Y-11946000D02*
X86051000Y-11946000D01*
G75*
G02*
X85901000Y-11796000I0J150000D01*
G01*
X85901000Y-10046000D01*
G75*
G02*
X86051000Y-9896000I150000J0D01*
G01*
X86351000Y-9896000D01*
G75*
G02*
X86501000Y-10046000I0J-150000D01*
G01*
X86501000Y-11796000D01*
G75*
G02*
X86351000Y-11946000I-150000J0D01*
G01*
G37*
G36*
G01*
X85081000Y-11946000D02*
X84781000Y-11946000D01*
G75*
G02*
X84631000Y-11796000I0J150000D01*
G01*
X84631000Y-10046000D01*
G75*
G02*
X84781000Y-9896000I150000J0D01*
G01*
X85081000Y-9896000D01*
G75*
G02*
X85231000Y-10046000I0J-150000D01*
G01*
X85231000Y-11796000D01*
G75*
G02*
X85081000Y-11946000I-150000J0D01*
G01*
G37*
%TD*%
D13*
%TO.C,JP2*%
X137102000Y-19021800D03*
D14*
X137102000Y-21561800D03*
%TD*%
%TO.C,C4*%
G36*
G01*
X134809000Y1781750D02*
X134809000Y2694250D01*
G75*
G02*
X135052750Y2938000I243750J0D01*
G01*
X135540250Y2938000D01*
G75*
G02*
X135784000Y2694250I0J-243750D01*
G01*
X135784000Y1781750D01*
G75*
G02*
X135540250Y1538000I-243750J0D01*
G01*
X135052750Y1538000D01*
G75*
G02*
X134809000Y1781750I0J243750D01*
G01*
G37*
G36*
G01*
X132934000Y1781750D02*
X132934000Y2694250D01*
G75*
G02*
X133177750Y2938000I243750J0D01*
G01*
X133665250Y2938000D01*
G75*
G02*
X133909000Y2694250I0J-243750D01*
G01*
X133909000Y1781750D01*
G75*
G02*
X133665250Y1538000I-243750J0D01*
G01*
X133177750Y1538000D01*
G75*
G02*
X132934000Y1781750I0J243750D01*
G01*
G37*
%TD*%
%TO.C,C3*%
G36*
G01*
X110236000Y2694250D02*
X110236000Y1781750D01*
G75*
G02*
X109992250Y1538000I-243750J0D01*
G01*
X109504750Y1538000D01*
G75*
G02*
X109261000Y1781750I0J243750D01*
G01*
X109261000Y2694250D01*
G75*
G02*
X109504750Y2938000I243750J0D01*
G01*
X109992250Y2938000D01*
G75*
G02*
X110236000Y2694250I0J-243750D01*
G01*
G37*
G36*
G01*
X112111000Y2694250D02*
X112111000Y1781750D01*
G75*
G02*
X111867250Y1538000I-243750J0D01*
G01*
X111379750Y1538000D01*
G75*
G02*
X111136000Y1781750I0J243750D01*
G01*
X111136000Y2694250D01*
G75*
G02*
X111379750Y2938000I243750J0D01*
G01*
X111867250Y2938000D01*
G75*
G02*
X112111000Y2694250I0J-243750D01*
G01*
G37*
%TD*%
%TO.C,C2*%
G36*
G01*
X96709000Y1781750D02*
X96709000Y2694250D01*
G75*
G02*
X96952750Y2938000I243750J0D01*
G01*
X97440250Y2938000D01*
G75*
G02*
X97684000Y2694250I0J-243750D01*
G01*
X97684000Y1781750D01*
G75*
G02*
X97440250Y1538000I-243750J0D01*
G01*
X96952750Y1538000D01*
G75*
G02*
X96709000Y1781750I0J243750D01*
G01*
G37*
G36*
G01*
X94834000Y1781750D02*
X94834000Y2694250D01*
G75*
G02*
X95077750Y2938000I243750J0D01*
G01*
X95565250Y2938000D01*
G75*
G02*
X95809000Y2694250I0J-243750D01*
G01*
X95809000Y1781750D01*
G75*
G02*
X95565250Y1538000I-243750J0D01*
G01*
X95077750Y1538000D01*
G75*
G02*
X94834000Y1781750I0J243750D01*
G01*
G37*
%TD*%
%TO.C,C1*%
G36*
G01*
X87547750Y-17262000D02*
X88460250Y-17262000D01*
G75*
G02*
X88704000Y-17505750I0J-243750D01*
G01*
X88704000Y-17993250D01*
G75*
G02*
X88460250Y-18237000I-243750J0D01*
G01*
X87547750Y-18237000D01*
G75*
G02*
X87304000Y-17993250I0J243750D01*
G01*
X87304000Y-17505750D01*
G75*
G02*
X87547750Y-17262000I243750J0D01*
G01*
G37*
G36*
G01*
X87547750Y-15387000D02*
X88460250Y-15387000D01*
G75*
G02*
X88704000Y-15630750I0J-243750D01*
G01*
X88704000Y-16118250D01*
G75*
G02*
X88460250Y-16362000I-243750J0D01*
G01*
X87547750Y-16362000D01*
G75*
G02*
X87304000Y-16118250I0J243750D01*
G01*
X87304000Y-15630750D01*
G75*
G02*
X87547750Y-15387000I243750J0D01*
G01*
G37*
%TD*%
%TO.C,U6*%
G36*
G01*
X98345000Y-13591000D02*
X98345000Y-13391000D01*
G75*
G02*
X98445000Y-13291000I100000J0D01*
G01*
X99720000Y-13291000D01*
G75*
G02*
X99820000Y-13391000I0J-100000D01*
G01*
X99820000Y-13591000D01*
G75*
G02*
X99720000Y-13691000I-100000J0D01*
G01*
X98445000Y-13691000D01*
G75*
G02*
X98345000Y-13591000I0J100000D01*
G01*
G37*
G36*
G01*
X98345000Y-14241000D02*
X98345000Y-14041000D01*
G75*
G02*
X98445000Y-13941000I100000J0D01*
G01*
X99720000Y-13941000D01*
G75*
G02*
X99820000Y-14041000I0J-100000D01*
G01*
X99820000Y-14241000D01*
G75*
G02*
X99720000Y-14341000I-100000J0D01*
G01*
X98445000Y-14341000D01*
G75*
G02*
X98345000Y-14241000I0J100000D01*
G01*
G37*
G36*
G01*
X98345000Y-14891000D02*
X98345000Y-14691000D01*
G75*
G02*
X98445000Y-14591000I100000J0D01*
G01*
X99720000Y-14591000D01*
G75*
G02*
X99820000Y-14691000I0J-100000D01*
G01*
X99820000Y-14891000D01*
G75*
G02*
X99720000Y-14991000I-100000J0D01*
G01*
X98445000Y-14991000D01*
G75*
G02*
X98345000Y-14891000I0J100000D01*
G01*
G37*
G36*
G01*
X98345000Y-15541000D02*
X98345000Y-15341000D01*
G75*
G02*
X98445000Y-15241000I100000J0D01*
G01*
X99720000Y-15241000D01*
G75*
G02*
X99820000Y-15341000I0J-100000D01*
G01*
X99820000Y-15541000D01*
G75*
G02*
X99720000Y-15641000I-100000J0D01*
G01*
X98445000Y-15641000D01*
G75*
G02*
X98345000Y-15541000I0J100000D01*
G01*
G37*
G36*
G01*
X98345000Y-16191000D02*
X98345000Y-15991000D01*
G75*
G02*
X98445000Y-15891000I100000J0D01*
G01*
X99720000Y-15891000D01*
G75*
G02*
X99820000Y-15991000I0J-100000D01*
G01*
X99820000Y-16191000D01*
G75*
G02*
X99720000Y-16291000I-100000J0D01*
G01*
X98445000Y-16291000D01*
G75*
G02*
X98345000Y-16191000I0J100000D01*
G01*
G37*
G36*
G01*
X98345000Y-16841000D02*
X98345000Y-16641000D01*
G75*
G02*
X98445000Y-16541000I100000J0D01*
G01*
X99720000Y-16541000D01*
G75*
G02*
X99820000Y-16641000I0J-100000D01*
G01*
X99820000Y-16841000D01*
G75*
G02*
X99720000Y-16941000I-100000J0D01*
G01*
X98445000Y-16941000D01*
G75*
G02*
X98345000Y-16841000I0J100000D01*
G01*
G37*
G36*
G01*
X98345000Y-17491000D02*
X98345000Y-17291000D01*
G75*
G02*
X98445000Y-17191000I100000J0D01*
G01*
X99720000Y-17191000D01*
G75*
G02*
X99820000Y-17291000I0J-100000D01*
G01*
X99820000Y-17491000D01*
G75*
G02*
X99720000Y-17591000I-100000J0D01*
G01*
X98445000Y-17591000D01*
G75*
G02*
X98345000Y-17491000I0J100000D01*
G01*
G37*
G36*
G01*
X98345000Y-18141000D02*
X98345000Y-17941000D01*
G75*
G02*
X98445000Y-17841000I100000J0D01*
G01*
X99720000Y-17841000D01*
G75*
G02*
X99820000Y-17941000I0J-100000D01*
G01*
X99820000Y-18141000D01*
G75*
G02*
X99720000Y-18241000I-100000J0D01*
G01*
X98445000Y-18241000D01*
G75*
G02*
X98345000Y-18141000I0J100000D01*
G01*
G37*
G36*
G01*
X98345000Y-18791000D02*
X98345000Y-18591000D01*
G75*
G02*
X98445000Y-18491000I100000J0D01*
G01*
X99720000Y-18491000D01*
G75*
G02*
X99820000Y-18591000I0J-100000D01*
G01*
X99820000Y-18791000D01*
G75*
G02*
X99720000Y-18891000I-100000J0D01*
G01*
X98445000Y-18891000D01*
G75*
G02*
X98345000Y-18791000I0J100000D01*
G01*
G37*
G36*
G01*
X98345000Y-19441000D02*
X98345000Y-19241000D01*
G75*
G02*
X98445000Y-19141000I100000J0D01*
G01*
X99720000Y-19141000D01*
G75*
G02*
X99820000Y-19241000I0J-100000D01*
G01*
X99820000Y-19441000D01*
G75*
G02*
X99720000Y-19541000I-100000J0D01*
G01*
X98445000Y-19541000D01*
G75*
G02*
X98345000Y-19441000I0J100000D01*
G01*
G37*
G36*
G01*
X98345000Y-20091000D02*
X98345000Y-19891000D01*
G75*
G02*
X98445000Y-19791000I100000J0D01*
G01*
X99720000Y-19791000D01*
G75*
G02*
X99820000Y-19891000I0J-100000D01*
G01*
X99820000Y-20091000D01*
G75*
G02*
X99720000Y-20191000I-100000J0D01*
G01*
X98445000Y-20191000D01*
G75*
G02*
X98345000Y-20091000I0J100000D01*
G01*
G37*
G36*
G01*
X98345000Y-20741000D02*
X98345000Y-20541000D01*
G75*
G02*
X98445000Y-20441000I100000J0D01*
G01*
X99720000Y-20441000D01*
G75*
G02*
X99820000Y-20541000I0J-100000D01*
G01*
X99820000Y-20741000D01*
G75*
G02*
X99720000Y-20841000I-100000J0D01*
G01*
X98445000Y-20841000D01*
G75*
G02*
X98345000Y-20741000I0J100000D01*
G01*
G37*
G36*
G01*
X90920000Y-20741000D02*
X90920000Y-20541000D01*
G75*
G02*
X91020000Y-20441000I100000J0D01*
G01*
X92295000Y-20441000D01*
G75*
G02*
X92395000Y-20541000I0J-100000D01*
G01*
X92395000Y-20741000D01*
G75*
G02*
X92295000Y-20841000I-100000J0D01*
G01*
X91020000Y-20841000D01*
G75*
G02*
X90920000Y-20741000I0J100000D01*
G01*
G37*
G36*
G01*
X90920000Y-20091000D02*
X90920000Y-19891000D01*
G75*
G02*
X91020000Y-19791000I100000J0D01*
G01*
X92295000Y-19791000D01*
G75*
G02*
X92395000Y-19891000I0J-100000D01*
G01*
X92395000Y-20091000D01*
G75*
G02*
X92295000Y-20191000I-100000J0D01*
G01*
X91020000Y-20191000D01*
G75*
G02*
X90920000Y-20091000I0J100000D01*
G01*
G37*
G36*
G01*
X90920000Y-19441000D02*
X90920000Y-19241000D01*
G75*
G02*
X91020000Y-19141000I100000J0D01*
G01*
X92295000Y-19141000D01*
G75*
G02*
X92395000Y-19241000I0J-100000D01*
G01*
X92395000Y-19441000D01*
G75*
G02*
X92295000Y-19541000I-100000J0D01*
G01*
X91020000Y-19541000D01*
G75*
G02*
X90920000Y-19441000I0J100000D01*
G01*
G37*
G36*
G01*
X90920000Y-18791000D02*
X90920000Y-18591000D01*
G75*
G02*
X91020000Y-18491000I100000J0D01*
G01*
X92295000Y-18491000D01*
G75*
G02*
X92395000Y-18591000I0J-100000D01*
G01*
X92395000Y-18791000D01*
G75*
G02*
X92295000Y-18891000I-100000J0D01*
G01*
X91020000Y-18891000D01*
G75*
G02*
X90920000Y-18791000I0J100000D01*
G01*
G37*
G36*
G01*
X90920000Y-18141000D02*
X90920000Y-17941000D01*
G75*
G02*
X91020000Y-17841000I100000J0D01*
G01*
X92295000Y-17841000D01*
G75*
G02*
X92395000Y-17941000I0J-100000D01*
G01*
X92395000Y-18141000D01*
G75*
G02*
X92295000Y-18241000I-100000J0D01*
G01*
X91020000Y-18241000D01*
G75*
G02*
X90920000Y-18141000I0J100000D01*
G01*
G37*
G36*
G01*
X90920000Y-17491000D02*
X90920000Y-17291000D01*
G75*
G02*
X91020000Y-17191000I100000J0D01*
G01*
X92295000Y-17191000D01*
G75*
G02*
X92395000Y-17291000I0J-100000D01*
G01*
X92395000Y-17491000D01*
G75*
G02*
X92295000Y-17591000I-100000J0D01*
G01*
X91020000Y-17591000D01*
G75*
G02*
X90920000Y-17491000I0J100000D01*
G01*
G37*
G36*
G01*
X90920000Y-16841000D02*
X90920000Y-16641000D01*
G75*
G02*
X91020000Y-16541000I100000J0D01*
G01*
X92295000Y-16541000D01*
G75*
G02*
X92395000Y-16641000I0J-100000D01*
G01*
X92395000Y-16841000D01*
G75*
G02*
X92295000Y-16941000I-100000J0D01*
G01*
X91020000Y-16941000D01*
G75*
G02*
X90920000Y-16841000I0J100000D01*
G01*
G37*
G36*
G01*
X90920000Y-16191000D02*
X90920000Y-15991000D01*
G75*
G02*
X91020000Y-15891000I100000J0D01*
G01*
X92295000Y-15891000D01*
G75*
G02*
X92395000Y-15991000I0J-100000D01*
G01*
X92395000Y-16191000D01*
G75*
G02*
X92295000Y-16291000I-100000J0D01*
G01*
X91020000Y-16291000D01*
G75*
G02*
X90920000Y-16191000I0J100000D01*
G01*
G37*
G36*
G01*
X90920000Y-15541000D02*
X90920000Y-15341000D01*
G75*
G02*
X91020000Y-15241000I100000J0D01*
G01*
X92295000Y-15241000D01*
G75*
G02*
X92395000Y-15341000I0J-100000D01*
G01*
X92395000Y-15541000D01*
G75*
G02*
X92295000Y-15641000I-100000J0D01*
G01*
X91020000Y-15641000D01*
G75*
G02*
X90920000Y-15541000I0J100000D01*
G01*
G37*
G36*
G01*
X90920000Y-14891000D02*
X90920000Y-14691000D01*
G75*
G02*
X91020000Y-14591000I100000J0D01*
G01*
X92295000Y-14591000D01*
G75*
G02*
X92395000Y-14691000I0J-100000D01*
G01*
X92395000Y-14891000D01*
G75*
G02*
X92295000Y-14991000I-100000J0D01*
G01*
X91020000Y-14991000D01*
G75*
G02*
X90920000Y-14891000I0J100000D01*
G01*
G37*
G36*
G01*
X90920000Y-14241000D02*
X90920000Y-14041000D01*
G75*
G02*
X91020000Y-13941000I100000J0D01*
G01*
X92295000Y-13941000D01*
G75*
G02*
X92395000Y-14041000I0J-100000D01*
G01*
X92395000Y-14241000D01*
G75*
G02*
X92295000Y-14341000I-100000J0D01*
G01*
X91020000Y-14341000D01*
G75*
G02*
X90920000Y-14241000I0J100000D01*
G01*
G37*
G36*
G01*
X90920000Y-13591000D02*
X90920000Y-13391000D01*
G75*
G02*
X91020000Y-13291000I100000J0D01*
G01*
X92295000Y-13291000D01*
G75*
G02*
X92395000Y-13391000I0J-100000D01*
G01*
X92395000Y-13591000D01*
G75*
G02*
X92295000Y-13691000I-100000J0D01*
G01*
X91020000Y-13691000D01*
G75*
G02*
X90920000Y-13591000I0J100000D01*
G01*
G37*
%TD*%
%TO.C,U5*%
G36*
G01*
X122729000Y-13591000D02*
X122729000Y-13391000D01*
G75*
G02*
X122829000Y-13291000I100000J0D01*
G01*
X124104000Y-13291000D01*
G75*
G02*
X124204000Y-13391000I0J-100000D01*
G01*
X124204000Y-13591000D01*
G75*
G02*
X124104000Y-13691000I-100000J0D01*
G01*
X122829000Y-13691000D01*
G75*
G02*
X122729000Y-13591000I0J100000D01*
G01*
G37*
G36*
G01*
X122729000Y-14241000D02*
X122729000Y-14041000D01*
G75*
G02*
X122829000Y-13941000I100000J0D01*
G01*
X124104000Y-13941000D01*
G75*
G02*
X124204000Y-14041000I0J-100000D01*
G01*
X124204000Y-14241000D01*
G75*
G02*
X124104000Y-14341000I-100000J0D01*
G01*
X122829000Y-14341000D01*
G75*
G02*
X122729000Y-14241000I0J100000D01*
G01*
G37*
G36*
G01*
X122729000Y-14891000D02*
X122729000Y-14691000D01*
G75*
G02*
X122829000Y-14591000I100000J0D01*
G01*
X124104000Y-14591000D01*
G75*
G02*
X124204000Y-14691000I0J-100000D01*
G01*
X124204000Y-14891000D01*
G75*
G02*
X124104000Y-14991000I-100000J0D01*
G01*
X122829000Y-14991000D01*
G75*
G02*
X122729000Y-14891000I0J100000D01*
G01*
G37*
G36*
G01*
X122729000Y-15541000D02*
X122729000Y-15341000D01*
G75*
G02*
X122829000Y-15241000I100000J0D01*
G01*
X124104000Y-15241000D01*
G75*
G02*
X124204000Y-15341000I0J-100000D01*
G01*
X124204000Y-15541000D01*
G75*
G02*
X124104000Y-15641000I-100000J0D01*
G01*
X122829000Y-15641000D01*
G75*
G02*
X122729000Y-15541000I0J100000D01*
G01*
G37*
G36*
G01*
X122729000Y-16191000D02*
X122729000Y-15991000D01*
G75*
G02*
X122829000Y-15891000I100000J0D01*
G01*
X124104000Y-15891000D01*
G75*
G02*
X124204000Y-15991000I0J-100000D01*
G01*
X124204000Y-16191000D01*
G75*
G02*
X124104000Y-16291000I-100000J0D01*
G01*
X122829000Y-16291000D01*
G75*
G02*
X122729000Y-16191000I0J100000D01*
G01*
G37*
G36*
G01*
X122729000Y-16841000D02*
X122729000Y-16641000D01*
G75*
G02*
X122829000Y-16541000I100000J0D01*
G01*
X124104000Y-16541000D01*
G75*
G02*
X124204000Y-16641000I0J-100000D01*
G01*
X124204000Y-16841000D01*
G75*
G02*
X124104000Y-16941000I-100000J0D01*
G01*
X122829000Y-16941000D01*
G75*
G02*
X122729000Y-16841000I0J100000D01*
G01*
G37*
G36*
G01*
X122729000Y-17491000D02*
X122729000Y-17291000D01*
G75*
G02*
X122829000Y-17191000I100000J0D01*
G01*
X124104000Y-17191000D01*
G75*
G02*
X124204000Y-17291000I0J-100000D01*
G01*
X124204000Y-17491000D01*
G75*
G02*
X124104000Y-17591000I-100000J0D01*
G01*
X122829000Y-17591000D01*
G75*
G02*
X122729000Y-17491000I0J100000D01*
G01*
G37*
G36*
G01*
X122729000Y-18141000D02*
X122729000Y-17941000D01*
G75*
G02*
X122829000Y-17841000I100000J0D01*
G01*
X124104000Y-17841000D01*
G75*
G02*
X124204000Y-17941000I0J-100000D01*
G01*
X124204000Y-18141000D01*
G75*
G02*
X124104000Y-18241000I-100000J0D01*
G01*
X122829000Y-18241000D01*
G75*
G02*
X122729000Y-18141000I0J100000D01*
G01*
G37*
G36*
G01*
X122729000Y-18791000D02*
X122729000Y-18591000D01*
G75*
G02*
X122829000Y-18491000I100000J0D01*
G01*
X124104000Y-18491000D01*
G75*
G02*
X124204000Y-18591000I0J-100000D01*
G01*
X124204000Y-18791000D01*
G75*
G02*
X124104000Y-18891000I-100000J0D01*
G01*
X122829000Y-18891000D01*
G75*
G02*
X122729000Y-18791000I0J100000D01*
G01*
G37*
G36*
G01*
X122729000Y-19441000D02*
X122729000Y-19241000D01*
G75*
G02*
X122829000Y-19141000I100000J0D01*
G01*
X124104000Y-19141000D01*
G75*
G02*
X124204000Y-19241000I0J-100000D01*
G01*
X124204000Y-19441000D01*
G75*
G02*
X124104000Y-19541000I-100000J0D01*
G01*
X122829000Y-19541000D01*
G75*
G02*
X122729000Y-19441000I0J100000D01*
G01*
G37*
G36*
G01*
X122729000Y-20091000D02*
X122729000Y-19891000D01*
G75*
G02*
X122829000Y-19791000I100000J0D01*
G01*
X124104000Y-19791000D01*
G75*
G02*
X124204000Y-19891000I0J-100000D01*
G01*
X124204000Y-20091000D01*
G75*
G02*
X124104000Y-20191000I-100000J0D01*
G01*
X122829000Y-20191000D01*
G75*
G02*
X122729000Y-20091000I0J100000D01*
G01*
G37*
G36*
G01*
X122729000Y-20741000D02*
X122729000Y-20541000D01*
G75*
G02*
X122829000Y-20441000I100000J0D01*
G01*
X124104000Y-20441000D01*
G75*
G02*
X124204000Y-20541000I0J-100000D01*
G01*
X124204000Y-20741000D01*
G75*
G02*
X124104000Y-20841000I-100000J0D01*
G01*
X122829000Y-20841000D01*
G75*
G02*
X122729000Y-20741000I0J100000D01*
G01*
G37*
G36*
G01*
X115304000Y-20741000D02*
X115304000Y-20541000D01*
G75*
G02*
X115404000Y-20441000I100000J0D01*
G01*
X116679000Y-20441000D01*
G75*
G02*
X116779000Y-20541000I0J-100000D01*
G01*
X116779000Y-20741000D01*
G75*
G02*
X116679000Y-20841000I-100000J0D01*
G01*
X115404000Y-20841000D01*
G75*
G02*
X115304000Y-20741000I0J100000D01*
G01*
G37*
G36*
G01*
X115304000Y-20091000D02*
X115304000Y-19891000D01*
G75*
G02*
X115404000Y-19791000I100000J0D01*
G01*
X116679000Y-19791000D01*
G75*
G02*
X116779000Y-19891000I0J-100000D01*
G01*
X116779000Y-20091000D01*
G75*
G02*
X116679000Y-20191000I-100000J0D01*
G01*
X115404000Y-20191000D01*
G75*
G02*
X115304000Y-20091000I0J100000D01*
G01*
G37*
G36*
G01*
X115304000Y-19441000D02*
X115304000Y-19241000D01*
G75*
G02*
X115404000Y-19141000I100000J0D01*
G01*
X116679000Y-19141000D01*
G75*
G02*
X116779000Y-19241000I0J-100000D01*
G01*
X116779000Y-19441000D01*
G75*
G02*
X116679000Y-19541000I-100000J0D01*
G01*
X115404000Y-19541000D01*
G75*
G02*
X115304000Y-19441000I0J100000D01*
G01*
G37*
G36*
G01*
X115304000Y-18791000D02*
X115304000Y-18591000D01*
G75*
G02*
X115404000Y-18491000I100000J0D01*
G01*
X116679000Y-18491000D01*
G75*
G02*
X116779000Y-18591000I0J-100000D01*
G01*
X116779000Y-18791000D01*
G75*
G02*
X116679000Y-18891000I-100000J0D01*
G01*
X115404000Y-18891000D01*
G75*
G02*
X115304000Y-18791000I0J100000D01*
G01*
G37*
G36*
G01*
X115304000Y-18141000D02*
X115304000Y-17941000D01*
G75*
G02*
X115404000Y-17841000I100000J0D01*
G01*
X116679000Y-17841000D01*
G75*
G02*
X116779000Y-17941000I0J-100000D01*
G01*
X116779000Y-18141000D01*
G75*
G02*
X116679000Y-18241000I-100000J0D01*
G01*
X115404000Y-18241000D01*
G75*
G02*
X115304000Y-18141000I0J100000D01*
G01*
G37*
G36*
G01*
X115304000Y-17491000D02*
X115304000Y-17291000D01*
G75*
G02*
X115404000Y-17191000I100000J0D01*
G01*
X116679000Y-17191000D01*
G75*
G02*
X116779000Y-17291000I0J-100000D01*
G01*
X116779000Y-17491000D01*
G75*
G02*
X116679000Y-17591000I-100000J0D01*
G01*
X115404000Y-17591000D01*
G75*
G02*
X115304000Y-17491000I0J100000D01*
G01*
G37*
G36*
G01*
X115304000Y-16841000D02*
X115304000Y-16641000D01*
G75*
G02*
X115404000Y-16541000I100000J0D01*
G01*
X116679000Y-16541000D01*
G75*
G02*
X116779000Y-16641000I0J-100000D01*
G01*
X116779000Y-16841000D01*
G75*
G02*
X116679000Y-16941000I-100000J0D01*
G01*
X115404000Y-16941000D01*
G75*
G02*
X115304000Y-16841000I0J100000D01*
G01*
G37*
G36*
G01*
X115304000Y-16191000D02*
X115304000Y-15991000D01*
G75*
G02*
X115404000Y-15891000I100000J0D01*
G01*
X116679000Y-15891000D01*
G75*
G02*
X116779000Y-15991000I0J-100000D01*
G01*
X116779000Y-16191000D01*
G75*
G02*
X116679000Y-16291000I-100000J0D01*
G01*
X115404000Y-16291000D01*
G75*
G02*
X115304000Y-16191000I0J100000D01*
G01*
G37*
G36*
G01*
X115304000Y-15541000D02*
X115304000Y-15341000D01*
G75*
G02*
X115404000Y-15241000I100000J0D01*
G01*
X116679000Y-15241000D01*
G75*
G02*
X116779000Y-15341000I0J-100000D01*
G01*
X116779000Y-15541000D01*
G75*
G02*
X116679000Y-15641000I-100000J0D01*
G01*
X115404000Y-15641000D01*
G75*
G02*
X115304000Y-15541000I0J100000D01*
G01*
G37*
G36*
G01*
X115304000Y-14891000D02*
X115304000Y-14691000D01*
G75*
G02*
X115404000Y-14591000I100000J0D01*
G01*
X116679000Y-14591000D01*
G75*
G02*
X116779000Y-14691000I0J-100000D01*
G01*
X116779000Y-14891000D01*
G75*
G02*
X116679000Y-14991000I-100000J0D01*
G01*
X115404000Y-14991000D01*
G75*
G02*
X115304000Y-14891000I0J100000D01*
G01*
G37*
G36*
G01*
X115304000Y-14241000D02*
X115304000Y-14041000D01*
G75*
G02*
X115404000Y-13941000I100000J0D01*
G01*
X116679000Y-13941000D01*
G75*
G02*
X116779000Y-14041000I0J-100000D01*
G01*
X116779000Y-14241000D01*
G75*
G02*
X116679000Y-14341000I-100000J0D01*
G01*
X115404000Y-14341000D01*
G75*
G02*
X115304000Y-14241000I0J100000D01*
G01*
G37*
G36*
G01*
X115304000Y-13591000D02*
X115304000Y-13391000D01*
G75*
G02*
X115404000Y-13291000I100000J0D01*
G01*
X116679000Y-13291000D01*
G75*
G02*
X116779000Y-13391000I0J-100000D01*
G01*
X116779000Y-13591000D01*
G75*
G02*
X116679000Y-13691000I-100000J0D01*
G01*
X115404000Y-13691000D01*
G75*
G02*
X115304000Y-13591000I0J100000D01*
G01*
G37*
%TD*%
%TO.C,R24*%
G36*
G01*
X136508000Y-16182300D02*
X136508000Y-16527300D01*
G75*
G02*
X136360500Y-16674800I-147500J0D01*
G01*
X136065500Y-16674800D01*
G75*
G02*
X135918000Y-16527300I0J147500D01*
G01*
X135918000Y-16182300D01*
G75*
G02*
X136065500Y-16034800I147500J0D01*
G01*
X136360500Y-16034800D01*
G75*
G02*
X136508000Y-16182300I0J-147500D01*
G01*
G37*
G36*
G01*
X137478000Y-16182300D02*
X137478000Y-16527300D01*
G75*
G02*
X137330500Y-16674800I-147500J0D01*
G01*
X137035500Y-16674800D01*
G75*
G02*
X136888000Y-16527300I0J147500D01*
G01*
X136888000Y-16182300D01*
G75*
G02*
X137035500Y-16034800I147500J0D01*
G01*
X137330500Y-16034800D01*
G75*
G02*
X137478000Y-16182300I0J-147500D01*
G01*
G37*
%TD*%
%TO.C,R23*%
G36*
G01*
X127429500Y-22666200D02*
X127774500Y-22666200D01*
G75*
G02*
X127922000Y-22813700I0J-147500D01*
G01*
X127922000Y-23108700D01*
G75*
G02*
X127774500Y-23256200I-147500J0D01*
G01*
X127429500Y-23256200D01*
G75*
G02*
X127282000Y-23108700I0J147500D01*
G01*
X127282000Y-22813700D01*
G75*
G02*
X127429500Y-22666200I147500J0D01*
G01*
G37*
G36*
G01*
X127429500Y-21696200D02*
X127774500Y-21696200D01*
G75*
G02*
X127922000Y-21843700I0J-147500D01*
G01*
X127922000Y-22138700D01*
G75*
G02*
X127774500Y-22286200I-147500J0D01*
G01*
X127429500Y-22286200D01*
G75*
G02*
X127282000Y-22138700I0J147500D01*
G01*
X127282000Y-21843700D01*
G75*
G02*
X127429500Y-21696200I147500J0D01*
G01*
G37*
%TD*%
%TO.C,D6*%
G36*
G01*
X130288000Y-22932450D02*
X130288000Y-22019950D01*
G75*
G02*
X130531750Y-21776200I243750J0D01*
G01*
X131019250Y-21776200D01*
G75*
G02*
X131263000Y-22019950I0J-243750D01*
G01*
X131263000Y-22932450D01*
G75*
G02*
X131019250Y-23176200I-243750J0D01*
G01*
X130531750Y-23176200D01*
G75*
G02*
X130288000Y-22932450I0J243750D01*
G01*
G37*
G36*
G01*
X128413000Y-22932450D02*
X128413000Y-22019950D01*
G75*
G02*
X128656750Y-21776200I243750J0D01*
G01*
X129144250Y-21776200D01*
G75*
G02*
X129388000Y-22019950I0J-243750D01*
G01*
X129388000Y-22932450D01*
G75*
G02*
X129144250Y-23176200I-243750J0D01*
G01*
X128656750Y-23176200D01*
G75*
G02*
X128413000Y-22932450I0J243750D01*
G01*
G37*
%TD*%
%TO.C,C6*%
G36*
G01*
X97714000Y-22197750D02*
X97714000Y-23110250D01*
G75*
G02*
X97470250Y-23354000I-243750J0D01*
G01*
X96982750Y-23354000D01*
G75*
G02*
X96739000Y-23110250I0J243750D01*
G01*
X96739000Y-22197750D01*
G75*
G02*
X96982750Y-21954000I243750J0D01*
G01*
X97470250Y-21954000D01*
G75*
G02*
X97714000Y-22197750I0J-243750D01*
G01*
G37*
G36*
G01*
X99589000Y-22197750D02*
X99589000Y-23110250D01*
G75*
G02*
X99345250Y-23354000I-243750J0D01*
G01*
X98857750Y-23354000D01*
G75*
G02*
X98614000Y-23110250I0J243750D01*
G01*
X98614000Y-22197750D01*
G75*
G02*
X98857750Y-21954000I243750J0D01*
G01*
X99345250Y-21954000D01*
G75*
G02*
X99589000Y-22197750I0J-243750D01*
G01*
G37*
%TD*%
%TO.C,C5*%
G36*
G01*
X125520750Y-16220600D02*
X126433250Y-16220600D01*
G75*
G02*
X126677000Y-16464350I0J-243750D01*
G01*
X126677000Y-16951850D01*
G75*
G02*
X126433250Y-17195600I-243750J0D01*
G01*
X125520750Y-17195600D01*
G75*
G02*
X125277000Y-16951850I0J243750D01*
G01*
X125277000Y-16464350D01*
G75*
G02*
X125520750Y-16220600I243750J0D01*
G01*
G37*
G36*
G01*
X125520750Y-14345600D02*
X126433250Y-14345600D01*
G75*
G02*
X126677000Y-14589350I0J-243750D01*
G01*
X126677000Y-15076850D01*
G75*
G02*
X126433250Y-15320600I-243750J0D01*
G01*
X125520750Y-15320600D01*
G75*
G02*
X125277000Y-15076850I0J243750D01*
G01*
X125277000Y-14589350D01*
G75*
G02*
X125520750Y-14345600I243750J0D01*
G01*
G37*
%TD*%
%TO.C,C9*%
G36*
G01*
X117156000Y-23008650D02*
X117156000Y-22096150D01*
G75*
G02*
X117399750Y-21852400I243750J0D01*
G01*
X117887250Y-21852400D01*
G75*
G02*
X118131000Y-22096150I0J-243750D01*
G01*
X118131000Y-23008650D01*
G75*
G02*
X117887250Y-23252400I-243750J0D01*
G01*
X117399750Y-23252400D01*
G75*
G02*
X117156000Y-23008650I0J243750D01*
G01*
G37*
G36*
G01*
X115281000Y-23008650D02*
X115281000Y-22096150D01*
G75*
G02*
X115524750Y-21852400I243750J0D01*
G01*
X116012250Y-21852400D01*
G75*
G02*
X116256000Y-22096150I0J-243750D01*
G01*
X116256000Y-23008650D01*
G75*
G02*
X116012250Y-23252400I-243750J0D01*
G01*
X115524750Y-23252400D01*
G75*
G02*
X115281000Y-23008650I0J243750D01*
G01*
G37*
%TD*%
%TO.C,C8*%
G36*
G01*
X122301000Y-22096150D02*
X122301000Y-23008650D01*
G75*
G02*
X122057250Y-23252400I-243750J0D01*
G01*
X121569750Y-23252400D01*
G75*
G02*
X121326000Y-23008650I0J243750D01*
G01*
X121326000Y-22096150D01*
G75*
G02*
X121569750Y-21852400I243750J0D01*
G01*
X122057250Y-21852400D01*
G75*
G02*
X122301000Y-22096150I0J-243750D01*
G01*
G37*
G36*
G01*
X124176000Y-22096150D02*
X124176000Y-23008650D01*
G75*
G02*
X123932250Y-23252400I-243750J0D01*
G01*
X123444750Y-23252400D01*
G75*
G02*
X123201000Y-23008650I0J243750D01*
G01*
X123201000Y-22096150D01*
G75*
G02*
X123444750Y-21852400I243750J0D01*
G01*
X123932250Y-21852400D01*
G75*
G02*
X124176000Y-22096150I0J-243750D01*
G01*
G37*
%TD*%
D13*
%TO.C,J1*%
X136930000Y8070000D03*
X136930000Y5530000D03*
X134390000Y8070000D03*
X134390000Y5530000D03*
X131850000Y8070000D03*
X131850000Y5530000D03*
X129310000Y8070000D03*
X129310000Y5530000D03*
X126770000Y8070000D03*
X126770000Y5530000D03*
X124230000Y8070000D03*
X124230000Y5530000D03*
X121690000Y8070000D03*
X121690000Y5530000D03*
X119150000Y8070000D03*
X119150000Y5530000D03*
X116610000Y8070000D03*
X116610000Y5530000D03*
X114070000Y8070000D03*
X114070000Y5530000D03*
X111530000Y8070000D03*
X111530000Y5530000D03*
X108990000Y8070000D03*
X108990000Y5530000D03*
X106450000Y8070000D03*
X106450000Y5530000D03*
X103910000Y8070000D03*
X103910000Y5530000D03*
X101370000Y8070000D03*
X101370000Y5530000D03*
X98830000Y8070000D03*
X98830000Y5530000D03*
X96290000Y8070000D03*
X96290000Y5530000D03*
X93750000Y8070000D03*
X93750000Y5530000D03*
X91210000Y8070000D03*
X91210000Y5530000D03*
X88670000Y8070000D03*
D14*
X88670000Y5530000D03*
%TD*%
D13*
%TO.C,J5*%
X82530000Y-23040000D03*
X82530000Y-20500000D03*
X85070000Y-23040000D03*
X85070000Y-20500000D03*
X87610000Y-23040000D03*
D14*
X87610000Y-20500000D03*
%TD*%
D15*
%TO.C,J6*%
X89282000Y-36250000D03*
X136322000Y-36250000D03*
D16*
X97567000Y-37670000D03*
X100337000Y-37670000D03*
X103107000Y-37670000D03*
X105877000Y-37670000D03*
X108647000Y-37670000D03*
X111417000Y-37670000D03*
X114187000Y-37670000D03*
X116957000Y-37670000D03*
X119727000Y-37670000D03*
X122497000Y-37670000D03*
X125267000Y-37670000D03*
X128037000Y-37670000D03*
X96182000Y-34830000D03*
X98952000Y-34830000D03*
X101722000Y-34830000D03*
X104492000Y-34830000D03*
X107262000Y-34830000D03*
X110032000Y-34830000D03*
X112802000Y-34830000D03*
X115572000Y-34830000D03*
X118342000Y-34830000D03*
X121112000Y-34830000D03*
X123882000Y-34830000D03*
X126652000Y-34830000D03*
X129422000Y-34830000D03*
%TD*%
D17*
%TO.C,J9*%
X88772000Y-42688000D03*
X88772000Y-40688000D03*
X90772000Y-42688000D03*
X90772000Y-40688000D03*
X92772000Y-42688000D03*
X92772000Y-40688000D03*
X94772000Y-42688000D03*
X94772000Y-40688000D03*
X96772000Y-42688000D03*
X96772000Y-40688000D03*
X98772000Y-42688000D03*
X98772000Y-40688000D03*
X100772000Y-42688000D03*
X100772000Y-40688000D03*
X102772000Y-42688000D03*
X102772000Y-40688000D03*
X104772000Y-42688000D03*
X104772000Y-40688000D03*
X106772000Y-42688000D03*
X106772000Y-40688000D03*
X108772000Y-42688000D03*
X108772000Y-40688000D03*
X110772000Y-42688000D03*
X110772000Y-40688000D03*
X112772000Y-42688000D03*
X112772000Y-40688000D03*
X114772000Y-42688000D03*
X114772000Y-40688000D03*
X116772000Y-42688000D03*
X116772000Y-40688000D03*
X118772000Y-42688000D03*
X118772000Y-40688000D03*
X120772000Y-42688000D03*
X120772000Y-40688000D03*
X122772000Y-42688000D03*
X122772000Y-40688000D03*
X124772000Y-42688000D03*
X124772000Y-40688000D03*
X126772000Y-42688000D03*
D18*
X126772000Y-40688000D03*
D17*
X128772000Y-42688000D03*
X128772000Y-40688000D03*
X130772000Y-42688000D03*
X130772000Y-40688000D03*
X132772000Y-42688000D03*
X132772000Y-40688000D03*
X134772000Y-42688000D03*
X134772000Y-40688000D03*
X136772000Y-42688000D03*
D18*
X136772000Y-40688000D03*
%TD*%
D17*
%TO.C,J10*%
X143630000Y-38592000D03*
X143630000Y-36592000D03*
X143630000Y-34592000D03*
D18*
X143630000Y-32592000D03*
%TD*%
%TO.C,R4*%
G36*
G01*
X139406000Y-20693600D02*
X139776000Y-20693600D01*
G75*
G02*
X139911000Y-20828600I0J-135000D01*
G01*
X139911000Y-21098600D01*
G75*
G02*
X139776000Y-21233600I-135000J0D01*
G01*
X139406000Y-21233600D01*
G75*
G02*
X139271000Y-21098600I0J135000D01*
G01*
X139271000Y-20828600D01*
G75*
G02*
X139406000Y-20693600I135000J0D01*
G01*
G37*
G36*
G01*
X139406000Y-19673600D02*
X139776000Y-19673600D01*
G75*
G02*
X139911000Y-19808600I0J-135000D01*
G01*
X139911000Y-20078600D01*
G75*
G02*
X139776000Y-20213600I-135000J0D01*
G01*
X139406000Y-20213600D01*
G75*
G02*
X139271000Y-20078600I0J135000D01*
G01*
X139271000Y-19808600D01*
G75*
G02*
X139406000Y-19673600I135000J0D01*
G01*
G37*
%TD*%
%TO.C,R3*%
G36*
G01*
X139776000Y-22185400D02*
X139406000Y-22185400D01*
G75*
G02*
X139271000Y-22050400I0J135000D01*
G01*
X139271000Y-21780400D01*
G75*
G02*
X139406000Y-21645400I135000J0D01*
G01*
X139776000Y-21645400D01*
G75*
G02*
X139911000Y-21780400I0J-135000D01*
G01*
X139911000Y-22050400D01*
G75*
G02*
X139776000Y-22185400I-135000J0D01*
G01*
G37*
G36*
G01*
X139776000Y-23205400D02*
X139406000Y-23205400D01*
G75*
G02*
X139271000Y-23070400I0J135000D01*
G01*
X139271000Y-22800400D01*
G75*
G02*
X139406000Y-22665400I135000J0D01*
G01*
X139776000Y-22665400D01*
G75*
G02*
X139911000Y-22800400I0J-135000D01*
G01*
X139911000Y-23070400D01*
G75*
G02*
X139776000Y-23205400I-135000J0D01*
G01*
G37*
%TD*%
%TO.C,R2*%
G36*
G01*
X138998000Y3275500D02*
X138998000Y3645500D01*
G75*
G02*
X139133000Y3780500I135000J0D01*
G01*
X139403000Y3780500D01*
G75*
G02*
X139538000Y3645500I0J-135000D01*
G01*
X139538000Y3275500D01*
G75*
G02*
X139403000Y3140500I-135000J0D01*
G01*
X139133000Y3140500D01*
G75*
G02*
X138998000Y3275500I0J135000D01*
G01*
G37*
G36*
G01*
X137978000Y3275500D02*
X137978000Y3645500D01*
G75*
G02*
X138113000Y3780500I135000J0D01*
G01*
X138383000Y3780500D01*
G75*
G02*
X138518000Y3645500I0J-135000D01*
G01*
X138518000Y3275500D01*
G75*
G02*
X138383000Y3140500I-135000J0D01*
G01*
X138113000Y3140500D01*
G75*
G02*
X137978000Y3275500I0J135000D01*
G01*
G37*
%TD*%
%TO.C,R1*%
G36*
G01*
X138998000Y2259500D02*
X138998000Y2629500D01*
G75*
G02*
X139133000Y2764500I135000J0D01*
G01*
X139403000Y2764500D01*
G75*
G02*
X139538000Y2629500I0J-135000D01*
G01*
X139538000Y2259500D01*
G75*
G02*
X139403000Y2124500I-135000J0D01*
G01*
X139133000Y2124500D01*
G75*
G02*
X138998000Y2259500I0J135000D01*
G01*
G37*
G36*
G01*
X137978000Y2259500D02*
X137978000Y2629500D01*
G75*
G02*
X138113000Y2764500I135000J0D01*
G01*
X138383000Y2764500D01*
G75*
G02*
X138518000Y2629500I0J-135000D01*
G01*
X138518000Y2259500D01*
G75*
G02*
X138383000Y2124500I-135000J0D01*
G01*
X138113000Y2124500D01*
G75*
G02*
X137978000Y2259500I0J135000D01*
G01*
G37*
%TD*%
%TO.C,R22*%
G36*
G01*
X104573000Y1991000D02*
X104943000Y1991000D01*
G75*
G02*
X105078000Y1856000I0J-135000D01*
G01*
X105078000Y1586000D01*
G75*
G02*
X104943000Y1451000I-135000J0D01*
G01*
X104573000Y1451000D01*
G75*
G02*
X104438000Y1586000I0J135000D01*
G01*
X104438000Y1856000D01*
G75*
G02*
X104573000Y1991000I135000J0D01*
G01*
G37*
G36*
G01*
X104573000Y3011000D02*
X104943000Y3011000D01*
G75*
G02*
X105078000Y2876000I0J-135000D01*
G01*
X105078000Y2606000D01*
G75*
G02*
X104943000Y2471000I-135000J0D01*
G01*
X104573000Y2471000D01*
G75*
G02*
X104438000Y2606000I0J135000D01*
G01*
X104438000Y2876000D01*
G75*
G02*
X104573000Y3011000I135000J0D01*
G01*
G37*
%TD*%
%TO.C,R21*%
G36*
G01*
X103303000Y1991000D02*
X103673000Y1991000D01*
G75*
G02*
X103808000Y1856000I0J-135000D01*
G01*
X103808000Y1586000D01*
G75*
G02*
X103673000Y1451000I-135000J0D01*
G01*
X103303000Y1451000D01*
G75*
G02*
X103168000Y1586000I0J135000D01*
G01*
X103168000Y1856000D01*
G75*
G02*
X103303000Y1991000I135000J0D01*
G01*
G37*
G36*
G01*
X103303000Y3011000D02*
X103673000Y3011000D01*
G75*
G02*
X103808000Y2876000I0J-135000D01*
G01*
X103808000Y2606000D01*
G75*
G02*
X103673000Y2471000I-135000J0D01*
G01*
X103303000Y2471000D01*
G75*
G02*
X103168000Y2606000I0J135000D01*
G01*
X103168000Y2876000D01*
G75*
G02*
X103303000Y3011000I135000J0D01*
G01*
G37*
%TD*%
%TO.C,R20*%
G36*
G01*
X102033000Y1991000D02*
X102403000Y1991000D01*
G75*
G02*
X102538000Y1856000I0J-135000D01*
G01*
X102538000Y1586000D01*
G75*
G02*
X102403000Y1451000I-135000J0D01*
G01*
X102033000Y1451000D01*
G75*
G02*
X101898000Y1586000I0J135000D01*
G01*
X101898000Y1856000D01*
G75*
G02*
X102033000Y1991000I135000J0D01*
G01*
G37*
G36*
G01*
X102033000Y3011000D02*
X102403000Y3011000D01*
G75*
G02*
X102538000Y2876000I0J-135000D01*
G01*
X102538000Y2606000D01*
G75*
G02*
X102403000Y2471000I-135000J0D01*
G01*
X102033000Y2471000D01*
G75*
G02*
X101898000Y2606000I0J135000D01*
G01*
X101898000Y2876000D01*
G75*
G02*
X102033000Y3011000I135000J0D01*
G01*
G37*
%TD*%
%TO.C,R19*%
G36*
G01*
X100773000Y1991000D02*
X101143000Y1991000D01*
G75*
G02*
X101278000Y1856000I0J-135000D01*
G01*
X101278000Y1586000D01*
G75*
G02*
X101143000Y1451000I-135000J0D01*
G01*
X100773000Y1451000D01*
G75*
G02*
X100638000Y1586000I0J135000D01*
G01*
X100638000Y1856000D01*
G75*
G02*
X100773000Y1991000I135000J0D01*
G01*
G37*
G36*
G01*
X100773000Y3011000D02*
X101143000Y3011000D01*
G75*
G02*
X101278000Y2876000I0J-135000D01*
G01*
X101278000Y2606000D01*
G75*
G02*
X101143000Y2471000I-135000J0D01*
G01*
X100773000Y2471000D01*
G75*
G02*
X100638000Y2606000I0J135000D01*
G01*
X100638000Y2876000D01*
G75*
G02*
X100773000Y3011000I135000J0D01*
G01*
G37*
%TD*%
%TO.C,R18*%
G36*
G01*
X92356000Y1991000D02*
X92726000Y1991000D01*
G75*
G02*
X92861000Y1856000I0J-135000D01*
G01*
X92861000Y1586000D01*
G75*
G02*
X92726000Y1451000I-135000J0D01*
G01*
X92356000Y1451000D01*
G75*
G02*
X92221000Y1586000I0J135000D01*
G01*
X92221000Y1856000D01*
G75*
G02*
X92356000Y1991000I135000J0D01*
G01*
G37*
G36*
G01*
X92356000Y3011000D02*
X92726000Y3011000D01*
G75*
G02*
X92861000Y2876000I0J-135000D01*
G01*
X92861000Y2606000D01*
G75*
G02*
X92726000Y2471000I-135000J0D01*
G01*
X92356000Y2471000D01*
G75*
G02*
X92221000Y2606000I0J135000D01*
G01*
X92221000Y2876000D01*
G75*
G02*
X92356000Y3011000I135000J0D01*
G01*
G37*
%TD*%
%TO.C,R17*%
G36*
G01*
X91086000Y1991000D02*
X91456000Y1991000D01*
G75*
G02*
X91591000Y1856000I0J-135000D01*
G01*
X91591000Y1586000D01*
G75*
G02*
X91456000Y1451000I-135000J0D01*
G01*
X91086000Y1451000D01*
G75*
G02*
X90951000Y1586000I0J135000D01*
G01*
X90951000Y1856000D01*
G75*
G02*
X91086000Y1991000I135000J0D01*
G01*
G37*
G36*
G01*
X91086000Y3011000D02*
X91456000Y3011000D01*
G75*
G02*
X91591000Y2876000I0J-135000D01*
G01*
X91591000Y2606000D01*
G75*
G02*
X91456000Y2471000I-135000J0D01*
G01*
X91086000Y2471000D01*
G75*
G02*
X90951000Y2606000I0J135000D01*
G01*
X90951000Y2876000D01*
G75*
G02*
X91086000Y3011000I135000J0D01*
G01*
G37*
%TD*%
%TO.C,R16*%
G36*
G01*
X89816000Y1991000D02*
X90186000Y1991000D01*
G75*
G02*
X90321000Y1856000I0J-135000D01*
G01*
X90321000Y1586000D01*
G75*
G02*
X90186000Y1451000I-135000J0D01*
G01*
X89816000Y1451000D01*
G75*
G02*
X89681000Y1586000I0J135000D01*
G01*
X89681000Y1856000D01*
G75*
G02*
X89816000Y1991000I135000J0D01*
G01*
G37*
G36*
G01*
X89816000Y3011000D02*
X90186000Y3011000D01*
G75*
G02*
X90321000Y2876000I0J-135000D01*
G01*
X90321000Y2606000D01*
G75*
G02*
X90186000Y2471000I-135000J0D01*
G01*
X89816000Y2471000D01*
G75*
G02*
X89681000Y2606000I0J135000D01*
G01*
X89681000Y2876000D01*
G75*
G02*
X89816000Y3011000I135000J0D01*
G01*
G37*
%TD*%
%TO.C,R15*%
G36*
G01*
X88546000Y1991000D02*
X88916000Y1991000D01*
G75*
G02*
X89051000Y1856000I0J-135000D01*
G01*
X89051000Y1586000D01*
G75*
G02*
X88916000Y1451000I-135000J0D01*
G01*
X88546000Y1451000D01*
G75*
G02*
X88411000Y1586000I0J135000D01*
G01*
X88411000Y1856000D01*
G75*
G02*
X88546000Y1991000I135000J0D01*
G01*
G37*
G36*
G01*
X88546000Y3011000D02*
X88916000Y3011000D01*
G75*
G02*
X89051000Y2876000I0J-135000D01*
G01*
X89051000Y2606000D01*
G75*
G02*
X88916000Y2471000I-135000J0D01*
G01*
X88546000Y2471000D01*
G75*
G02*
X88411000Y2606000I0J135000D01*
G01*
X88411000Y2876000D01*
G75*
G02*
X88546000Y3011000I135000J0D01*
G01*
G37*
%TD*%
%TO.C,R14*%
G36*
G01*
X87276000Y1991000D02*
X87646000Y1991000D01*
G75*
G02*
X87781000Y1856000I0J-135000D01*
G01*
X87781000Y1586000D01*
G75*
G02*
X87646000Y1451000I-135000J0D01*
G01*
X87276000Y1451000D01*
G75*
G02*
X87141000Y1586000I0J135000D01*
G01*
X87141000Y1856000D01*
G75*
G02*
X87276000Y1991000I135000J0D01*
G01*
G37*
G36*
G01*
X87276000Y3011000D02*
X87646000Y3011000D01*
G75*
G02*
X87781000Y2876000I0J-135000D01*
G01*
X87781000Y2606000D01*
G75*
G02*
X87646000Y2471000I-135000J0D01*
G01*
X87276000Y2471000D01*
G75*
G02*
X87141000Y2606000I0J135000D01*
G01*
X87141000Y2876000D01*
G75*
G02*
X87276000Y3011000I135000J0D01*
G01*
G37*
%TD*%
%TO.C,R13*%
G36*
G01*
X123201000Y1998000D02*
X123571000Y1998000D01*
G75*
G02*
X123706000Y1863000I0J-135000D01*
G01*
X123706000Y1593000D01*
G75*
G02*
X123571000Y1458000I-135000J0D01*
G01*
X123201000Y1458000D01*
G75*
G02*
X123066000Y1593000I0J135000D01*
G01*
X123066000Y1863000D01*
G75*
G02*
X123201000Y1998000I135000J0D01*
G01*
G37*
G36*
G01*
X123201000Y3018000D02*
X123571000Y3018000D01*
G75*
G02*
X123706000Y2883000I0J-135000D01*
G01*
X123706000Y2613000D01*
G75*
G02*
X123571000Y2478000I-135000J0D01*
G01*
X123201000Y2478000D01*
G75*
G02*
X123066000Y2613000I0J135000D01*
G01*
X123066000Y2883000D01*
G75*
G02*
X123201000Y3018000I135000J0D01*
G01*
G37*
%TD*%
%TO.C,R12*%
G36*
G01*
X121947000Y1991000D02*
X122317000Y1991000D01*
G75*
G02*
X122452000Y1856000I0J-135000D01*
G01*
X122452000Y1586000D01*
G75*
G02*
X122317000Y1451000I-135000J0D01*
G01*
X121947000Y1451000D01*
G75*
G02*
X121812000Y1586000I0J135000D01*
G01*
X121812000Y1856000D01*
G75*
G02*
X121947000Y1991000I135000J0D01*
G01*
G37*
G36*
G01*
X121947000Y3011000D02*
X122317000Y3011000D01*
G75*
G02*
X122452000Y2876000I0J-135000D01*
G01*
X122452000Y2606000D01*
G75*
G02*
X122317000Y2471000I-135000J0D01*
G01*
X121947000Y2471000D01*
G75*
G02*
X121812000Y2606000I0J135000D01*
G01*
X121812000Y2876000D01*
G75*
G02*
X121947000Y3011000I135000J0D01*
G01*
G37*
%TD*%
%TO.C,R11*%
G36*
G01*
X116816000Y1991000D02*
X117186000Y1991000D01*
G75*
G02*
X117321000Y1856000I0J-135000D01*
G01*
X117321000Y1586000D01*
G75*
G02*
X117186000Y1451000I-135000J0D01*
G01*
X116816000Y1451000D01*
G75*
G02*
X116681000Y1586000I0J135000D01*
G01*
X116681000Y1856000D01*
G75*
G02*
X116816000Y1991000I135000J0D01*
G01*
G37*
G36*
G01*
X116816000Y3011000D02*
X117186000Y3011000D01*
G75*
G02*
X117321000Y2876000I0J-135000D01*
G01*
X117321000Y2606000D01*
G75*
G02*
X117186000Y2471000I-135000J0D01*
G01*
X116816000Y2471000D01*
G75*
G02*
X116681000Y2606000I0J135000D01*
G01*
X116681000Y2876000D01*
G75*
G02*
X116816000Y3011000I135000J0D01*
G01*
G37*
%TD*%
%TO.C,R10*%
G36*
G01*
X115546000Y1991000D02*
X115916000Y1991000D01*
G75*
G02*
X116051000Y1856000I0J-135000D01*
G01*
X116051000Y1586000D01*
G75*
G02*
X115916000Y1451000I-135000J0D01*
G01*
X115546000Y1451000D01*
G75*
G02*
X115411000Y1586000I0J135000D01*
G01*
X115411000Y1856000D01*
G75*
G02*
X115546000Y1991000I135000J0D01*
G01*
G37*
G36*
G01*
X115546000Y3011000D02*
X115916000Y3011000D01*
G75*
G02*
X116051000Y2876000I0J-135000D01*
G01*
X116051000Y2606000D01*
G75*
G02*
X115916000Y2471000I-135000J0D01*
G01*
X115546000Y2471000D01*
G75*
G02*
X115411000Y2606000I0J135000D01*
G01*
X115411000Y2876000D01*
G75*
G02*
X115546000Y3011000I135000J0D01*
G01*
G37*
%TD*%
%TO.C,R9*%
G36*
G01*
X114276000Y1991000D02*
X114646000Y1991000D01*
G75*
G02*
X114781000Y1856000I0J-135000D01*
G01*
X114781000Y1586000D01*
G75*
G02*
X114646000Y1451000I-135000J0D01*
G01*
X114276000Y1451000D01*
G75*
G02*
X114141000Y1586000I0J135000D01*
G01*
X114141000Y1856000D01*
G75*
G02*
X114276000Y1991000I135000J0D01*
G01*
G37*
G36*
G01*
X114276000Y3011000D02*
X114646000Y3011000D01*
G75*
G02*
X114781000Y2876000I0J-135000D01*
G01*
X114781000Y2606000D01*
G75*
G02*
X114646000Y2471000I-135000J0D01*
G01*
X114276000Y2471000D01*
G75*
G02*
X114141000Y2606000I0J135000D01*
G01*
X114141000Y2876000D01*
G75*
G02*
X114276000Y3011000I135000J0D01*
G01*
G37*
%TD*%
%TO.C,R8*%
G36*
G01*
X130798000Y1991000D02*
X131168000Y1991000D01*
G75*
G02*
X131303000Y1856000I0J-135000D01*
G01*
X131303000Y1586000D01*
G75*
G02*
X131168000Y1451000I-135000J0D01*
G01*
X130798000Y1451000D01*
G75*
G02*
X130663000Y1586000I0J135000D01*
G01*
X130663000Y1856000D01*
G75*
G02*
X130798000Y1991000I135000J0D01*
G01*
G37*
G36*
G01*
X130798000Y3011000D02*
X131168000Y3011000D01*
G75*
G02*
X131303000Y2876000I0J-135000D01*
G01*
X131303000Y2606000D01*
G75*
G02*
X131168000Y2471000I-135000J0D01*
G01*
X130798000Y2471000D01*
G75*
G02*
X130663000Y2606000I0J135000D01*
G01*
X130663000Y2876000D01*
G75*
G02*
X130798000Y3011000I135000J0D01*
G01*
G37*
%TD*%
%TO.C,R7*%
G36*
G01*
X129528000Y1991000D02*
X129898000Y1991000D01*
G75*
G02*
X130033000Y1856000I0J-135000D01*
G01*
X130033000Y1586000D01*
G75*
G02*
X129898000Y1451000I-135000J0D01*
G01*
X129528000Y1451000D01*
G75*
G02*
X129393000Y1586000I0J135000D01*
G01*
X129393000Y1856000D01*
G75*
G02*
X129528000Y1991000I135000J0D01*
G01*
G37*
G36*
G01*
X129528000Y3011000D02*
X129898000Y3011000D01*
G75*
G02*
X130033000Y2876000I0J-135000D01*
G01*
X130033000Y2606000D01*
G75*
G02*
X129898000Y2471000I-135000J0D01*
G01*
X129528000Y2471000D01*
G75*
G02*
X129393000Y2606000I0J135000D01*
G01*
X129393000Y2876000D01*
G75*
G02*
X129528000Y3011000I135000J0D01*
G01*
G37*
%TD*%
%TO.C,R6*%
G36*
G01*
X127293000Y1991000D02*
X127663000Y1991000D01*
G75*
G02*
X127798000Y1856000I0J-135000D01*
G01*
X127798000Y1586000D01*
G75*
G02*
X127663000Y1451000I-135000J0D01*
G01*
X127293000Y1451000D01*
G75*
G02*
X127158000Y1586000I0J135000D01*
G01*
X127158000Y1856000D01*
G75*
G02*
X127293000Y1991000I135000J0D01*
G01*
G37*
G36*
G01*
X127293000Y3011000D02*
X127663000Y3011000D01*
G75*
G02*
X127798000Y2876000I0J-135000D01*
G01*
X127798000Y2606000D01*
G75*
G02*
X127663000Y2471000I-135000J0D01*
G01*
X127293000Y2471000D01*
G75*
G02*
X127158000Y2606000I0J135000D01*
G01*
X127158000Y2876000D01*
G75*
G02*
X127293000Y3011000I135000J0D01*
G01*
G37*
%TD*%
%TO.C,R5*%
G36*
G01*
X126023000Y1991000D02*
X126393000Y1991000D01*
G75*
G02*
X126528000Y1856000I0J-135000D01*
G01*
X126528000Y1586000D01*
G75*
G02*
X126393000Y1451000I-135000J0D01*
G01*
X126023000Y1451000D01*
G75*
G02*
X125888000Y1586000I0J135000D01*
G01*
X125888000Y1856000D01*
G75*
G02*
X126023000Y1991000I135000J0D01*
G01*
G37*
G36*
G01*
X126023000Y3011000D02*
X126393000Y3011000D01*
G75*
G02*
X126528000Y2876000I0J-135000D01*
G01*
X126528000Y2606000D01*
G75*
G02*
X126393000Y2471000I-135000J0D01*
G01*
X126023000Y2471000D01*
G75*
G02*
X125888000Y2606000I0J135000D01*
G01*
X125888000Y2876000D01*
G75*
G02*
X126023000Y3011000I135000J0D01*
G01*
G37*
%TD*%
D13*
%TO.C,J3*%
X143226000Y-27654500D03*
X143226000Y-30194500D03*
X140686000Y-27654500D03*
X140686000Y-30194500D03*
X138146000Y-27654500D03*
X138146000Y-30194500D03*
X135606000Y-27654500D03*
X135606000Y-30194500D03*
X133066000Y-27654500D03*
X133066000Y-30194500D03*
X130526000Y-27654500D03*
X130526000Y-30194500D03*
X127986000Y-27654500D03*
X127986000Y-30194500D03*
X125446000Y-27654500D03*
X125446000Y-30194500D03*
X122906000Y-27654500D03*
X122906000Y-30194500D03*
X120366000Y-27654500D03*
X120366000Y-30194500D03*
X117826000Y-27654500D03*
X117826000Y-30194500D03*
X115286000Y-27654500D03*
X115286000Y-30194500D03*
X112746000Y-27654500D03*
X112746000Y-30194500D03*
X110206000Y-27654500D03*
X110206000Y-30194500D03*
X107666000Y-27654500D03*
X107666000Y-30194500D03*
X105126000Y-27654500D03*
X105126000Y-30194500D03*
X102586000Y-27654500D03*
X102586000Y-30194500D03*
X100046000Y-27654500D03*
X100046000Y-30194500D03*
X97506000Y-27654500D03*
X97506000Y-30194500D03*
X94966000Y-27654500D03*
X94966000Y-30194500D03*
X92426000Y-27654500D03*
X92426000Y-30194500D03*
X89886000Y-27654500D03*
X89886000Y-30194500D03*
X87346000Y-27654500D03*
X87346000Y-30194500D03*
X84806000Y-27654500D03*
X84806000Y-30194500D03*
X82266000Y-27654500D03*
D14*
X82266000Y-30194500D03*
%TD*%
D19*
%TO.C,J8*%
X140705000Y-12235000D03*
X140705000Y-5085000D03*
X144155000Y-5085000D03*
X144155000Y-12235000D03*
D20*
X141205000Y-7360000D03*
X141205000Y-8010000D03*
X141205000Y-8660000D03*
X141205000Y-9310000D03*
X141205000Y-9960000D03*
%TD*%
D21*
%TO.C,D5*%
X133267000Y-15081800D03*
X133267000Y-17881800D03*
%TD*%
D13*
%TO.C,J2*%
X139226000Y857000D03*
D14*
X139226000Y-1683000D03*
%TD*%
D13*
%TO.C,J7*%
X84920000Y2280000D03*
D14*
X82380000Y2280000D03*
%TD*%
%TO.C,FUSE1*%
G36*
G01*
X129801000Y-17269200D02*
X131051000Y-17269200D01*
G75*
G02*
X131301000Y-17519200I0J-250000D01*
G01*
X131301000Y-18269200D01*
G75*
G02*
X131051000Y-18519200I-250000J0D01*
G01*
X129801000Y-18519200D01*
G75*
G02*
X129551000Y-18269200I0J250000D01*
G01*
X129551000Y-17519200D01*
G75*
G02*
X129801000Y-17269200I250000J0D01*
G01*
G37*
G36*
G01*
X129801000Y-14469200D02*
X131051000Y-14469200D01*
G75*
G02*
X131301000Y-14719200I0J-250000D01*
G01*
X131301000Y-15469200D01*
G75*
G02*
X131051000Y-15719200I-250000J0D01*
G01*
X129801000Y-15719200D01*
G75*
G02*
X129551000Y-15469200I0J250000D01*
G01*
X129551000Y-14719200D01*
G75*
G02*
X129801000Y-14469200I250000J0D01*
G01*
G37*
%TD*%
D22*
%TO.C,H2*%
X143231891Y8231891D03*
X141800000Y8825000D03*
X140368109Y8231891D03*
X139775000Y6800000D03*
X140368109Y5368109D03*
X141800000Y4775000D03*
X143231891Y5368109D03*
X143825000Y6800000D03*
D23*
X141800000Y6800000D03*
%TD*%
D22*
%TO.C,H1*%
X85231891Y8231891D03*
X83800000Y8825000D03*
X82368109Y8231891D03*
X81775000Y6800000D03*
X82368109Y5368109D03*
X83800000Y4775000D03*
X85231891Y5368109D03*
X85825000Y6800000D03*
D23*
X83800000Y6800000D03*
%TD*%
D13*
%TO.C,J4*%
X82086000Y-810000D03*
X82086000Y-3350000D03*
X82086000Y-5890000D03*
X82086000Y-8430000D03*
D14*
X82086000Y-10970000D03*
%TD*%
D22*
%TO.C,H6*%
X143231891Y-40768109D03*
X141800000Y-40175000D03*
X140368109Y-40768109D03*
X139775000Y-42200000D03*
X140368109Y-43631891D03*
X141800000Y-44225000D03*
X143231891Y-43631891D03*
X143825000Y-42200000D03*
D23*
X141800000Y-42200000D03*
%TD*%
D22*
%TO.C,H5*%
X85231891Y-40768109D03*
X83800000Y-40175000D03*
X82368109Y-40768109D03*
X81775000Y-42200000D03*
X82368109Y-43631891D03*
X83800000Y-44225000D03*
X85231891Y-43631891D03*
X85825000Y-42200000D03*
D23*
X83800000Y-42200000D03*
%TD*%
D22*
%TO.C,H4*%
X143231891Y-14768109D03*
X141800000Y-14175000D03*
X140368109Y-14768109D03*
X139775000Y-16200000D03*
X140368109Y-17631891D03*
X141800000Y-18225000D03*
X143231891Y-17631891D03*
X143825000Y-16200000D03*
D23*
X141800000Y-16200000D03*
%TD*%
D22*
%TO.C,H3*%
X85231891Y-14768109D03*
X83800000Y-14175000D03*
X82368109Y-14768109D03*
X81775000Y-16200000D03*
X82368109Y-17631891D03*
X83800000Y-18225000D03*
X85231891Y-17631891D03*
X85825000Y-16200000D03*
D23*
X83800000Y-16200000D03*
%TD*%
%TO.C,D4*%
G36*
G01*
X141377000Y-20013350D02*
X141377000Y-20925850D01*
G75*
G02*
X141133250Y-21169600I-243750J0D01*
G01*
X140645750Y-21169600D01*
G75*
G02*
X140402000Y-20925850I0J243750D01*
G01*
X140402000Y-20013350D01*
G75*
G02*
X140645750Y-19769600I243750J0D01*
G01*
X141133250Y-19769600D01*
G75*
G02*
X141377000Y-20013350I0J-243750D01*
G01*
G37*
G36*
G01*
X143252000Y-20013350D02*
X143252000Y-20925850D01*
G75*
G02*
X143008250Y-21169600I-243750J0D01*
G01*
X142520750Y-21169600D01*
G75*
G02*
X142277000Y-20925850I0J243750D01*
G01*
X142277000Y-20013350D01*
G75*
G02*
X142520750Y-19769600I243750J0D01*
G01*
X143008250Y-19769600D01*
G75*
G02*
X143252000Y-20013350I0J-243750D01*
G01*
G37*
%TD*%
%TO.C,D3*%
G36*
G01*
X141380000Y-21965850D02*
X141380000Y-22878350D01*
G75*
G02*
X141136250Y-23122100I-243750J0D01*
G01*
X140648750Y-23122100D01*
G75*
G02*
X140405000Y-22878350I0J243750D01*
G01*
X140405000Y-21965850D01*
G75*
G02*
X140648750Y-21722100I243750J0D01*
G01*
X141136250Y-21722100D01*
G75*
G02*
X141380000Y-21965850I0J-243750D01*
G01*
G37*
G36*
G01*
X143255000Y-21965850D02*
X143255000Y-22878350D01*
G75*
G02*
X143011250Y-23122100I-243750J0D01*
G01*
X142523750Y-23122100D01*
G75*
G02*
X142280000Y-22878350I0J243750D01*
G01*
X142280000Y-21965850D01*
G75*
G02*
X142523750Y-21722100I243750J0D01*
G01*
X143011250Y-21722100D01*
G75*
G02*
X143255000Y-21965850I0J-243750D01*
G01*
G37*
%TD*%
%TO.C,D2*%
G36*
G01*
X142142000Y-1099750D02*
X142142000Y-2012250D01*
G75*
G02*
X141898250Y-2256000I-243750J0D01*
G01*
X141410750Y-2256000D01*
G75*
G02*
X141167000Y-2012250I0J243750D01*
G01*
X141167000Y-1099750D01*
G75*
G02*
X141410750Y-856000I243750J0D01*
G01*
X141898250Y-856000D01*
G75*
G02*
X142142000Y-1099750I0J-243750D01*
G01*
G37*
G36*
G01*
X144017000Y-1099750D02*
X144017000Y-2012250D01*
G75*
G02*
X143773250Y-2256000I-243750J0D01*
G01*
X143285750Y-2256000D01*
G75*
G02*
X143042000Y-2012250I0J243750D01*
G01*
X143042000Y-1099750D01*
G75*
G02*
X143285750Y-856000I243750J0D01*
G01*
X143773250Y-856000D01*
G75*
G02*
X144017000Y-1099750I0J-243750D01*
G01*
G37*
%TD*%
%TO.C,D1*%
G36*
G01*
X142254000Y2837250D02*
X142254000Y1924750D01*
G75*
G02*
X142010250Y1681000I-243750J0D01*
G01*
X141522750Y1681000D01*
G75*
G02*
X141279000Y1924750I0J243750D01*
G01*
X141279000Y2837250D01*
G75*
G02*
X141522750Y3081000I243750J0D01*
G01*
X142010250Y3081000D01*
G75*
G02*
X142254000Y2837250I0J-243750D01*
G01*
G37*
G36*
G01*
X144129000Y2837250D02*
X144129000Y1924750D01*
G75*
G02*
X143885250Y1681000I-243750J0D01*
G01*
X143397750Y1681000D01*
G75*
G02*
X143154000Y1924750I0J243750D01*
G01*
X143154000Y2837250D01*
G75*
G02*
X143397750Y3081000I243750J0D01*
G01*
X143885250Y3081000D01*
G75*
G02*
X144129000Y2837250I0J-243750D01*
G01*
G37*
%TD*%
M02*
