%TF.GenerationSoftware,KiCad,Pcbnew,(5.1.6-0-10_14)*%
%TF.CreationDate,2021-08-11T10:29:46+02:00*%
%TF.ProjectId,rascsi_2p4,72617363-7369-45f3-9270-342e6b696361,rev?*%
%TF.SameCoordinates,PX59d60c0PY325aa00*%
%TF.FileFunction,Soldermask,Top*%
%TF.FilePolarity,Negative*%
%FSLAX46Y46*%
G04 Gerber Fmt 4.6, Leading zero omitted, Abs format (unit mm)*
G04 Created by KiCad (PCBNEW (5.1.6-0-10_14)) date 2021-08-11 10:29:46*
%MOMM*%
%LPD*%
G01*
G04 APERTURE LIST*
%TA.AperFunction,Profile*%
%ADD10C,0.050000*%
%TD*%
%ADD11O,1.700000X1.700000*%
%ADD12R,1.700000X1.700000*%
%ADD13C,1.800000*%
%ADD14R,1.800000X1.800000*%
%ADD15C,4.845000*%
%ADD16C,1.545000*%
%ADD17O,1.350000X1.350000*%
%ADD18R,1.350000X1.350000*%
%ADD19C,2.000000*%
%ADD20R,1.400000X0.400000*%
%ADD21R,1.100000X1.100000*%
%ADD22C,0.800000*%
%ADD23C,5.400000*%
%ADD24R,1.425000X0.750000*%
G04 APERTURE END LIST*
D10*
X83800000Y-45696000D02*
X141800000Y-45696000D01*
X83800000Y-45696000D02*
G75*
G02*
X80300000Y-42196000I0J3500000D01*
G01*
X145300000Y-42196000D02*
G75*
G02*
X141800000Y-45696000I-3500000J0D01*
G01*
X80300000Y6800000D02*
X80300000Y-42196000D01*
X145300000Y6800000D02*
X145300000Y-42196000D01*
X83800000Y10300000D02*
X141800000Y10300000D01*
X80300000Y6800000D02*
G75*
G02*
X83800000Y10300000I3500000J0D01*
G01*
X141800000Y10300000D02*
G75*
G02*
X145300000Y6800000I0J-3500000D01*
G01*
%TO.C,C5*%
G36*
G01*
X136148250Y-8678500D02*
X135235750Y-8678500D01*
G75*
G02*
X134992000Y-8434750I0J243750D01*
G01*
X134992000Y-7947250D01*
G75*
G02*
X135235750Y-7703500I243750J0D01*
G01*
X136148250Y-7703500D01*
G75*
G02*
X136392000Y-7947250I0J-243750D01*
G01*
X136392000Y-8434750D01*
G75*
G02*
X136148250Y-8678500I-243750J0D01*
G01*
G37*
G36*
G01*
X136148250Y-10553500D02*
X135235750Y-10553500D01*
G75*
G02*
X134992000Y-10309750I0J243750D01*
G01*
X134992000Y-9822250D01*
G75*
G02*
X135235750Y-9578500I243750J0D01*
G01*
X136148250Y-9578500D01*
G75*
G02*
X136392000Y-9822250I0J-243750D01*
G01*
X136392000Y-10309750D01*
G75*
G02*
X136148250Y-10553500I-243750J0D01*
G01*
G37*
%TD*%
%TO.C,C4*%
G36*
G01*
X113092000Y-7870250D02*
X113092000Y-6957750D01*
G75*
G02*
X113335750Y-6714000I243750J0D01*
G01*
X113823250Y-6714000D01*
G75*
G02*
X114067000Y-6957750I0J-243750D01*
G01*
X114067000Y-7870250D01*
G75*
G02*
X113823250Y-8114000I-243750J0D01*
G01*
X113335750Y-8114000D01*
G75*
G02*
X113092000Y-7870250I0J243750D01*
G01*
G37*
G36*
G01*
X111217000Y-7870250D02*
X111217000Y-6957750D01*
G75*
G02*
X111460750Y-6714000I243750J0D01*
G01*
X111948250Y-6714000D01*
G75*
G02*
X112192000Y-6957750I0J-243750D01*
G01*
X112192000Y-7870250D01*
G75*
G02*
X111948250Y-8114000I-243750J0D01*
G01*
X111460750Y-8114000D01*
G75*
G02*
X111217000Y-7870250I0J243750D01*
G01*
G37*
%TD*%
%TO.C,C6*%
G36*
G01*
X127361750Y-23294500D02*
X128274250Y-23294500D01*
G75*
G02*
X128518000Y-23538250I0J-243750D01*
G01*
X128518000Y-24025750D01*
G75*
G02*
X128274250Y-24269500I-243750J0D01*
G01*
X127361750Y-24269500D01*
G75*
G02*
X127118000Y-24025750I0J243750D01*
G01*
X127118000Y-23538250D01*
G75*
G02*
X127361750Y-23294500I243750J0D01*
G01*
G37*
G36*
G01*
X127361750Y-21419500D02*
X128274250Y-21419500D01*
G75*
G02*
X128518000Y-21663250I0J-243750D01*
G01*
X128518000Y-22150750D01*
G75*
G02*
X128274250Y-22394500I-243750J0D01*
G01*
X127361750Y-22394500D01*
G75*
G02*
X127118000Y-22150750I0J243750D01*
G01*
X127118000Y-21663250D01*
G75*
G02*
X127361750Y-21419500I243750J0D01*
G01*
G37*
%TD*%
%TO.C,C3*%
G36*
G01*
X113092000Y-5711250D02*
X113092000Y-4798750D01*
G75*
G02*
X113335750Y-4555000I243750J0D01*
G01*
X113823250Y-4555000D01*
G75*
G02*
X114067000Y-4798750I0J-243750D01*
G01*
X114067000Y-5711250D01*
G75*
G02*
X113823250Y-5955000I-243750J0D01*
G01*
X113335750Y-5955000D01*
G75*
G02*
X113092000Y-5711250I0J243750D01*
G01*
G37*
G36*
G01*
X111217000Y-5711250D02*
X111217000Y-4798750D01*
G75*
G02*
X111460750Y-4555000I243750J0D01*
G01*
X111948250Y-4555000D01*
G75*
G02*
X112192000Y-4798750I0J-243750D01*
G01*
X112192000Y-5711250D01*
G75*
G02*
X111948250Y-5955000I-243750J0D01*
G01*
X111460750Y-5955000D01*
G75*
G02*
X111217000Y-5711250I0J243750D01*
G01*
G37*
%TD*%
%TO.C,C2*%
G36*
G01*
X113092000Y-3488750D02*
X113092000Y-2576250D01*
G75*
G02*
X113335750Y-2332500I243750J0D01*
G01*
X113823250Y-2332500D01*
G75*
G02*
X114067000Y-2576250I0J-243750D01*
G01*
X114067000Y-3488750D01*
G75*
G02*
X113823250Y-3732500I-243750J0D01*
G01*
X113335750Y-3732500D01*
G75*
G02*
X113092000Y-3488750I0J243750D01*
G01*
G37*
G36*
G01*
X111217000Y-3488750D02*
X111217000Y-2576250D01*
G75*
G02*
X111460750Y-2332500I243750J0D01*
G01*
X111948250Y-2332500D01*
G75*
G02*
X112192000Y-2576250I0J-243750D01*
G01*
X112192000Y-3488750D01*
G75*
G02*
X111948250Y-3732500I-243750J0D01*
G01*
X111460750Y-3732500D01*
G75*
G02*
X111217000Y-3488750I0J243750D01*
G01*
G37*
%TD*%
%TO.C,C1*%
G36*
G01*
X87444250Y-2138000D02*
X86531750Y-2138000D01*
G75*
G02*
X86288000Y-1894250I0J243750D01*
G01*
X86288000Y-1406750D01*
G75*
G02*
X86531750Y-1163000I243750J0D01*
G01*
X87444250Y-1163000D01*
G75*
G02*
X87688000Y-1406750I0J-243750D01*
G01*
X87688000Y-1894250D01*
G75*
G02*
X87444250Y-2138000I-243750J0D01*
G01*
G37*
G36*
G01*
X87444250Y-4013000D02*
X86531750Y-4013000D01*
G75*
G02*
X86288000Y-3769250I0J243750D01*
G01*
X86288000Y-3281750D01*
G75*
G02*
X86531750Y-3038000I243750J0D01*
G01*
X87444250Y-3038000D01*
G75*
G02*
X87688000Y-3281750I0J-243750D01*
G01*
X87688000Y-3769250D01*
G75*
G02*
X87444250Y-4013000I-243750J0D01*
G01*
G37*
%TD*%
%TO.C,R86*%
G36*
G01*
X133280000Y-1907500D02*
X133280000Y-2252500D01*
G75*
G02*
X133132500Y-2400000I-147500J0D01*
G01*
X132837500Y-2400000D01*
G75*
G02*
X132690000Y-2252500I0J147500D01*
G01*
X132690000Y-1907500D01*
G75*
G02*
X132837500Y-1760000I147500J0D01*
G01*
X133132500Y-1760000D01*
G75*
G02*
X133280000Y-1907500I0J-147500D01*
G01*
G37*
G36*
G01*
X134250000Y-1907500D02*
X134250000Y-2252500D01*
G75*
G02*
X134102500Y-2400000I-147500J0D01*
G01*
X133807500Y-2400000D01*
G75*
G02*
X133660000Y-2252500I0J147500D01*
G01*
X133660000Y-1907500D01*
G75*
G02*
X133807500Y-1760000I147500J0D01*
G01*
X134102500Y-1760000D01*
G75*
G02*
X134250000Y-1907500I0J-147500D01*
G01*
G37*
%TD*%
%TO.C,R85*%
G36*
G01*
X133280000Y-2923500D02*
X133280000Y-3268500D01*
G75*
G02*
X133132500Y-3416000I-147500J0D01*
G01*
X132837500Y-3416000D01*
G75*
G02*
X132690000Y-3268500I0J147500D01*
G01*
X132690000Y-2923500D01*
G75*
G02*
X132837500Y-2776000I147500J0D01*
G01*
X133132500Y-2776000D01*
G75*
G02*
X133280000Y-2923500I0J-147500D01*
G01*
G37*
G36*
G01*
X134250000Y-2923500D02*
X134250000Y-3268500D01*
G75*
G02*
X134102500Y-3416000I-147500J0D01*
G01*
X133807500Y-3416000D01*
G75*
G02*
X133660000Y-3268500I0J147500D01*
G01*
X133660000Y-2923500D01*
G75*
G02*
X133807500Y-2776000I147500J0D01*
G01*
X134102500Y-2776000D01*
G75*
G02*
X134250000Y-2923500I0J-147500D01*
G01*
G37*
%TD*%
%TO.C,R84*%
G36*
G01*
X133280000Y-3939500D02*
X133280000Y-4284500D01*
G75*
G02*
X133132500Y-4432000I-147500J0D01*
G01*
X132837500Y-4432000D01*
G75*
G02*
X132690000Y-4284500I0J147500D01*
G01*
X132690000Y-3939500D01*
G75*
G02*
X132837500Y-3792000I147500J0D01*
G01*
X133132500Y-3792000D01*
G75*
G02*
X133280000Y-3939500I0J-147500D01*
G01*
G37*
G36*
G01*
X134250000Y-3939500D02*
X134250000Y-4284500D01*
G75*
G02*
X134102500Y-4432000I-147500J0D01*
G01*
X133807500Y-4432000D01*
G75*
G02*
X133660000Y-4284500I0J147500D01*
G01*
X133660000Y-3939500D01*
G75*
G02*
X133807500Y-3792000I147500J0D01*
G01*
X134102500Y-3792000D01*
G75*
G02*
X134250000Y-3939500I0J-147500D01*
G01*
G37*
%TD*%
%TO.C,R83*%
G36*
G01*
X133280000Y-4955500D02*
X133280000Y-5300500D01*
G75*
G02*
X133132500Y-5448000I-147500J0D01*
G01*
X132837500Y-5448000D01*
G75*
G02*
X132690000Y-5300500I0J147500D01*
G01*
X132690000Y-4955500D01*
G75*
G02*
X132837500Y-4808000I147500J0D01*
G01*
X133132500Y-4808000D01*
G75*
G02*
X133280000Y-4955500I0J-147500D01*
G01*
G37*
G36*
G01*
X134250000Y-4955500D02*
X134250000Y-5300500D01*
G75*
G02*
X134102500Y-5448000I-147500J0D01*
G01*
X133807500Y-5448000D01*
G75*
G02*
X133660000Y-5300500I0J147500D01*
G01*
X133660000Y-4955500D01*
G75*
G02*
X133807500Y-4808000I147500J0D01*
G01*
X134102500Y-4808000D01*
G75*
G02*
X134250000Y-4955500I0J-147500D01*
G01*
G37*
%TD*%
%TO.C,R82*%
G36*
G01*
X115880000Y-4792500D02*
X115880000Y-4447500D01*
G75*
G02*
X116027500Y-4300000I147500J0D01*
G01*
X116322500Y-4300000D01*
G75*
G02*
X116470000Y-4447500I0J-147500D01*
G01*
X116470000Y-4792500D01*
G75*
G02*
X116322500Y-4940000I-147500J0D01*
G01*
X116027500Y-4940000D01*
G75*
G02*
X115880000Y-4792500I0J147500D01*
G01*
G37*
G36*
G01*
X114910000Y-4792500D02*
X114910000Y-4447500D01*
G75*
G02*
X115057500Y-4300000I147500J0D01*
G01*
X115352500Y-4300000D01*
G75*
G02*
X115500000Y-4447500I0J-147500D01*
G01*
X115500000Y-4792500D01*
G75*
G02*
X115352500Y-4940000I-147500J0D01*
G01*
X115057500Y-4940000D01*
G75*
G02*
X114910000Y-4792500I0J147500D01*
G01*
G37*
%TD*%
%TO.C,R81*%
G36*
G01*
X115880000Y-3776500D02*
X115880000Y-3431500D01*
G75*
G02*
X116027500Y-3284000I147500J0D01*
G01*
X116322500Y-3284000D01*
G75*
G02*
X116470000Y-3431500I0J-147500D01*
G01*
X116470000Y-3776500D01*
G75*
G02*
X116322500Y-3924000I-147500J0D01*
G01*
X116027500Y-3924000D01*
G75*
G02*
X115880000Y-3776500I0J147500D01*
G01*
G37*
G36*
G01*
X114910000Y-3776500D02*
X114910000Y-3431500D01*
G75*
G02*
X115057500Y-3284000I147500J0D01*
G01*
X115352500Y-3284000D01*
G75*
G02*
X115500000Y-3431500I0J-147500D01*
G01*
X115500000Y-3776500D01*
G75*
G02*
X115352500Y-3924000I-147500J0D01*
G01*
X115057500Y-3924000D01*
G75*
G02*
X114910000Y-3776500I0J147500D01*
G01*
G37*
%TD*%
%TO.C,R80*%
G36*
G01*
X115880000Y-2760500D02*
X115880000Y-2415500D01*
G75*
G02*
X116027500Y-2268000I147500J0D01*
G01*
X116322500Y-2268000D01*
G75*
G02*
X116470000Y-2415500I0J-147500D01*
G01*
X116470000Y-2760500D01*
G75*
G02*
X116322500Y-2908000I-147500J0D01*
G01*
X116027500Y-2908000D01*
G75*
G02*
X115880000Y-2760500I0J147500D01*
G01*
G37*
G36*
G01*
X114910000Y-2760500D02*
X114910000Y-2415500D01*
G75*
G02*
X115057500Y-2268000I147500J0D01*
G01*
X115352500Y-2268000D01*
G75*
G02*
X115500000Y-2415500I0J-147500D01*
G01*
X115500000Y-2760500D01*
G75*
G02*
X115352500Y-2908000I-147500J0D01*
G01*
X115057500Y-2908000D01*
G75*
G02*
X114910000Y-2760500I0J147500D01*
G01*
G37*
%TD*%
%TO.C,R79*%
G36*
G01*
X133280000Y-9019500D02*
X133280000Y-9364500D01*
G75*
G02*
X133132500Y-9512000I-147500J0D01*
G01*
X132837500Y-9512000D01*
G75*
G02*
X132690000Y-9364500I0J147500D01*
G01*
X132690000Y-9019500D01*
G75*
G02*
X132837500Y-8872000I147500J0D01*
G01*
X133132500Y-8872000D01*
G75*
G02*
X133280000Y-9019500I0J-147500D01*
G01*
G37*
G36*
G01*
X134250000Y-9019500D02*
X134250000Y-9364500D01*
G75*
G02*
X134102500Y-9512000I-147500J0D01*
G01*
X133807500Y-9512000D01*
G75*
G02*
X133660000Y-9364500I0J147500D01*
G01*
X133660000Y-9019500D01*
G75*
G02*
X133807500Y-8872000I147500J0D01*
G01*
X134102500Y-8872000D01*
G75*
G02*
X134250000Y-9019500I0J-147500D01*
G01*
G37*
%TD*%
%TO.C,R78*%
G36*
G01*
X133280000Y-8003500D02*
X133280000Y-8348500D01*
G75*
G02*
X133132500Y-8496000I-147500J0D01*
G01*
X132837500Y-8496000D01*
G75*
G02*
X132690000Y-8348500I0J147500D01*
G01*
X132690000Y-8003500D01*
G75*
G02*
X132837500Y-7856000I147500J0D01*
G01*
X133132500Y-7856000D01*
G75*
G02*
X133280000Y-8003500I0J-147500D01*
G01*
G37*
G36*
G01*
X134250000Y-8003500D02*
X134250000Y-8348500D01*
G75*
G02*
X134102500Y-8496000I-147500J0D01*
G01*
X133807500Y-8496000D01*
G75*
G02*
X133660000Y-8348500I0J147500D01*
G01*
X133660000Y-8003500D01*
G75*
G02*
X133807500Y-7856000I147500J0D01*
G01*
X134102500Y-7856000D01*
G75*
G02*
X134250000Y-8003500I0J-147500D01*
G01*
G37*
%TD*%
%TO.C,R77*%
G36*
G01*
X133280000Y-6987500D02*
X133280000Y-7332500D01*
G75*
G02*
X133132500Y-7480000I-147500J0D01*
G01*
X132837500Y-7480000D01*
G75*
G02*
X132690000Y-7332500I0J147500D01*
G01*
X132690000Y-6987500D01*
G75*
G02*
X132837500Y-6840000I147500J0D01*
G01*
X133132500Y-6840000D01*
G75*
G02*
X133280000Y-6987500I0J-147500D01*
G01*
G37*
G36*
G01*
X134250000Y-6987500D02*
X134250000Y-7332500D01*
G75*
G02*
X134102500Y-7480000I-147500J0D01*
G01*
X133807500Y-7480000D01*
G75*
G02*
X133660000Y-7332500I0J147500D01*
G01*
X133660000Y-6987500D01*
G75*
G02*
X133807500Y-6840000I147500J0D01*
G01*
X134102500Y-6840000D01*
G75*
G02*
X134250000Y-6987500I0J-147500D01*
G01*
G37*
%TD*%
%TO.C,R76*%
G36*
G01*
X133280000Y-5971500D02*
X133280000Y-6316500D01*
G75*
G02*
X133132500Y-6464000I-147500J0D01*
G01*
X132837500Y-6464000D01*
G75*
G02*
X132690000Y-6316500I0J147500D01*
G01*
X132690000Y-5971500D01*
G75*
G02*
X132837500Y-5824000I147500J0D01*
G01*
X133132500Y-5824000D01*
G75*
G02*
X133280000Y-5971500I0J-147500D01*
G01*
G37*
G36*
G01*
X134250000Y-5971500D02*
X134250000Y-6316500D01*
G75*
G02*
X134102500Y-6464000I-147500J0D01*
G01*
X133807500Y-6464000D01*
G75*
G02*
X133660000Y-6316500I0J147500D01*
G01*
X133660000Y-5971500D01*
G75*
G02*
X133807500Y-5824000I147500J0D01*
G01*
X134102500Y-5824000D01*
G75*
G02*
X134250000Y-5971500I0J-147500D01*
G01*
G37*
%TD*%
%TO.C,R75*%
G36*
G01*
X115880000Y-5808500D02*
X115880000Y-5463500D01*
G75*
G02*
X116027500Y-5316000I147500J0D01*
G01*
X116322500Y-5316000D01*
G75*
G02*
X116470000Y-5463500I0J-147500D01*
G01*
X116470000Y-5808500D01*
G75*
G02*
X116322500Y-5956000I-147500J0D01*
G01*
X116027500Y-5956000D01*
G75*
G02*
X115880000Y-5808500I0J147500D01*
G01*
G37*
G36*
G01*
X114910000Y-5808500D02*
X114910000Y-5463500D01*
G75*
G02*
X115057500Y-5316000I147500J0D01*
G01*
X115352500Y-5316000D01*
G75*
G02*
X115500000Y-5463500I0J-147500D01*
G01*
X115500000Y-5808500D01*
G75*
G02*
X115352500Y-5956000I-147500J0D01*
G01*
X115057500Y-5956000D01*
G75*
G02*
X114910000Y-5808500I0J147500D01*
G01*
G37*
%TD*%
%TO.C,R74*%
G36*
G01*
X115880000Y-6824500D02*
X115880000Y-6479500D01*
G75*
G02*
X116027500Y-6332000I147500J0D01*
G01*
X116322500Y-6332000D01*
G75*
G02*
X116470000Y-6479500I0J-147500D01*
G01*
X116470000Y-6824500D01*
G75*
G02*
X116322500Y-6972000I-147500J0D01*
G01*
X116027500Y-6972000D01*
G75*
G02*
X115880000Y-6824500I0J147500D01*
G01*
G37*
G36*
G01*
X114910000Y-6824500D02*
X114910000Y-6479500D01*
G75*
G02*
X115057500Y-6332000I147500J0D01*
G01*
X115352500Y-6332000D01*
G75*
G02*
X115500000Y-6479500I0J-147500D01*
G01*
X115500000Y-6824500D01*
G75*
G02*
X115352500Y-6972000I-147500J0D01*
G01*
X115057500Y-6972000D01*
G75*
G02*
X114910000Y-6824500I0J147500D01*
G01*
G37*
%TD*%
%TO.C,R73*%
G36*
G01*
X115880000Y-7840500D02*
X115880000Y-7495500D01*
G75*
G02*
X116027500Y-7348000I147500J0D01*
G01*
X116322500Y-7348000D01*
G75*
G02*
X116470000Y-7495500I0J-147500D01*
G01*
X116470000Y-7840500D01*
G75*
G02*
X116322500Y-7988000I-147500J0D01*
G01*
X116027500Y-7988000D01*
G75*
G02*
X115880000Y-7840500I0J147500D01*
G01*
G37*
G36*
G01*
X114910000Y-7840500D02*
X114910000Y-7495500D01*
G75*
G02*
X115057500Y-7348000I147500J0D01*
G01*
X115352500Y-7348000D01*
G75*
G02*
X115500000Y-7495500I0J-147500D01*
G01*
X115500000Y-7840500D01*
G75*
G02*
X115352500Y-7988000I-147500J0D01*
G01*
X115057500Y-7988000D01*
G75*
G02*
X114910000Y-7840500I0J147500D01*
G01*
G37*
%TD*%
%TO.C,R72*%
G36*
G01*
X104324000Y124500D02*
X104324000Y-220500D01*
G75*
G02*
X104176500Y-368000I-147500J0D01*
G01*
X103881500Y-368000D01*
G75*
G02*
X103734000Y-220500I0J147500D01*
G01*
X103734000Y124500D01*
G75*
G02*
X103881500Y272000I147500J0D01*
G01*
X104176500Y272000D01*
G75*
G02*
X104324000Y124500I0J-147500D01*
G01*
G37*
G36*
G01*
X105294000Y124500D02*
X105294000Y-220500D01*
G75*
G02*
X105146500Y-368000I-147500J0D01*
G01*
X104851500Y-368000D01*
G75*
G02*
X104704000Y-220500I0J147500D01*
G01*
X104704000Y124500D01*
G75*
G02*
X104851500Y272000I147500J0D01*
G01*
X105146500Y272000D01*
G75*
G02*
X105294000Y124500I0J-147500D01*
G01*
G37*
%TD*%
%TO.C,R71*%
G36*
G01*
X105294000Y-891500D02*
X105294000Y-1236500D01*
G75*
G02*
X105146500Y-1384000I-147500J0D01*
G01*
X104851500Y-1384000D01*
G75*
G02*
X104704000Y-1236500I0J147500D01*
G01*
X104704000Y-891500D01*
G75*
G02*
X104851500Y-744000I147500J0D01*
G01*
X105146500Y-744000D01*
G75*
G02*
X105294000Y-891500I0J-147500D01*
G01*
G37*
G36*
G01*
X104324000Y-891500D02*
X104324000Y-1236500D01*
G75*
G02*
X104176500Y-1384000I-147500J0D01*
G01*
X103881500Y-1384000D01*
G75*
G02*
X103734000Y-1236500I0J147500D01*
G01*
X103734000Y-891500D01*
G75*
G02*
X103881500Y-744000I147500J0D01*
G01*
X104176500Y-744000D01*
G75*
G02*
X104324000Y-891500I0J-147500D01*
G01*
G37*
%TD*%
%TO.C,R70*%
G36*
G01*
X105294000Y-1907500D02*
X105294000Y-2252500D01*
G75*
G02*
X105146500Y-2400000I-147500J0D01*
G01*
X104851500Y-2400000D01*
G75*
G02*
X104704000Y-2252500I0J147500D01*
G01*
X104704000Y-1907500D01*
G75*
G02*
X104851500Y-1760000I147500J0D01*
G01*
X105146500Y-1760000D01*
G75*
G02*
X105294000Y-1907500I0J-147500D01*
G01*
G37*
G36*
G01*
X104324000Y-1907500D02*
X104324000Y-2252500D01*
G75*
G02*
X104176500Y-2400000I-147500J0D01*
G01*
X103881500Y-2400000D01*
G75*
G02*
X103734000Y-2252500I0J147500D01*
G01*
X103734000Y-1907500D01*
G75*
G02*
X103881500Y-1760000I147500J0D01*
G01*
X104176500Y-1760000D01*
G75*
G02*
X104324000Y-1907500I0J-147500D01*
G01*
G37*
%TD*%
%TO.C,R69*%
G36*
G01*
X105294000Y-2923500D02*
X105294000Y-3268500D01*
G75*
G02*
X105146500Y-3416000I-147500J0D01*
G01*
X104851500Y-3416000D01*
G75*
G02*
X104704000Y-3268500I0J147500D01*
G01*
X104704000Y-2923500D01*
G75*
G02*
X104851500Y-2776000I147500J0D01*
G01*
X105146500Y-2776000D01*
G75*
G02*
X105294000Y-2923500I0J-147500D01*
G01*
G37*
G36*
G01*
X104324000Y-2923500D02*
X104324000Y-3268500D01*
G75*
G02*
X104176500Y-3416000I-147500J0D01*
G01*
X103881500Y-3416000D01*
G75*
G02*
X103734000Y-3268500I0J147500D01*
G01*
X103734000Y-2923500D01*
G75*
G02*
X103881500Y-2776000I147500J0D01*
G01*
X104176500Y-2776000D01*
G75*
G02*
X104324000Y-2923500I0J-147500D01*
G01*
G37*
%TD*%
%TO.C,R68*%
G36*
G01*
X105294000Y-3939500D02*
X105294000Y-4284500D01*
G75*
G02*
X105146500Y-4432000I-147500J0D01*
G01*
X104851500Y-4432000D01*
G75*
G02*
X104704000Y-4284500I0J147500D01*
G01*
X104704000Y-3939500D01*
G75*
G02*
X104851500Y-3792000I147500J0D01*
G01*
X105146500Y-3792000D01*
G75*
G02*
X105294000Y-3939500I0J-147500D01*
G01*
G37*
G36*
G01*
X104324000Y-3939500D02*
X104324000Y-4284500D01*
G75*
G02*
X104176500Y-4432000I-147500J0D01*
G01*
X103881500Y-4432000D01*
G75*
G02*
X103734000Y-4284500I0J147500D01*
G01*
X103734000Y-3939500D01*
G75*
G02*
X103881500Y-3792000I147500J0D01*
G01*
X104176500Y-3792000D01*
G75*
G02*
X104324000Y-3939500I0J-147500D01*
G01*
G37*
%TD*%
%TO.C,R67*%
G36*
G01*
X105294000Y-4955500D02*
X105294000Y-5300500D01*
G75*
G02*
X105146500Y-5448000I-147500J0D01*
G01*
X104851500Y-5448000D01*
G75*
G02*
X104704000Y-5300500I0J147500D01*
G01*
X104704000Y-4955500D01*
G75*
G02*
X104851500Y-4808000I147500J0D01*
G01*
X105146500Y-4808000D01*
G75*
G02*
X105294000Y-4955500I0J-147500D01*
G01*
G37*
G36*
G01*
X104324000Y-4955500D02*
X104324000Y-5300500D01*
G75*
G02*
X104176500Y-5448000I-147500J0D01*
G01*
X103881500Y-5448000D01*
G75*
G02*
X103734000Y-5300500I0J147500D01*
G01*
X103734000Y-4955500D01*
G75*
G02*
X103881500Y-4808000I147500J0D01*
G01*
X104176500Y-4808000D01*
G75*
G02*
X104324000Y-4955500I0J-147500D01*
G01*
G37*
%TD*%
%TO.C,R66*%
G36*
G01*
X105294000Y-5971500D02*
X105294000Y-6316500D01*
G75*
G02*
X105146500Y-6464000I-147500J0D01*
G01*
X104851500Y-6464000D01*
G75*
G02*
X104704000Y-6316500I0J147500D01*
G01*
X104704000Y-5971500D01*
G75*
G02*
X104851500Y-5824000I147500J0D01*
G01*
X105146500Y-5824000D01*
G75*
G02*
X105294000Y-5971500I0J-147500D01*
G01*
G37*
G36*
G01*
X104324000Y-5971500D02*
X104324000Y-6316500D01*
G75*
G02*
X104176500Y-6464000I-147500J0D01*
G01*
X103881500Y-6464000D01*
G75*
G02*
X103734000Y-6316500I0J147500D01*
G01*
X103734000Y-5971500D01*
G75*
G02*
X103881500Y-5824000I147500J0D01*
G01*
X104176500Y-5824000D01*
G75*
G02*
X104324000Y-5971500I0J-147500D01*
G01*
G37*
%TD*%
%TO.C,R65*%
G36*
G01*
X104347000Y-8003500D02*
X104347000Y-8348500D01*
G75*
G02*
X104199500Y-8496000I-147500J0D01*
G01*
X103904500Y-8496000D01*
G75*
G02*
X103757000Y-8348500I0J147500D01*
G01*
X103757000Y-8003500D01*
G75*
G02*
X103904500Y-7856000I147500J0D01*
G01*
X104199500Y-7856000D01*
G75*
G02*
X104347000Y-8003500I0J-147500D01*
G01*
G37*
G36*
G01*
X105317000Y-8003500D02*
X105317000Y-8348500D01*
G75*
G02*
X105169500Y-8496000I-147500J0D01*
G01*
X104874500Y-8496000D01*
G75*
G02*
X104727000Y-8348500I0J147500D01*
G01*
X104727000Y-8003500D01*
G75*
G02*
X104874500Y-7856000I147500J0D01*
G01*
X105169500Y-7856000D01*
G75*
G02*
X105317000Y-8003500I0J-147500D01*
G01*
G37*
%TD*%
%TO.C,R64*%
G36*
G01*
X104324000Y-6987500D02*
X104324000Y-7332500D01*
G75*
G02*
X104176500Y-7480000I-147500J0D01*
G01*
X103881500Y-7480000D01*
G75*
G02*
X103734000Y-7332500I0J147500D01*
G01*
X103734000Y-6987500D01*
G75*
G02*
X103881500Y-6840000I147500J0D01*
G01*
X104176500Y-6840000D01*
G75*
G02*
X104324000Y-6987500I0J-147500D01*
G01*
G37*
G36*
G01*
X105294000Y-6987500D02*
X105294000Y-7332500D01*
G75*
G02*
X105146500Y-7480000I-147500J0D01*
G01*
X104851500Y-7480000D01*
G75*
G02*
X104704000Y-7332500I0J147500D01*
G01*
X104704000Y-6987500D01*
G75*
G02*
X104851500Y-6840000I147500J0D01*
G01*
X105146500Y-6840000D01*
G75*
G02*
X105294000Y-6987500I0J-147500D01*
G01*
G37*
%TD*%
%TO.C,R63*%
G36*
G01*
X104324000Y-9019500D02*
X104324000Y-9364500D01*
G75*
G02*
X104176500Y-9512000I-147500J0D01*
G01*
X103881500Y-9512000D01*
G75*
G02*
X103734000Y-9364500I0J147500D01*
G01*
X103734000Y-9019500D01*
G75*
G02*
X103881500Y-8872000I147500J0D01*
G01*
X104176500Y-8872000D01*
G75*
G02*
X104324000Y-9019500I0J-147500D01*
G01*
G37*
G36*
G01*
X105294000Y-9019500D02*
X105294000Y-9364500D01*
G75*
G02*
X105146500Y-9512000I-147500J0D01*
G01*
X104851500Y-9512000D01*
G75*
G02*
X104704000Y-9364500I0J147500D01*
G01*
X104704000Y-9019500D01*
G75*
G02*
X104851500Y-8872000I147500J0D01*
G01*
X105146500Y-8872000D01*
G75*
G02*
X105294000Y-9019500I0J-147500D01*
G01*
G37*
%TD*%
%TO.C,R62*%
G36*
G01*
X104324000Y-10035500D02*
X104324000Y-10380500D01*
G75*
G02*
X104176500Y-10528000I-147500J0D01*
G01*
X103881500Y-10528000D01*
G75*
G02*
X103734000Y-10380500I0J147500D01*
G01*
X103734000Y-10035500D01*
G75*
G02*
X103881500Y-9888000I147500J0D01*
G01*
X104176500Y-9888000D01*
G75*
G02*
X104324000Y-10035500I0J-147500D01*
G01*
G37*
G36*
G01*
X105294000Y-10035500D02*
X105294000Y-10380500D01*
G75*
G02*
X105146500Y-10528000I-147500J0D01*
G01*
X104851500Y-10528000D01*
G75*
G02*
X104704000Y-10380500I0J147500D01*
G01*
X104704000Y-10035500D01*
G75*
G02*
X104851500Y-9888000I147500J0D01*
G01*
X105146500Y-9888000D01*
G75*
G02*
X105294000Y-10035500I0J-147500D01*
G01*
G37*
%TD*%
%TO.C,R61*%
G36*
G01*
X104324000Y-11051500D02*
X104324000Y-11396500D01*
G75*
G02*
X104176500Y-11544000I-147500J0D01*
G01*
X103881500Y-11544000D01*
G75*
G02*
X103734000Y-11396500I0J147500D01*
G01*
X103734000Y-11051500D01*
G75*
G02*
X103881500Y-10904000I147500J0D01*
G01*
X104176500Y-10904000D01*
G75*
G02*
X104324000Y-11051500I0J-147500D01*
G01*
G37*
G36*
G01*
X105294000Y-11051500D02*
X105294000Y-11396500D01*
G75*
G02*
X105146500Y-11544000I-147500J0D01*
G01*
X104851500Y-11544000D01*
G75*
G02*
X104704000Y-11396500I0J147500D01*
G01*
X104704000Y-11051500D01*
G75*
G02*
X104851500Y-10904000I147500J0D01*
G01*
X105146500Y-10904000D01*
G75*
G02*
X105294000Y-11051500I0J-147500D01*
G01*
G37*
%TD*%
%TO.C,R60*%
G36*
G01*
X104324000Y-12067500D02*
X104324000Y-12412500D01*
G75*
G02*
X104176500Y-12560000I-147500J0D01*
G01*
X103881500Y-12560000D01*
G75*
G02*
X103734000Y-12412500I0J147500D01*
G01*
X103734000Y-12067500D01*
G75*
G02*
X103881500Y-11920000I147500J0D01*
G01*
X104176500Y-11920000D01*
G75*
G02*
X104324000Y-12067500I0J-147500D01*
G01*
G37*
G36*
G01*
X105294000Y-12067500D02*
X105294000Y-12412500D01*
G75*
G02*
X105146500Y-12560000I-147500J0D01*
G01*
X104851500Y-12560000D01*
G75*
G02*
X104704000Y-12412500I0J147500D01*
G01*
X104704000Y-12067500D01*
G75*
G02*
X104851500Y-11920000I147500J0D01*
G01*
X105146500Y-11920000D01*
G75*
G02*
X105294000Y-12067500I0J-147500D01*
G01*
G37*
%TD*%
%TO.C,R59*%
G36*
G01*
X104324000Y-13083500D02*
X104324000Y-13428500D01*
G75*
G02*
X104176500Y-13576000I-147500J0D01*
G01*
X103881500Y-13576000D01*
G75*
G02*
X103734000Y-13428500I0J147500D01*
G01*
X103734000Y-13083500D01*
G75*
G02*
X103881500Y-12936000I147500J0D01*
G01*
X104176500Y-12936000D01*
G75*
G02*
X104324000Y-13083500I0J-147500D01*
G01*
G37*
G36*
G01*
X105294000Y-13083500D02*
X105294000Y-13428500D01*
G75*
G02*
X105146500Y-13576000I-147500J0D01*
G01*
X104851500Y-13576000D01*
G75*
G02*
X104704000Y-13428500I0J147500D01*
G01*
X104704000Y-13083500D01*
G75*
G02*
X104851500Y-12936000I147500J0D01*
G01*
X105146500Y-12936000D01*
G75*
G02*
X105294000Y-13083500I0J-147500D01*
G01*
G37*
%TD*%
D11*
%TO.C,J1*%
X136930000Y8070000D03*
X136930000Y5530000D03*
X134390000Y8070000D03*
X134390000Y5530000D03*
X131850000Y8070000D03*
X131850000Y5530000D03*
X129310000Y8070000D03*
X129310000Y5530000D03*
X126770000Y8070000D03*
X126770000Y5530000D03*
X124230000Y8070000D03*
X124230000Y5530000D03*
X121690000Y8070000D03*
X121690000Y5530000D03*
X119150000Y8070000D03*
X119150000Y5530000D03*
X116610000Y8070000D03*
X116610000Y5530000D03*
X114070000Y8070000D03*
X114070000Y5530000D03*
X111530000Y8070000D03*
X111530000Y5530000D03*
X108990000Y8070000D03*
X108990000Y5530000D03*
X106450000Y8070000D03*
X106450000Y5530000D03*
X103910000Y8070000D03*
X103910000Y5530000D03*
X101370000Y8070000D03*
X101370000Y5530000D03*
X98830000Y8070000D03*
X98830000Y5530000D03*
X96290000Y8070000D03*
X96290000Y5530000D03*
X93750000Y8070000D03*
X93750000Y5530000D03*
X91210000Y8070000D03*
X91210000Y5530000D03*
X88670000Y8070000D03*
D12*
X88670000Y5530000D03*
%TD*%
%TO.C,U1*%
G36*
G01*
X89619000Y-2508600D02*
X89469000Y-2508600D01*
G75*
G02*
X89394000Y-2433600I0J75000D01*
G01*
X89394000Y-1108600D01*
G75*
G02*
X89469000Y-1033600I75000J0D01*
G01*
X89619000Y-1033600D01*
G75*
G02*
X89694000Y-1108600I0J-75000D01*
G01*
X89694000Y-2433600D01*
G75*
G02*
X89619000Y-2508600I-75000J0D01*
G01*
G37*
G36*
G01*
X90119000Y-2508600D02*
X89969000Y-2508600D01*
G75*
G02*
X89894000Y-2433600I0J75000D01*
G01*
X89894000Y-1108600D01*
G75*
G02*
X89969000Y-1033600I75000J0D01*
G01*
X90119000Y-1033600D01*
G75*
G02*
X90194000Y-1108600I0J-75000D01*
G01*
X90194000Y-2433600D01*
G75*
G02*
X90119000Y-2508600I-75000J0D01*
G01*
G37*
G36*
G01*
X90619000Y-2508600D02*
X90469000Y-2508600D01*
G75*
G02*
X90394000Y-2433600I0J75000D01*
G01*
X90394000Y-1108600D01*
G75*
G02*
X90469000Y-1033600I75000J0D01*
G01*
X90619000Y-1033600D01*
G75*
G02*
X90694000Y-1108600I0J-75000D01*
G01*
X90694000Y-2433600D01*
G75*
G02*
X90619000Y-2508600I-75000J0D01*
G01*
G37*
G36*
G01*
X91119000Y-2508600D02*
X90969000Y-2508600D01*
G75*
G02*
X90894000Y-2433600I0J75000D01*
G01*
X90894000Y-1108600D01*
G75*
G02*
X90969000Y-1033600I75000J0D01*
G01*
X91119000Y-1033600D01*
G75*
G02*
X91194000Y-1108600I0J-75000D01*
G01*
X91194000Y-2433600D01*
G75*
G02*
X91119000Y-2508600I-75000J0D01*
G01*
G37*
G36*
G01*
X91619000Y-2508600D02*
X91469000Y-2508600D01*
G75*
G02*
X91394000Y-2433600I0J75000D01*
G01*
X91394000Y-1108600D01*
G75*
G02*
X91469000Y-1033600I75000J0D01*
G01*
X91619000Y-1033600D01*
G75*
G02*
X91694000Y-1108600I0J-75000D01*
G01*
X91694000Y-2433600D01*
G75*
G02*
X91619000Y-2508600I-75000J0D01*
G01*
G37*
G36*
G01*
X92119000Y-2508600D02*
X91969000Y-2508600D01*
G75*
G02*
X91894000Y-2433600I0J75000D01*
G01*
X91894000Y-1108600D01*
G75*
G02*
X91969000Y-1033600I75000J0D01*
G01*
X92119000Y-1033600D01*
G75*
G02*
X92194000Y-1108600I0J-75000D01*
G01*
X92194000Y-2433600D01*
G75*
G02*
X92119000Y-2508600I-75000J0D01*
G01*
G37*
G36*
G01*
X92619000Y-2508600D02*
X92469000Y-2508600D01*
G75*
G02*
X92394000Y-2433600I0J75000D01*
G01*
X92394000Y-1108600D01*
G75*
G02*
X92469000Y-1033600I75000J0D01*
G01*
X92619000Y-1033600D01*
G75*
G02*
X92694000Y-1108600I0J-75000D01*
G01*
X92694000Y-2433600D01*
G75*
G02*
X92619000Y-2508600I-75000J0D01*
G01*
G37*
G36*
G01*
X93119000Y-2508600D02*
X92969000Y-2508600D01*
G75*
G02*
X92894000Y-2433600I0J75000D01*
G01*
X92894000Y-1108600D01*
G75*
G02*
X92969000Y-1033600I75000J0D01*
G01*
X93119000Y-1033600D01*
G75*
G02*
X93194000Y-1108600I0J-75000D01*
G01*
X93194000Y-2433600D01*
G75*
G02*
X93119000Y-2508600I-75000J0D01*
G01*
G37*
G36*
G01*
X93619000Y-2508600D02*
X93469000Y-2508600D01*
G75*
G02*
X93394000Y-2433600I0J75000D01*
G01*
X93394000Y-1108600D01*
G75*
G02*
X93469000Y-1033600I75000J0D01*
G01*
X93619000Y-1033600D01*
G75*
G02*
X93694000Y-1108600I0J-75000D01*
G01*
X93694000Y-2433600D01*
G75*
G02*
X93619000Y-2508600I-75000J0D01*
G01*
G37*
G36*
G01*
X94119000Y-2508600D02*
X93969000Y-2508600D01*
G75*
G02*
X93894000Y-2433600I0J75000D01*
G01*
X93894000Y-1108600D01*
G75*
G02*
X93969000Y-1033600I75000J0D01*
G01*
X94119000Y-1033600D01*
G75*
G02*
X94194000Y-1108600I0J-75000D01*
G01*
X94194000Y-2433600D01*
G75*
G02*
X94119000Y-2508600I-75000J0D01*
G01*
G37*
G36*
G01*
X94619000Y-2508600D02*
X94469000Y-2508600D01*
G75*
G02*
X94394000Y-2433600I0J75000D01*
G01*
X94394000Y-1108600D01*
G75*
G02*
X94469000Y-1033600I75000J0D01*
G01*
X94619000Y-1033600D01*
G75*
G02*
X94694000Y-1108600I0J-75000D01*
G01*
X94694000Y-2433600D01*
G75*
G02*
X94619000Y-2508600I-75000J0D01*
G01*
G37*
G36*
G01*
X95119000Y-2508600D02*
X94969000Y-2508600D01*
G75*
G02*
X94894000Y-2433600I0J75000D01*
G01*
X94894000Y-1108600D01*
G75*
G02*
X94969000Y-1033600I75000J0D01*
G01*
X95119000Y-1033600D01*
G75*
G02*
X95194000Y-1108600I0J-75000D01*
G01*
X95194000Y-2433600D01*
G75*
G02*
X95119000Y-2508600I-75000J0D01*
G01*
G37*
G36*
G01*
X95619000Y-2508600D02*
X95469000Y-2508600D01*
G75*
G02*
X95394000Y-2433600I0J75000D01*
G01*
X95394000Y-1108600D01*
G75*
G02*
X95469000Y-1033600I75000J0D01*
G01*
X95619000Y-1033600D01*
G75*
G02*
X95694000Y-1108600I0J-75000D01*
G01*
X95694000Y-2433600D01*
G75*
G02*
X95619000Y-2508600I-75000J0D01*
G01*
G37*
G36*
G01*
X96119000Y-2508600D02*
X95969000Y-2508600D01*
G75*
G02*
X95894000Y-2433600I0J75000D01*
G01*
X95894000Y-1108600D01*
G75*
G02*
X95969000Y-1033600I75000J0D01*
G01*
X96119000Y-1033600D01*
G75*
G02*
X96194000Y-1108600I0J-75000D01*
G01*
X96194000Y-2433600D01*
G75*
G02*
X96119000Y-2508600I-75000J0D01*
G01*
G37*
G36*
G01*
X96619000Y-2508600D02*
X96469000Y-2508600D01*
G75*
G02*
X96394000Y-2433600I0J75000D01*
G01*
X96394000Y-1108600D01*
G75*
G02*
X96469000Y-1033600I75000J0D01*
G01*
X96619000Y-1033600D01*
G75*
G02*
X96694000Y-1108600I0J-75000D01*
G01*
X96694000Y-2433600D01*
G75*
G02*
X96619000Y-2508600I-75000J0D01*
G01*
G37*
G36*
G01*
X97119000Y-2508600D02*
X96969000Y-2508600D01*
G75*
G02*
X96894000Y-2433600I0J75000D01*
G01*
X96894000Y-1108600D01*
G75*
G02*
X96969000Y-1033600I75000J0D01*
G01*
X97119000Y-1033600D01*
G75*
G02*
X97194000Y-1108600I0J-75000D01*
G01*
X97194000Y-2433600D01*
G75*
G02*
X97119000Y-2508600I-75000J0D01*
G01*
G37*
G36*
G01*
X97619000Y-2508600D02*
X97469000Y-2508600D01*
G75*
G02*
X97394000Y-2433600I0J75000D01*
G01*
X97394000Y-1108600D01*
G75*
G02*
X97469000Y-1033600I75000J0D01*
G01*
X97619000Y-1033600D01*
G75*
G02*
X97694000Y-1108600I0J-75000D01*
G01*
X97694000Y-2433600D01*
G75*
G02*
X97619000Y-2508600I-75000J0D01*
G01*
G37*
G36*
G01*
X98119000Y-2508600D02*
X97969000Y-2508600D01*
G75*
G02*
X97894000Y-2433600I0J75000D01*
G01*
X97894000Y-1108600D01*
G75*
G02*
X97969000Y-1033600I75000J0D01*
G01*
X98119000Y-1033600D01*
G75*
G02*
X98194000Y-1108600I0J-75000D01*
G01*
X98194000Y-2433600D01*
G75*
G02*
X98119000Y-2508600I-75000J0D01*
G01*
G37*
G36*
G01*
X98619000Y-2508600D02*
X98469000Y-2508600D01*
G75*
G02*
X98394000Y-2433600I0J75000D01*
G01*
X98394000Y-1108600D01*
G75*
G02*
X98469000Y-1033600I75000J0D01*
G01*
X98619000Y-1033600D01*
G75*
G02*
X98694000Y-1108600I0J-75000D01*
G01*
X98694000Y-2433600D01*
G75*
G02*
X98619000Y-2508600I-75000J0D01*
G01*
G37*
G36*
G01*
X99119000Y-2508600D02*
X98969000Y-2508600D01*
G75*
G02*
X98894000Y-2433600I0J75000D01*
G01*
X98894000Y-1108600D01*
G75*
G02*
X98969000Y-1033600I75000J0D01*
G01*
X99119000Y-1033600D01*
G75*
G02*
X99194000Y-1108600I0J-75000D01*
G01*
X99194000Y-2433600D01*
G75*
G02*
X99119000Y-2508600I-75000J0D01*
G01*
G37*
G36*
G01*
X99619000Y-2508600D02*
X99469000Y-2508600D01*
G75*
G02*
X99394000Y-2433600I0J75000D01*
G01*
X99394000Y-1108600D01*
G75*
G02*
X99469000Y-1033600I75000J0D01*
G01*
X99619000Y-1033600D01*
G75*
G02*
X99694000Y-1108600I0J-75000D01*
G01*
X99694000Y-2433600D01*
G75*
G02*
X99619000Y-2508600I-75000J0D01*
G01*
G37*
G36*
G01*
X100119000Y-2508600D02*
X99969000Y-2508600D01*
G75*
G02*
X99894000Y-2433600I0J75000D01*
G01*
X99894000Y-1108600D01*
G75*
G02*
X99969000Y-1033600I75000J0D01*
G01*
X100119000Y-1033600D01*
G75*
G02*
X100194000Y-1108600I0J-75000D01*
G01*
X100194000Y-2433600D01*
G75*
G02*
X100119000Y-2508600I-75000J0D01*
G01*
G37*
G36*
G01*
X100619000Y-2508600D02*
X100469000Y-2508600D01*
G75*
G02*
X100394000Y-2433600I0J75000D01*
G01*
X100394000Y-1108600D01*
G75*
G02*
X100469000Y-1033600I75000J0D01*
G01*
X100619000Y-1033600D01*
G75*
G02*
X100694000Y-1108600I0J-75000D01*
G01*
X100694000Y-2433600D01*
G75*
G02*
X100619000Y-2508600I-75000J0D01*
G01*
G37*
G36*
G01*
X101119000Y-2508600D02*
X100969000Y-2508600D01*
G75*
G02*
X100894000Y-2433600I0J75000D01*
G01*
X100894000Y-1108600D01*
G75*
G02*
X100969000Y-1033600I75000J0D01*
G01*
X101119000Y-1033600D01*
G75*
G02*
X101194000Y-1108600I0J-75000D01*
G01*
X101194000Y-2433600D01*
G75*
G02*
X101119000Y-2508600I-75000J0D01*
G01*
G37*
G36*
G01*
X101119000Y-9933600D02*
X100969000Y-9933600D01*
G75*
G02*
X100894000Y-9858600I0J75000D01*
G01*
X100894000Y-8533600D01*
G75*
G02*
X100969000Y-8458600I75000J0D01*
G01*
X101119000Y-8458600D01*
G75*
G02*
X101194000Y-8533600I0J-75000D01*
G01*
X101194000Y-9858600D01*
G75*
G02*
X101119000Y-9933600I-75000J0D01*
G01*
G37*
G36*
G01*
X100619000Y-9933600D02*
X100469000Y-9933600D01*
G75*
G02*
X100394000Y-9858600I0J75000D01*
G01*
X100394000Y-8533600D01*
G75*
G02*
X100469000Y-8458600I75000J0D01*
G01*
X100619000Y-8458600D01*
G75*
G02*
X100694000Y-8533600I0J-75000D01*
G01*
X100694000Y-9858600D01*
G75*
G02*
X100619000Y-9933600I-75000J0D01*
G01*
G37*
G36*
G01*
X100119000Y-9933600D02*
X99969000Y-9933600D01*
G75*
G02*
X99894000Y-9858600I0J75000D01*
G01*
X99894000Y-8533600D01*
G75*
G02*
X99969000Y-8458600I75000J0D01*
G01*
X100119000Y-8458600D01*
G75*
G02*
X100194000Y-8533600I0J-75000D01*
G01*
X100194000Y-9858600D01*
G75*
G02*
X100119000Y-9933600I-75000J0D01*
G01*
G37*
G36*
G01*
X99619000Y-9933600D02*
X99469000Y-9933600D01*
G75*
G02*
X99394000Y-9858600I0J75000D01*
G01*
X99394000Y-8533600D01*
G75*
G02*
X99469000Y-8458600I75000J0D01*
G01*
X99619000Y-8458600D01*
G75*
G02*
X99694000Y-8533600I0J-75000D01*
G01*
X99694000Y-9858600D01*
G75*
G02*
X99619000Y-9933600I-75000J0D01*
G01*
G37*
G36*
G01*
X99119000Y-9933600D02*
X98969000Y-9933600D01*
G75*
G02*
X98894000Y-9858600I0J75000D01*
G01*
X98894000Y-8533600D01*
G75*
G02*
X98969000Y-8458600I75000J0D01*
G01*
X99119000Y-8458600D01*
G75*
G02*
X99194000Y-8533600I0J-75000D01*
G01*
X99194000Y-9858600D01*
G75*
G02*
X99119000Y-9933600I-75000J0D01*
G01*
G37*
G36*
G01*
X98619000Y-9933600D02*
X98469000Y-9933600D01*
G75*
G02*
X98394000Y-9858600I0J75000D01*
G01*
X98394000Y-8533600D01*
G75*
G02*
X98469000Y-8458600I75000J0D01*
G01*
X98619000Y-8458600D01*
G75*
G02*
X98694000Y-8533600I0J-75000D01*
G01*
X98694000Y-9858600D01*
G75*
G02*
X98619000Y-9933600I-75000J0D01*
G01*
G37*
G36*
G01*
X98119000Y-9933600D02*
X97969000Y-9933600D01*
G75*
G02*
X97894000Y-9858600I0J75000D01*
G01*
X97894000Y-8533600D01*
G75*
G02*
X97969000Y-8458600I75000J0D01*
G01*
X98119000Y-8458600D01*
G75*
G02*
X98194000Y-8533600I0J-75000D01*
G01*
X98194000Y-9858600D01*
G75*
G02*
X98119000Y-9933600I-75000J0D01*
G01*
G37*
G36*
G01*
X97619000Y-9933600D02*
X97469000Y-9933600D01*
G75*
G02*
X97394000Y-9858600I0J75000D01*
G01*
X97394000Y-8533600D01*
G75*
G02*
X97469000Y-8458600I75000J0D01*
G01*
X97619000Y-8458600D01*
G75*
G02*
X97694000Y-8533600I0J-75000D01*
G01*
X97694000Y-9858600D01*
G75*
G02*
X97619000Y-9933600I-75000J0D01*
G01*
G37*
G36*
G01*
X97119000Y-9933600D02*
X96969000Y-9933600D01*
G75*
G02*
X96894000Y-9858600I0J75000D01*
G01*
X96894000Y-8533600D01*
G75*
G02*
X96969000Y-8458600I75000J0D01*
G01*
X97119000Y-8458600D01*
G75*
G02*
X97194000Y-8533600I0J-75000D01*
G01*
X97194000Y-9858600D01*
G75*
G02*
X97119000Y-9933600I-75000J0D01*
G01*
G37*
G36*
G01*
X96619000Y-9933600D02*
X96469000Y-9933600D01*
G75*
G02*
X96394000Y-9858600I0J75000D01*
G01*
X96394000Y-8533600D01*
G75*
G02*
X96469000Y-8458600I75000J0D01*
G01*
X96619000Y-8458600D01*
G75*
G02*
X96694000Y-8533600I0J-75000D01*
G01*
X96694000Y-9858600D01*
G75*
G02*
X96619000Y-9933600I-75000J0D01*
G01*
G37*
G36*
G01*
X96119000Y-9933600D02*
X95969000Y-9933600D01*
G75*
G02*
X95894000Y-9858600I0J75000D01*
G01*
X95894000Y-8533600D01*
G75*
G02*
X95969000Y-8458600I75000J0D01*
G01*
X96119000Y-8458600D01*
G75*
G02*
X96194000Y-8533600I0J-75000D01*
G01*
X96194000Y-9858600D01*
G75*
G02*
X96119000Y-9933600I-75000J0D01*
G01*
G37*
G36*
G01*
X95619000Y-9933600D02*
X95469000Y-9933600D01*
G75*
G02*
X95394000Y-9858600I0J75000D01*
G01*
X95394000Y-8533600D01*
G75*
G02*
X95469000Y-8458600I75000J0D01*
G01*
X95619000Y-8458600D01*
G75*
G02*
X95694000Y-8533600I0J-75000D01*
G01*
X95694000Y-9858600D01*
G75*
G02*
X95619000Y-9933600I-75000J0D01*
G01*
G37*
G36*
G01*
X95119000Y-9933600D02*
X94969000Y-9933600D01*
G75*
G02*
X94894000Y-9858600I0J75000D01*
G01*
X94894000Y-8533600D01*
G75*
G02*
X94969000Y-8458600I75000J0D01*
G01*
X95119000Y-8458600D01*
G75*
G02*
X95194000Y-8533600I0J-75000D01*
G01*
X95194000Y-9858600D01*
G75*
G02*
X95119000Y-9933600I-75000J0D01*
G01*
G37*
G36*
G01*
X94619000Y-9933600D02*
X94469000Y-9933600D01*
G75*
G02*
X94394000Y-9858600I0J75000D01*
G01*
X94394000Y-8533600D01*
G75*
G02*
X94469000Y-8458600I75000J0D01*
G01*
X94619000Y-8458600D01*
G75*
G02*
X94694000Y-8533600I0J-75000D01*
G01*
X94694000Y-9858600D01*
G75*
G02*
X94619000Y-9933600I-75000J0D01*
G01*
G37*
G36*
G01*
X94119000Y-9933600D02*
X93969000Y-9933600D01*
G75*
G02*
X93894000Y-9858600I0J75000D01*
G01*
X93894000Y-8533600D01*
G75*
G02*
X93969000Y-8458600I75000J0D01*
G01*
X94119000Y-8458600D01*
G75*
G02*
X94194000Y-8533600I0J-75000D01*
G01*
X94194000Y-9858600D01*
G75*
G02*
X94119000Y-9933600I-75000J0D01*
G01*
G37*
G36*
G01*
X93619000Y-9933600D02*
X93469000Y-9933600D01*
G75*
G02*
X93394000Y-9858600I0J75000D01*
G01*
X93394000Y-8533600D01*
G75*
G02*
X93469000Y-8458600I75000J0D01*
G01*
X93619000Y-8458600D01*
G75*
G02*
X93694000Y-8533600I0J-75000D01*
G01*
X93694000Y-9858600D01*
G75*
G02*
X93619000Y-9933600I-75000J0D01*
G01*
G37*
G36*
G01*
X93119000Y-9933600D02*
X92969000Y-9933600D01*
G75*
G02*
X92894000Y-9858600I0J75000D01*
G01*
X92894000Y-8533600D01*
G75*
G02*
X92969000Y-8458600I75000J0D01*
G01*
X93119000Y-8458600D01*
G75*
G02*
X93194000Y-8533600I0J-75000D01*
G01*
X93194000Y-9858600D01*
G75*
G02*
X93119000Y-9933600I-75000J0D01*
G01*
G37*
G36*
G01*
X92619000Y-9933600D02*
X92469000Y-9933600D01*
G75*
G02*
X92394000Y-9858600I0J75000D01*
G01*
X92394000Y-8533600D01*
G75*
G02*
X92469000Y-8458600I75000J0D01*
G01*
X92619000Y-8458600D01*
G75*
G02*
X92694000Y-8533600I0J-75000D01*
G01*
X92694000Y-9858600D01*
G75*
G02*
X92619000Y-9933600I-75000J0D01*
G01*
G37*
G36*
G01*
X92119000Y-9933600D02*
X91969000Y-9933600D01*
G75*
G02*
X91894000Y-9858600I0J75000D01*
G01*
X91894000Y-8533600D01*
G75*
G02*
X91969000Y-8458600I75000J0D01*
G01*
X92119000Y-8458600D01*
G75*
G02*
X92194000Y-8533600I0J-75000D01*
G01*
X92194000Y-9858600D01*
G75*
G02*
X92119000Y-9933600I-75000J0D01*
G01*
G37*
G36*
G01*
X91619000Y-9933600D02*
X91469000Y-9933600D01*
G75*
G02*
X91394000Y-9858600I0J75000D01*
G01*
X91394000Y-8533600D01*
G75*
G02*
X91469000Y-8458600I75000J0D01*
G01*
X91619000Y-8458600D01*
G75*
G02*
X91694000Y-8533600I0J-75000D01*
G01*
X91694000Y-9858600D01*
G75*
G02*
X91619000Y-9933600I-75000J0D01*
G01*
G37*
G36*
G01*
X91119000Y-9933600D02*
X90969000Y-9933600D01*
G75*
G02*
X90894000Y-9858600I0J75000D01*
G01*
X90894000Y-8533600D01*
G75*
G02*
X90969000Y-8458600I75000J0D01*
G01*
X91119000Y-8458600D01*
G75*
G02*
X91194000Y-8533600I0J-75000D01*
G01*
X91194000Y-9858600D01*
G75*
G02*
X91119000Y-9933600I-75000J0D01*
G01*
G37*
G36*
G01*
X90619000Y-9933600D02*
X90469000Y-9933600D01*
G75*
G02*
X90394000Y-9858600I0J75000D01*
G01*
X90394000Y-8533600D01*
G75*
G02*
X90469000Y-8458600I75000J0D01*
G01*
X90619000Y-8458600D01*
G75*
G02*
X90694000Y-8533600I0J-75000D01*
G01*
X90694000Y-9858600D01*
G75*
G02*
X90619000Y-9933600I-75000J0D01*
G01*
G37*
G36*
G01*
X90119000Y-9933600D02*
X89969000Y-9933600D01*
G75*
G02*
X89894000Y-9858600I0J75000D01*
G01*
X89894000Y-8533600D01*
G75*
G02*
X89969000Y-8458600I75000J0D01*
G01*
X90119000Y-8458600D01*
G75*
G02*
X90194000Y-8533600I0J-75000D01*
G01*
X90194000Y-9858600D01*
G75*
G02*
X90119000Y-9933600I-75000J0D01*
G01*
G37*
G36*
G01*
X89619000Y-9933600D02*
X89469000Y-9933600D01*
G75*
G02*
X89394000Y-9858600I0J75000D01*
G01*
X89394000Y-8533600D01*
G75*
G02*
X89469000Y-8458600I75000J0D01*
G01*
X89619000Y-8458600D01*
G75*
G02*
X89694000Y-8533600I0J-75000D01*
G01*
X89694000Y-9858600D01*
G75*
G02*
X89619000Y-9933600I-75000J0D01*
G01*
G37*
%TD*%
%TO.C,U2*%
G36*
G01*
X118956000Y-2508600D02*
X118806000Y-2508600D01*
G75*
G02*
X118731000Y-2433600I0J75000D01*
G01*
X118731000Y-1108600D01*
G75*
G02*
X118806000Y-1033600I75000J0D01*
G01*
X118956000Y-1033600D01*
G75*
G02*
X119031000Y-1108600I0J-75000D01*
G01*
X119031000Y-2433600D01*
G75*
G02*
X118956000Y-2508600I-75000J0D01*
G01*
G37*
G36*
G01*
X119456000Y-2508600D02*
X119306000Y-2508600D01*
G75*
G02*
X119231000Y-2433600I0J75000D01*
G01*
X119231000Y-1108600D01*
G75*
G02*
X119306000Y-1033600I75000J0D01*
G01*
X119456000Y-1033600D01*
G75*
G02*
X119531000Y-1108600I0J-75000D01*
G01*
X119531000Y-2433600D01*
G75*
G02*
X119456000Y-2508600I-75000J0D01*
G01*
G37*
G36*
G01*
X119956000Y-2508600D02*
X119806000Y-2508600D01*
G75*
G02*
X119731000Y-2433600I0J75000D01*
G01*
X119731000Y-1108600D01*
G75*
G02*
X119806000Y-1033600I75000J0D01*
G01*
X119956000Y-1033600D01*
G75*
G02*
X120031000Y-1108600I0J-75000D01*
G01*
X120031000Y-2433600D01*
G75*
G02*
X119956000Y-2508600I-75000J0D01*
G01*
G37*
G36*
G01*
X120456000Y-2508600D02*
X120306000Y-2508600D01*
G75*
G02*
X120231000Y-2433600I0J75000D01*
G01*
X120231000Y-1108600D01*
G75*
G02*
X120306000Y-1033600I75000J0D01*
G01*
X120456000Y-1033600D01*
G75*
G02*
X120531000Y-1108600I0J-75000D01*
G01*
X120531000Y-2433600D01*
G75*
G02*
X120456000Y-2508600I-75000J0D01*
G01*
G37*
G36*
G01*
X120956000Y-2508600D02*
X120806000Y-2508600D01*
G75*
G02*
X120731000Y-2433600I0J75000D01*
G01*
X120731000Y-1108600D01*
G75*
G02*
X120806000Y-1033600I75000J0D01*
G01*
X120956000Y-1033600D01*
G75*
G02*
X121031000Y-1108600I0J-75000D01*
G01*
X121031000Y-2433600D01*
G75*
G02*
X120956000Y-2508600I-75000J0D01*
G01*
G37*
G36*
G01*
X121456000Y-2508600D02*
X121306000Y-2508600D01*
G75*
G02*
X121231000Y-2433600I0J75000D01*
G01*
X121231000Y-1108600D01*
G75*
G02*
X121306000Y-1033600I75000J0D01*
G01*
X121456000Y-1033600D01*
G75*
G02*
X121531000Y-1108600I0J-75000D01*
G01*
X121531000Y-2433600D01*
G75*
G02*
X121456000Y-2508600I-75000J0D01*
G01*
G37*
G36*
G01*
X121956000Y-2508600D02*
X121806000Y-2508600D01*
G75*
G02*
X121731000Y-2433600I0J75000D01*
G01*
X121731000Y-1108600D01*
G75*
G02*
X121806000Y-1033600I75000J0D01*
G01*
X121956000Y-1033600D01*
G75*
G02*
X122031000Y-1108600I0J-75000D01*
G01*
X122031000Y-2433600D01*
G75*
G02*
X121956000Y-2508600I-75000J0D01*
G01*
G37*
G36*
G01*
X122456000Y-2508600D02*
X122306000Y-2508600D01*
G75*
G02*
X122231000Y-2433600I0J75000D01*
G01*
X122231000Y-1108600D01*
G75*
G02*
X122306000Y-1033600I75000J0D01*
G01*
X122456000Y-1033600D01*
G75*
G02*
X122531000Y-1108600I0J-75000D01*
G01*
X122531000Y-2433600D01*
G75*
G02*
X122456000Y-2508600I-75000J0D01*
G01*
G37*
G36*
G01*
X122956000Y-2508600D02*
X122806000Y-2508600D01*
G75*
G02*
X122731000Y-2433600I0J75000D01*
G01*
X122731000Y-1108600D01*
G75*
G02*
X122806000Y-1033600I75000J0D01*
G01*
X122956000Y-1033600D01*
G75*
G02*
X123031000Y-1108600I0J-75000D01*
G01*
X123031000Y-2433600D01*
G75*
G02*
X122956000Y-2508600I-75000J0D01*
G01*
G37*
G36*
G01*
X123456000Y-2508600D02*
X123306000Y-2508600D01*
G75*
G02*
X123231000Y-2433600I0J75000D01*
G01*
X123231000Y-1108600D01*
G75*
G02*
X123306000Y-1033600I75000J0D01*
G01*
X123456000Y-1033600D01*
G75*
G02*
X123531000Y-1108600I0J-75000D01*
G01*
X123531000Y-2433600D01*
G75*
G02*
X123456000Y-2508600I-75000J0D01*
G01*
G37*
G36*
G01*
X123956000Y-2508600D02*
X123806000Y-2508600D01*
G75*
G02*
X123731000Y-2433600I0J75000D01*
G01*
X123731000Y-1108600D01*
G75*
G02*
X123806000Y-1033600I75000J0D01*
G01*
X123956000Y-1033600D01*
G75*
G02*
X124031000Y-1108600I0J-75000D01*
G01*
X124031000Y-2433600D01*
G75*
G02*
X123956000Y-2508600I-75000J0D01*
G01*
G37*
G36*
G01*
X124456000Y-2508600D02*
X124306000Y-2508600D01*
G75*
G02*
X124231000Y-2433600I0J75000D01*
G01*
X124231000Y-1108600D01*
G75*
G02*
X124306000Y-1033600I75000J0D01*
G01*
X124456000Y-1033600D01*
G75*
G02*
X124531000Y-1108600I0J-75000D01*
G01*
X124531000Y-2433600D01*
G75*
G02*
X124456000Y-2508600I-75000J0D01*
G01*
G37*
G36*
G01*
X124956000Y-2508600D02*
X124806000Y-2508600D01*
G75*
G02*
X124731000Y-2433600I0J75000D01*
G01*
X124731000Y-1108600D01*
G75*
G02*
X124806000Y-1033600I75000J0D01*
G01*
X124956000Y-1033600D01*
G75*
G02*
X125031000Y-1108600I0J-75000D01*
G01*
X125031000Y-2433600D01*
G75*
G02*
X124956000Y-2508600I-75000J0D01*
G01*
G37*
G36*
G01*
X125456000Y-2508600D02*
X125306000Y-2508600D01*
G75*
G02*
X125231000Y-2433600I0J75000D01*
G01*
X125231000Y-1108600D01*
G75*
G02*
X125306000Y-1033600I75000J0D01*
G01*
X125456000Y-1033600D01*
G75*
G02*
X125531000Y-1108600I0J-75000D01*
G01*
X125531000Y-2433600D01*
G75*
G02*
X125456000Y-2508600I-75000J0D01*
G01*
G37*
G36*
G01*
X125956000Y-2508600D02*
X125806000Y-2508600D01*
G75*
G02*
X125731000Y-2433600I0J75000D01*
G01*
X125731000Y-1108600D01*
G75*
G02*
X125806000Y-1033600I75000J0D01*
G01*
X125956000Y-1033600D01*
G75*
G02*
X126031000Y-1108600I0J-75000D01*
G01*
X126031000Y-2433600D01*
G75*
G02*
X125956000Y-2508600I-75000J0D01*
G01*
G37*
G36*
G01*
X126456000Y-2508600D02*
X126306000Y-2508600D01*
G75*
G02*
X126231000Y-2433600I0J75000D01*
G01*
X126231000Y-1108600D01*
G75*
G02*
X126306000Y-1033600I75000J0D01*
G01*
X126456000Y-1033600D01*
G75*
G02*
X126531000Y-1108600I0J-75000D01*
G01*
X126531000Y-2433600D01*
G75*
G02*
X126456000Y-2508600I-75000J0D01*
G01*
G37*
G36*
G01*
X126956000Y-2508600D02*
X126806000Y-2508600D01*
G75*
G02*
X126731000Y-2433600I0J75000D01*
G01*
X126731000Y-1108600D01*
G75*
G02*
X126806000Y-1033600I75000J0D01*
G01*
X126956000Y-1033600D01*
G75*
G02*
X127031000Y-1108600I0J-75000D01*
G01*
X127031000Y-2433600D01*
G75*
G02*
X126956000Y-2508600I-75000J0D01*
G01*
G37*
G36*
G01*
X127456000Y-2508600D02*
X127306000Y-2508600D01*
G75*
G02*
X127231000Y-2433600I0J75000D01*
G01*
X127231000Y-1108600D01*
G75*
G02*
X127306000Y-1033600I75000J0D01*
G01*
X127456000Y-1033600D01*
G75*
G02*
X127531000Y-1108600I0J-75000D01*
G01*
X127531000Y-2433600D01*
G75*
G02*
X127456000Y-2508600I-75000J0D01*
G01*
G37*
G36*
G01*
X127956000Y-2508600D02*
X127806000Y-2508600D01*
G75*
G02*
X127731000Y-2433600I0J75000D01*
G01*
X127731000Y-1108600D01*
G75*
G02*
X127806000Y-1033600I75000J0D01*
G01*
X127956000Y-1033600D01*
G75*
G02*
X128031000Y-1108600I0J-75000D01*
G01*
X128031000Y-2433600D01*
G75*
G02*
X127956000Y-2508600I-75000J0D01*
G01*
G37*
G36*
G01*
X128456000Y-2508600D02*
X128306000Y-2508600D01*
G75*
G02*
X128231000Y-2433600I0J75000D01*
G01*
X128231000Y-1108600D01*
G75*
G02*
X128306000Y-1033600I75000J0D01*
G01*
X128456000Y-1033600D01*
G75*
G02*
X128531000Y-1108600I0J-75000D01*
G01*
X128531000Y-2433600D01*
G75*
G02*
X128456000Y-2508600I-75000J0D01*
G01*
G37*
G36*
G01*
X128956000Y-2508600D02*
X128806000Y-2508600D01*
G75*
G02*
X128731000Y-2433600I0J75000D01*
G01*
X128731000Y-1108600D01*
G75*
G02*
X128806000Y-1033600I75000J0D01*
G01*
X128956000Y-1033600D01*
G75*
G02*
X129031000Y-1108600I0J-75000D01*
G01*
X129031000Y-2433600D01*
G75*
G02*
X128956000Y-2508600I-75000J0D01*
G01*
G37*
G36*
G01*
X129456000Y-2508600D02*
X129306000Y-2508600D01*
G75*
G02*
X129231000Y-2433600I0J75000D01*
G01*
X129231000Y-1108600D01*
G75*
G02*
X129306000Y-1033600I75000J0D01*
G01*
X129456000Y-1033600D01*
G75*
G02*
X129531000Y-1108600I0J-75000D01*
G01*
X129531000Y-2433600D01*
G75*
G02*
X129456000Y-2508600I-75000J0D01*
G01*
G37*
G36*
G01*
X129956000Y-2508600D02*
X129806000Y-2508600D01*
G75*
G02*
X129731000Y-2433600I0J75000D01*
G01*
X129731000Y-1108600D01*
G75*
G02*
X129806000Y-1033600I75000J0D01*
G01*
X129956000Y-1033600D01*
G75*
G02*
X130031000Y-1108600I0J-75000D01*
G01*
X130031000Y-2433600D01*
G75*
G02*
X129956000Y-2508600I-75000J0D01*
G01*
G37*
G36*
G01*
X130456000Y-2508600D02*
X130306000Y-2508600D01*
G75*
G02*
X130231000Y-2433600I0J75000D01*
G01*
X130231000Y-1108600D01*
G75*
G02*
X130306000Y-1033600I75000J0D01*
G01*
X130456000Y-1033600D01*
G75*
G02*
X130531000Y-1108600I0J-75000D01*
G01*
X130531000Y-2433600D01*
G75*
G02*
X130456000Y-2508600I-75000J0D01*
G01*
G37*
G36*
G01*
X130456000Y-9933600D02*
X130306000Y-9933600D01*
G75*
G02*
X130231000Y-9858600I0J75000D01*
G01*
X130231000Y-8533600D01*
G75*
G02*
X130306000Y-8458600I75000J0D01*
G01*
X130456000Y-8458600D01*
G75*
G02*
X130531000Y-8533600I0J-75000D01*
G01*
X130531000Y-9858600D01*
G75*
G02*
X130456000Y-9933600I-75000J0D01*
G01*
G37*
G36*
G01*
X129956000Y-9933600D02*
X129806000Y-9933600D01*
G75*
G02*
X129731000Y-9858600I0J75000D01*
G01*
X129731000Y-8533600D01*
G75*
G02*
X129806000Y-8458600I75000J0D01*
G01*
X129956000Y-8458600D01*
G75*
G02*
X130031000Y-8533600I0J-75000D01*
G01*
X130031000Y-9858600D01*
G75*
G02*
X129956000Y-9933600I-75000J0D01*
G01*
G37*
G36*
G01*
X129456000Y-9933600D02*
X129306000Y-9933600D01*
G75*
G02*
X129231000Y-9858600I0J75000D01*
G01*
X129231000Y-8533600D01*
G75*
G02*
X129306000Y-8458600I75000J0D01*
G01*
X129456000Y-8458600D01*
G75*
G02*
X129531000Y-8533600I0J-75000D01*
G01*
X129531000Y-9858600D01*
G75*
G02*
X129456000Y-9933600I-75000J0D01*
G01*
G37*
G36*
G01*
X128956000Y-9933600D02*
X128806000Y-9933600D01*
G75*
G02*
X128731000Y-9858600I0J75000D01*
G01*
X128731000Y-8533600D01*
G75*
G02*
X128806000Y-8458600I75000J0D01*
G01*
X128956000Y-8458600D01*
G75*
G02*
X129031000Y-8533600I0J-75000D01*
G01*
X129031000Y-9858600D01*
G75*
G02*
X128956000Y-9933600I-75000J0D01*
G01*
G37*
G36*
G01*
X128456000Y-9933600D02*
X128306000Y-9933600D01*
G75*
G02*
X128231000Y-9858600I0J75000D01*
G01*
X128231000Y-8533600D01*
G75*
G02*
X128306000Y-8458600I75000J0D01*
G01*
X128456000Y-8458600D01*
G75*
G02*
X128531000Y-8533600I0J-75000D01*
G01*
X128531000Y-9858600D01*
G75*
G02*
X128456000Y-9933600I-75000J0D01*
G01*
G37*
G36*
G01*
X127956000Y-9933600D02*
X127806000Y-9933600D01*
G75*
G02*
X127731000Y-9858600I0J75000D01*
G01*
X127731000Y-8533600D01*
G75*
G02*
X127806000Y-8458600I75000J0D01*
G01*
X127956000Y-8458600D01*
G75*
G02*
X128031000Y-8533600I0J-75000D01*
G01*
X128031000Y-9858600D01*
G75*
G02*
X127956000Y-9933600I-75000J0D01*
G01*
G37*
G36*
G01*
X127456000Y-9933600D02*
X127306000Y-9933600D01*
G75*
G02*
X127231000Y-9858600I0J75000D01*
G01*
X127231000Y-8533600D01*
G75*
G02*
X127306000Y-8458600I75000J0D01*
G01*
X127456000Y-8458600D01*
G75*
G02*
X127531000Y-8533600I0J-75000D01*
G01*
X127531000Y-9858600D01*
G75*
G02*
X127456000Y-9933600I-75000J0D01*
G01*
G37*
G36*
G01*
X126956000Y-9933600D02*
X126806000Y-9933600D01*
G75*
G02*
X126731000Y-9858600I0J75000D01*
G01*
X126731000Y-8533600D01*
G75*
G02*
X126806000Y-8458600I75000J0D01*
G01*
X126956000Y-8458600D01*
G75*
G02*
X127031000Y-8533600I0J-75000D01*
G01*
X127031000Y-9858600D01*
G75*
G02*
X126956000Y-9933600I-75000J0D01*
G01*
G37*
G36*
G01*
X126456000Y-9933600D02*
X126306000Y-9933600D01*
G75*
G02*
X126231000Y-9858600I0J75000D01*
G01*
X126231000Y-8533600D01*
G75*
G02*
X126306000Y-8458600I75000J0D01*
G01*
X126456000Y-8458600D01*
G75*
G02*
X126531000Y-8533600I0J-75000D01*
G01*
X126531000Y-9858600D01*
G75*
G02*
X126456000Y-9933600I-75000J0D01*
G01*
G37*
G36*
G01*
X125956000Y-9933600D02*
X125806000Y-9933600D01*
G75*
G02*
X125731000Y-9858600I0J75000D01*
G01*
X125731000Y-8533600D01*
G75*
G02*
X125806000Y-8458600I75000J0D01*
G01*
X125956000Y-8458600D01*
G75*
G02*
X126031000Y-8533600I0J-75000D01*
G01*
X126031000Y-9858600D01*
G75*
G02*
X125956000Y-9933600I-75000J0D01*
G01*
G37*
G36*
G01*
X125456000Y-9933600D02*
X125306000Y-9933600D01*
G75*
G02*
X125231000Y-9858600I0J75000D01*
G01*
X125231000Y-8533600D01*
G75*
G02*
X125306000Y-8458600I75000J0D01*
G01*
X125456000Y-8458600D01*
G75*
G02*
X125531000Y-8533600I0J-75000D01*
G01*
X125531000Y-9858600D01*
G75*
G02*
X125456000Y-9933600I-75000J0D01*
G01*
G37*
G36*
G01*
X124956000Y-9933600D02*
X124806000Y-9933600D01*
G75*
G02*
X124731000Y-9858600I0J75000D01*
G01*
X124731000Y-8533600D01*
G75*
G02*
X124806000Y-8458600I75000J0D01*
G01*
X124956000Y-8458600D01*
G75*
G02*
X125031000Y-8533600I0J-75000D01*
G01*
X125031000Y-9858600D01*
G75*
G02*
X124956000Y-9933600I-75000J0D01*
G01*
G37*
G36*
G01*
X124456000Y-9933600D02*
X124306000Y-9933600D01*
G75*
G02*
X124231000Y-9858600I0J75000D01*
G01*
X124231000Y-8533600D01*
G75*
G02*
X124306000Y-8458600I75000J0D01*
G01*
X124456000Y-8458600D01*
G75*
G02*
X124531000Y-8533600I0J-75000D01*
G01*
X124531000Y-9858600D01*
G75*
G02*
X124456000Y-9933600I-75000J0D01*
G01*
G37*
G36*
G01*
X123956000Y-9933600D02*
X123806000Y-9933600D01*
G75*
G02*
X123731000Y-9858600I0J75000D01*
G01*
X123731000Y-8533600D01*
G75*
G02*
X123806000Y-8458600I75000J0D01*
G01*
X123956000Y-8458600D01*
G75*
G02*
X124031000Y-8533600I0J-75000D01*
G01*
X124031000Y-9858600D01*
G75*
G02*
X123956000Y-9933600I-75000J0D01*
G01*
G37*
G36*
G01*
X123456000Y-9933600D02*
X123306000Y-9933600D01*
G75*
G02*
X123231000Y-9858600I0J75000D01*
G01*
X123231000Y-8533600D01*
G75*
G02*
X123306000Y-8458600I75000J0D01*
G01*
X123456000Y-8458600D01*
G75*
G02*
X123531000Y-8533600I0J-75000D01*
G01*
X123531000Y-9858600D01*
G75*
G02*
X123456000Y-9933600I-75000J0D01*
G01*
G37*
G36*
G01*
X122956000Y-9933600D02*
X122806000Y-9933600D01*
G75*
G02*
X122731000Y-9858600I0J75000D01*
G01*
X122731000Y-8533600D01*
G75*
G02*
X122806000Y-8458600I75000J0D01*
G01*
X122956000Y-8458600D01*
G75*
G02*
X123031000Y-8533600I0J-75000D01*
G01*
X123031000Y-9858600D01*
G75*
G02*
X122956000Y-9933600I-75000J0D01*
G01*
G37*
G36*
G01*
X122456000Y-9933600D02*
X122306000Y-9933600D01*
G75*
G02*
X122231000Y-9858600I0J75000D01*
G01*
X122231000Y-8533600D01*
G75*
G02*
X122306000Y-8458600I75000J0D01*
G01*
X122456000Y-8458600D01*
G75*
G02*
X122531000Y-8533600I0J-75000D01*
G01*
X122531000Y-9858600D01*
G75*
G02*
X122456000Y-9933600I-75000J0D01*
G01*
G37*
G36*
G01*
X121956000Y-9933600D02*
X121806000Y-9933600D01*
G75*
G02*
X121731000Y-9858600I0J75000D01*
G01*
X121731000Y-8533600D01*
G75*
G02*
X121806000Y-8458600I75000J0D01*
G01*
X121956000Y-8458600D01*
G75*
G02*
X122031000Y-8533600I0J-75000D01*
G01*
X122031000Y-9858600D01*
G75*
G02*
X121956000Y-9933600I-75000J0D01*
G01*
G37*
G36*
G01*
X121456000Y-9933600D02*
X121306000Y-9933600D01*
G75*
G02*
X121231000Y-9858600I0J75000D01*
G01*
X121231000Y-8533600D01*
G75*
G02*
X121306000Y-8458600I75000J0D01*
G01*
X121456000Y-8458600D01*
G75*
G02*
X121531000Y-8533600I0J-75000D01*
G01*
X121531000Y-9858600D01*
G75*
G02*
X121456000Y-9933600I-75000J0D01*
G01*
G37*
G36*
G01*
X120956000Y-9933600D02*
X120806000Y-9933600D01*
G75*
G02*
X120731000Y-9858600I0J75000D01*
G01*
X120731000Y-8533600D01*
G75*
G02*
X120806000Y-8458600I75000J0D01*
G01*
X120956000Y-8458600D01*
G75*
G02*
X121031000Y-8533600I0J-75000D01*
G01*
X121031000Y-9858600D01*
G75*
G02*
X120956000Y-9933600I-75000J0D01*
G01*
G37*
G36*
G01*
X120456000Y-9933600D02*
X120306000Y-9933600D01*
G75*
G02*
X120231000Y-9858600I0J75000D01*
G01*
X120231000Y-8533600D01*
G75*
G02*
X120306000Y-8458600I75000J0D01*
G01*
X120456000Y-8458600D01*
G75*
G02*
X120531000Y-8533600I0J-75000D01*
G01*
X120531000Y-9858600D01*
G75*
G02*
X120456000Y-9933600I-75000J0D01*
G01*
G37*
G36*
G01*
X119956000Y-9933600D02*
X119806000Y-9933600D01*
G75*
G02*
X119731000Y-9858600I0J75000D01*
G01*
X119731000Y-8533600D01*
G75*
G02*
X119806000Y-8458600I75000J0D01*
G01*
X119956000Y-8458600D01*
G75*
G02*
X120031000Y-8533600I0J-75000D01*
G01*
X120031000Y-9858600D01*
G75*
G02*
X119956000Y-9933600I-75000J0D01*
G01*
G37*
G36*
G01*
X119456000Y-9933600D02*
X119306000Y-9933600D01*
G75*
G02*
X119231000Y-9858600I0J75000D01*
G01*
X119231000Y-8533600D01*
G75*
G02*
X119306000Y-8458600I75000J0D01*
G01*
X119456000Y-8458600D01*
G75*
G02*
X119531000Y-8533600I0J-75000D01*
G01*
X119531000Y-9858600D01*
G75*
G02*
X119456000Y-9933600I-75000J0D01*
G01*
G37*
G36*
G01*
X118956000Y-9933600D02*
X118806000Y-9933600D01*
G75*
G02*
X118731000Y-9858600I0J75000D01*
G01*
X118731000Y-8533600D01*
G75*
G02*
X118806000Y-8458600I75000J0D01*
G01*
X118956000Y-8458600D01*
G75*
G02*
X119031000Y-8533600I0J-75000D01*
G01*
X119031000Y-9858600D01*
G75*
G02*
X118956000Y-9933600I-75000J0D01*
G01*
G37*
%TD*%
D13*
%TO.C,J20*%
X111626000Y-15789000D03*
X111626000Y-18289000D03*
X111626000Y-20789000D03*
D14*
X111626000Y-23289000D03*
%TD*%
D11*
%TO.C,J5*%
X82530000Y-23040000D03*
X82530000Y-20500000D03*
X85070000Y-23040000D03*
X85070000Y-20500000D03*
X87610000Y-23040000D03*
D12*
X87610000Y-20500000D03*
%TD*%
D15*
%TO.C,J6*%
X89282000Y-36250000D03*
X136322000Y-36250000D03*
D16*
X97567000Y-37670000D03*
X100337000Y-37670000D03*
X103107000Y-37670000D03*
X105877000Y-37670000D03*
X108647000Y-37670000D03*
X111417000Y-37670000D03*
X114187000Y-37670000D03*
X116957000Y-37670000D03*
X119727000Y-37670000D03*
X122497000Y-37670000D03*
X125267000Y-37670000D03*
X128037000Y-37670000D03*
X96182000Y-34830000D03*
X98952000Y-34830000D03*
X101722000Y-34830000D03*
X104492000Y-34830000D03*
X107262000Y-34830000D03*
X110032000Y-34830000D03*
X112802000Y-34830000D03*
X115572000Y-34830000D03*
X118342000Y-34830000D03*
X121112000Y-34830000D03*
X123882000Y-34830000D03*
X126652000Y-34830000D03*
X129422000Y-34830000D03*
%TD*%
D17*
%TO.C,J9*%
X88772000Y-42688000D03*
X88772000Y-40688000D03*
X90772000Y-42688000D03*
X90772000Y-40688000D03*
X92772000Y-42688000D03*
X92772000Y-40688000D03*
X94772000Y-42688000D03*
X94772000Y-40688000D03*
X96772000Y-42688000D03*
X96772000Y-40688000D03*
X98772000Y-42688000D03*
X98772000Y-40688000D03*
X100772000Y-42688000D03*
X100772000Y-40688000D03*
X102772000Y-42688000D03*
X102772000Y-40688000D03*
X104772000Y-42688000D03*
X104772000Y-40688000D03*
X106772000Y-42688000D03*
X106772000Y-40688000D03*
X108772000Y-42688000D03*
X108772000Y-40688000D03*
X110772000Y-42688000D03*
X110772000Y-40688000D03*
X112772000Y-42688000D03*
X112772000Y-40688000D03*
X114772000Y-42688000D03*
X114772000Y-40688000D03*
X116772000Y-42688000D03*
X116772000Y-40688000D03*
X118772000Y-42688000D03*
X118772000Y-40688000D03*
X120772000Y-42688000D03*
X120772000Y-40688000D03*
X122772000Y-42688000D03*
X122772000Y-40688000D03*
X124772000Y-42688000D03*
X124772000Y-40688000D03*
X126772000Y-42688000D03*
D18*
X126772000Y-40688000D03*
D17*
X128772000Y-42688000D03*
X128772000Y-40688000D03*
X130772000Y-42688000D03*
X130772000Y-40688000D03*
X132772000Y-42688000D03*
X132772000Y-40688000D03*
X134772000Y-42688000D03*
X134772000Y-40688000D03*
X136772000Y-42688000D03*
D18*
X136772000Y-40688000D03*
%TD*%
D17*
%TO.C,J10*%
X143630000Y-38592000D03*
X143630000Y-36592000D03*
X143630000Y-34592000D03*
D18*
X143630000Y-32592000D03*
%TD*%
%TO.C,R4*%
G36*
G01*
X139422000Y-21354000D02*
X139792000Y-21354000D01*
G75*
G02*
X139927000Y-21489000I0J-135000D01*
G01*
X139927000Y-21759000D01*
G75*
G02*
X139792000Y-21894000I-135000J0D01*
G01*
X139422000Y-21894000D01*
G75*
G02*
X139287000Y-21759000I0J135000D01*
G01*
X139287000Y-21489000D01*
G75*
G02*
X139422000Y-21354000I135000J0D01*
G01*
G37*
G36*
G01*
X139422000Y-20334000D02*
X139792000Y-20334000D01*
G75*
G02*
X139927000Y-20469000I0J-135000D01*
G01*
X139927000Y-20739000D01*
G75*
G02*
X139792000Y-20874000I-135000J0D01*
G01*
X139422000Y-20874000D01*
G75*
G02*
X139287000Y-20739000I0J135000D01*
G01*
X139287000Y-20469000D01*
G75*
G02*
X139422000Y-20334000I135000J0D01*
G01*
G37*
%TD*%
%TO.C,R3*%
G36*
G01*
X139422000Y-23259000D02*
X139792000Y-23259000D01*
G75*
G02*
X139927000Y-23394000I0J-135000D01*
G01*
X139927000Y-23664000D01*
G75*
G02*
X139792000Y-23799000I-135000J0D01*
G01*
X139422000Y-23799000D01*
G75*
G02*
X139287000Y-23664000I0J135000D01*
G01*
X139287000Y-23394000D01*
G75*
G02*
X139422000Y-23259000I135000J0D01*
G01*
G37*
G36*
G01*
X139422000Y-22239000D02*
X139792000Y-22239000D01*
G75*
G02*
X139927000Y-22374000I0J-135000D01*
G01*
X139927000Y-22644000D01*
G75*
G02*
X139792000Y-22779000I-135000J0D01*
G01*
X139422000Y-22779000D01*
G75*
G02*
X139287000Y-22644000I0J135000D01*
G01*
X139287000Y-22374000D01*
G75*
G02*
X139422000Y-22239000I135000J0D01*
G01*
G37*
%TD*%
%TO.C,R2*%
G36*
G01*
X138998000Y3275500D02*
X138998000Y3645500D01*
G75*
G02*
X139133000Y3780500I135000J0D01*
G01*
X139403000Y3780500D01*
G75*
G02*
X139538000Y3645500I0J-135000D01*
G01*
X139538000Y3275500D01*
G75*
G02*
X139403000Y3140500I-135000J0D01*
G01*
X139133000Y3140500D01*
G75*
G02*
X138998000Y3275500I0J135000D01*
G01*
G37*
G36*
G01*
X137978000Y3275500D02*
X137978000Y3645500D01*
G75*
G02*
X138113000Y3780500I135000J0D01*
G01*
X138383000Y3780500D01*
G75*
G02*
X138518000Y3645500I0J-135000D01*
G01*
X138518000Y3275500D01*
G75*
G02*
X138383000Y3140500I-135000J0D01*
G01*
X138113000Y3140500D01*
G75*
G02*
X137978000Y3275500I0J135000D01*
G01*
G37*
%TD*%
%TO.C,R1*%
G36*
G01*
X138998000Y2259500D02*
X138998000Y2629500D01*
G75*
G02*
X139133000Y2764500I135000J0D01*
G01*
X139403000Y2764500D01*
G75*
G02*
X139538000Y2629500I0J-135000D01*
G01*
X139538000Y2259500D01*
G75*
G02*
X139403000Y2124500I-135000J0D01*
G01*
X139133000Y2124500D01*
G75*
G02*
X138998000Y2259500I0J135000D01*
G01*
G37*
G36*
G01*
X137978000Y2259500D02*
X137978000Y2629500D01*
G75*
G02*
X138113000Y2764500I135000J0D01*
G01*
X138383000Y2764500D01*
G75*
G02*
X138518000Y2629500I0J-135000D01*
G01*
X138518000Y2259500D01*
G75*
G02*
X138383000Y2124500I-135000J0D01*
G01*
X138113000Y2124500D01*
G75*
G02*
X137978000Y2259500I0J135000D01*
G01*
G37*
%TD*%
%TO.C,R58*%
G36*
G01*
X99717000Y-16111500D02*
X99347000Y-16111500D01*
G75*
G02*
X99212000Y-15976500I0J135000D01*
G01*
X99212000Y-15706500D01*
G75*
G02*
X99347000Y-15571500I135000J0D01*
G01*
X99717000Y-15571500D01*
G75*
G02*
X99852000Y-15706500I0J-135000D01*
G01*
X99852000Y-15976500D01*
G75*
G02*
X99717000Y-16111500I-135000J0D01*
G01*
G37*
G36*
G01*
X99717000Y-17131500D02*
X99347000Y-17131500D01*
G75*
G02*
X99212000Y-16996500I0J135000D01*
G01*
X99212000Y-16726500D01*
G75*
G02*
X99347000Y-16591500I135000J0D01*
G01*
X99717000Y-16591500D01*
G75*
G02*
X99852000Y-16726500I0J-135000D01*
G01*
X99852000Y-16996500D01*
G75*
G02*
X99717000Y-17131500I-135000J0D01*
G01*
G37*
%TD*%
%TO.C,R57*%
G36*
G01*
X98390000Y-16111500D02*
X98020000Y-16111500D01*
G75*
G02*
X97885000Y-15976500I0J135000D01*
G01*
X97885000Y-15706500D01*
G75*
G02*
X98020000Y-15571500I135000J0D01*
G01*
X98390000Y-15571500D01*
G75*
G02*
X98525000Y-15706500I0J-135000D01*
G01*
X98525000Y-15976500D01*
G75*
G02*
X98390000Y-16111500I-135000J0D01*
G01*
G37*
G36*
G01*
X98390000Y-17131500D02*
X98020000Y-17131500D01*
G75*
G02*
X97885000Y-16996500I0J135000D01*
G01*
X97885000Y-16726500D01*
G75*
G02*
X98020000Y-16591500I135000J0D01*
G01*
X98390000Y-16591500D01*
G75*
G02*
X98525000Y-16726500I0J-135000D01*
G01*
X98525000Y-16996500D01*
G75*
G02*
X98390000Y-17131500I-135000J0D01*
G01*
G37*
%TD*%
%TO.C,R56*%
G36*
G01*
X97120000Y-16111500D02*
X96750000Y-16111500D01*
G75*
G02*
X96615000Y-15976500I0J135000D01*
G01*
X96615000Y-15706500D01*
G75*
G02*
X96750000Y-15571500I135000J0D01*
G01*
X97120000Y-15571500D01*
G75*
G02*
X97255000Y-15706500I0J-135000D01*
G01*
X97255000Y-15976500D01*
G75*
G02*
X97120000Y-16111500I-135000J0D01*
G01*
G37*
G36*
G01*
X97120000Y-17131500D02*
X96750000Y-17131500D01*
G75*
G02*
X96615000Y-16996500I0J135000D01*
G01*
X96615000Y-16726500D01*
G75*
G02*
X96750000Y-16591500I135000J0D01*
G01*
X97120000Y-16591500D01*
G75*
G02*
X97255000Y-16726500I0J-135000D01*
G01*
X97255000Y-16996500D01*
G75*
G02*
X97120000Y-17131500I-135000J0D01*
G01*
G37*
%TD*%
%TO.C,R55*%
G36*
G01*
X95850000Y-16111500D02*
X95480000Y-16111500D01*
G75*
G02*
X95345000Y-15976500I0J135000D01*
G01*
X95345000Y-15706500D01*
G75*
G02*
X95480000Y-15571500I135000J0D01*
G01*
X95850000Y-15571500D01*
G75*
G02*
X95985000Y-15706500I0J-135000D01*
G01*
X95985000Y-15976500D01*
G75*
G02*
X95850000Y-16111500I-135000J0D01*
G01*
G37*
G36*
G01*
X95850000Y-17131500D02*
X95480000Y-17131500D01*
G75*
G02*
X95345000Y-16996500I0J135000D01*
G01*
X95345000Y-16726500D01*
G75*
G02*
X95480000Y-16591500I135000J0D01*
G01*
X95850000Y-16591500D01*
G75*
G02*
X95985000Y-16726500I0J-135000D01*
G01*
X95985000Y-16996500D01*
G75*
G02*
X95850000Y-17131500I-135000J0D01*
G01*
G37*
%TD*%
%TO.C,R54*%
G36*
G01*
X94580000Y-16111500D02*
X94210000Y-16111500D01*
G75*
G02*
X94075000Y-15976500I0J135000D01*
G01*
X94075000Y-15706500D01*
G75*
G02*
X94210000Y-15571500I135000J0D01*
G01*
X94580000Y-15571500D01*
G75*
G02*
X94715000Y-15706500I0J-135000D01*
G01*
X94715000Y-15976500D01*
G75*
G02*
X94580000Y-16111500I-135000J0D01*
G01*
G37*
G36*
G01*
X94580000Y-17131500D02*
X94210000Y-17131500D01*
G75*
G02*
X94075000Y-16996500I0J135000D01*
G01*
X94075000Y-16726500D01*
G75*
G02*
X94210000Y-16591500I135000J0D01*
G01*
X94580000Y-16591500D01*
G75*
G02*
X94715000Y-16726500I0J-135000D01*
G01*
X94715000Y-16996500D01*
G75*
G02*
X94580000Y-17131500I-135000J0D01*
G01*
G37*
%TD*%
%TO.C,R53*%
G36*
G01*
X93310000Y-16111500D02*
X92940000Y-16111500D01*
G75*
G02*
X92805000Y-15976500I0J135000D01*
G01*
X92805000Y-15706500D01*
G75*
G02*
X92940000Y-15571500I135000J0D01*
G01*
X93310000Y-15571500D01*
G75*
G02*
X93445000Y-15706500I0J-135000D01*
G01*
X93445000Y-15976500D01*
G75*
G02*
X93310000Y-16111500I-135000J0D01*
G01*
G37*
G36*
G01*
X93310000Y-17131500D02*
X92940000Y-17131500D01*
G75*
G02*
X92805000Y-16996500I0J135000D01*
G01*
X92805000Y-16726500D01*
G75*
G02*
X92940000Y-16591500I135000J0D01*
G01*
X93310000Y-16591500D01*
G75*
G02*
X93445000Y-16726500I0J-135000D01*
G01*
X93445000Y-16996500D01*
G75*
G02*
X93310000Y-17131500I-135000J0D01*
G01*
G37*
%TD*%
%TO.C,R52*%
G36*
G01*
X91405000Y-16111500D02*
X91035000Y-16111500D01*
G75*
G02*
X90900000Y-15976500I0J135000D01*
G01*
X90900000Y-15706500D01*
G75*
G02*
X91035000Y-15571500I135000J0D01*
G01*
X91405000Y-15571500D01*
G75*
G02*
X91540000Y-15706500I0J-135000D01*
G01*
X91540000Y-15976500D01*
G75*
G02*
X91405000Y-16111500I-135000J0D01*
G01*
G37*
G36*
G01*
X91405000Y-17131500D02*
X91035000Y-17131500D01*
G75*
G02*
X90900000Y-16996500I0J135000D01*
G01*
X90900000Y-16726500D01*
G75*
G02*
X91035000Y-16591500I135000J0D01*
G01*
X91405000Y-16591500D01*
G75*
G02*
X91540000Y-16726500I0J-135000D01*
G01*
X91540000Y-16996500D01*
G75*
G02*
X91405000Y-17131500I-135000J0D01*
G01*
G37*
%TD*%
%TO.C,R51*%
G36*
G01*
X90135000Y-16111500D02*
X89765000Y-16111500D01*
G75*
G02*
X89630000Y-15976500I0J135000D01*
G01*
X89630000Y-15706500D01*
G75*
G02*
X89765000Y-15571500I135000J0D01*
G01*
X90135000Y-15571500D01*
G75*
G02*
X90270000Y-15706500I0J-135000D01*
G01*
X90270000Y-15976500D01*
G75*
G02*
X90135000Y-16111500I-135000J0D01*
G01*
G37*
G36*
G01*
X90135000Y-17131500D02*
X89765000Y-17131500D01*
G75*
G02*
X89630000Y-16996500I0J135000D01*
G01*
X89630000Y-16726500D01*
G75*
G02*
X89765000Y-16591500I135000J0D01*
G01*
X90135000Y-16591500D01*
G75*
G02*
X90270000Y-16726500I0J-135000D01*
G01*
X90270000Y-16996500D01*
G75*
G02*
X90135000Y-17131500I-135000J0D01*
G01*
G37*
%TD*%
%TO.C,R50*%
G36*
G01*
X88865000Y-16111500D02*
X88495000Y-16111500D01*
G75*
G02*
X88360000Y-15976500I0J135000D01*
G01*
X88360000Y-15706500D01*
G75*
G02*
X88495000Y-15571500I135000J0D01*
G01*
X88865000Y-15571500D01*
G75*
G02*
X89000000Y-15706500I0J-135000D01*
G01*
X89000000Y-15976500D01*
G75*
G02*
X88865000Y-16111500I-135000J0D01*
G01*
G37*
G36*
G01*
X88865000Y-17131500D02*
X88495000Y-17131500D01*
G75*
G02*
X88360000Y-16996500I0J135000D01*
G01*
X88360000Y-16726500D01*
G75*
G02*
X88495000Y-16591500I135000J0D01*
G01*
X88865000Y-16591500D01*
G75*
G02*
X89000000Y-16726500I0J-135000D01*
G01*
X89000000Y-16996500D01*
G75*
G02*
X88865000Y-17131500I-135000J0D01*
G01*
G37*
%TD*%
%TO.C,R49*%
G36*
G01*
X122012000Y-17127500D02*
X121642000Y-17127500D01*
G75*
G02*
X121507000Y-16992500I0J135000D01*
G01*
X121507000Y-16722500D01*
G75*
G02*
X121642000Y-16587500I135000J0D01*
G01*
X122012000Y-16587500D01*
G75*
G02*
X122147000Y-16722500I0J-135000D01*
G01*
X122147000Y-16992500D01*
G75*
G02*
X122012000Y-17127500I-135000J0D01*
G01*
G37*
G36*
G01*
X122012000Y-18147500D02*
X121642000Y-18147500D01*
G75*
G02*
X121507000Y-18012500I0J135000D01*
G01*
X121507000Y-17742500D01*
G75*
G02*
X121642000Y-17607500I135000J0D01*
G01*
X122012000Y-17607500D01*
G75*
G02*
X122147000Y-17742500I0J-135000D01*
G01*
X122147000Y-18012500D01*
G75*
G02*
X122012000Y-18147500I-135000J0D01*
G01*
G37*
%TD*%
%TO.C,R48*%
G36*
G01*
X120742000Y-17127500D02*
X120372000Y-17127500D01*
G75*
G02*
X120237000Y-16992500I0J135000D01*
G01*
X120237000Y-16722500D01*
G75*
G02*
X120372000Y-16587500I135000J0D01*
G01*
X120742000Y-16587500D01*
G75*
G02*
X120877000Y-16722500I0J-135000D01*
G01*
X120877000Y-16992500D01*
G75*
G02*
X120742000Y-17127500I-135000J0D01*
G01*
G37*
G36*
G01*
X120742000Y-18147500D02*
X120372000Y-18147500D01*
G75*
G02*
X120237000Y-18012500I0J135000D01*
G01*
X120237000Y-17742500D01*
G75*
G02*
X120372000Y-17607500I135000J0D01*
G01*
X120742000Y-17607500D01*
G75*
G02*
X120877000Y-17742500I0J-135000D01*
G01*
X120877000Y-18012500D01*
G75*
G02*
X120742000Y-18147500I-135000J0D01*
G01*
G37*
%TD*%
%TO.C,R47*%
G36*
G01*
X117948000Y-17127500D02*
X117578000Y-17127500D01*
G75*
G02*
X117443000Y-16992500I0J135000D01*
G01*
X117443000Y-16722500D01*
G75*
G02*
X117578000Y-16587500I135000J0D01*
G01*
X117948000Y-16587500D01*
G75*
G02*
X118083000Y-16722500I0J-135000D01*
G01*
X118083000Y-16992500D01*
G75*
G02*
X117948000Y-17127500I-135000J0D01*
G01*
G37*
G36*
G01*
X117948000Y-18147500D02*
X117578000Y-18147500D01*
G75*
G02*
X117443000Y-18012500I0J135000D01*
G01*
X117443000Y-17742500D01*
G75*
G02*
X117578000Y-17607500I135000J0D01*
G01*
X117948000Y-17607500D01*
G75*
G02*
X118083000Y-17742500I0J-135000D01*
G01*
X118083000Y-18012500D01*
G75*
G02*
X117948000Y-18147500I-135000J0D01*
G01*
G37*
%TD*%
%TO.C,R46*%
G36*
G01*
X116678000Y-17127500D02*
X116308000Y-17127500D01*
G75*
G02*
X116173000Y-16992500I0J135000D01*
G01*
X116173000Y-16722500D01*
G75*
G02*
X116308000Y-16587500I135000J0D01*
G01*
X116678000Y-16587500D01*
G75*
G02*
X116813000Y-16722500I0J-135000D01*
G01*
X116813000Y-16992500D01*
G75*
G02*
X116678000Y-17127500I-135000J0D01*
G01*
G37*
G36*
G01*
X116678000Y-18147500D02*
X116308000Y-18147500D01*
G75*
G02*
X116173000Y-18012500I0J135000D01*
G01*
X116173000Y-17742500D01*
G75*
G02*
X116308000Y-17607500I135000J0D01*
G01*
X116678000Y-17607500D01*
G75*
G02*
X116813000Y-17742500I0J-135000D01*
G01*
X116813000Y-18012500D01*
G75*
G02*
X116678000Y-18147500I-135000J0D01*
G01*
G37*
%TD*%
%TO.C,R45*%
G36*
G01*
X115408000Y-17127500D02*
X115038000Y-17127500D01*
G75*
G02*
X114903000Y-16992500I0J135000D01*
G01*
X114903000Y-16722500D01*
G75*
G02*
X115038000Y-16587500I135000J0D01*
G01*
X115408000Y-16587500D01*
G75*
G02*
X115543000Y-16722500I0J-135000D01*
G01*
X115543000Y-16992500D01*
G75*
G02*
X115408000Y-17127500I-135000J0D01*
G01*
G37*
G36*
G01*
X115408000Y-18147500D02*
X115038000Y-18147500D01*
G75*
G02*
X114903000Y-18012500I0J135000D01*
G01*
X114903000Y-17742500D01*
G75*
G02*
X115038000Y-17607500I135000J0D01*
G01*
X115408000Y-17607500D01*
G75*
G02*
X115543000Y-17742500I0J-135000D01*
G01*
X115543000Y-18012500D01*
G75*
G02*
X115408000Y-18147500I-135000J0D01*
G01*
G37*
%TD*%
%TO.C,R44*%
G36*
G01*
X135029000Y-17302500D02*
X134659000Y-17302500D01*
G75*
G02*
X134524000Y-17167500I0J135000D01*
G01*
X134524000Y-16897500D01*
G75*
G02*
X134659000Y-16762500I135000J0D01*
G01*
X135029000Y-16762500D01*
G75*
G02*
X135164000Y-16897500I0J-135000D01*
G01*
X135164000Y-17167500D01*
G75*
G02*
X135029000Y-17302500I-135000J0D01*
G01*
G37*
G36*
G01*
X135029000Y-18322500D02*
X134659000Y-18322500D01*
G75*
G02*
X134524000Y-18187500I0J135000D01*
G01*
X134524000Y-17917500D01*
G75*
G02*
X134659000Y-17782500I135000J0D01*
G01*
X135029000Y-17782500D01*
G75*
G02*
X135164000Y-17917500I0J-135000D01*
G01*
X135164000Y-18187500D01*
G75*
G02*
X135029000Y-18322500I-135000J0D01*
G01*
G37*
%TD*%
%TO.C,R43*%
G36*
G01*
X133759000Y-17302500D02*
X133389000Y-17302500D01*
G75*
G02*
X133254000Y-17167500I0J135000D01*
G01*
X133254000Y-16897500D01*
G75*
G02*
X133389000Y-16762500I135000J0D01*
G01*
X133759000Y-16762500D01*
G75*
G02*
X133894000Y-16897500I0J-135000D01*
G01*
X133894000Y-17167500D01*
G75*
G02*
X133759000Y-17302500I-135000J0D01*
G01*
G37*
G36*
G01*
X133759000Y-18322500D02*
X133389000Y-18322500D01*
G75*
G02*
X133254000Y-18187500I0J135000D01*
G01*
X133254000Y-17917500D01*
G75*
G02*
X133389000Y-17782500I135000J0D01*
G01*
X133759000Y-17782500D01*
G75*
G02*
X133894000Y-17917500I0J-135000D01*
G01*
X133894000Y-18187500D01*
G75*
G02*
X133759000Y-18322500I-135000J0D01*
G01*
G37*
%TD*%
%TO.C,R42*%
G36*
G01*
X132489000Y-17302500D02*
X132119000Y-17302500D01*
G75*
G02*
X131984000Y-17167500I0J135000D01*
G01*
X131984000Y-16897500D01*
G75*
G02*
X132119000Y-16762500I135000J0D01*
G01*
X132489000Y-16762500D01*
G75*
G02*
X132624000Y-16897500I0J-135000D01*
G01*
X132624000Y-17167500D01*
G75*
G02*
X132489000Y-17302500I-135000J0D01*
G01*
G37*
G36*
G01*
X132489000Y-18322500D02*
X132119000Y-18322500D01*
G75*
G02*
X131984000Y-18187500I0J135000D01*
G01*
X131984000Y-17917500D01*
G75*
G02*
X132119000Y-17782500I135000J0D01*
G01*
X132489000Y-17782500D01*
G75*
G02*
X132624000Y-17917500I0J-135000D01*
G01*
X132624000Y-18187500D01*
G75*
G02*
X132489000Y-18322500I-135000J0D01*
G01*
G37*
%TD*%
%TO.C,R41*%
G36*
G01*
X131219000Y-17302500D02*
X130849000Y-17302500D01*
G75*
G02*
X130714000Y-17167500I0J135000D01*
G01*
X130714000Y-16897500D01*
G75*
G02*
X130849000Y-16762500I135000J0D01*
G01*
X131219000Y-16762500D01*
G75*
G02*
X131354000Y-16897500I0J-135000D01*
G01*
X131354000Y-17167500D01*
G75*
G02*
X131219000Y-17302500I-135000J0D01*
G01*
G37*
G36*
G01*
X131219000Y-18322500D02*
X130849000Y-18322500D01*
G75*
G02*
X130714000Y-18187500I0J135000D01*
G01*
X130714000Y-17917500D01*
G75*
G02*
X130849000Y-17782500I135000J0D01*
G01*
X131219000Y-17782500D01*
G75*
G02*
X131354000Y-17917500I0J-135000D01*
G01*
X131354000Y-18187500D01*
G75*
G02*
X131219000Y-18322500I-135000J0D01*
G01*
G37*
%TD*%
%TO.C,R40*%
G36*
G01*
X99347000Y-14242000D02*
X99717000Y-14242000D01*
G75*
G02*
X99852000Y-14377000I0J-135000D01*
G01*
X99852000Y-14647000D01*
G75*
G02*
X99717000Y-14782000I-135000J0D01*
G01*
X99347000Y-14782000D01*
G75*
G02*
X99212000Y-14647000I0J135000D01*
G01*
X99212000Y-14377000D01*
G75*
G02*
X99347000Y-14242000I135000J0D01*
G01*
G37*
G36*
G01*
X99347000Y-13222000D02*
X99717000Y-13222000D01*
G75*
G02*
X99852000Y-13357000I0J-135000D01*
G01*
X99852000Y-13627000D01*
G75*
G02*
X99717000Y-13762000I-135000J0D01*
G01*
X99347000Y-13762000D01*
G75*
G02*
X99212000Y-13627000I0J135000D01*
G01*
X99212000Y-13357000D01*
G75*
G02*
X99347000Y-13222000I135000J0D01*
G01*
G37*
%TD*%
%TO.C,R39*%
G36*
G01*
X98020000Y-14242000D02*
X98390000Y-14242000D01*
G75*
G02*
X98525000Y-14377000I0J-135000D01*
G01*
X98525000Y-14647000D01*
G75*
G02*
X98390000Y-14782000I-135000J0D01*
G01*
X98020000Y-14782000D01*
G75*
G02*
X97885000Y-14647000I0J135000D01*
G01*
X97885000Y-14377000D01*
G75*
G02*
X98020000Y-14242000I135000J0D01*
G01*
G37*
G36*
G01*
X98020000Y-13222000D02*
X98390000Y-13222000D01*
G75*
G02*
X98525000Y-13357000I0J-135000D01*
G01*
X98525000Y-13627000D01*
G75*
G02*
X98390000Y-13762000I-135000J0D01*
G01*
X98020000Y-13762000D01*
G75*
G02*
X97885000Y-13627000I0J135000D01*
G01*
X97885000Y-13357000D01*
G75*
G02*
X98020000Y-13222000I135000J0D01*
G01*
G37*
%TD*%
%TO.C,R38*%
G36*
G01*
X96750000Y-14242000D02*
X97120000Y-14242000D01*
G75*
G02*
X97255000Y-14377000I0J-135000D01*
G01*
X97255000Y-14647000D01*
G75*
G02*
X97120000Y-14782000I-135000J0D01*
G01*
X96750000Y-14782000D01*
G75*
G02*
X96615000Y-14647000I0J135000D01*
G01*
X96615000Y-14377000D01*
G75*
G02*
X96750000Y-14242000I135000J0D01*
G01*
G37*
G36*
G01*
X96750000Y-13222000D02*
X97120000Y-13222000D01*
G75*
G02*
X97255000Y-13357000I0J-135000D01*
G01*
X97255000Y-13627000D01*
G75*
G02*
X97120000Y-13762000I-135000J0D01*
G01*
X96750000Y-13762000D01*
G75*
G02*
X96615000Y-13627000I0J135000D01*
G01*
X96615000Y-13357000D01*
G75*
G02*
X96750000Y-13222000I135000J0D01*
G01*
G37*
%TD*%
%TO.C,R37*%
G36*
G01*
X95417000Y-14242000D02*
X95787000Y-14242000D01*
G75*
G02*
X95922000Y-14377000I0J-135000D01*
G01*
X95922000Y-14647000D01*
G75*
G02*
X95787000Y-14782000I-135000J0D01*
G01*
X95417000Y-14782000D01*
G75*
G02*
X95282000Y-14647000I0J135000D01*
G01*
X95282000Y-14377000D01*
G75*
G02*
X95417000Y-14242000I135000J0D01*
G01*
G37*
G36*
G01*
X95417000Y-13222000D02*
X95787000Y-13222000D01*
G75*
G02*
X95922000Y-13357000I0J-135000D01*
G01*
X95922000Y-13627000D01*
G75*
G02*
X95787000Y-13762000I-135000J0D01*
G01*
X95417000Y-13762000D01*
G75*
G02*
X95282000Y-13627000I0J135000D01*
G01*
X95282000Y-13357000D01*
G75*
G02*
X95417000Y-13222000I135000J0D01*
G01*
G37*
%TD*%
%TO.C,R36*%
G36*
G01*
X94210000Y-14242000D02*
X94580000Y-14242000D01*
G75*
G02*
X94715000Y-14377000I0J-135000D01*
G01*
X94715000Y-14647000D01*
G75*
G02*
X94580000Y-14782000I-135000J0D01*
G01*
X94210000Y-14782000D01*
G75*
G02*
X94075000Y-14647000I0J135000D01*
G01*
X94075000Y-14377000D01*
G75*
G02*
X94210000Y-14242000I135000J0D01*
G01*
G37*
G36*
G01*
X94210000Y-13222000D02*
X94580000Y-13222000D01*
G75*
G02*
X94715000Y-13357000I0J-135000D01*
G01*
X94715000Y-13627000D01*
G75*
G02*
X94580000Y-13762000I-135000J0D01*
G01*
X94210000Y-13762000D01*
G75*
G02*
X94075000Y-13627000I0J135000D01*
G01*
X94075000Y-13357000D01*
G75*
G02*
X94210000Y-13222000I135000J0D01*
G01*
G37*
%TD*%
%TO.C,R35*%
G36*
G01*
X92940000Y-14242000D02*
X93310000Y-14242000D01*
G75*
G02*
X93445000Y-14377000I0J-135000D01*
G01*
X93445000Y-14647000D01*
G75*
G02*
X93310000Y-14782000I-135000J0D01*
G01*
X92940000Y-14782000D01*
G75*
G02*
X92805000Y-14647000I0J135000D01*
G01*
X92805000Y-14377000D01*
G75*
G02*
X92940000Y-14242000I135000J0D01*
G01*
G37*
G36*
G01*
X92940000Y-13222000D02*
X93310000Y-13222000D01*
G75*
G02*
X93445000Y-13357000I0J-135000D01*
G01*
X93445000Y-13627000D01*
G75*
G02*
X93310000Y-13762000I-135000J0D01*
G01*
X92940000Y-13762000D01*
G75*
G02*
X92805000Y-13627000I0J135000D01*
G01*
X92805000Y-13357000D01*
G75*
G02*
X92940000Y-13222000I135000J0D01*
G01*
G37*
%TD*%
%TO.C,R34*%
G36*
G01*
X91035000Y-14242000D02*
X91405000Y-14242000D01*
G75*
G02*
X91540000Y-14377000I0J-135000D01*
G01*
X91540000Y-14647000D01*
G75*
G02*
X91405000Y-14782000I-135000J0D01*
G01*
X91035000Y-14782000D01*
G75*
G02*
X90900000Y-14647000I0J135000D01*
G01*
X90900000Y-14377000D01*
G75*
G02*
X91035000Y-14242000I135000J0D01*
G01*
G37*
G36*
G01*
X91035000Y-13222000D02*
X91405000Y-13222000D01*
G75*
G02*
X91540000Y-13357000I0J-135000D01*
G01*
X91540000Y-13627000D01*
G75*
G02*
X91405000Y-13762000I-135000J0D01*
G01*
X91035000Y-13762000D01*
G75*
G02*
X90900000Y-13627000I0J135000D01*
G01*
X90900000Y-13357000D01*
G75*
G02*
X91035000Y-13222000I135000J0D01*
G01*
G37*
%TD*%
%TO.C,R33*%
G36*
G01*
X89765000Y-14242000D02*
X90135000Y-14242000D01*
G75*
G02*
X90270000Y-14377000I0J-135000D01*
G01*
X90270000Y-14647000D01*
G75*
G02*
X90135000Y-14782000I-135000J0D01*
G01*
X89765000Y-14782000D01*
G75*
G02*
X89630000Y-14647000I0J135000D01*
G01*
X89630000Y-14377000D01*
G75*
G02*
X89765000Y-14242000I135000J0D01*
G01*
G37*
G36*
G01*
X89765000Y-13222000D02*
X90135000Y-13222000D01*
G75*
G02*
X90270000Y-13357000I0J-135000D01*
G01*
X90270000Y-13627000D01*
G75*
G02*
X90135000Y-13762000I-135000J0D01*
G01*
X89765000Y-13762000D01*
G75*
G02*
X89630000Y-13627000I0J135000D01*
G01*
X89630000Y-13357000D01*
G75*
G02*
X89765000Y-13222000I135000J0D01*
G01*
G37*
%TD*%
%TO.C,R32*%
G36*
G01*
X88495000Y-14242000D02*
X88865000Y-14242000D01*
G75*
G02*
X89000000Y-14377000I0J-135000D01*
G01*
X89000000Y-14647000D01*
G75*
G02*
X88865000Y-14782000I-135000J0D01*
G01*
X88495000Y-14782000D01*
G75*
G02*
X88360000Y-14647000I0J135000D01*
G01*
X88360000Y-14377000D01*
G75*
G02*
X88495000Y-14242000I135000J0D01*
G01*
G37*
G36*
G01*
X88495000Y-13222000D02*
X88865000Y-13222000D01*
G75*
G02*
X89000000Y-13357000I0J-135000D01*
G01*
X89000000Y-13627000D01*
G75*
G02*
X88865000Y-13762000I-135000J0D01*
G01*
X88495000Y-13762000D01*
G75*
G02*
X88360000Y-13627000I0J135000D01*
G01*
X88360000Y-13357000D01*
G75*
G02*
X88495000Y-13222000I135000J0D01*
G01*
G37*
%TD*%
%TO.C,R31*%
G36*
G01*
X121642000Y-15258000D02*
X122012000Y-15258000D01*
G75*
G02*
X122147000Y-15393000I0J-135000D01*
G01*
X122147000Y-15663000D01*
G75*
G02*
X122012000Y-15798000I-135000J0D01*
G01*
X121642000Y-15798000D01*
G75*
G02*
X121507000Y-15663000I0J135000D01*
G01*
X121507000Y-15393000D01*
G75*
G02*
X121642000Y-15258000I135000J0D01*
G01*
G37*
G36*
G01*
X121642000Y-14238000D02*
X122012000Y-14238000D01*
G75*
G02*
X122147000Y-14373000I0J-135000D01*
G01*
X122147000Y-14643000D01*
G75*
G02*
X122012000Y-14778000I-135000J0D01*
G01*
X121642000Y-14778000D01*
G75*
G02*
X121507000Y-14643000I0J135000D01*
G01*
X121507000Y-14373000D01*
G75*
G02*
X121642000Y-14238000I135000J0D01*
G01*
G37*
%TD*%
%TO.C,R30*%
G36*
G01*
X120356000Y-15274000D02*
X120726000Y-15274000D01*
G75*
G02*
X120861000Y-15409000I0J-135000D01*
G01*
X120861000Y-15679000D01*
G75*
G02*
X120726000Y-15814000I-135000J0D01*
G01*
X120356000Y-15814000D01*
G75*
G02*
X120221000Y-15679000I0J135000D01*
G01*
X120221000Y-15409000D01*
G75*
G02*
X120356000Y-15274000I135000J0D01*
G01*
G37*
G36*
G01*
X120356000Y-14254000D02*
X120726000Y-14254000D01*
G75*
G02*
X120861000Y-14389000I0J-135000D01*
G01*
X120861000Y-14659000D01*
G75*
G02*
X120726000Y-14794000I-135000J0D01*
G01*
X120356000Y-14794000D01*
G75*
G02*
X120221000Y-14659000I0J135000D01*
G01*
X120221000Y-14389000D01*
G75*
G02*
X120356000Y-14254000I135000J0D01*
G01*
G37*
%TD*%
%TO.C,R29*%
G36*
G01*
X117578000Y-15258000D02*
X117948000Y-15258000D01*
G75*
G02*
X118083000Y-15393000I0J-135000D01*
G01*
X118083000Y-15663000D01*
G75*
G02*
X117948000Y-15798000I-135000J0D01*
G01*
X117578000Y-15798000D01*
G75*
G02*
X117443000Y-15663000I0J135000D01*
G01*
X117443000Y-15393000D01*
G75*
G02*
X117578000Y-15258000I135000J0D01*
G01*
G37*
G36*
G01*
X117578000Y-14238000D02*
X117948000Y-14238000D01*
G75*
G02*
X118083000Y-14373000I0J-135000D01*
G01*
X118083000Y-14643000D01*
G75*
G02*
X117948000Y-14778000I-135000J0D01*
G01*
X117578000Y-14778000D01*
G75*
G02*
X117443000Y-14643000I0J135000D01*
G01*
X117443000Y-14373000D01*
G75*
G02*
X117578000Y-14238000I135000J0D01*
G01*
G37*
%TD*%
%TO.C,R28*%
G36*
G01*
X116308000Y-15258000D02*
X116678000Y-15258000D01*
G75*
G02*
X116813000Y-15393000I0J-135000D01*
G01*
X116813000Y-15663000D01*
G75*
G02*
X116678000Y-15798000I-135000J0D01*
G01*
X116308000Y-15798000D01*
G75*
G02*
X116173000Y-15663000I0J135000D01*
G01*
X116173000Y-15393000D01*
G75*
G02*
X116308000Y-15258000I135000J0D01*
G01*
G37*
G36*
G01*
X116308000Y-14238000D02*
X116678000Y-14238000D01*
G75*
G02*
X116813000Y-14373000I0J-135000D01*
G01*
X116813000Y-14643000D01*
G75*
G02*
X116678000Y-14778000I-135000J0D01*
G01*
X116308000Y-14778000D01*
G75*
G02*
X116173000Y-14643000I0J135000D01*
G01*
X116173000Y-14373000D01*
G75*
G02*
X116308000Y-14238000I135000J0D01*
G01*
G37*
%TD*%
%TO.C,R27*%
G36*
G01*
X115038000Y-15258000D02*
X115408000Y-15258000D01*
G75*
G02*
X115543000Y-15393000I0J-135000D01*
G01*
X115543000Y-15663000D01*
G75*
G02*
X115408000Y-15798000I-135000J0D01*
G01*
X115038000Y-15798000D01*
G75*
G02*
X114903000Y-15663000I0J135000D01*
G01*
X114903000Y-15393000D01*
G75*
G02*
X115038000Y-15258000I135000J0D01*
G01*
G37*
G36*
G01*
X115038000Y-14238000D02*
X115408000Y-14238000D01*
G75*
G02*
X115543000Y-14373000I0J-135000D01*
G01*
X115543000Y-14643000D01*
G75*
G02*
X115408000Y-14778000I-135000J0D01*
G01*
X115038000Y-14778000D01*
G75*
G02*
X114903000Y-14643000I0J135000D01*
G01*
X114903000Y-14373000D01*
G75*
G02*
X115038000Y-14238000I135000J0D01*
G01*
G37*
%TD*%
%TO.C,R26*%
G36*
G01*
X134659000Y-15385000D02*
X135029000Y-15385000D01*
G75*
G02*
X135164000Y-15520000I0J-135000D01*
G01*
X135164000Y-15790000D01*
G75*
G02*
X135029000Y-15925000I-135000J0D01*
G01*
X134659000Y-15925000D01*
G75*
G02*
X134524000Y-15790000I0J135000D01*
G01*
X134524000Y-15520000D01*
G75*
G02*
X134659000Y-15385000I135000J0D01*
G01*
G37*
G36*
G01*
X134659000Y-14365000D02*
X135029000Y-14365000D01*
G75*
G02*
X135164000Y-14500000I0J-135000D01*
G01*
X135164000Y-14770000D01*
G75*
G02*
X135029000Y-14905000I-135000J0D01*
G01*
X134659000Y-14905000D01*
G75*
G02*
X134524000Y-14770000I0J135000D01*
G01*
X134524000Y-14500000D01*
G75*
G02*
X134659000Y-14365000I135000J0D01*
G01*
G37*
%TD*%
%TO.C,R25*%
G36*
G01*
X133389000Y-15385000D02*
X133759000Y-15385000D01*
G75*
G02*
X133894000Y-15520000I0J-135000D01*
G01*
X133894000Y-15790000D01*
G75*
G02*
X133759000Y-15925000I-135000J0D01*
G01*
X133389000Y-15925000D01*
G75*
G02*
X133254000Y-15790000I0J135000D01*
G01*
X133254000Y-15520000D01*
G75*
G02*
X133389000Y-15385000I135000J0D01*
G01*
G37*
G36*
G01*
X133389000Y-14365000D02*
X133759000Y-14365000D01*
G75*
G02*
X133894000Y-14500000I0J-135000D01*
G01*
X133894000Y-14770000D01*
G75*
G02*
X133759000Y-14905000I-135000J0D01*
G01*
X133389000Y-14905000D01*
G75*
G02*
X133254000Y-14770000I0J135000D01*
G01*
X133254000Y-14500000D01*
G75*
G02*
X133389000Y-14365000I135000J0D01*
G01*
G37*
%TD*%
%TO.C,R24*%
G36*
G01*
X132119000Y-15385000D02*
X132489000Y-15385000D01*
G75*
G02*
X132624000Y-15520000I0J-135000D01*
G01*
X132624000Y-15790000D01*
G75*
G02*
X132489000Y-15925000I-135000J0D01*
G01*
X132119000Y-15925000D01*
G75*
G02*
X131984000Y-15790000I0J135000D01*
G01*
X131984000Y-15520000D01*
G75*
G02*
X132119000Y-15385000I135000J0D01*
G01*
G37*
G36*
G01*
X132119000Y-14365000D02*
X132489000Y-14365000D01*
G75*
G02*
X132624000Y-14500000I0J-135000D01*
G01*
X132624000Y-14770000D01*
G75*
G02*
X132489000Y-14905000I-135000J0D01*
G01*
X132119000Y-14905000D01*
G75*
G02*
X131984000Y-14770000I0J135000D01*
G01*
X131984000Y-14500000D01*
G75*
G02*
X132119000Y-14365000I135000J0D01*
G01*
G37*
%TD*%
%TO.C,R23*%
G36*
G01*
X130849000Y-15385000D02*
X131219000Y-15385000D01*
G75*
G02*
X131354000Y-15520000I0J-135000D01*
G01*
X131354000Y-15790000D01*
G75*
G02*
X131219000Y-15925000I-135000J0D01*
G01*
X130849000Y-15925000D01*
G75*
G02*
X130714000Y-15790000I0J135000D01*
G01*
X130714000Y-15520000D01*
G75*
G02*
X130849000Y-15385000I135000J0D01*
G01*
G37*
G36*
G01*
X130849000Y-14365000D02*
X131219000Y-14365000D01*
G75*
G02*
X131354000Y-14500000I0J-135000D01*
G01*
X131354000Y-14770000D01*
G75*
G02*
X131219000Y-14905000I-135000J0D01*
G01*
X130849000Y-14905000D01*
G75*
G02*
X130714000Y-14770000I0J135000D01*
G01*
X130714000Y-14500000D01*
G75*
G02*
X130849000Y-14365000I135000J0D01*
G01*
G37*
%TD*%
%TO.C,R22*%
G36*
G01*
X101576000Y1991000D02*
X101946000Y1991000D01*
G75*
G02*
X102081000Y1856000I0J-135000D01*
G01*
X102081000Y1586000D01*
G75*
G02*
X101946000Y1451000I-135000J0D01*
G01*
X101576000Y1451000D01*
G75*
G02*
X101441000Y1586000I0J135000D01*
G01*
X101441000Y1856000D01*
G75*
G02*
X101576000Y1991000I135000J0D01*
G01*
G37*
G36*
G01*
X101576000Y3011000D02*
X101946000Y3011000D01*
G75*
G02*
X102081000Y2876000I0J-135000D01*
G01*
X102081000Y2606000D01*
G75*
G02*
X101946000Y2471000I-135000J0D01*
G01*
X101576000Y2471000D01*
G75*
G02*
X101441000Y2606000I0J135000D01*
G01*
X101441000Y2876000D01*
G75*
G02*
X101576000Y3011000I135000J0D01*
G01*
G37*
%TD*%
%TO.C,R21*%
G36*
G01*
X100306000Y1991000D02*
X100676000Y1991000D01*
G75*
G02*
X100811000Y1856000I0J-135000D01*
G01*
X100811000Y1586000D01*
G75*
G02*
X100676000Y1451000I-135000J0D01*
G01*
X100306000Y1451000D01*
G75*
G02*
X100171000Y1586000I0J135000D01*
G01*
X100171000Y1856000D01*
G75*
G02*
X100306000Y1991000I135000J0D01*
G01*
G37*
G36*
G01*
X100306000Y3011000D02*
X100676000Y3011000D01*
G75*
G02*
X100811000Y2876000I0J-135000D01*
G01*
X100811000Y2606000D01*
G75*
G02*
X100676000Y2471000I-135000J0D01*
G01*
X100306000Y2471000D01*
G75*
G02*
X100171000Y2606000I0J135000D01*
G01*
X100171000Y2876000D01*
G75*
G02*
X100306000Y3011000I135000J0D01*
G01*
G37*
%TD*%
%TO.C,R20*%
G36*
G01*
X99036000Y1991000D02*
X99406000Y1991000D01*
G75*
G02*
X99541000Y1856000I0J-135000D01*
G01*
X99541000Y1586000D01*
G75*
G02*
X99406000Y1451000I-135000J0D01*
G01*
X99036000Y1451000D01*
G75*
G02*
X98901000Y1586000I0J135000D01*
G01*
X98901000Y1856000D01*
G75*
G02*
X99036000Y1991000I135000J0D01*
G01*
G37*
G36*
G01*
X99036000Y3011000D02*
X99406000Y3011000D01*
G75*
G02*
X99541000Y2876000I0J-135000D01*
G01*
X99541000Y2606000D01*
G75*
G02*
X99406000Y2471000I-135000J0D01*
G01*
X99036000Y2471000D01*
G75*
G02*
X98901000Y2606000I0J135000D01*
G01*
X98901000Y2876000D01*
G75*
G02*
X99036000Y3011000I135000J0D01*
G01*
G37*
%TD*%
%TO.C,R19*%
G36*
G01*
X96242000Y1991000D02*
X96612000Y1991000D01*
G75*
G02*
X96747000Y1856000I0J-135000D01*
G01*
X96747000Y1586000D01*
G75*
G02*
X96612000Y1451000I-135000J0D01*
G01*
X96242000Y1451000D01*
G75*
G02*
X96107000Y1586000I0J135000D01*
G01*
X96107000Y1856000D01*
G75*
G02*
X96242000Y1991000I135000J0D01*
G01*
G37*
G36*
G01*
X96242000Y3011000D02*
X96612000Y3011000D01*
G75*
G02*
X96747000Y2876000I0J-135000D01*
G01*
X96747000Y2606000D01*
G75*
G02*
X96612000Y2471000I-135000J0D01*
G01*
X96242000Y2471000D01*
G75*
G02*
X96107000Y2606000I0J135000D01*
G01*
X96107000Y2876000D01*
G75*
G02*
X96242000Y3011000I135000J0D01*
G01*
G37*
%TD*%
%TO.C,R18*%
G36*
G01*
X94972000Y1991000D02*
X95342000Y1991000D01*
G75*
G02*
X95477000Y1856000I0J-135000D01*
G01*
X95477000Y1586000D01*
G75*
G02*
X95342000Y1451000I-135000J0D01*
G01*
X94972000Y1451000D01*
G75*
G02*
X94837000Y1586000I0J135000D01*
G01*
X94837000Y1856000D01*
G75*
G02*
X94972000Y1991000I135000J0D01*
G01*
G37*
G36*
G01*
X94972000Y3011000D02*
X95342000Y3011000D01*
G75*
G02*
X95477000Y2876000I0J-135000D01*
G01*
X95477000Y2606000D01*
G75*
G02*
X95342000Y2471000I-135000J0D01*
G01*
X94972000Y2471000D01*
G75*
G02*
X94837000Y2606000I0J135000D01*
G01*
X94837000Y2876000D01*
G75*
G02*
X94972000Y3011000I135000J0D01*
G01*
G37*
%TD*%
%TO.C,R17*%
G36*
G01*
X93702000Y1991000D02*
X94072000Y1991000D01*
G75*
G02*
X94207000Y1856000I0J-135000D01*
G01*
X94207000Y1586000D01*
G75*
G02*
X94072000Y1451000I-135000J0D01*
G01*
X93702000Y1451000D01*
G75*
G02*
X93567000Y1586000I0J135000D01*
G01*
X93567000Y1856000D01*
G75*
G02*
X93702000Y1991000I135000J0D01*
G01*
G37*
G36*
G01*
X93702000Y3011000D02*
X94072000Y3011000D01*
G75*
G02*
X94207000Y2876000I0J-135000D01*
G01*
X94207000Y2606000D01*
G75*
G02*
X94072000Y2471000I-135000J0D01*
G01*
X93702000Y2471000D01*
G75*
G02*
X93567000Y2606000I0J135000D01*
G01*
X93567000Y2876000D01*
G75*
G02*
X93702000Y3011000I135000J0D01*
G01*
G37*
%TD*%
%TO.C,R16*%
G36*
G01*
X91035000Y1991000D02*
X91405000Y1991000D01*
G75*
G02*
X91540000Y1856000I0J-135000D01*
G01*
X91540000Y1586000D01*
G75*
G02*
X91405000Y1451000I-135000J0D01*
G01*
X91035000Y1451000D01*
G75*
G02*
X90900000Y1586000I0J135000D01*
G01*
X90900000Y1856000D01*
G75*
G02*
X91035000Y1991000I135000J0D01*
G01*
G37*
G36*
G01*
X91035000Y3011000D02*
X91405000Y3011000D01*
G75*
G02*
X91540000Y2876000I0J-135000D01*
G01*
X91540000Y2606000D01*
G75*
G02*
X91405000Y2471000I-135000J0D01*
G01*
X91035000Y2471000D01*
G75*
G02*
X90900000Y2606000I0J135000D01*
G01*
X90900000Y2876000D01*
G75*
G02*
X91035000Y3011000I135000J0D01*
G01*
G37*
%TD*%
%TO.C,R15*%
G36*
G01*
X89765000Y1991000D02*
X90135000Y1991000D01*
G75*
G02*
X90270000Y1856000I0J-135000D01*
G01*
X90270000Y1586000D01*
G75*
G02*
X90135000Y1451000I-135000J0D01*
G01*
X89765000Y1451000D01*
G75*
G02*
X89630000Y1586000I0J135000D01*
G01*
X89630000Y1856000D01*
G75*
G02*
X89765000Y1991000I135000J0D01*
G01*
G37*
G36*
G01*
X89765000Y3011000D02*
X90135000Y3011000D01*
G75*
G02*
X90270000Y2876000I0J-135000D01*
G01*
X90270000Y2606000D01*
G75*
G02*
X90135000Y2471000I-135000J0D01*
G01*
X89765000Y2471000D01*
G75*
G02*
X89630000Y2606000I0J135000D01*
G01*
X89630000Y2876000D01*
G75*
G02*
X89765000Y3011000I135000J0D01*
G01*
G37*
%TD*%
%TO.C,R14*%
G36*
G01*
X88495000Y1991000D02*
X88865000Y1991000D01*
G75*
G02*
X89000000Y1856000I0J-135000D01*
G01*
X89000000Y1586000D01*
G75*
G02*
X88865000Y1451000I-135000J0D01*
G01*
X88495000Y1451000D01*
G75*
G02*
X88360000Y1586000I0J135000D01*
G01*
X88360000Y1856000D01*
G75*
G02*
X88495000Y1991000I135000J0D01*
G01*
G37*
G36*
G01*
X88495000Y3011000D02*
X88865000Y3011000D01*
G75*
G02*
X89000000Y2876000I0J-135000D01*
G01*
X89000000Y2606000D01*
G75*
G02*
X88865000Y2471000I-135000J0D01*
G01*
X88495000Y2471000D01*
G75*
G02*
X88360000Y2606000I0J135000D01*
G01*
X88360000Y2876000D01*
G75*
G02*
X88495000Y3011000I135000J0D01*
G01*
G37*
%TD*%
%TO.C,R13*%
G36*
G01*
X124065000Y1991000D02*
X124435000Y1991000D01*
G75*
G02*
X124570000Y1856000I0J-135000D01*
G01*
X124570000Y1586000D01*
G75*
G02*
X124435000Y1451000I-135000J0D01*
G01*
X124065000Y1451000D01*
G75*
G02*
X123930000Y1586000I0J135000D01*
G01*
X123930000Y1856000D01*
G75*
G02*
X124065000Y1991000I135000J0D01*
G01*
G37*
G36*
G01*
X124065000Y3011000D02*
X124435000Y3011000D01*
G75*
G02*
X124570000Y2876000I0J-135000D01*
G01*
X124570000Y2606000D01*
G75*
G02*
X124435000Y2471000I-135000J0D01*
G01*
X124065000Y2471000D01*
G75*
G02*
X123930000Y2606000I0J135000D01*
G01*
X123930000Y2876000D01*
G75*
G02*
X124065000Y3011000I135000J0D01*
G01*
G37*
%TD*%
%TO.C,R12*%
G36*
G01*
X122150000Y1991000D02*
X122520000Y1991000D01*
G75*
G02*
X122655000Y1856000I0J-135000D01*
G01*
X122655000Y1586000D01*
G75*
G02*
X122520000Y1451000I-135000J0D01*
G01*
X122150000Y1451000D01*
G75*
G02*
X122015000Y1586000I0J135000D01*
G01*
X122015000Y1856000D01*
G75*
G02*
X122150000Y1991000I135000J0D01*
G01*
G37*
G36*
G01*
X122150000Y3011000D02*
X122520000Y3011000D01*
G75*
G02*
X122655000Y2876000I0J-135000D01*
G01*
X122655000Y2606000D01*
G75*
G02*
X122520000Y2471000I-135000J0D01*
G01*
X122150000Y2471000D01*
G75*
G02*
X122015000Y2606000I0J135000D01*
G01*
X122015000Y2876000D01*
G75*
G02*
X122150000Y3011000I135000J0D01*
G01*
G37*
%TD*%
%TO.C,R11*%
G36*
G01*
X120880000Y1991000D02*
X121250000Y1991000D01*
G75*
G02*
X121385000Y1856000I0J-135000D01*
G01*
X121385000Y1586000D01*
G75*
G02*
X121250000Y1451000I-135000J0D01*
G01*
X120880000Y1451000D01*
G75*
G02*
X120745000Y1586000I0J135000D01*
G01*
X120745000Y1856000D01*
G75*
G02*
X120880000Y1991000I135000J0D01*
G01*
G37*
G36*
G01*
X120880000Y3011000D02*
X121250000Y3011000D01*
G75*
G02*
X121385000Y2876000I0J-135000D01*
G01*
X121385000Y2606000D01*
G75*
G02*
X121250000Y2471000I-135000J0D01*
G01*
X120880000Y2471000D01*
G75*
G02*
X120745000Y2606000I0J135000D01*
G01*
X120745000Y2876000D01*
G75*
G02*
X120880000Y3011000I135000J0D01*
G01*
G37*
%TD*%
%TO.C,R10*%
G36*
G01*
X119610000Y1991000D02*
X119980000Y1991000D01*
G75*
G02*
X120115000Y1856000I0J-135000D01*
G01*
X120115000Y1586000D01*
G75*
G02*
X119980000Y1451000I-135000J0D01*
G01*
X119610000Y1451000D01*
G75*
G02*
X119475000Y1586000I0J135000D01*
G01*
X119475000Y1856000D01*
G75*
G02*
X119610000Y1991000I135000J0D01*
G01*
G37*
G36*
G01*
X119610000Y3011000D02*
X119980000Y3011000D01*
G75*
G02*
X120115000Y2876000I0J-135000D01*
G01*
X120115000Y2606000D01*
G75*
G02*
X119980000Y2471000I-135000J0D01*
G01*
X119610000Y2471000D01*
G75*
G02*
X119475000Y2606000I0J135000D01*
G01*
X119475000Y2876000D01*
G75*
G02*
X119610000Y3011000I135000J0D01*
G01*
G37*
%TD*%
%TO.C,R9*%
G36*
G01*
X118340000Y1991000D02*
X118710000Y1991000D01*
G75*
G02*
X118845000Y1856000I0J-135000D01*
G01*
X118845000Y1586000D01*
G75*
G02*
X118710000Y1451000I-135000J0D01*
G01*
X118340000Y1451000D01*
G75*
G02*
X118205000Y1586000I0J135000D01*
G01*
X118205000Y1856000D01*
G75*
G02*
X118340000Y1991000I135000J0D01*
G01*
G37*
G36*
G01*
X118340000Y3011000D02*
X118710000Y3011000D01*
G75*
G02*
X118845000Y2876000I0J-135000D01*
G01*
X118845000Y2606000D01*
G75*
G02*
X118710000Y2471000I-135000J0D01*
G01*
X118340000Y2471000D01*
G75*
G02*
X118205000Y2606000I0J135000D01*
G01*
X118205000Y2876000D01*
G75*
G02*
X118340000Y3011000I135000J0D01*
G01*
G37*
%TD*%
%TO.C,R8*%
G36*
G01*
X130849000Y1991000D02*
X131219000Y1991000D01*
G75*
G02*
X131354000Y1856000I0J-135000D01*
G01*
X131354000Y1586000D01*
G75*
G02*
X131219000Y1451000I-135000J0D01*
G01*
X130849000Y1451000D01*
G75*
G02*
X130714000Y1586000I0J135000D01*
G01*
X130714000Y1856000D01*
G75*
G02*
X130849000Y1991000I135000J0D01*
G01*
G37*
G36*
G01*
X130849000Y3011000D02*
X131219000Y3011000D01*
G75*
G02*
X131354000Y2876000I0J-135000D01*
G01*
X131354000Y2606000D01*
G75*
G02*
X131219000Y2471000I-135000J0D01*
G01*
X130849000Y2471000D01*
G75*
G02*
X130714000Y2606000I0J135000D01*
G01*
X130714000Y2876000D01*
G75*
G02*
X130849000Y3011000I135000J0D01*
G01*
G37*
%TD*%
%TO.C,R7*%
G36*
G01*
X129579000Y1991000D02*
X129949000Y1991000D01*
G75*
G02*
X130084000Y1856000I0J-135000D01*
G01*
X130084000Y1586000D01*
G75*
G02*
X129949000Y1451000I-135000J0D01*
G01*
X129579000Y1451000D01*
G75*
G02*
X129444000Y1586000I0J135000D01*
G01*
X129444000Y1856000D01*
G75*
G02*
X129579000Y1991000I135000J0D01*
G01*
G37*
G36*
G01*
X129579000Y3011000D02*
X129949000Y3011000D01*
G75*
G02*
X130084000Y2876000I0J-135000D01*
G01*
X130084000Y2606000D01*
G75*
G02*
X129949000Y2471000I-135000J0D01*
G01*
X129579000Y2471000D01*
G75*
G02*
X129444000Y2606000I0J135000D01*
G01*
X129444000Y2876000D01*
G75*
G02*
X129579000Y3011000I135000J0D01*
G01*
G37*
%TD*%
%TO.C,R6*%
G36*
G01*
X127293000Y1991000D02*
X127663000Y1991000D01*
G75*
G02*
X127798000Y1856000I0J-135000D01*
G01*
X127798000Y1586000D01*
G75*
G02*
X127663000Y1451000I-135000J0D01*
G01*
X127293000Y1451000D01*
G75*
G02*
X127158000Y1586000I0J135000D01*
G01*
X127158000Y1856000D01*
G75*
G02*
X127293000Y1991000I135000J0D01*
G01*
G37*
G36*
G01*
X127293000Y3011000D02*
X127663000Y3011000D01*
G75*
G02*
X127798000Y2876000I0J-135000D01*
G01*
X127798000Y2606000D01*
G75*
G02*
X127663000Y2471000I-135000J0D01*
G01*
X127293000Y2471000D01*
G75*
G02*
X127158000Y2606000I0J135000D01*
G01*
X127158000Y2876000D01*
G75*
G02*
X127293000Y3011000I135000J0D01*
G01*
G37*
%TD*%
%TO.C,R5*%
G36*
G01*
X126023000Y1991000D02*
X126393000Y1991000D01*
G75*
G02*
X126528000Y1856000I0J-135000D01*
G01*
X126528000Y1586000D01*
G75*
G02*
X126393000Y1451000I-135000J0D01*
G01*
X126023000Y1451000D01*
G75*
G02*
X125888000Y1586000I0J135000D01*
G01*
X125888000Y1856000D01*
G75*
G02*
X126023000Y1991000I135000J0D01*
G01*
G37*
G36*
G01*
X126023000Y3011000D02*
X126393000Y3011000D01*
G75*
G02*
X126528000Y2876000I0J-135000D01*
G01*
X126528000Y2606000D01*
G75*
G02*
X126393000Y2471000I-135000J0D01*
G01*
X126023000Y2471000D01*
G75*
G02*
X125888000Y2606000I0J135000D01*
G01*
X125888000Y2876000D01*
G75*
G02*
X126023000Y3011000I135000J0D01*
G01*
G37*
%TD*%
D11*
%TO.C,J3*%
X143226000Y-27654500D03*
X143226000Y-30194500D03*
X140686000Y-27654500D03*
X140686000Y-30194500D03*
X138146000Y-27654500D03*
X138146000Y-30194500D03*
X135606000Y-27654500D03*
X135606000Y-30194500D03*
X133066000Y-27654500D03*
X133066000Y-30194500D03*
X130526000Y-27654500D03*
X130526000Y-30194500D03*
X127986000Y-27654500D03*
X127986000Y-30194500D03*
X125446000Y-27654500D03*
X125446000Y-30194500D03*
X122906000Y-27654500D03*
X122906000Y-30194500D03*
X120366000Y-27654500D03*
X120366000Y-30194500D03*
X117826000Y-27654500D03*
X117826000Y-30194500D03*
X115286000Y-27654500D03*
X115286000Y-30194500D03*
X112746000Y-27654500D03*
X112746000Y-30194500D03*
X110206000Y-27654500D03*
X110206000Y-30194500D03*
X107666000Y-27654500D03*
X107666000Y-30194500D03*
X105126000Y-27654500D03*
X105126000Y-30194500D03*
X102586000Y-27654500D03*
X102586000Y-30194500D03*
X100046000Y-27654500D03*
X100046000Y-30194500D03*
X97506000Y-27654500D03*
X97506000Y-30194500D03*
X94966000Y-27654500D03*
X94966000Y-30194500D03*
X92426000Y-27654500D03*
X92426000Y-30194500D03*
X89886000Y-27654500D03*
X89886000Y-30194500D03*
X87346000Y-27654500D03*
X87346000Y-30194500D03*
X84806000Y-27654500D03*
X84806000Y-30194500D03*
X82266000Y-27654500D03*
D12*
X82266000Y-30194500D03*
%TD*%
D19*
%TO.C,J8*%
X140705000Y-12235000D03*
X140705000Y-5085000D03*
X144155000Y-5085000D03*
X144155000Y-12235000D03*
D20*
X141205000Y-7360000D03*
X141205000Y-8010000D03*
X141205000Y-8660000D03*
X141205000Y-9310000D03*
X141205000Y-9960000D03*
%TD*%
D21*
%TO.C,D5*%
X127986000Y-17560000D03*
X127986000Y-14760000D03*
%TD*%
D11*
%TO.C,J2*%
X139226000Y857000D03*
D12*
X139226000Y-1683000D03*
%TD*%
D11*
%TO.C,J7*%
X84920000Y2280000D03*
D12*
X82380000Y2280000D03*
%TD*%
%TO.C,FUSE1*%
G36*
G01*
X125691000Y-15389000D02*
X124441000Y-15389000D01*
G75*
G02*
X124191000Y-15139000I0J250000D01*
G01*
X124191000Y-14389000D01*
G75*
G02*
X124441000Y-14139000I250000J0D01*
G01*
X125691000Y-14139000D01*
G75*
G02*
X125941000Y-14389000I0J-250000D01*
G01*
X125941000Y-15139000D01*
G75*
G02*
X125691000Y-15389000I-250000J0D01*
G01*
G37*
G36*
G01*
X125691000Y-18189000D02*
X124441000Y-18189000D01*
G75*
G02*
X124191000Y-17939000I0J250000D01*
G01*
X124191000Y-17189000D01*
G75*
G02*
X124441000Y-16939000I250000J0D01*
G01*
X125691000Y-16939000D01*
G75*
G02*
X125941000Y-17189000I0J-250000D01*
G01*
X125941000Y-17939000D01*
G75*
G02*
X125691000Y-18189000I-250000J0D01*
G01*
G37*
%TD*%
D22*
%TO.C,H2*%
X143231891Y8231891D03*
X141800000Y8825000D03*
X140368109Y8231891D03*
X139775000Y6800000D03*
X140368109Y5368109D03*
X141800000Y4775000D03*
X143231891Y5368109D03*
X143825000Y6800000D03*
D23*
X141800000Y6800000D03*
%TD*%
D22*
%TO.C,H1*%
X85231891Y8231891D03*
X83800000Y8825000D03*
X82368109Y8231891D03*
X81775000Y6800000D03*
X82368109Y5368109D03*
X83800000Y4775000D03*
X85231891Y5368109D03*
X85825000Y6800000D03*
D23*
X83800000Y6800000D03*
%TD*%
D11*
%TO.C,J4*%
X83810000Y-820000D03*
X83810000Y-3360000D03*
X83810000Y-5900000D03*
X83810000Y-8440000D03*
D12*
X83810000Y-10980000D03*
%TD*%
D22*
%TO.C,H6*%
X143231891Y-40768109D03*
X141800000Y-40175000D03*
X140368109Y-40768109D03*
X139775000Y-42200000D03*
X140368109Y-43631891D03*
X141800000Y-44225000D03*
X143231891Y-43631891D03*
X143825000Y-42200000D03*
D23*
X141800000Y-42200000D03*
%TD*%
D22*
%TO.C,H5*%
X85231891Y-40768109D03*
X83800000Y-40175000D03*
X82368109Y-40768109D03*
X81775000Y-42200000D03*
X82368109Y-43631891D03*
X83800000Y-44225000D03*
X85231891Y-43631891D03*
X85825000Y-42200000D03*
D23*
X83800000Y-42200000D03*
%TD*%
D22*
%TO.C,H4*%
X143231891Y-14768109D03*
X141800000Y-14175000D03*
X140368109Y-14768109D03*
X139775000Y-16200000D03*
X140368109Y-17631891D03*
X141800000Y-18225000D03*
X143231891Y-17631891D03*
X143825000Y-16200000D03*
D23*
X141800000Y-16200000D03*
%TD*%
D22*
%TO.C,H3*%
X85231891Y-14768109D03*
X83800000Y-14175000D03*
X82368109Y-14768109D03*
X81775000Y-16200000D03*
X82368109Y-17631891D03*
X83800000Y-18225000D03*
X85231891Y-17631891D03*
X85825000Y-16200000D03*
D23*
X83800000Y-16200000D03*
%TD*%
%TO.C,D4*%
G36*
G01*
X141380000Y-20721250D02*
X141380000Y-21633750D01*
G75*
G02*
X141136250Y-21877500I-243750J0D01*
G01*
X140648750Y-21877500D01*
G75*
G02*
X140405000Y-21633750I0J243750D01*
G01*
X140405000Y-20721250D01*
G75*
G02*
X140648750Y-20477500I243750J0D01*
G01*
X141136250Y-20477500D01*
G75*
G02*
X141380000Y-20721250I0J-243750D01*
G01*
G37*
G36*
G01*
X143255000Y-20721250D02*
X143255000Y-21633750D01*
G75*
G02*
X143011250Y-21877500I-243750J0D01*
G01*
X142523750Y-21877500D01*
G75*
G02*
X142280000Y-21633750I0J243750D01*
G01*
X142280000Y-20721250D01*
G75*
G02*
X142523750Y-20477500I243750J0D01*
G01*
X143011250Y-20477500D01*
G75*
G02*
X143255000Y-20721250I0J-243750D01*
G01*
G37*
%TD*%
%TO.C,D3*%
G36*
G01*
X141380000Y-22626250D02*
X141380000Y-23538750D01*
G75*
G02*
X141136250Y-23782500I-243750J0D01*
G01*
X140648750Y-23782500D01*
G75*
G02*
X140405000Y-23538750I0J243750D01*
G01*
X140405000Y-22626250D01*
G75*
G02*
X140648750Y-22382500I243750J0D01*
G01*
X141136250Y-22382500D01*
G75*
G02*
X141380000Y-22626250I0J-243750D01*
G01*
G37*
G36*
G01*
X143255000Y-22626250D02*
X143255000Y-23538750D01*
G75*
G02*
X143011250Y-23782500I-243750J0D01*
G01*
X142523750Y-23782500D01*
G75*
G02*
X142280000Y-23538750I0J243750D01*
G01*
X142280000Y-22626250D01*
G75*
G02*
X142523750Y-22382500I243750J0D01*
G01*
X143011250Y-22382500D01*
G75*
G02*
X143255000Y-22626250I0J-243750D01*
G01*
G37*
%TD*%
%TO.C,D2*%
G36*
G01*
X142142000Y-1099750D02*
X142142000Y-2012250D01*
G75*
G02*
X141898250Y-2256000I-243750J0D01*
G01*
X141410750Y-2256000D01*
G75*
G02*
X141167000Y-2012250I0J243750D01*
G01*
X141167000Y-1099750D01*
G75*
G02*
X141410750Y-856000I243750J0D01*
G01*
X141898250Y-856000D01*
G75*
G02*
X142142000Y-1099750I0J-243750D01*
G01*
G37*
G36*
G01*
X144017000Y-1099750D02*
X144017000Y-2012250D01*
G75*
G02*
X143773250Y-2256000I-243750J0D01*
G01*
X143285750Y-2256000D01*
G75*
G02*
X143042000Y-2012250I0J243750D01*
G01*
X143042000Y-1099750D01*
G75*
G02*
X143285750Y-856000I243750J0D01*
G01*
X143773250Y-856000D01*
G75*
G02*
X144017000Y-1099750I0J-243750D01*
G01*
G37*
%TD*%
%TO.C,D1*%
G36*
G01*
X142254000Y2837250D02*
X142254000Y1924750D01*
G75*
G02*
X142010250Y1681000I-243750J0D01*
G01*
X141522750Y1681000D01*
G75*
G02*
X141279000Y1924750I0J243750D01*
G01*
X141279000Y2837250D01*
G75*
G02*
X141522750Y3081000I243750J0D01*
G01*
X142010250Y3081000D01*
G75*
G02*
X142254000Y2837250I0J-243750D01*
G01*
G37*
G36*
G01*
X144129000Y2837250D02*
X144129000Y1924750D01*
G75*
G02*
X143885250Y1681000I-243750J0D01*
G01*
X143397750Y1681000D01*
G75*
G02*
X143154000Y1924750I0J243750D01*
G01*
X143154000Y2837250D01*
G75*
G02*
X143397750Y3081000I243750J0D01*
G01*
X143885250Y3081000D01*
G75*
G02*
X144129000Y2837250I0J-243750D01*
G01*
G37*
%TD*%
D24*
%TO.C,S1*%
X130016000Y-21765000D03*
X130016000Y-23035000D03*
X137640000Y-23035000D03*
X137640000Y-21765000D03*
%TD*%
M02*
