M48
; DRILL file {KiCad (5.1.6-0-10_14)} date Thursday, August 12, 2021 at 07:25:50 PM
; FORMAT={-:-/ absolute / inch / decimal}
; #@! TF.CreationDate,2021-08-12T19:25:50+02:00
; #@! TF.GenerationSoftware,Kicad,Pcbnew,(5.1.6-0-10_14)
; #@! TF.FileFunction,Plated,1,2,PTH
FMAT,2
INCH
T1C0.0157
T2C0.0197
T3C0.0236
T4C0.0315
T5C0.0394
T6C0.0406
T7C0.0472
T8C0.0523
T9C0.1063
T10C0.1272
%
G90
G05
T1
X3.3919Y-1.1559
X3.4531Y-1.285
X3.4597Y-0.0299
X3.4627Y-0.4869
X3.5336Y-0.6839
X3.5387Y-0.5
X3.5456Y-0.7351
X3.5477Y-0.7919
X3.5613Y0.0361
X3.5655Y-0.9001
X3.5938Y-0.0645
X3.5975Y-1.7581
X3.6199Y-0.0256
X3.6584Y-0.8322
X3.6802Y-1.2764
X3.6885Y0.0358
X3.689Y-1.3608
X3.7894Y-1.5494
X3.7925Y-1.3201
X3.8028Y-1.2322
X3.8256Y0.0469
X3.8294Y-1.3323
X3.8494Y-0.7836
X3.8674Y0.0742
X3.9005Y-0.2799
X3.9056Y-1.0155
X3.9286Y-0.0699
X3.9393Y0.0308
X3.9423Y-0.9929
X3.951Y-0.5787
X3.9872Y-0.6319
X3.9951Y-0.3659
X4.0008Y0.1634
X4.0194Y-0.901
X4.0399Y0.0943
X4.0621Y-0.2682
X4.1862Y-1.1519
X4.187Y-1.33
X4.2682Y-0.5884
X4.2818Y0.1594
X4.3023Y-1.2467
X4.3062Y-0.3309
X4.339Y-1.3197
X4.3391Y-1.523
X4.3475Y-1.4226
X4.4251Y-1.5232
X4.4417Y-1.4413
X4.4817Y-0.0409
X4.486Y-0.9935
X4.4886Y0.0338
X4.4911Y-1.0491
X4.4911Y-1.3457
X4.4937Y-0.4689
X4.4985Y0.1632
X4.5014Y-1.2356
X4.5132Y-0.742
X4.5452Y0.1148
X4.55Y0.0089
X4.5761Y-0.0408
X4.602Y0.0781
X4.6316Y-0.8408
X4.6335Y-1.2449
X4.6401Y0.1554
X4.6462Y-0.4994
X4.6532Y-0.3786
X4.6861Y-0.5729
X4.7151Y-0.617
X4.7163Y0.0354
X4.7516Y-0.617
X4.7663Y0.0355
X4.7722Y-0.0633
X4.7847Y-0.9159
X4.7847Y-1.2579
X4.8163Y0.0089
X4.8547Y-1.2809
X4.8587Y-0.2529
X4.8672Y0.038
X4.9115Y-0.5836
X4.9128Y-0.3614
X4.9346Y0.0751
X4.968Y-0.3571
X4.9805Y-0.5512
X4.9837Y-0.7924
X4.9987Y0.0108
X5.0042Y-1.0169
X5.0045Y-0.3619
X5.0617Y-0.6749
X5.0743Y0.0674
X5.1007Y-0.5829
X5.1032Y-0.2504
X5.1359Y-1.4499
X5.159Y-0.0447
X5.1603Y-0.3877
X5.1931Y-0.9585
X5.2208Y-0.0112
X5.2399Y0.1555
X5.2487Y0.0811
X5.3637Y-0.1649
X5.3824Y-0.761
X5.4029Y0.1525
X5.4597Y-0.3065
X5.4969Y-0.2903
X5.5787Y0.0161
X5.6077Y-0.3665
T2
X3.2195Y-1.6614
X3.2428Y-1.605
X3.2428Y-1.7178
X3.2992Y-1.5817
X3.2992Y-1.7411
X3.3556Y-1.605
X3.3556Y-1.7178
X3.3789Y-1.6614
X3.2195Y0.2677
X3.2428Y0.3241
X3.2428Y0.2113
X3.2992Y0.3474
X3.2992Y0.188
X3.3556Y0.3241
X3.3556Y0.2113
X3.3789Y0.2677
X5.503Y-0.6378
X5.5263Y-0.5814
X5.5263Y-0.6942
X5.5827Y-0.5581
X5.5827Y-0.7175
X5.6391Y-0.5814
X5.6391Y-0.6942
X5.6624Y-0.6378
X3.2195Y-0.6378
X3.2428Y-0.5814
X3.2428Y-0.6942
X3.2992Y-0.5581
X3.2992Y-0.7175
X3.3556Y-0.5814
X3.3556Y-0.6942
X3.3789Y-0.6378
X5.503Y-1.6614
X5.5263Y-1.605
X5.5263Y-1.7178
X5.5827Y-1.5817
X5.5827Y-1.7411
X5.6391Y-1.605
X5.6391Y-1.7178
X5.6624Y-1.6614
X5.503Y0.2677
X5.5263Y0.3241
X5.5263Y0.2113
X5.5827Y0.3474
X5.5827Y0.188
X5.6391Y0.3241
X5.6391Y0.2113
X5.6624Y0.2677
T3
X3.247Y-1.0148
X3.5844Y-0.4667
X3.6887Y-0.1806
X3.7961Y-0.0655
X3.8641Y-0.1754
X3.8681Y-0.3575
X4.0952Y-0.9924
X4.3715Y-1.2356
X4.6348Y-0.0422
X4.7917Y-0.3577
X4.7985Y-0.1807
X4.9137Y-0.9256
X4.9561Y-0.9213
X5.0001Y-0.4681
X5.015Y-0.1935
X5.4535Y-0.7951
T4
X3.495Y-1.6019
X3.495Y-1.6806
X3.5737Y-1.6019
X3.5737Y-1.6806
X3.6524Y-1.6019
X3.6524Y-1.6806
X3.7312Y-1.6019
X3.7312Y-1.6806
X3.8099Y-1.6019
X3.8099Y-1.6806
X3.8887Y-1.6019
X3.8887Y-1.6806
X3.9674Y-1.6019
X3.9674Y-1.6806
X4.0461Y-1.6019
X4.0461Y-1.6806
X4.1249Y-1.6019
X4.1249Y-1.6806
X4.2036Y-1.6019
X4.2036Y-1.6806
X4.2824Y-1.6019
X4.2824Y-1.6806
X4.3611Y-1.6019
X4.3611Y-1.6806
X4.4398Y-1.6019
X4.4398Y-1.6806
X4.5186Y-1.6019
X4.5186Y-1.6806
X4.5973Y-1.6019
X4.5973Y-1.6806
X4.6761Y-1.6019
X4.6761Y-1.6806
X4.7548Y-1.6019
X4.7548Y-1.6806
X4.8335Y-1.6019
X4.8335Y-1.6806
X4.9123Y-1.6019
X4.9123Y-1.6806
X4.991Y-1.6019
X4.991Y-1.6806
X5.0698Y-1.6019
X5.0698Y-1.6806
X5.1485Y-1.6019
X5.1485Y-1.6806
X5.2272Y-1.6019
X5.2272Y-1.6806
X5.306Y-1.6019
X5.306Y-1.6806
X5.3847Y-1.6019
X5.3847Y-1.6806
X5.6547Y-1.2831
X5.6547Y-1.3619
X5.6547Y-1.4406
X5.6547Y-1.5194
T5
X3.2433Y0.0898
X3.3433Y0.0898
X5.4813Y0.0337
X5.4813Y-0.0663
X3.2996Y-0.0323
X3.2996Y-0.1323
X3.2996Y-0.2323
X3.2996Y-0.3323
X3.2996Y-0.4323
X3.4909Y0.3177
X3.4909Y0.2177
X3.5909Y0.3177
X3.5909Y0.2177
X3.6909Y0.3177
X3.6909Y0.2177
X3.7909Y0.3177
X3.7909Y0.2177
X3.8909Y0.3177
X3.8909Y0.2177
X3.9909Y0.3177
X3.9909Y0.2177
X4.0909Y0.3177
X4.0909Y0.2177
X4.1909Y0.3177
X4.1909Y0.2177
X4.2909Y0.3177
X4.2909Y0.2177
X4.3909Y0.3177
X4.3909Y0.2177
X4.4909Y0.3177
X4.4909Y0.2177
X4.5909Y0.3177
X4.5909Y0.2177
X4.6909Y0.3177
X4.6909Y0.2177
X4.7909Y0.3177
X4.7909Y0.2177
X4.8909Y0.3177
X4.8909Y0.2177
X4.9909Y0.3177
X4.9909Y0.2177
X5.0909Y0.3177
X5.0909Y0.2177
X5.1909Y0.3177
X5.1909Y0.2177
X5.2909Y0.3177
X5.2909Y0.2177
X5.3909Y0.3177
X5.3909Y0.2177
X3.2492Y-0.8071
X3.2492Y-0.9071
X3.3492Y-0.8071
X3.3492Y-0.9071
X3.4492Y-0.8071
X3.4492Y-0.9071
X3.2388Y-1.0888
X3.2388Y-1.1888
X3.3388Y-1.0888
X3.3388Y-1.1888
X3.4388Y-1.0888
X3.4388Y-1.1888
X3.5388Y-1.0888
X3.5388Y-1.1888
X3.6388Y-1.0888
X3.6388Y-1.1888
X3.7388Y-1.0888
X3.7388Y-1.1888
X3.8388Y-1.0888
X3.8388Y-1.1888
X3.9388Y-1.0888
X3.9388Y-1.1888
X4.0388Y-1.0888
X4.0388Y-1.1888
X4.1388Y-1.0888
X4.1388Y-1.1888
X4.2388Y-1.0888
X4.2388Y-1.1888
X4.3388Y-1.0888
X4.3388Y-1.1888
X4.4388Y-1.0888
X4.4388Y-1.1888
X4.5388Y-1.0888
X4.5388Y-1.1888
X4.6388Y-1.0888
X4.6388Y-1.1888
X4.7388Y-1.0888
X4.7388Y-1.1888
X4.8388Y-1.0888
X4.8388Y-1.1888
X4.9388Y-1.0888
X4.9388Y-1.1888
X5.0388Y-1.0888
X5.0388Y-1.1888
X5.1388Y-1.0888
X5.1388Y-1.1888
X5.2388Y-1.0888
X5.2388Y-1.1888
X5.3388Y-1.0888
X5.3388Y-1.1888
X5.4388Y-1.0888
X5.4388Y-1.1888
X5.5388Y-1.0888
X5.5388Y-1.1888
X5.6388Y-1.0888
X5.6388Y-1.1888
T6
X3.7867Y-1.3713
X3.8412Y-1.4831
X3.8957Y-1.3713
X3.9503Y-1.4831
X4.0048Y-1.3713
X4.0593Y-1.4831
X4.1139Y-1.3713
X4.1684Y-1.4831
X4.2229Y-1.3713
X4.2774Y-1.4831
X4.332Y-1.3713
X4.3865Y-1.4831
X4.441Y-1.3713
X4.4956Y-1.4831
X4.5501Y-1.3713
X4.6046Y-1.4831
X4.6591Y-1.3713
X4.7137Y-1.4831
X4.7682Y-1.3713
X4.8227Y-1.4831
X4.8772Y-1.3713
X4.9318Y-1.4831
X4.9863Y-1.3713
X5.0408Y-1.4831
X5.0954Y-1.3713
T7
X4.3947Y-0.6216
X4.3947Y-0.72
X4.3947Y-0.8185
X4.3947Y-0.9169
T8
X5.5396Y-0.2002
X5.5396Y-0.4817
X5.6754Y-0.2002
X5.6754Y-0.4817
T9
X3.2992Y-1.6614
X3.2992Y0.2677
X5.5827Y-0.6378
X3.2992Y-0.6378
X5.5827Y-1.6614
X5.5827Y0.2677
T10
X3.515Y-1.4272
X5.367Y-1.4272
T0
M30
