M48
; DRILL file {KiCad (5.1.12-1-10_14)} date 2021 December 07, Tuesday 01:39:35
; FORMAT={-:-/ absolute / inch / decimal}
; #@! TF.CreationDate,2021-12-07T01:39:35+01:00
; #@! TF.GenerationSoftware,Kicad,Pcbnew,(5.1.12-1-10_14)
; #@! TF.FileFunction,Plated,1,2,PTH
FMAT,2
INCH
T1C0.0157
T2C0.0197
T3C0.0236
T4C0.0315
T5C0.0394
T6C0.0406
T7C0.0472
T8C0.0523
T9C0.1063
T10C0.1272
%
G90
G05
T1
X0.326Y-1.849
X0.51Y-1.498
X0.6091Y-0.4684
X0.6148Y-1.5119
X0.654Y-0.8726
X0.6798Y-1.3263
X0.687Y-0.686
X0.7071Y-1.4309
X0.719Y-0.493
X0.73Y-1.001
X0.7363Y-1.46
X0.7769Y-1.5101
X0.788Y-0.643
X0.7934Y-1.3991
X0.8592Y-1.2366
X0.8915Y-0.6639
X0.9062Y-1.5008
X0.9068Y-0.3496
X0.9083Y-0.4397
X0.916Y-0.778
X0.9366Y-0.8179
X0.9503Y-0.3226
X0.964Y-1.787
X0.983Y-0.9957
X0.99Y-1.0333
X1.011Y-1.203
X1.0258Y-1.2735
X1.0459Y-0.1336
X1.0523Y-1.1435
X1.0562Y-1.3336
X1.0675Y-0.6224
X1.0915Y-0.4807
X1.105Y-1.031
X1.1296Y-0.7033
X1.1849Y-0.6677
X1.2167Y-1.492
X1.2415Y-0.6537
X1.259Y-1.314
X1.2817Y-0.352
X1.304Y-1.52
X1.306Y-0.782
X1.361Y-0.3176
X1.3749Y-0.5678
X1.3955Y-0.6766
X1.397Y-1.504
X1.421Y-0.479
X1.504Y-1.314
X1.517Y-1.485
X1.5226Y-1.2093
X1.5482Y-1.537
X1.5561Y-0.65
X1.5574Y-0.4677
X1.566Y-0.768
X1.6102Y-1.6504
X1.628Y-0.3638
X1.6336Y-1.0194
X1.6351Y-1.0607
X1.655Y-0.645
X1.676Y-1.097
X1.685Y-1.306
X1.6987Y-1.1835
X1.7074Y-0.4165
X1.712Y-0.3553
X1.7235Y-1.0039
X1.726Y-1.479
X1.747Y-0.499
X1.7525Y-1.3411
X1.7793Y-1.3092
X1.7848Y-0.3589
X1.7977Y-1.2131
X1.8061Y-1.1466
X1.836Y-0.768
X1.8485Y-1.3519
X1.8627Y-0.3623
X1.915Y-0.5161
X1.9439Y-1.4376
X1.9742Y-0.4779
X2.0093Y-0.4613
X2.0131Y-0.8724
X2.0319Y-0.6415
X2.065Y-1.141
X2.0681Y-0.4509
X2.1046Y-1.5434
X2.1309Y-0.4679
X2.173Y-1.022
X2.1803Y-0.3497
X2.207Y-0.665
X2.2152Y-0.5059
X2.221Y-1.989
X2.222Y-1.794
X2.314Y-0.3407
X2.319Y-0.815
X2.413Y-1.072
X2.4169Y-1.6501
X2.4686Y-0.3332
X2.4848Y-1.5053
X2.51Y-0.8041
X2.6233Y-0.8139
X2.6241Y-0.8712
T2
X0.2352Y-0.2362
X0.2352Y-1.1417
X0.2352Y-2.1654
X0.2586Y-0.1798
X0.2586Y-0.2926
X0.2586Y-1.0854
X0.2586Y-1.1981
X0.2586Y-2.109
X0.2586Y-2.2217
X0.315Y-0.1565
X0.315Y-0.3159
X0.315Y-1.062
X0.315Y-1.2215
X0.315Y-2.0856
X0.315Y-2.2451
X0.3713Y-0.1798
X0.3713Y-0.2926
X0.3713Y-1.0854
X0.3713Y-1.1981
X0.3713Y-2.109
X0.3713Y-2.2217
X0.3947Y-0.2362
X0.3947Y-1.1417
X0.3947Y-2.1654
X2.5187Y-0.2362
X2.5187Y-1.1417
X2.5187Y-2.1654
X2.5421Y-0.1798
X2.5421Y-0.2926
X2.5421Y-1.0854
X2.5421Y-1.1981
X2.5421Y-2.109
X2.5421Y-2.2217
X2.5984Y-0.1565
X2.5984Y-0.3159
X2.5984Y-1.062
X2.5984Y-1.2215
X2.5984Y-2.0856
X2.5984Y-2.2451
X2.6548Y-0.1798
X2.6548Y-0.2926
X2.6548Y-1.0854
X2.6548Y-1.1981
X2.6548Y-2.109
X2.6548Y-2.2217
X2.6781Y-0.2362
X2.6781Y-1.1417
X2.6781Y-2.1654
T3
X0.4095Y-0.7136
X0.6984Y-0.4223
X0.8353Y-1.306
X0.9684Y-1.1393
X1.189Y-0.4086
X1.5486Y-1.3454
X1.9111Y-0.9386
X1.9485Y-1.2022
X2.3776Y-0.4619
X2.4463Y-0.785
T4
X0.5107Y-2.1058
X0.5107Y-2.1846
X0.5894Y-2.1058
X0.5894Y-2.1846
X0.6682Y-2.1058
X0.6682Y-2.1846
X0.7469Y-2.1058
X0.7469Y-2.1846
X0.8257Y-2.1058
X0.8257Y-2.1846
X0.9044Y-2.1058
X0.9044Y-2.1846
X0.9831Y-2.1058
X0.9831Y-2.1846
X1.0619Y-2.1058
X1.0619Y-2.1846
X1.1406Y-2.1058
X1.1406Y-2.1846
X1.2194Y-2.1058
X1.2194Y-2.1846
X1.2981Y-2.1058
X1.2981Y-2.1846
X1.3769Y-2.1058
X1.3769Y-2.1846
X1.4556Y-2.1058
X1.4556Y-2.1846
X1.5343Y-2.1058
X1.5343Y-2.1846
X1.6131Y-2.1058
X1.6131Y-2.1846
X1.6918Y-2.1058
X1.6918Y-2.1846
X1.7706Y-2.1058
X1.7706Y-2.1846
X1.8493Y-2.1058
X1.8493Y-2.1846
X1.928Y-2.1058
X1.928Y-2.1846
X2.0068Y-2.1058
X2.0068Y-2.1846
X2.0855Y-2.1058
X2.0855Y-2.1846
X2.1643Y-2.1058
X2.1643Y-2.1846
X2.243Y-2.1058
X2.243Y-2.1846
X2.3217Y-2.1058
X2.3217Y-2.1846
X2.4005Y-2.1058
X2.4005Y-2.1846
X2.6705Y-1.7871
X2.6705Y-1.8658
X2.6705Y-1.9446
X2.6705Y-2.0233
T5
X0.2475Y-0.5358
X0.2475Y-0.6358
X0.2475Y-0.7358
X0.2475Y-0.8358
X0.2475Y-0.9358
X0.2546Y-1.5927
X0.2546Y-1.6927
X0.2591Y-0.4142
X0.265Y-1.311
X0.265Y-1.411
X0.3546Y-1.5927
X0.3546Y-1.6927
X0.3591Y-0.4142
X0.365Y-1.311
X0.365Y-1.411
X0.4546Y-1.5927
X0.4546Y-1.6927
X0.465Y-1.311
X0.465Y-1.411
X0.5067Y-0.1862
X0.5067Y-0.2862
X0.5546Y-1.5927
X0.5546Y-1.6927
X0.6067Y-0.1862
X0.6067Y-0.2862
X0.6546Y-1.5927
X0.6546Y-1.6927
X0.7067Y-0.1862
X0.7067Y-0.2862
X0.7546Y-1.5927
X0.7546Y-1.6927
X0.8067Y-0.1862
X0.8067Y-0.2862
X0.8546Y-1.5927
X0.8546Y-1.6927
X0.9067Y-0.1862
X0.9067Y-0.2862
X0.9546Y-1.5927
X0.9546Y-1.6927
X1.0067Y-0.1862
X1.0067Y-0.2862
X1.0546Y-1.5927
X1.0546Y-1.6927
X1.1067Y-0.1862
X1.1067Y-0.2862
X1.1546Y-1.5927
X1.1546Y-1.6927
X1.2067Y-0.1862
X1.2067Y-0.2862
X1.2546Y-1.5927
X1.2546Y-1.6927
X1.3067Y-0.1862
X1.3067Y-0.2862
X1.3546Y-1.5927
X1.3546Y-1.6927
X1.4067Y-0.1862
X1.4067Y-0.2862
X1.4546Y-1.5927
X1.4546Y-1.6927
X1.5067Y-0.1862
X1.5067Y-0.2862
X1.5546Y-1.5927
X1.5546Y-1.6927
X1.6067Y-0.1862
X1.6067Y-0.2862
X1.6546Y-1.5927
X1.6546Y-1.6927
X1.7067Y-0.1862
X1.7067Y-0.2862
X1.7546Y-1.5927
X1.7546Y-1.6927
X1.8067Y-0.1862
X1.8067Y-0.2862
X1.8546Y-1.5927
X1.8546Y-1.6927
X1.9067Y-0.1862
X1.9067Y-0.2862
X1.9546Y-1.5927
X1.9546Y-1.6927
X2.0067Y-0.1862
X2.0067Y-0.2862
X2.0546Y-1.5927
X2.0546Y-1.6927
X2.1067Y-0.1862
X2.1067Y-0.2862
X2.1546Y-1.5927
X2.1546Y-1.6927
X2.2067Y-0.1862
X2.2067Y-0.2862
X2.2546Y-1.5927
X2.2546Y-1.6927
X2.3067Y-0.1862
X2.3067Y-0.2862
X2.3546Y-1.5927
X2.3546Y-1.6927
X2.4067Y-0.1862
X2.4067Y-0.2862
X2.4135Y-1.2528
X2.4135Y-1.3528
X2.4546Y-1.5927
X2.4546Y-1.6927
X2.4971Y-0.4702
X2.4971Y-0.5702
X2.5546Y-1.5927
X2.5546Y-1.6927
X2.6546Y-1.5927
X2.6546Y-1.6927
T6
X0.8024Y-1.8752
X0.857Y-1.987
X0.9115Y-1.8752
X0.966Y-1.987
X1.0206Y-1.8752
X1.0751Y-1.987
X1.1296Y-1.8752
X1.1841Y-1.987
X1.2387Y-1.8752
X1.2932Y-1.987
X1.3477Y-1.8752
X1.4022Y-1.987
X1.4568Y-1.8752
X1.5113Y-1.987
X1.5658Y-1.8752
X1.6204Y-1.987
X1.6749Y-1.8752
X1.7294Y-1.987
X1.7839Y-1.8752
X1.8385Y-1.987
X1.893Y-1.8752
X1.9475Y-1.987
X2.002Y-1.8752
X2.0566Y-1.987
X2.1111Y-1.8752
T7
X1.4295Y-1.0796
X1.4295Y-1.178
X1.4295Y-1.2764
X1.4295Y-1.3748
T8
X2.5553Y-0.7041
X2.5553Y-0.9856
X2.6911Y-0.7041
X2.6911Y-0.9856
T9
X0.315Y-0.2362
X0.315Y-1.1417
X0.315Y-2.1654
X2.5984Y-0.2362
X2.5984Y-1.1417
X2.5984Y-2.1654
T10
X0.5308Y-1.9311
X2.3828Y-1.9311
T0
M30
