M48
; DRILL file {KiCad (5.1.6-0-10_14)} date Saturday, August 14, 2021 at 06:21:35 AM
; FORMAT={-:-/ absolute / inch / decimal}
; #@! TF.CreationDate,2021-08-14T06:21:35+02:00
; #@! TF.GenerationSoftware,Kicad,Pcbnew,(5.1.6-0-10_14)
; #@! TF.FileFunction,Plated,1,2,PTH
FMAT,2
INCH
T1C0.0157
T2C0.0197
T3C0.0236
T4C0.0315
T5C0.0394
T6C0.0406
T7C0.0472
T8C0.0523
T9C0.1063
T10C0.1272
%
G90
G05
T1
X3.2477Y-0.9939
X3.3927Y-0.1659
X3.4307Y-0.5269
X3.4728Y-1.5489
X3.5173Y-1.2697
X3.5457Y-0.2469
X3.5505Y-0.7729
X3.5635Y-0.9102
X3.567Y-0.8563
X3.5876Y0.0362
X3.5899Y-0.9797
X3.622Y0.0183
X3.6557Y-1.4519
X3.6654Y-0.8084
X3.6807Y-1.0309
X3.6865Y-0.3679
X3.6969Y-1.2767
X3.7019Y-0.7935
X3.7042Y-0.83
X3.7107Y-1.4929
X3.7334Y-1.2798
X3.7597Y-0.9429
X3.7826Y-0.7689
X3.7887Y-0.1489
X3.8017Y-0.8159
X3.8387Y-0.6549
X3.8509Y-0.5517
X3.8846Y-0.1727
X3.8927Y-0.8422
X3.9169Y-0.3359
X3.9508Y-0.7809
X3.9511Y-0.7394
X3.9768Y-0.5476
X3.9788Y0.0228
X3.9789Y-0.4972
X3.9807Y-0.9499
X3.9844Y-1.038
X4.0369Y-0.2933
X4.0457Y-0.7869
X4.0734Y-0.2973
X4.0781Y-1.3051
X4.0811Y-0.977
X4.107Y-0.245
X4.1337Y0.1531
X4.1497Y-0.4999
X4.1581Y0.0615
X4.2796Y-0.0025
X4.3321Y-1.2786
X4.3612Y-1.3222
X4.3686Y-1.2672
X4.374Y-0.0497
X4.4254Y-1.297
X4.4937Y-1.0159
X4.5139Y-1.2878
X4.5185Y-0.5507
X4.5327Y-0.1529
X4.5482Y-0.4987
X4.5563Y0.0165
X4.5828Y0.1634
X4.5952Y-0.144
X4.597Y0.0333
X4.6188Y0.0035
X4.6217Y-0.3349
X4.6217Y-0.6495
X4.6494Y-1.4545
X4.6605Y-0.5378
X4.7154Y0.0891
X4.7252Y-0.4909
X4.7397Y-0.1339
X4.7415Y-1.3074
X4.749Y-0.575
X4.7795Y-0.7681
X4.8159Y0.1449
X4.8197Y-0.2459
X4.8577Y-0.001
X4.8689Y0.1409
X4.8997Y-1.0119
X4.9108Y-0.7589
X4.9237Y0.0836
X4.9304Y-1.3233
X4.9568Y-0.7214
X4.9717Y-1.0199
X5.0248Y0.0267
X5.0524Y0.0753
X5.0612Y-0.7264
X5.0677Y-1.0029
X5.073Y-1.729
X5.0996Y0.1625
X5.1487Y-0.2729
X5.1896Y-0.4911
X5.1897Y-1.0089
X5.2137Y-1.4809
X5.2557Y-0.1429
X5.2887Y-1.0159
X5.3117Y-0.7929
X5.4103Y0.0868
X5.4537Y-0.9929
X5.4827Y-0.3815
X5.5357Y-0.9709
X5.608Y-0.3665
X5.6083Y-0.3143
T2
X3.2195Y-0.6378
X3.2428Y-0.5814
X3.2428Y-0.6942
X3.2992Y-0.5581
X3.2992Y-0.7175
X3.3556Y-0.5814
X3.3556Y-0.6942
X3.3789Y-0.6378
X3.2195Y0.2677
X3.2428Y0.3241
X3.2428Y0.2113
X3.2992Y0.3474
X3.2992Y0.188
X3.3556Y0.3241
X3.3556Y0.2113
X3.3789Y0.2677
X5.503Y-1.6614
X5.5263Y-1.605
X5.5263Y-1.7178
X5.5827Y-1.5817
X5.5827Y-1.7411
X5.6391Y-1.605
X5.6391Y-1.7178
X5.6624Y-1.6614
X5.503Y0.2677
X5.5263Y0.3241
X5.5263Y0.2113
X5.5827Y0.3474
X5.5827Y0.188
X5.6391Y0.3241
X5.6391Y0.2113
X5.6624Y0.2677
X3.2195Y-1.6614
X3.2428Y-1.605
X3.2428Y-1.7178
X3.2992Y-1.5817
X3.2992Y-1.7411
X3.3556Y-1.605
X3.3556Y-1.7178
X3.3789Y-1.6614
X5.503Y-0.6378
X5.5263Y-0.5814
X5.5263Y-0.6942
X5.5827Y-0.5581
X5.5827Y-0.7175
X5.6391Y-0.5814
X5.6391Y-0.6942
X5.6624Y-0.6378
T3
X3.9763Y0.1433
X4.3348Y-0.3636
X4.4843Y0.152
X4.8374Y-0.9647
X4.911Y-0.6924
X4.9443Y-0.1748
X4.9627Y-0.1283
X5.0533Y-0.7813
X5.2528Y0.0035
X5.3875Y-0.4982
X5.4957Y-0.7385
T4
X3.495Y-1.6019
X3.495Y-1.6806
X3.5737Y-1.6019
X3.5737Y-1.6806
X3.6524Y-1.6019
X3.6524Y-1.6806
X3.7312Y-1.6019
X3.7312Y-1.6806
X3.8099Y-1.6019
X3.8099Y-1.6806
X3.8887Y-1.6019
X3.8887Y-1.6806
X3.9674Y-1.6019
X3.9674Y-1.6806
X4.0461Y-1.6019
X4.0461Y-1.6806
X4.1249Y-1.6019
X4.1249Y-1.6806
X4.2036Y-1.6019
X4.2036Y-1.6806
X4.2824Y-1.6019
X4.2824Y-1.6806
X4.3611Y-1.6019
X4.3611Y-1.6806
X4.4398Y-1.6019
X4.4398Y-1.6806
X4.5186Y-1.6019
X4.5186Y-1.6806
X4.5973Y-1.6019
X4.5973Y-1.6806
X4.6761Y-1.6019
X4.6761Y-1.6806
X4.7548Y-1.6019
X4.7548Y-1.6806
X4.8335Y-1.6019
X4.8335Y-1.6806
X4.9123Y-1.6019
X4.9123Y-1.6806
X4.991Y-1.6019
X4.991Y-1.6806
X5.0698Y-1.6019
X5.0698Y-1.6806
X5.1485Y-1.6019
X5.1485Y-1.6806
X5.2272Y-1.6019
X5.2272Y-1.6806
X5.306Y-1.6019
X5.306Y-1.6806
X5.3847Y-1.6019
X5.3847Y-1.6806
X5.6547Y-1.2831
X5.6547Y-1.3619
X5.6547Y-1.4406
X5.6547Y-1.5194
T5
X3.2317Y-0.0319
X3.2317Y-0.1319
X3.2317Y-0.2319
X3.2317Y-0.3319
X3.2317Y-0.4319
X5.3977Y-0.7489
X5.3977Y-0.8489
X5.4813Y0.0337
X5.4813Y-0.0663
X3.2492Y-0.8071
X3.2492Y-0.9071
X3.3492Y-0.8071
X3.3492Y-0.9071
X3.4492Y-0.8071
X3.4492Y-0.9071
X3.2388Y-1.0888
X3.2388Y-1.1888
X3.3388Y-1.0888
X3.3388Y-1.1888
X3.4388Y-1.0888
X3.4388Y-1.1888
X3.5388Y-1.0888
X3.5388Y-1.1888
X3.6388Y-1.0888
X3.6388Y-1.1888
X3.7388Y-1.0888
X3.7388Y-1.1888
X3.8388Y-1.0888
X3.8388Y-1.1888
X3.9388Y-1.0888
X3.9388Y-1.1888
X4.0388Y-1.0888
X4.0388Y-1.1888
X4.1388Y-1.0888
X4.1388Y-1.1888
X4.2388Y-1.0888
X4.2388Y-1.1888
X4.3388Y-1.0888
X4.3388Y-1.1888
X4.4388Y-1.0888
X4.4388Y-1.1888
X4.5388Y-1.0888
X4.5388Y-1.1888
X4.6388Y-1.0888
X4.6388Y-1.1888
X4.7388Y-1.0888
X4.7388Y-1.1888
X4.8388Y-1.0888
X4.8388Y-1.1888
X4.9388Y-1.0888
X4.9388Y-1.1888
X5.0388Y-1.0888
X5.0388Y-1.1888
X5.1388Y-1.0888
X5.1388Y-1.1888
X5.2388Y-1.0888
X5.2388Y-1.1888
X5.3388Y-1.0888
X5.3388Y-1.1888
X5.4388Y-1.0888
X5.4388Y-1.1888
X5.5388Y-1.0888
X5.5388Y-1.1888
X5.6388Y-1.0888
X5.6388Y-1.1888
X3.2433Y0.0898
X3.3433Y0.0898
X3.4909Y0.3177
X3.4909Y0.2177
X3.5909Y0.3177
X3.5909Y0.2177
X3.6909Y0.3177
X3.6909Y0.2177
X3.7909Y0.3177
X3.7909Y0.2177
X3.8909Y0.3177
X3.8909Y0.2177
X3.9909Y0.3177
X3.9909Y0.2177
X4.0909Y0.3177
X4.0909Y0.2177
X4.1909Y0.3177
X4.1909Y0.2177
X4.2909Y0.3177
X4.2909Y0.2177
X4.3909Y0.3177
X4.3909Y0.2177
X4.4909Y0.3177
X4.4909Y0.2177
X4.5909Y0.3177
X4.5909Y0.2177
X4.6909Y0.3177
X4.6909Y0.2177
X4.7909Y0.3177
X4.7909Y0.2177
X4.8909Y0.3177
X4.8909Y0.2177
X4.9909Y0.3177
X4.9909Y0.2177
X5.0909Y0.3177
X5.0909Y0.2177
X5.1909Y0.3177
X5.1909Y0.2177
X5.2909Y0.3177
X5.2909Y0.2177
X5.3909Y0.3177
X5.3909Y0.2177
T6
X3.7867Y-1.3713
X3.8412Y-1.4831
X3.8957Y-1.3713
X3.9503Y-1.4831
X4.0048Y-1.3713
X4.0593Y-1.4831
X4.1139Y-1.3713
X4.1684Y-1.4831
X4.2229Y-1.3713
X4.2774Y-1.4831
X4.332Y-1.3713
X4.3865Y-1.4831
X4.441Y-1.3713
X4.4956Y-1.4831
X4.5501Y-1.3713
X4.6046Y-1.4831
X4.6591Y-1.3713
X4.7137Y-1.4831
X4.7682Y-1.3713
X4.8227Y-1.4831
X4.8772Y-1.3713
X4.9318Y-1.4831
X4.9863Y-1.3713
X5.0408Y-1.4831
X5.0954Y-1.3713
T7
X4.4137Y-0.5756
X4.4137Y-0.674
X4.4137Y-0.7725
X4.4137Y-0.8709
T8
X5.5396Y-0.2002
X5.5396Y-0.4817
X5.6754Y-0.2002
X5.6754Y-0.4817
T9
X5.5827Y-1.6614
X5.5827Y0.2677
X3.2992Y-1.6614
X5.5827Y-0.6378
X3.2992Y-0.6378
X3.2992Y0.2677
T10
X3.515Y-1.4272
X5.367Y-1.4272
T0
M30
